<?xml version="1.0" standalone="no"?>
<svg xmlns="http://www.w3.org/2000/svg" width="48" height="48"><rect width="48" height="48" opacity="0"></rect><g><path d="M19.01 36.38Q19.82 36.38 20.59 36.07Q21.36 35.76 21.94 35.18L43.06 14.16Q43.49 13.73 43.49 13.1Q43.49 12.48 43.06 12.05Q42.62 11.57 42 11.57Q41.38 11.57 40.9 12.05L19.78 33.07Q19.44 33.41 19.01 33.41Q18.58 33.41 18.24 33.07L7.06 21.98Q6.62 21.5 6 21.53Q5.38 21.55 4.94 21.98Q4.46 22.42 4.46 23.04Q4.46 23.66 4.94 24.1L16.13 35.18Q16.7 35.76 17.45 36.07Q18.19 36.38 19.01 36.38Z" fill="rgba(0,0,0,0.9019607843137255)"></path></g></svg>