<?xml version="1.0" standalone="no"?>
<svg xmlns="http://www.w3.org/2000/svg" width="48" height="48"><rect width="48" height="48" opacity="0"></rect><g><path d="M36 42Q39.22 42 41.98 40.39Q44.74 38.78 46.34 36.02Q47.95 33.26 47.95 30Q47.95 27.02 46.56 24.41Q45.17 21.79 42.74 20.14Q40.32 18.48 37.39 18.14Q36.53 14.64 34.3 11.88Q32.06 9.12 28.82 7.56Q25.58 6 21.94 6Q18.05 6 14.66 7.75Q11.28 9.5 9.05 12.58Q6.82 15.65 6.24 19.49Q3.36 21.07 1.68 23.9Q0 26.74 0 30Q0 33.26 1.63 36.02Q3.26 38.78 6.02 40.39Q8.78 42 12 42L36 42ZM21.94 8.98Q25.1 8.98 27.84 10.37Q30.58 11.76 32.4 14.23Q34.22 16.7 34.7 19.78Q34.75 20.3 35.18 20.66Q35.62 21.02 36.14 21.02Q38.54 21.07 40.58 22.27Q42.62 23.47 43.82 25.51Q45.02 27.55 45.02 30Q45.02 32.45 43.8 34.51Q42.58 36.58 40.51 37.8Q38.45 39.02 36 39.02L12 39.02Q9.55 39.02 7.49 37.8Q5.42 36.58 4.22 34.51Q3.02 32.45 3.02 30Q3.02 27.41 4.44 25.18Q5.86 22.94 8.26 21.84Q8.64 21.7 8.88 21.36Q9.12 21.02 9.12 20.64Q9.41 17.38 11.21 14.71Q13.01 12.05 15.84 10.51Q18.67 8.98 21.94 8.98Z" fill="rgba(0,0,0,0.9019607843137255)"></path></g></svg>