<?xml version="1.0" standalone="no"?>
<svg xmlns="http://www.w3.org/2000/svg" width="48" height="48"><rect width="48" height="48" opacity="0"></rect><g><path d="M25.49 22.51L25.49 6Q25.49 5.38 25.06 4.94Q24.62 4.51 24 4.51Q23.38 4.51 22.94 4.94Q22.51 5.38 22.51 6L22.51 22.51L6 22.51Q5.38 22.51 4.94 22.94Q4.51 23.38 4.51 24Q4.51 24.62 4.94 25.06Q5.38 25.49 6 25.49L22.51 25.49L22.51 42Q22.51 42.62 22.94 43.06Q23.38 43.49 24 43.49Q24.62 43.49 25.06 43.06Q25.49 42.62 25.49 42L25.49 25.49L42 25.49Q42.62 25.49 43.06 25.06Q43.49 24.62 43.49 24Q43.49 23.38 43.06 22.94Q42.62 22.51 42 22.51Z" fill="rgba(0,0,0,0.9019607843137255)"></path></g></svg>