<?xml version="1.0" standalone="no"?>
<svg xmlns="http://www.w3.org/2000/svg" width="48" height="48"><rect width="48" height="48" opacity="0"></rect><g><path d="M39.55 10.56Q39.98 10.08 39.98 9.48Q39.98 8.88 39.55 8.45Q39.12 7.97 38.5 7.97Q37.87 7.97 37.44 8.45L24 21.89L10.56 8.45Q10.13 7.97 9.5 7.97Q8.88 7.97 8.4 8.45Q8.02 8.88 8.02 9.48Q8.02 10.08 8.4 10.56L21.89 24L8.4 37.39Q8.02 37.87 8.02 38.5Q8.02 39.12 8.4 39.55Q8.88 39.94 9.5 39.96Q10.13 39.98 10.56 39.55L24 26.11L37.44 39.55Q37.87 39.98 38.5 39.98Q39.12 39.98 39.55 39.55Q39.98 39.12 39.98 38.5Q39.98 37.87 39.55 37.39L26.11 24L39.55 10.56Z" fill="rgba(0,0,0,0.9019607843137255)"></path></g></svg>