<svg width="16.000000" height="16.000000" viewBox="0 0 16 16" fill="none" xmlns="http://www.w3.org/2000/svg" xmlns:xlink="http://www.w3.org/1999/xlink">
	<desc>
			Created with Pixso.
	</desc>
	<defs/>
	<mask id="mask1430_156532" mask-type="alpha" maskUnits="userSpaceOnUse" x="1.333542" y="1.333496" width="12.737204" height="12.821058">
		<path id="形状" d="M6.91687 1.3335C10.0005 1.3335 12.5002 3.83325 12.5002 6.91675C12.5002 8.20532 12.0637 9.39209 11.3304 10.3369L11.1871 10.5142C11.1171 10.5972 11.0448 10.678 10.9702 10.7566L10.8794 10.8503L10.7596 10.9675L10.6705 11.0503L10.4447 11.2446L10.3205 11.343C9.37834 12.0686 8.198 12.5002 6.91687 12.5002C3.83328 12.5002 1.33354 10.0005 1.33354 6.91675C1.33354 3.83325 3.83328 1.3335 6.91687 1.3335ZM2.66675 6.91675C2.66675 4.56958 4.56955 2.66675 6.91675 2.66675C9.26396 2.66675 11.1667 4.56958 11.1667 6.91675C11.1667 9.26416 9.26396 11.1667 6.91675 11.1667C4.56955 11.1667 2.66675 9.26416 2.66675 6.91675ZM13.8755 13.0166L11.7449 10.8862C11.4618 11.23 11.1427 11.5432 10.7933 11.8198L12.9327 13.9592C13.193 14.2197 13.6151 14.2197 13.8755 13.9592C14.1358 13.699 14.1358 13.2769 13.8755 13.0166Z" clip-rule="evenodd" fill="#000000" fill-opacity="1.000000" fill-rule="evenodd"/>
	</mask>
	<g mask="url(#mask1430_156532)">
		<rect id="color/#000000" width="16.000000" height="16.000000" fill="#000000" fill-opacity="0.600000"/>
	</g>
</svg>
