<svg width="14.000000" height="14.000000" viewBox="0 0 14 14" fill="none" xmlns="http://www.w3.org/2000/svg" xmlns:xlink="http://www.w3.org/1999/xlink">
	<desc>
			Created with Pixso.
	</desc>
	<defs/>
	<g opacity="0.802104">
		<path id="path-1" d="M7.96338 0C9.67798 0 11.068 1.4104 11.068 3.1499C11.068 3.93628 10.7841 4.65503 10.3147 5.20703C9.98865 5.59033 9.573 5.89307 9.10083 6.08179L9.09399 6.08447L9.08386 6.08813C9.03992 6.10376 8.9917 6.08032 8.97632 6.03589C8.96973 6.01685 8.97009 5.99658 8.97656 5.97827L8.99084 5.95288C9.53418 5.28687 9.8606 4.43213 9.8606 3.5C9.8606 2.0752 9.09778 0.831055 7.96399 0.165283L7.94617 0.155029L7.92676 0.144043C7.89014 0.123535 7.87683 0.0769043 7.89709 0.0397949C7.9104 0.0151367 7.93579 0 7.96338 0ZM2.96167 3.5C2.96167 1.76025 4.35156 0.350098 6.06616 0.350098C7.78076 0.350098 9.17078 1.76025 9.17078 3.5C9.17078 5.23975 7.78076 6.6499 6.06616 6.6499C4.35156 6.6499 2.96167 5.23975 2.96167 3.5ZM14 12.425C14 9.76001 12.0431 7.55884 9.50916 7.22021L9.47131 7.22119C9.43457 7.22803 9.4021 7.25171 9.38464 7.28687C9.35437 7.34766 9.37854 7.42188 9.43848 7.45264L9.43921 7.45312L9.44006 7.45337C11.5438 8.53271 12.9652 10.5896 12.9652 12.95L12.9652 13.3L12.9637 13.3315C12.9592 13.3835 12.9435 13.4321 12.9189 13.4751L12.9652 13.4751L13.0039 13.4744C13.5575 13.4536 14 12.9917 14 12.425ZM6.06616 7.3501C9.8606 7.3501 11.3406 10.1174 11.7477 11.0444C11.8943 11.3784 12.0131 11.8196 12.104 12.3679C12.2302 13.1304 11.7235 13.8525 10.972 13.9807C10.8964 13.9934 10.8199 14 10.7433 14L1.37976 14C0.617798 14 0 13.3733 0 12.6001C0 12.5227 0.00634766 12.4456 0.0187988 12.3694C0.109131 11.8203 0.231079 11.3787 0.384766 11.0444C0.810669 10.1174 2.27173 7.3501 6.06616 7.3501Z" clip-rule="evenodd" fill="#000000" fill-opacity="0.400000" fill-rule="evenodd"/>
	</g>
</svg>
