<svg width="8.000000" height="8.000000" viewBox="0 0 8 8" fill="none" xmlns="http://www.w3.org/2000/svg" xmlns:xlink="http://www.w3.org/1999/xlink">
	<desc>
			Created with Pixso.
	</desc>
	<defs>
		<clipPath id="clip140_60747">
			<rect id="icon-大V" width="8.000000" height="8.000000" fill="white" fill-opacity="0"/>
		</clipPath>
	</defs>
	<g clip-path="url(#clip140_60747)">
		<path id="path" d="M0.3 3.99C0.3 4.06 0.3 4.12 0.31 4.18C0.31 4.24 0.31 4.3 0.32 4.36C0.33 4.42 0.33 4.48 0.34 4.54C0.35 4.6 0.36 4.66 0.37 4.72C0.39 4.77 0.4 4.83 0.41 4.89C0.43 4.95 0.44 5.01 0.46 5.07C0.48 5.12 0.5 5.18 0.52 5.24C0.54 5.3 0.56 5.35 0.58 5.41C0.61 5.46 0.63 5.52 0.66 5.57C0.68 5.63 0.71 5.68 0.74 5.74C0.77 5.79 0.8 5.84 0.83 5.89C0.86 5.95 0.89 6 0.92 6.05C0.96 6.1 0.99 6.15 1.03 6.2C1.06 6.24 1.1 6.29 1.14 6.34C1.18 6.38 1.22 6.43 1.26 6.48C1.3 6.52 1.34 6.56 1.38 6.61C1.43 6.65 1.47 6.69 1.51 6.73C1.56 6.77 1.61 6.81 1.65 6.85C1.7 6.89 1.75 6.93 1.8 6.96C1.84 7 1.89 7.03 1.94 7.07C1.99 7.1 2.04 7.13 2.1 7.16C2.15 7.19 2.2 7.22 2.25 7.25C2.31 7.28 2.36 7.31 2.42 7.33C2.47 7.36 2.53 7.38 2.58 7.41C2.64 7.43 2.69 7.45 2.75 7.47C2.81 7.49 2.87 7.51 2.92 7.53C2.98 7.55 3.04 7.56 3.1 7.58C3.16 7.59 3.22 7.61 3.27 7.62C3.33 7.63 3.39 7.64 3.45 7.65C3.51 7.66 3.57 7.66 3.63 7.67C3.69 7.68 3.75 7.68 3.81 7.68C3.87 7.69 3.93 7.69 3.99 7.69C4.06 7.69 4.12 7.69 4.18 7.68C4.24 7.68 4.3 7.68 4.36 7.67C4.42 7.66 4.48 7.66 4.54 7.65C4.6 7.64 4.66 7.63 4.72 7.62C4.77 7.61 4.83 7.59 4.89 7.58C4.95 7.56 5.01 7.55 5.07 7.53C5.12 7.51 5.18 7.49 5.24 7.47C5.3 7.45 5.35 7.43 5.41 7.41C5.46 7.38 5.52 7.36 5.57 7.33C5.63 7.31 5.68 7.28 5.74 7.25C5.79 7.22 5.84 7.19 5.89 7.16C5.95 7.13 6 7.1 6.05 7.07C6.1 7.03 6.15 7 6.19 6.96C6.24 6.93 6.29 6.89 6.34 6.85C6.38 6.81 6.43 6.77 6.47 6.73C6.52 6.69 6.56 6.65 6.61 6.61C6.65 6.56 6.69 6.52 6.73 6.48C6.77 6.43 6.81 6.38 6.85 6.34C6.89 6.29 6.93 6.24 6.96 6.2C7 6.15 7.03 6.1 7.07 6.05C7.1 6 7.13 5.95 7.16 5.89C7.19 5.84 7.22 5.79 7.25 5.74C7.28 5.68 7.31 5.63 7.33 5.57C7.36 5.52 7.38 5.46 7.41 5.41C7.43 5.35 7.45 5.3 7.47 5.24C7.49 5.18 7.51 5.12 7.53 5.07C7.55 5.01 7.56 4.95 7.58 4.89C7.59 4.83 7.6 4.77 7.62 4.72C7.63 4.66 7.64 4.6 7.65 4.54C7.66 4.48 7.66 4.42 7.67 4.36C7.68 4.3 7.68 4.24 7.68 4.18C7.69 4.12 7.69 4.06 7.69 3.99C7.69 3.93 7.69 3.87 7.68 3.81C7.68 3.75 7.68 3.69 7.67 3.63C7.66 3.57 7.66 3.51 7.65 3.45C7.64 3.39 7.63 3.33 7.62 3.27C7.6 3.22 7.59 3.16 7.58 3.1C7.56 3.04 7.55 2.98 7.53 2.92C7.51 2.87 7.49 2.81 7.47 2.75C7.45 2.69 7.43 2.64 7.41 2.58C7.38 2.53 7.36 2.47 7.33 2.42C7.31 2.36 7.28 2.31 7.25 2.25C7.22 2.2 7.19 2.15 7.16 2.1C7.13 2.04 7.1 1.99 7.06 1.94C7.03 1.89 7 1.84 6.96 1.8C6.92 1.75 6.89 1.7 6.85 1.65C6.81 1.61 6.77 1.56 6.73 1.52C6.69 1.47 6.65 1.43 6.61 1.38C6.56 1.34 6.52 1.3 6.47 1.26C6.43 1.22 6.38 1.18 6.34 1.14C6.29 1.1 6.24 1.07 6.19 1.03C6.15 0.99 6.1 0.96 6.05 0.92C6 0.89 5.94 0.86 5.89 0.83C5.84 0.8 5.79 0.77 5.74 0.74C5.68 0.71 5.63 0.68 5.57 0.66C5.52 0.63 5.46 0.61 5.41 0.58C5.35 0.56 5.3 0.54 5.24 0.52C5.18 0.5 5.12 0.48 5.07 0.46C5.01 0.44 4.95 0.43 4.89 0.41C4.83 0.4 4.77 0.39 4.72 0.37C4.66 0.36 4.6 0.35 4.54 0.34C4.48 0.33 4.42 0.33 4.36 0.32C4.3 0.31 4.24 0.31 4.18 0.31C4.12 0.3 4.06 0.3 3.99 0.3C3.93 0.3 3.87 0.3 3.81 0.31C3.75 0.31 3.69 0.31 3.63 0.32C3.57 0.33 3.51 0.33 3.45 0.34C3.39 0.35 3.33 0.36 3.27 0.37C3.22 0.39 3.16 0.4 3.1 0.41C3.04 0.43 2.98 0.44 2.92 0.46C2.87 0.48 2.81 0.5 2.75 0.52C2.69 0.54 2.64 0.56 2.58 0.58C2.53 0.61 2.47 0.63 2.42 0.66C2.36 0.68 2.31 0.71 2.25 0.74C2.2 0.77 2.15 0.8 2.1 0.83C2.04 0.86 1.99 0.89 1.94 0.92C1.89 0.96 1.84 0.99 1.8 1.03C1.75 1.07 1.7 1.1 1.65 1.14C1.61 1.18 1.56 1.22 1.52 1.26C1.47 1.3 1.43 1.34 1.38 1.38C1.34 1.43 1.3 1.47 1.26 1.52C1.22 1.56 1.18 1.61 1.14 1.65C1.1 1.7 1.07 1.75 1.03 1.8C0.99 1.84 0.96 1.89 0.92 1.94C0.89 1.99 0.86 2.04 0.83 2.1C0.8 2.15 0.77 2.2 0.74 2.25C0.71 2.31 0.68 2.36 0.66 2.42C0.63 2.47 0.61 2.53 0.58 2.58C0.56 2.64 0.54 2.69 0.52 2.75C0.5 2.81 0.48 2.87 0.46 2.92C0.44 2.98 0.43 3.04 0.41 3.1C0.4 3.16 0.39 3.22 0.37 3.27C0.36 3.33 0.35 3.39 0.34 3.45C0.33 3.51 0.33 3.57 0.32 3.63C0.31 3.69 0.31 3.75 0.31 3.81C0.3 3.87 0.3 3.93 0.3 3.99Z" fill="#FFAD00" fill-opacity="1.000000" fill-rule="nonzero"/>
		<path id="path" d="M5.5 4.36C5.26 4.7 4.92 5.13 4.61 5.38C4.39 5.56 3.99 5.84 3.66 5.78C2.83 5.66 3.01 3.75 2.46 3.32C2.21 3.26 2.09 3.63 1.93 3.41C1.75 3.23 2.18 2.92 2.39 2.73C2.67 2.52 2.76 2.43 3.13 2.55C3.81 2.8 3.35 4.49 3.99 4.83C4.33 4.58 5.26 3.63 5.19 3.1C5.13 2.92 4.89 2.92 4.7 2.95C4.76 2.58 4.89 2.52 5.19 2.4C5.32 2.33 5.99 2.21 6.06 2.83C6.12 3.5 5.5 4.36 5.5 4.36Z" fill="#FFFFFF" fill-opacity="1.000000" fill-rule="nonzero"/>
	</g>
</svg>
