<?xml version="1.0" encoding="UTF-8"?>
<svg width="56px" height="56px" viewBox="0 0 56 56" version="1.1" xmlns="http://www.w3.org/2000/svg" xmlns:xlink="http://www.w3.org/1999/xlink">
    <title>已登录-用于展示</title>
    <defs>
        <linearGradient x1="50%" y1="0%" x2="50%" y2="100%" id="linearGradient-1">
            <stop stop-color="#FFFFFF" stop-opacity="0.6" offset="0%"></stop>
            <stop stop-color="#FFFFFF" stop-opacity="0.2" offset="100%"></stop>
        </linearGradient>
    </defs>
    <g id="已登录-用于展示" stroke="none" stroke-width="1" fill="none" fill-rule="evenodd">
        <g id="编组-14">
            <circle id="background" fill="#999999" cx="28" cy="28" r="28"></circle>
            <g id="默认头像/又双叒优化/叠加渐变白：20%-40%" fill="url(#linearGradient-1)">
                <circle id="background" cx="28" cy="28" r="28"></circle>
            </g>
            <g id="亲" transform="translate(16.144000, 15.628000)" fill="#FFFFFF" fill-rule="nonzero">
                <path d="M17.16,16.64 C18.044,17.1946667 19.136,17.9183333 20.436,18.811 C21.736,19.7036667 22.7586667,20.436 23.504,21.008 L21.658,23.634 C20.7566667,22.906 19.6733333,22.0913333 18.408,21.19 C17.1426667,20.2886667 16.016,19.526 15.028,18.902 L16.64,16.64 L13.78,16.64 L13.78,20.982 C13.78,21.8313333 13.689,22.4856667 13.507,22.945 C13.325,23.4043333 13.0086667,23.7336667 12.558,23.933 C12.1073333,24.1323333 11.466,24.2406667 10.634,24.258 C9.52466667,24.258 8.58,24.2146667 7.8,24.128 L7.15,20.982 C7.982,21.1206667 8.788,21.19 9.568,21.19 C9.96666667,21.19 10.2353333,21.0946667 10.374,20.904 C10.5126667,20.7133333 10.582,20.332 10.582,19.76 L10.582,16.64 L6.578,16.64 L8.346,18.46 C7.566,19.2746667 6.56066667,20.1846667 5.33,21.19 C4.09933333,22.1953333 2.90333333,23.0966667 1.742,23.894 L0,21.216 C0.970666667,20.6266667 1.976,19.9203333 3.016,19.097 C4.056,18.2736667 5.00066667,17.4546667 5.85,16.64 L1.17,16.64 L1.17,13.806 L10.582,13.806 L10.582,11.778 L0.312,11.778 L0.312,8.814 L6.162,8.814 C5.954,7.91266667 5.78933333,7.23666667 5.668,6.786 L5.382,5.642 L1.664,5.642 L1.664,2.704 L10.374,2.704 C10.0966667,1.95866667 9.79333333,1.23933333 9.464,0.546 L12.766,0 C13.1473333,0.797333333 13.52,1.69866667 13.884,2.704 L22.022,2.704 L22.022,5.642 L18.252,5.642 C18.148,6.214 17.9486667,7.27133333 17.654,8.814 L23.322,8.814 L23.322,11.778 L13.78,11.778 L13.78,13.806 L22.542,13.806 L22.542,16.64 L17.16,16.64 Z M8.58,5.642 L9.438,8.814 L14.56,8.814 L15.21,5.642 L8.58,5.642 Z" id="形状"></path>
            </g>
        </g>
    </g>
</svg>