<?xml version="1.0" encoding="UTF-8"?>
<svg width="56px"
     height="56px"
     viewBox="0 0 56 56"
     version="1.1"
     xmlns="http://www.w3.org/2000/svg"
     xmlns:xlink="http://www.w3.org/1999/xlink">
    <title>编组备份</title>
    <defs>
        <path
            d="M15.6285919,21.6209621 C15.2361218,19.9132506 15.7555217,18.1245532 17.0022372,16.8879614 C17.6945108,16.110549 18.3497957,15.6626608 18.9680918,15.5442969 C19.895536,15.366751 20.8451735,15.7327448 21.4350467,16.4659004 L23.441947,18.9467206 C23.5423728,19.0696545 23.6210445,19.1653386 23.6689137,19.2225173 L23.7127748,19.2739295 C24.4734069,20.1308293 24.4535081,21.4183409 23.6785171,22.2508418 L23.6232231,22.3081738 L22.2682669,23.5864266 C21.7297886,24.1233473 21.6336178,24.958514 22.0362112,25.6028967 C22.8169617,26.8589038 24.279944,28.5523706 25.8775553,30.122358 C27.4476294,31.720056 29.1410962,33.1830383 30.3971033,33.9637888 C31.041486,34.3663822 31.8766527,34.2702114 32.4135734,33.7317331 L33.6918262,32.3767769 L33.7491582,32.3214829 C34.559159,31.5674376 35.7999079,31.5282203 36.655666,32.2272622 L36.8713294,32.408893 C37.3622612,32.813431 38.898698,34.0537299 39.5340996,34.5649533 C40.2672552,35.1548265 40.633249,36.104464 40.4557031,37.0319082 C40.3373392,37.6502043 39.889451,38.3054892 39.1120386,38.9977628 C37.8754468,40.2444783 36.0867494,40.7638782 34.3790379,40.3714081 C30.7423984,39.5265496 26.4420055,36.6763761 22.8647511,33.1353357 C19.3236239,29.5579945 16.4734504,25.2576016 15.6285919,21.6209621 Z"
            id="path-1"></path>
    </defs>
    <g
        id="页面-1"
        stroke="none"
        stroke-width="1"
        fill="none"
        fill-rule="evenodd">
        <circle
            id="backplane/round"
            fill="#64BB5C"
            cx="28"
            cy="28"
            r="28"></circle>
        <mask
            id="mask-2"
            fill="white">
            <use xlink:href="#path-1"></use>
        </mask>
        <use
            id="路径"
            fill="#FFFFFF"
            xlink:href="#path-1"></use>
    </g>
</svg>