<?xml version="1.0" standalone="no"?><!DOCTYPE svg PUBLIC "-//W3C//DTD SVG 1.1//EN" "http://www.w3.org/Graphics/SVG/1.1/DTD/svg11.dtd"><svg t="1730874167008" class="icon" viewBox="0 0 1024 1024" version="1.1" xmlns="http://www.w3.org/2000/svg" p-id="6912" xmlns:xlink="http://www.w3.org/1999/xlink" width="200" height="200"><path d="M719.36 884.992A424.917333 424.917333 0 0 1 512 938.666667C276.352 938.666667 85.333333 747.648 85.333333 512S276.352 85.333333 512 85.333333s426.666667 191.018667 426.666667 426.666667a424.917333 424.917333 0 0 1-53.674667 207.36l15.061333 180.693333-180.736-15.061333z m-19.968-87.296l107.221333 8.96-8.96-107.264 7.125334-11.818667a341.333333 341.333333 0 1 0-117.205334 117.205334l11.818667-7.082667zM512 725.248a42.666667 42.666667 0 1 1 0-85.333333 42.666667 42.666667 0 0 1 0 85.333333zM554.666667 597.333333h-85.333334v-42.666666c0-31.445333 16.341333-55.466667 41.685334-75.562667 7.68-6.058667 9.941333-7.594667 23.765333-16.341333A42.666667 42.666667 0 1 0 469.333333 426.666667H384a128 128 0 1 1 196.48 108.16c-10.794667 6.826667-12.117333 7.722667-16.426667 11.093333-6.997333 5.546667-9.386667 9.088-9.386666 8.746667v42.666666z" p-id="6913"></path></svg>