<svg width="21.979980" height="21.979980" viewBox="0 0 21.98 21.98" fill="none" xmlns="http://www.w3.org/2000/svg" xmlns:xlink="http://www.w3.org/1999/xlink">
	<desc>
			Created with Pixso.
	</desc>
	<defs/>
	<path id="path" d="M10.99 1.48C12.7 1.48 14.28 1.91 15.74 2.77C17.2 3.62 18.35 4.78 19.2 6.23C20.06 7.69 20.49 9.27 20.49 10.99C20.49 12.7 20.06 14.28 19.2 15.74C18.35 17.2 17.2 18.35 15.74 19.2C14.28 20.06 12.7 20.49 10.99 20.49C9.27 20.49 7.69 20.06 6.23 19.2C4.78 18.35 3.62 17.2 2.77 15.74C1.91 14.28 1.48 12.7 1.48 10.99C1.48 9.27 1.91 7.69 2.77 6.23C3.62 4.78 4.78 3.62 6.23 2.77C7.69 1.91 9.27 1.48 10.99 1.48ZM10.99 0C8.98 0 7.15 0.48 5.46 1.46C3.79 2.45 2.45 3.79 1.46 5.46C0.48 7.15 0 8.98 0 10.99C0 12.97 0.48 14.81 1.46 16.5C2.45 18.18 3.79 19.52 5.47 20.51C7.16 21.49 9 21.98 10.99 21.98C12.97 21.98 14.81 21.49 16.5 20.51C18.18 19.52 19.52 18.18 20.51 16.5C21.49 14.81 21.98 12.97 21.98 10.99C21.98 8.98 21.49 7.15 20.51 5.46C19.52 3.79 18.18 2.45 16.51 1.46C14.83 0.48 12.99 0 10.99 0Z" fill="#000000" fill-opacity="0.901961" fill-rule="nonzero"/>
	<path id="path" d="M15.26 7.77C15.4 7.6 15.48 7.42 15.48 7.22C15.48 7.03 15.4 6.85 15.26 6.71C15.12 6.55 14.94 6.47 14.73 6.47C14.52 6.47 14.35 6.55 14.21 6.71L10.99 9.92L7.77 6.71C7.63 6.55 7.45 6.47 7.25 6.47C7.03 6.47 6.85 6.55 6.71 6.71C6.57 6.85 6.5 7.03 6.5 7.22C6.5 7.42 6.57 7.6 6.71 7.77L9.93 10.99L6.71 14.21C6.57 14.35 6.5 14.52 6.5 14.73C6.5 14.94 6.57 15.12 6.71 15.26C6.84 15.4 7.02 15.48 7.26 15.48C7.49 15.48 7.66 15.4 7.77 15.26L10.99 12.04L14.21 15.26C14.33 15.4 14.51 15.48 14.75 15.48C14.97 15.48 15.14 15.4 15.26 15.26C15.4 15.12 15.48 14.94 15.48 14.73C15.48 14.52 15.4 14.35 15.26 14.21L12.05 10.99L15.26 7.77Z" fill="#000000" fill-opacity="0.901961" fill-rule="nonzero"/>
</svg>
