<svg width="24.000000" height="24.000000" viewBox="0 0 24 24" fill="none" xmlns="http://www.w3.org/2000/svg" xmlns:xlink="http://www.w3.org/1999/xlink">
	<desc>
			Created with Pixso.
	</desc>
	<defs>
		<clipPath id="clip5_571">
			<rect id="trash" width="24.000000" height="24.000000" fill="white" fill-opacity="0"/>
		</clipPath>
	</defs>
	<g clip-path="url(#clip5_571)">
		<g opacity="0.000000">
			<rect id="rect" width="24.000000" height="24.000000" fill="#000000" fill-opacity="1.000000"/>
		</g>
		<path id="path" d="M8.94 5.69C9.14 5.69 9.31 5.61 9.45 5.47C9.59 5.33 9.66 5.15 9.66 4.94C9.66 4.51 9.78 4.11 10 3.73C10.21 3.35 10.5 3.06 10.88 2.84C11.26 2.62 11.66 2.52 12.1 2.52C12.52 2.52 12.92 2.62 13.3 2.84C13.68 3.06 13.98 3.35 14.2 3.73C14.41 4.11 14.52 4.51 14.52 4.94C14.52 5.15 14.59 5.33 14.74 5.47C14.88 5.61 15.05 5.69 15.26 5.69L21 5.69C21.2 5.69 21.38 5.61 21.53 5.47C21.66 5.33 21.74 5.15 21.74 4.94C21.74 4.73 21.66 4.56 21.53 4.42C21.38 4.27 21.2 4.2 21 4.2L15.91 4.2C15.75 3.3 15.3 2.56 14.59 1.96C13.87 1.36 13.03 1.06 12.06 1.06C11.13 1.06 10.3 1.36 9.58 1.96C8.87 2.56 8.43 3.3 8.26 4.2L2.97 4.2C2.76 4.2 2.58 4.27 2.44 4.42C2.3 4.56 2.22 4.73 2.22 4.94C2.22 5.15 2.3 5.33 2.44 5.47C2.58 5.61 2.76 5.69 2.97 5.69L8.94 5.69ZM13.85 18.14C14.05 18.14 14.23 18.07 14.38 17.94C14.52 17.8 14.6 17.63 14.62 17.42L14.86 10.06C14.87 9.84 14.8 9.66 14.65 9.52C14.49 9.36 14.31 9.28 14.11 9.26C13.91 9.26 13.75 9.33 13.61 9.47C13.46 9.6 13.39 9.77 13.39 9.98L13.1 17.35C13.08 17.55 13.15 17.73 13.3 17.89C13.46 18.04 13.64 18.12 13.85 18.14ZM10.17 18.14C10.38 18.12 10.56 18.04 10.72 17.89C10.86 17.73 10.93 17.55 10.91 17.35L10.61 9.98C10.61 9.77 10.54 9.6 10.4 9.47C10.26 9.33 10.08 9.26 9.85 9.26C9.65 9.28 9.47 9.36 9.33 9.52C9.19 9.66 9.12 9.84 9.14 10.06L9.41 17.42C9.44 17.63 9.52 17.8 9.66 17.94C9.79 18.07 9.96 18.14 10.17 18.14ZM17.54 20.21C17.49 20.57 17.34 20.87 17.09 21.11C16.83 21.34 16.52 21.46 16.17 21.46L7.81 21.46C7.47 21.46 7.16 21.34 6.9 21.11C6.63 20.87 6.48 20.57 6.45 20.21L5.41 7.01L3.95 7.01L4.98 20.35C5.02 20.85 5.17 21.29 5.43 21.68C5.69 22.07 6.04 22.38 6.45 22.61C6.87 22.83 7.32 22.94 7.81 22.94L16.17 22.94C16.67 22.94 17.12 22.83 17.53 22.61C17.93 22.38 18.27 22.07 18.54 21.68C18.8 21.29 18.96 20.85 19.01 20.35L20.02 7.01L18.54 7.01L17.54 20.21Z" fill="#000000" fill-opacity="0.901961" fill-rule="nonzero"/>
	</g>
</svg>
