<svg width="21.979980" height="21.979980" viewBox="0 0 21.98 21.98" fill="none" xmlns="http://www.w3.org/2000/svg" xmlns:xlink="http://www.w3.org/1999/xlink">
	<desc>
			Created with Pixso.
	</desc>
	<defs/>
	<path id="path" d="M16.02 12.33C16.17 12.18 16.25 12.01 16.25 11.8C16.25 11.59 16.17 11.42 16.02 11.28C15.9 11.13 15.73 11.05 15.51 11.05C15.29 11.05 15.11 11.13 14.97 11.28L11.73 14.52L11.73 5.72C11.73 5.52 11.65 5.34 11.52 5.2C11.37 5.06 11.19 4.98 10.99 4.98C10.78 4.98 10.6 5.06 10.46 5.2C10.31 5.34 10.25 5.52 10.25 5.72L10.25 14.54L6.97 11.28C6.83 11.13 6.66 11.05 6.44 11.05C6.24 11.05 6.06 11.13 5.92 11.28C5.78 11.42 5.7 11.59 5.7 11.8C5.7 12.01 5.78 12.18 5.92 12.33L9.71 16.12C10.08 16.47 10.51 16.65 11 16.65C11.48 16.65 11.9 16.47 12.26 16.12L16.02 12.33Z" fill="#000000" fill-opacity="0.901961" fill-rule="nonzero"/>
	<path id="path" d="M10.99 0C9 0 7.16 0.48 5.47 1.46C3.79 2.45 2.45 3.79 1.46 5.47C0.48 7.16 0 9 0 10.99C0 12.97 0.48 14.81 1.46 16.5C2.45 18.18 3.79 19.52 5.47 20.51C7.16 21.49 9 21.98 10.99 21.98C12.97 21.98 14.81 21.49 16.49 20.51C18.17 19.52 19.5 18.18 20.49 16.5C21.48 14.81 21.98 12.97 21.98 10.99C21.98 9 21.48 7.16 20.49 5.47C19.5 3.79 18.17 2.45 16.49 1.46C14.81 0.48 12.97 0 10.99 0ZM10.99 20.49C9.27 20.49 7.69 20.06 6.23 19.2C4.78 18.35 3.62 17.2 2.77 15.74C1.91 14.28 1.48 12.7 1.48 10.99C1.48 9.26 1.91 7.67 2.77 6.2C3.62 4.75 4.78 3.6 6.23 2.76C7.69 1.91 9.27 1.48 10.99 1.48C12.7 1.48 14.28 1.91 15.74 2.76C17.2 3.6 18.35 4.75 19.2 6.2C20.06 7.67 20.49 9.26 20.49 10.99C20.49 12.7 20.06 14.28 19.2 15.74C18.35 17.2 17.2 18.35 15.74 19.2C14.28 20.06 12.7 20.49 10.99 20.49Z" fill="#000000" fill-opacity="0.901961" fill-rule="nonzero"/>
</svg>
