<svg width="21.979980" height="21.979980" viewBox="0 0 21.98 21.98" fill="none" xmlns="http://www.w3.org/2000/svg" xmlns:xlink="http://www.w3.org/1999/xlink">
	<desc>
			Created with Pixso.
	</desc>
	<defs/>
	<path id="path" d="M7.75 14.47C7.75 14.77 7.87 14.99 8.12 15.12C8.36 15.24 8.61 15.24 8.87 15.12C9.11 14.99 9.23 14.77 9.23 14.47L9.23 7.51C9.23 7.2 9.11 6.98 8.87 6.85C8.61 6.73 8.36 6.73 8.12 6.85C7.87 6.98 7.75 7.2 7.75 7.51L7.75 14.47ZM12.74 14.47C12.74 14.77 12.86 14.99 13.11 15.12C13.36 15.24 13.61 15.24 13.86 15.12C14.1 14.99 14.23 14.77 14.23 14.47L14.23 7.51C14.23 7.2 14.1 6.98 13.86 6.85C13.61 6.73 13.36 6.73 13.11 6.85C12.86 6.98 12.74 7.2 12.74 7.51L12.74 14.47Z" fill="#000000" fill-opacity="0.901961" fill-rule="nonzero"/>
	<path id="path" d="M10.99 0C9 0 7.16 0.48 5.47 1.46C3.79 2.45 2.45 3.79 1.46 5.47C0.48 7.16 0 9 0 10.99C0 12.97 0.48 14.81 1.46 16.5C2.45 18.18 3.79 19.52 5.47 20.51C7.16 21.49 9 21.98 10.99 21.98C12.97 21.98 14.81 21.49 16.5 20.51C18.18 19.52 19.52 18.18 20.51 16.5C21.49 14.81 21.98 12.97 21.98 10.99C21.98 9 21.49 7.16 20.51 5.47C19.52 3.79 18.18 2.45 16.5 1.46C14.81 0.48 12.97 0 10.99 0ZM10.99 20.49C9.26 20.49 7.67 20.06 6.2 19.2C4.75 18.35 3.6 17.2 2.76 15.74C1.91 14.28 1.48 12.7 1.48 10.99C1.48 9.27 1.91 7.69 2.76 6.23C3.6 4.78 4.75 3.62 6.2 2.77C7.67 1.91 9.26 1.48 10.99 1.48C12.7 1.48 14.28 1.91 15.74 2.77C17.2 3.62 18.35 4.78 19.2 6.23C20.06 7.69 20.49 9.27 20.49 10.99C20.49 12.7 20.06 14.28 19.2 15.74C18.35 17.2 17.2 18.35 15.74 19.2C14.28 20.06 12.7 20.49 10.99 20.49Z" fill="#000000" fill-opacity="0.901961" fill-rule="nonzero"/>
</svg>
