<svg width="24.000000" height="24.000000" viewBox="0 0 24 24" fill="none" xmlns="http://www.w3.org/2000/svg" xmlns:xlink="http://www.w3.org/1999/xlink">
	<desc>
			Created with Pixso.
	</desc>
	<defs>
		<clipPath id="clip43_3261">
			<rect id="arrow_up_circle" width="24.000000" height="24.000000" fill="white" fill-opacity="0"/>
		</clipPath>
	</defs>
	<g clip-path="url(#clip43_3261)">
		<g opacity="0.000000">
			<rect id="rect" width="24.000000" height="24.000000" fill="#000000" fill-opacity="1.000000"/>
		</g>
		<path id="path" d="M13.27 6.86C12.91 6.49 12.49 6.31 12.01 6.31C11.52 6.31 11.09 6.49 10.73 6.86L6.93 10.66C6.79 10.8 6.71 10.97 6.71 11.18C6.71 11.39 6.79 11.57 6.93 11.71C7.07 11.85 7.25 11.93 7.45 11.93C7.67 11.93 7.84 11.85 7.98 11.71L11.26 8.44L11.26 17.26C11.26 17.46 11.33 17.64 11.47 17.78C11.61 17.92 11.79 18 12 18C12.2 18 12.38 17.92 12.53 17.78C12.66 17.64 12.74 17.46 12.74 17.26L12.74 8.46L15.98 11.71C16.12 11.85 16.3 11.93 16.52 11.93C16.74 11.93 16.91 11.85 17.03 11.71C17.18 11.57 17.26 11.39 17.26 11.18C17.26 10.97 17.18 10.8 17.03 10.66L13.27 6.86Z" fill="#000000" fill-opacity="0.901961" fill-rule="nonzero"/>
		<path id="path" d="M12 2.5C13.71 2.5 15.29 2.92 16.75 3.78C18.2 4.63 19.36 5.79 20.21 7.25C21.07 8.7 21.5 10.28 21.5 12C21.5 13.72 21.07 15.32 20.21 16.78C19.36 18.23 18.2 19.38 16.75 20.23C15.29 21.07 13.71 21.5 12 21.5C10.28 21.5 8.7 21.07 7.25 20.23C5.79 19.38 4.63 18.23 3.78 16.78C2.92 15.32 2.5 13.72 2.5 12C2.5 10.28 2.92 8.7 3.78 7.25C4.63 5.79 5.79 4.63 7.25 3.78C8.7 2.92 10.28 2.5 12 2.5ZM12 22.99C13.98 22.99 15.82 22.5 17.5 21.52C19.18 20.53 20.51 19.19 21.5 17.51C22.49 15.82 22.99 13.98 22.99 12C22.99 10.01 22.49 8.17 21.5 6.48C20.51 4.8 19.18 3.46 17.5 2.47C15.82 1.5 13.98 1.01 12 1.01C10.01 1.01 8.17 1.5 6.48 2.47C4.8 3.46 3.46 4.8 2.47 6.48C1.5 8.17 1.01 10.01 1.01 12C1.01 13.98 1.5 15.82 2.47 17.51C3.46 19.19 4.8 20.53 6.48 21.52C8.17 22.5 10.01 22.99 12 22.99Z" fill="#000000" fill-opacity="0.901961" fill-rule="nonzero"/>
	</g>
</svg>
