<svg width="24.000000" height="24.000000" viewBox="0 0 24 24" fill="none">
    <desc>
        Created with Pixso.
    </desc>
    <defs>
        <clipPath id="clip22_2582">
            <rect id="arrow_up_and_down_square_portrait" width="24.000000" height="24.000000" fill="white" fill-opacity="0"/>
        </clipPath>
    </defs>
    <g clip-path="url(#clip22_2582)">
        <g opacity="0.000000">
            <rect id="rect" width="24.000000" height="24.000000" fill="#000000" fill-opacity="1.000000"/>
        </g>
        <path id="path" d="M6.43 12.9L17.57 12.9L17.57 14.43C17.57 14.51 17.6 14.58 17.66 14.65C17.72 14.71 17.8 14.75 17.89 14.76C17.98 14.76 18.06 14.74 18.13 14.7L21.37 12.39C21.45 12.33 21.5 12.24 21.5 12.14C21.5 12.04 21.45 11.95 21.37 11.87L18.13 9.56C18.06 9.51 17.98 9.49 17.89 9.5C17.8 9.5 17.72 9.54 17.66 9.61C17.6 9.67 17.57 9.75 17.57 9.85L17.57 11.41L6.43 11.41L6.43 9.85C6.43 9.75 6.4 9.67 6.33 9.61C6.28 9.54 6.2 9.5 6.11 9.5C6.01 9.49 5.93 9.51 5.87 9.56L2.62 11.87C2.54 11.95 2.5 12.04 2.5 12.14C2.5 12.24 2.54 12.33 2.62 12.39L5.87 14.7C5.93 14.74 6.01 14.76 6.11 14.76C6.2 14.75 6.28 14.71 6.33 14.65C6.4 14.58 6.43 14.51 6.43 14.43L6.43 12.9Z" fill="#FFFFFF" fill-opacity="1.000000" fill-rule="nonzero"/>
        <path id="path" d="M12.9 17.56L12.9 6.42L14.43 6.42C14.51 6.42 14.58 6.39 14.65 6.33C14.71 6.27 14.75 6.19 14.76 6.1C14.76 6.01 14.74 5.93 14.7 5.86L12.39 2.62C12.33 2.54 12.24 2.5 12.14 2.5C12.04 2.5 11.95 2.54 11.87 2.62L9.56 5.86C9.51 5.93 9.49 6.01 9.5 6.1C9.5 6.19 9.54 6.27 9.61 6.33C9.67 6.39 9.75 6.42 9.85 6.42L11.41 6.42L11.41 17.56L9.85 17.56C9.75 17.56 9.67 17.59 9.61 17.66C9.54 17.71 9.5 17.79 9.5 17.88C9.49 17.98 9.51 18.06 9.56 18.12L11.87 21.37C11.95 21.45 12.04 21.5 12.14 21.5C12.24 21.5 12.33 21.45 12.39 21.37L14.7 18.12C14.74 18.06 14.76 17.98 14.76 17.88C14.75 17.79 14.71 17.71 14.65 17.66C14.58 17.59 14.51 17.56 14.43 17.56L12.9 17.56Z" fill="#FFFFFF" fill-opacity="1.000000" fill-rule="nonzero"/>
    </g>
</svg>