<svg width="24.000000" height="24.000000" viewBox="0 0 24 24" fill="none" xmlns="http://www.w3.org/2000/svg" xmlns:xlink="http://www.w3.org/1999/xlink">
	<desc>
			Created with Pixso.
	</desc>
	<defs>
		<clipPath id="clip118_26899">
			<rect id="at" width="24.000000" height="24.000000" fill="white" fill-opacity="0"/>
		</clipPath>
	</defs>
	<g clip-path="url(#clip118_26899)">
		<g opacity="0.000000">
			<rect id="rect" width="24.000000" height="24.000000" fill="#000000" fill-opacity="1.000000"/>
		</g>
		<path id="path" d="M12.24 2.98C10.49 2.98 8.93 3.36 7.55 4.13C6.16 4.89 5.08 5.96 4.31 7.34C3.53 8.72 3.14 10.28 3.14 12.02C3.14 13.3 3.35 14.51 3.79 15.66C4.22 16.8 4.85 17.77 5.69 18.54C6.46 19.33 7.43 19.94 8.57 20.37C9.7 20.8 10.88 21.02 12.1 21.02C12.96 21.02 13.82 20.9 14.7 20.68C15.57 20.44 16.29 20.09 16.85 19.62C17.05 19.46 17.15 19.26 17.14 19.02C17.12 18.77 17.01 18.57 16.81 18.43C16.61 18.29 16.4 18.28 16.18 18.41C15.62 18.77 14.96 19.05 14.27 19.24C13.57 19.42 12.84 19.51 12.1 19.51C10.98 19.51 9.95 19.32 9.04 18.94C8.12 18.55 7.38 18.08 6.83 17.54C5.4 16.1 4.68 14.26 4.68 12.02C4.68 10.48 5.01 9.14 5.68 8C6.33 6.86 7.24 5.98 8.39 5.38C9.53 4.76 10.79 4.46 12.19 4.46C13.55 4.46 14.76 4.74 15.84 5.32C16.91 5.88 17.75 6.72 18.37 7.84C18.99 8.94 19.29 10.29 19.29 11.88C19.29 14.26 18.7 15.46 17.5 15.46C17.03 15.46 16.69 15.28 16.49 14.94C16.28 14.59 16.18 14.1 16.18 13.46L16.18 7.44C16.18 7.13 16.06 6.92 15.82 6.82C15.58 6.7 15.34 6.71 15.1 6.83C14.86 6.95 14.74 7.15 14.74 7.44C14.72 7.66 14.7 7.87 14.7 8.06C14.69 8.25 14.68 8.42 14.66 8.57C14.66 8.69 14.65 8.78 14.64 8.83C14.32 8.31 13.89 7.92 13.36 7.64C12.82 7.36 12.24 7.22 11.62 7.22C10.78 7.22 10.05 7.45 9.43 7.92C8.81 8.38 8.33 8.99 8 9.72C7.67 10.47 7.51 11.26 7.51 12.1C7.51 12.92 7.68 13.71 8.03 14.46C8.37 15.2 8.85 15.8 9.47 16.26C10.1 16.71 10.82 16.94 11.62 16.94C12.3 16.94 12.93 16.77 13.5 16.44C14.06 16.1 14.5 15.62 14.81 15C14.98 15.64 15.3 16.12 15.77 16.45C16.23 16.79 16.79 16.96 17.45 16.96C18.61 16.96 19.47 16.46 20.03 15.46C20.58 14.44 20.86 13.21 20.86 11.76C20.86 9.92 20.48 8.34 19.74 7.02C18.99 5.7 17.96 4.69 16.67 4.01C15.36 3.32 13.88 2.98 12.24 2.98ZM11.81 15.36C10.97 15.36 10.34 15.05 9.92 14.45C9.5 13.84 9.29 13.06 9.29 12.1C9.29 11.08 9.47 10.29 9.83 9.71C10.2 9.12 10.88 8.83 11.86 8.83C12.72 8.83 13.38 9.14 13.85 9.77C14.31 10.39 14.54 11.16 14.54 12.1C14.54 13.08 14.3 13.87 13.82 14.47C13.34 15.06 12.67 15.36 11.81 15.36Z" fill="#000000" fill-opacity="0.901961" fill-rule="nonzero"/>
	</g>
</svg>
