<svg width="24.000000" height="24.000000" viewBox="0 0 24 24" fill="none" xmlns="http://www.w3.org/2000/svg" xmlns:xlink="http://www.w3.org/1999/xlink">
	<desc>
			Created with Pixso.
	</desc>
	<defs>
		<clipPath id="clip118_26895">
			<rect id="face" width="24.000000" height="24.000000" fill="white" fill-opacity="0"/>
		</clipPath>
	</defs>
	<g clip-path="url(#clip118_26895)">
		<g opacity="0.000000">
			<rect id="rect" width="24.000000" height="24.000000" fill="#000000" fill-opacity="1.000000"/>
		</g>
		<path id="path" d="M12.17 9.91C12.34 9.95 12.48 10.06 12.59 10.22C12.69 10.38 12.71 10.54 12.67 10.7L12.12 12.84L12.77 12.84C12.96 12.84 13.12 12.9 13.25 13.03C13.37 13.15 13.44 13.31 13.46 13.51C13.46 13.69 13.39 13.84 13.27 13.98C13.14 14.11 12.99 14.19 12.82 14.21L11.66 14.21C11.36 14.21 11.1 14.08 10.88 13.82C10.66 13.56 10.59 13.28 10.66 12.96L11.33 10.42C11.37 10.22 11.48 10.08 11.65 9.97C11.81 9.88 11.99 9.86 12.17 9.91ZM8.73 15.29C9.15 15.77 9.64 16.14 10.2 16.4C10.76 16.66 11.36 16.79 12 16.79C12.64 16.79 13.24 16.66 13.8 16.4C14.36 16.14 14.84 15.77 15.24 15.29C15.36 15.14 15.52 15.06 15.72 15.05C15.91 15.03 16.08 15.08 16.21 15.22C16.36 15.34 16.44 15.5 16.45 15.68C16.48 15.86 16.42 16.03 16.29 16.18C15.76 16.82 15.13 17.31 14.39 17.65C13.64 17.99 12.84 18.17 12 18.17C11.16 18.17 10.37 17.99 9.62 17.65C8.87 17.31 8.22 16.82 7.68 16.18C7.56 16.03 7.52 15.86 7.54 15.67C7.55 15.47 7.63 15.31 7.78 15.19C7.92 15.07 8.08 15.03 8.27 15.05C8.44 15.06 8.6 15.14 8.73 15.29ZM12 2.38C10.25 2.38 8.64 2.81 7.18 3.67C5.7 4.53 4.53 5.7 3.67 7.18C2.81 8.64 2.38 10.25 2.38 12C2.38 13.74 2.81 15.35 3.67 16.82C4.53 18.29 5.7 19.46 7.18 20.33C8.64 21.19 10.25 21.62 12 21.62C13.74 21.62 15.35 21.19 16.82 20.33C18.29 19.46 19.46 18.29 20.33 16.82C21.19 15.35 21.62 13.74 21.62 12C21.62 10.25 21.19 8.64 20.33 7.18C19.46 5.7 18.29 4.53 16.82 3.67C15.35 2.81 13.74 2.38 12 2.38ZM12 1.01C13.98 1.01 15.82 1.5 17.51 2.48C19.19 3.46 20.53 4.8 21.52 6.49C22.5 8.17 22.99 10.01 22.99 12C22.99 13.98 22.5 15.82 21.52 17.51C20.53 19.19 19.19 20.53 17.51 21.52C15.82 22.5 13.98 22.99 12 22.99C10.01 22.99 8.17 22.5 6.48 21.52C4.8 20.53 3.46 19.19 2.47 17.51C1.5 15.82 1.01 13.98 1.01 12C1.01 10.01 1.5 8.17 2.47 6.49C3.46 4.8 4.8 3.46 6.48 2.48C8.17 1.5 10.01 1.01 12 1.01ZM7.8 8.45C8.1 8.45 8.36 8.55 8.57 8.77C8.79 8.99 8.9 9.25 8.9 9.55C8.9 9.85 8.79 10.11 8.57 10.33C8.36 10.55 8.1 10.66 7.8 10.66C7.49 10.66 7.23 10.55 7.02 10.33C6.8 10.11 6.69 9.85 6.69 9.55C6.69 9.25 6.8 8.99 7.02 8.77C7.23 8.55 7.49 8.45 7.8 8.45ZM16.2 8.45C16.5 8.45 16.76 8.55 16.96 8.77C17.17 8.99 17.28 9.25 17.28 9.55C17.28 9.85 17.17 10.11 16.96 10.33C16.76 10.55 16.5 10.66 16.2 10.66C15.89 10.66 15.63 10.55 15.42 10.33C15.2 10.11 15.1 9.85 15.1 9.55C15.1 9.25 15.2 8.99 15.42 8.77C15.63 8.55 15.89 8.45 16.2 8.45Z" fill="#000000" fill-opacity="0.901961" fill-rule="nonzero"/>
	</g>
</svg>
