<svg width="24.000000" height="24.000000" viewBox="0 0 24 24" fill="none" xmlns="http://www.w3.org/2000/svg" xmlns:xlink="http://www.w3.org/1999/xlink">
	<desc>
			Created with Pixso.
	</desc>
	<defs/>
	<g opacity="0.500000">
		<circle id="椭圆 14" cx="12.000000" cy="12.000000" r="12.000000" fill="#000000" fill-opacity="1.000000"/>
	</g>
	<path id="path" d="M11.12 12.16C11.12 11.41 9.99 11.41 9.99 12.16L9.99 16.76C9.99 17.51 11.12 17.51 11.12 16.76L11.12 12.16ZM8.12 7.56C8.12 6.81 7 6.81 7 7.56L7 16.76C7 17.51 8.12 17.51 8.12 16.76L8.12 7.56ZM14.12 9.43C14.12 8.68 12.99 8.68 12.99 9.43L12.99 16.76C12.99 17.51 14.12 17.51 14.12 16.76L14.12 9.43ZM17.12 10.18C17.12 9.43 16 9.43 16 10.18L16 16.76C16 17.51 17.12 17.51 17.12 16.76L17.12 10.18Z" fill="#FFFFFF" fill-opacity="1.000000" fill-rule="nonzero"/>
</svg>
