<svg width="24.000000" height="24.000000" viewBox="0 0 24 24" fill="none" xmlns="http://www.w3.org/2000/svg" xmlns:xlink="http://www.w3.org/1999/xlink">
	<desc>
			Created with Pixso.
	</desc>
	<defs/>
	<mask id="mask1430_73841" mask-type="alpha" maskUnits="userSpaceOnUse" x="1.250122" y="1.385254" width="21.500004" height="20.864862">
		<path id="形状结合" d="M22.4756 11.1882C22.8286 10.8162 22.8394 10.2439 22.5184 9.85962L22.4384 9.77441L14.7532 2.4834C13.2596 1.06641 10.9456 1.02075 9.39911 2.34619L9.24707 2.4834L1.56186 9.77441C1.16119 10.1545 1.14453 10.7876 1.52466 11.1882C1.87762 11.5603 2.44858 11.6013 2.84915 11.3008L2.93839 11.2253L10.6236 3.93433C11.3585 3.23706 12.4908 3.20386 13.2635 3.83472L13.3766 3.93433L21.0619 11.2253C21.4625 11.6055 22.0955 11.5889 22.4756 11.1882ZM3 19.25L3 12.5835L11.3119 4.65991C11.6892 4.302 12.2777 4.29346 12.653 4.62744L12.6884 4.65991L21 12.5833L21 19.25C21 20.907 19.6569 22.25 18 22.25L6 22.25C4.34314 22.25 3 20.907 3 19.25ZM12 13.5C10.3431 13.5 9 14.8433 9 16.5L9 20.25L15 20.25L15 16.5C15 14.8433 13.6569 13.5 12 13.5Z" clip-rule="evenodd" fill="#000000" fill-opacity="1.000000" fill-rule="evenodd"/>
	</mask>
	<g mask="url(#mask1430_73841)">
		<rect id="color/#000000" width="24.000000" height="24.000000" fill="#0A59F7" fill-opacity="1.000000"/>
	</g>
</svg>
