<?xml version="1.0" encoding="UTF-8"?>
<svg width="18.4704415px" height="16.08839px" viewBox="0 0 18.4704415 16.08839" version="1.1" xmlns="http://www.w3.org/2000/svg" xmlns:xlink="http://www.w3.org/1999/xlink">
    <title>favor</title>
    <defs>
        <path d="M9.9194378,0.885395629 C12.0965213,-0.510048811 15.0249116,-0.256005902 16.9284419,1.64752436 C19.0169199,3.73600242 18.9264652,6.99184312 17.0048984,9.55393219 L16.9451347,9.63287735 C16.3574248,10.4021956 15.4804753,11.3501897 14.3660916,12.4251402 L14.326196,12.4634858 C13.7712695,12.9949955 12.8191555,13.8321422 11.4649201,14.9797938 L10.8472975,15.5012726 C9.91565278,16.285218 8.55472466,16.2839621 7.62452832,15.4982987 C5.87213661,14.0181918 4.68757536,12.9829365 4.06239056,12.3842685 L3.87859585,12.2059348 C2.83359971,11.1843966 2.0138764,10.2850432 1.46554313,9.55393219 C-0.456023666,6.99184312 -0.546478389,3.73600242 1.54199968,1.64752436 C3.46475751,-0.275233481 6.43318421,-0.515012693 8.61674416,0.928186718 L8.73827381,1.01340818 C9.00570313,1.19901188 9.2598273,1.41040069 9.49695097,1.64752436 L9.33273656,1.49282157 C9.36512607,1.52070643 9.3980137,1.55074271 9.43136794,1.58301413 L9.49695097,1.64752436 C10.2398456,2.39041896 10.7852258,2.95477416 11.1358578,3.34386703 C11.3669329,3.60028881 11.3463853,3.99548311 11.0899636,4.22655822 C10.8335418,4.45763332 10.4383475,4.43708578 10.2072724,4.18066401 L10.0888837,4.05076624 C9.75351799,3.686492 9.26093165,3.17927199 8.61306749,2.53140783 L8.44448191,2.37139853 C6.72691242,0.824641937 4.07931261,0.877978371 2.42588315,2.53140783 C0.818656755,4.13863423 0.8899029,6.70307854 2.46554313,8.80393219 C2.98830491,9.50094789 3.80617123,10.3937029 4.8621816,11.4190377 L4.89548529,11.4512526 C5.38226703,11.9204153 6.27444744,12.7084058 7.56695942,13.8102709 L8.43110278,14.5433445 C8.8962008,14.936176 9.57666465,14.936804 10.0423627,14.5449359 L10.8322238,13.877301 C12.1059226,12.7953014 12.9961211,12.0098616 13.4982689,11.5254826 L13.7166654,11.3134284 C14.7199821,10.3326926 15.499935,9.47721678 16.0048984,8.80393219 C17.5805386,6.70307854 17.6517848,4.13863423 16.0445584,2.53140783 C14.6299576,1.11680707 12.4876487,0.873434897 10.8226537,1.80129131 C10.5857305,1.55998445 10.3393167,1.3113788 10.0862066,1.0582687 C10.0286551,1.0007172 9.97024384,0.944487335 9.91101231,0.889579271 Z" id="path-1"></path>
    </defs>
    <g id="0319" stroke="none" stroke-width="1" fill="none" fill-rule="evenodd">
        <g id="手机酒店排行榜" transform="translate(-324.786768, -274.967841)">
            <g id="编组" transform="translate(11.000000, 256.000000)">
                <g id="favor" transform="translate(313.786768, 18.967841)">
                    <mask id="mask-2" fill="white">
                        <use xlink:href="#path-1"></use>
                    </mask>
                    <g id="蒙版" fill-rule="nonzero"></g>
                    <g id="Symbol/color-light/colorPrimary" mask="url(#mask-2)" fill="#000000" fill-opacity="0.9">
                        <g transform="translate(-0.786768, -2.279401)" id="color/#000000">
                            <rect x="0" y="0" width="20" height="20"></rect>
                        </g>
                    </g>
                </g>
            </g>
        </g>
    </g>
</svg>