<svg width="24.000000" height="24.000000" viewBox="0 0 24 24" fill="none" xmlns="http://www.w3.org/2000/svg" xmlns:xlink="http://www.w3.org/1999/xlink">
	<desc>
			Created with Pixso.
	</desc>
	<defs>
		<clipPath id="clip3858_256198">
			<rect id="gearshape_fill" width="6.000000" height="6.000000" transform="translate(5.000000 6.000000)" fill="white" fill-opacity="0"/>
		</clipPath>
		<clipPath id="clip3858_256189">
			<rect id="smal_window_playback" width="24.000000" height="24.000000" fill="white" fill-opacity="0"/>
		</clipPath>
	</defs>
	<g clip-path="url(#clip3858_256189)">
		<g opacity="0.000000">
			<rect id="rect" width="24.000000" height="24.000000" fill="#000000" fill-opacity="1.000000"/>
		</g>
		<path id="path" d="M14.25 13.2C13.78 13.2 13.36 13.37 13.01 13.72C12.67 14.06 12.5 14.47 12.5 14.95L12.5 19.03C12.5 19.49 12.67 19.9 13.01 20.24C13.36 20.58 13.78 20.76 14.25 20.76L20.78 20.76C21.25 20.76 21.67 20.58 22.01 20.24C22.36 19.9 22.54 19.49 22.54 19.03L22.54 14.95C22.54 14.47 22.36 14.06 22.01 13.72C21.67 13.37 21.25 13.2 20.78 13.2L14.25 13.2ZM21.04 19.03C21.04 19.09 21.01 19.15 20.96 19.2C20.9 19.24 20.84 19.27 20.78 19.27L14.25 19.27C14.19 19.27 14.13 19.24 14.08 19.2C14.01 19.15 13.99 19.09 13.99 19.03L13.99 14.95C13.99 14.89 14.01 14.83 14.05 14.78C14.11 14.73 14.17 14.71 14.25 14.71L20.78 14.71C20.86 14.71 20.92 14.73 20.97 14.78C21.02 14.83 21.04 14.89 21.04 14.95L21.04 19.03ZM5.2 16.25C4.58 16.25 4.04 16.03 3.61 15.59C3.16 15.15 2.95 14.61 2.95 13.99L2.95 6.96C2.95 6.35 3.16 5.82 3.61 5.38C4.04 4.92 4.58 4.7 5.2 4.7L17.2 4.7C17.83 4.7 18.35 4.92 18.79 5.36C19.22 5.8 19.44 6.33 19.44 6.96L19.44 10.99C19.44 11.19 19.51 11.37 19.66 11.53C19.82 11.68 20 11.76 20.2 11.76C20.41 11.76 20.59 11.68 20.74 11.53C20.87 11.37 20.95 11.19 20.95 10.99L20.95 6.96C20.95 6.28 20.78 5.66 20.45 5.09C20.11 4.51 19.65 4.05 19.08 3.72C18.5 3.38 17.88 3.22 17.2 3.22L5.2 3.22C4.53 3.22 3.91 3.38 3.33 3.72C2.75 4.05 2.3 4.51 1.96 5.09C1.62 5.66 1.45 6.28 1.45 6.96L1.45 13.99C1.45 14.67 1.62 15.31 1.96 15.89C2.3 16.46 2.75 16.92 3.33 17.26C3.91 17.59 4.53 17.76 5.2 17.76L9.91 17.76C10.11 17.76 10.29 17.68 10.45 17.53C10.6 17.37 10.67 17.19 10.67 16.99C10.67 16.78 10.6 16.6 10.45 16.46C10.29 16.32 10.11 16.25 9.91 16.25L5.2 16.25Z" fill="#FFFFFF" fill-opacity="0.901961" fill-rule="nonzero"/>
		<g clip-path="url(#clip3858_256198)">
			<g opacity="0.000000">
				<rect id="rect" x="5.000000" y="6.000000" width="6.000000" height="6.000000" fill="#000000" fill-opacity="1.000000"/>
			</g>
			<path id="path" d="M8.01 7.87C8.21 7.87 8.4 7.92 8.57 8.03C8.74 8.13 8.87 8.27 8.97 8.44C9.07 8.61 9.12 8.8 9.12 9C9.12 9.2 9.07 9.39 8.97 9.57C8.87 9.74 8.73 9.87 8.56 9.97C8.39 10.07 8.2 10.12 8 10.12C7.79 10.12 7.6 10.07 7.43 9.97C7.26 9.87 7.12 9.73 7.02 9.56C6.92 9.38 6.87 9.19 6.87 8.99C6.87 8.79 6.92 8.6 7.03 8.43C7.13 8.26 7.27 8.12 7.44 8.02C7.61 7.92 7.8 7.87 8.01 7.87ZM8.39 11.66C8.46 11.66 8.53 11.64 8.6 11.6C8.66 11.55 8.71 11.5 8.74 11.43L8.94 10.96L8.99 10.93C9.06 10.89 9.14 10.85 9.21 10.8L9.72 10.87C9.8 10.88 9.88 10.86 9.95 10.83C10.01 10.79 10.07 10.74 10.11 10.68L10.5 9.99C10.54 9.92 10.56 9.85 10.56 9.78C10.55 9.7 10.52 9.63 10.48 9.57L10.17 9.15L10.17 8.85L10.48 8.43C10.53 8.37 10.55 8.3 10.56 8.22C10.56 8.15 10.54 8.07 10.5 8.01L10.11 7.32C10.07 7.25 10.02 7.2 9.95 7.17C9.88 7.13 9.81 7.11 9.73 7.12L9.21 7.19C9.14 7.14 9.05 7.09 8.96 7.05L8.75 6.55C8.72 6.48 8.67 6.43 8.61 6.39C8.54 6.34 8.47 6.32 8.4 6.32L7.61 6.32C7.53 6.32 7.46 6.34 7.39 6.39C7.33 6.43 7.28 6.48 7.25 6.55L7.04 7.05L6.98 7.08C6.94 7.1 6.91 7.11 6.88 7.13C6.85 7.15 6.82 7.16 6.8 7.18L6.27 7.12C6.19 7.11 6.12 7.12 6.05 7.16C5.98 7.19 5.92 7.24 5.88 7.31L5.49 8C5.45 8.06 5.43 8.13 5.44 8.21C5.44 8.29 5.47 8.36 5.51 8.43L5.83 8.85L5.83 9.13L5.51 9.55C5.46 9.62 5.44 9.69 5.43 9.76C5.43 9.84 5.45 9.91 5.49 9.98L5.88 10.66C5.92 10.73 5.97 10.78 6.04 10.82C6.11 10.85 6.18 10.86 6.26 10.86L6.78 10.8C6.89 10.87 6.97 10.92 7.03 10.95L7.24 11.43C7.27 11.5 7.31 11.55 7.38 11.6C7.44 11.64 7.51 11.66 7.59 11.66L8.39 11.66Z" fill="#FFFFFF" fill-opacity="0.901961" fill-rule="nonzero"/>
			<path id="path" d="M8 8.25C7.87 8.25 7.74 8.28 7.62 8.35C7.51 8.41 7.42 8.5 7.35 8.62C7.28 8.73 7.25 8.85 7.25 8.99C7.25 9.12 7.28 9.25 7.34 9.37C7.41 9.48 7.5 9.57 7.62 9.64C7.73 9.71 7.86 9.75 8 9.75C8.13 9.75 8.26 9.71 8.37 9.64C8.49 9.58 8.58 9.49 8.65 9.37C8.71 9.26 8.75 9.14 8.75 9C8.75 8.87 8.71 8.74 8.65 8.62C8.58 8.51 8.49 8.42 8.37 8.35C8.26 8.28 8.14 8.25 8 8.25Z" fill="#FFFFFF" fill-opacity="0.901961" fill-rule="nonzero"/>
		</g>
	</g>
</svg>
