<?xml version="1.0" encoding="utf-8"?>
<!-- Generator: Adobe Illustrator 24.3.0, SVG Export Plug-In . SVG Version: 6.00 Build 0)  -->
<svg version="1.1" id="图层_1" xmlns="http://www.w3.org/2000/svg" xmlns:xlink="http://www.w3.org/1999/xlink" x="0px" y="0px"
	 viewBox="0 0 24 24" style="enable-background:new 0 0 24 24;" xml:space="preserve">
<path id="path-1_1_" d="M5.3,13.7l6,6l0,0c0.3,0.3,0.2,0.7,0,1s-0.7,0.3-1,0l0,0l-7-7H5.3z M10.2,3.2c0.3-0.3,0.8-0.3,1.1,0
	c0.3,0.3,0.3,0.7,0,1l0,0l-7,7H21c0.4,0,0.7,0.3,0.7,0.7l0,0c0,0.4-0.3,0.7-0.7,0.7l0,0H3.1c-0.3,0-0.5-0.1-0.7-0.3
	c-0.4-0.4-0.4-1,0-1.4l0,0L10.2,3.2z"/>
</svg>
