<?xml version="1.0" standalone="no"?>
<svg xmlns="http://www.w3.org/2000/svg" width="24" height="24"><rect width="24" height="24" opacity="0"></rect><g><path d="M6.22 1.01Q5.35 1.01 4.61 1.45Q3.86 1.9 3.42 2.64Q2.98 3.38 2.98 4.25L2.98 19.75Q2.98 20.64 3.42 21.38Q3.86 22.13 4.61 22.56Q5.35 22.99 6.22 22.99L17.76 22.99Q18.65 22.99 19.39 22.56Q20.14 22.13 20.58 21.38Q21.02 20.64 21.02 19.75L21.02 7.25L14.76 1.01L6.22 1.01ZM7.51 12Q7.22 12 7 11.78Q6.77 11.57 6.77 11.26Q6.77 10.94 7 10.72Q7.22 10.49 7.51 10.49L11.52 10.49Q11.83 10.49 12.06 10.72Q12.29 10.94 12.29 11.26Q12.29 11.57 12.06 11.78Q11.83 12 11.52 12L7.51 12ZM7.51 16.25Q7.22 16.25 7 16.03Q6.77 15.82 6.77 15.5Q6.77 15.19 7 14.98Q7.22 14.76 7.51 14.76L16.49 14.76Q16.8 14.76 17.02 14.98Q17.23 15.19 17.23 15.5Q17.23 15.82 17.02 16.03Q16.8 16.25 16.49 16.25L7.51 16.25ZM15.48 7.25Q15.17 7.25 14.95 7.02Q14.74 6.79 14.74 6.48L14.74 3.1L18.89 7.25L15.48 7.25Z" fill="rgba(0,0,0,0.9019607843137255)"></path></g></svg>