<?xml version="1.0" encoding="UTF-8"?>
<svg width="18px" height="22px" viewBox="0 0 18 22" version="1.1" xmlns="http://www.w3.org/2000/svg" xmlns:xlink="http://www.w3.org/1999/xlink">
    <title>编组 40</title>
    <defs>
        <path d="M12.8722,0 C14.6173,0 15.2738,0.1778 15.9121,0.5122 L15.9537,0.5343 C16.5745,0.8663 17.0681,1.3461 17.4148,1.9541 L17.4657,2.0463 C17.8143,2.6982 18,3.3447 18,5.1278 L18,16.8722 L17.999,17.0938 C17.9842,18.6744 17.8076,19.3016 17.4878,19.9121 L17.4657,19.9537 C17.1337,20.5745 16.6539,21.0681 16.0459,21.4148 L15.9537,21.4657 C15.3018,21.8143 14.6553,22 12.8722,22 L5.1278,22 L4.9062,21.999 C3.3256,21.9842 2.6984,21.8076 2.0879,21.4878 L2.0463,21.4657 C1.4255,21.1337 0.9319,20.6539 0.5852,20.0459 L0.5343,19.9537 C0.1857,19.3018 0,18.6553 0,16.8722 L0,5.1278 C0,3.3827 0.1778,2.7262 0.5122,2.0879 L0.5343,2.0463 C0.8663,1.4255 1.3461,0.9319 1.9541,0.5852 L2.0463,0.5343 C2.6982,0.1857 3.3447,0 5.1278,0 L12.8722,0 Z M13.0753,1.5007 L5.0245,1.5002 L4.8231,1.5017 C3.6551,1.5152 3.2098,1.6131 2.7537,1.857 C2.3633,2.0658 2.0658,2.3633 1.857,2.7537 C1.5929,3.2475 1.5,3.7286 1.5,5.1278 L1.5002,16.9755 L1.5017,17.1769 C1.5152,18.3449 1.6131,18.7902 1.857,19.2463 C2.0658,19.6367 2.3633,19.9342 2.7537,20.143 C3.2228,20.3939 3.6804,20.4903 4.9247,20.4993 L12.8722,20.5 C14.2714,20.5 14.7525,20.4071 15.2463,20.143 C15.6367,19.9342 15.9342,19.6367 16.143,19.2463 C16.3939,18.7772 16.4903,18.3196 16.4993,17.0753 L16.5,16.8722 L16.5,5.1278 C16.5,3.7286 16.4071,3.2475 16.143,2.7537 C15.9342,2.3633 15.6367,2.0658 15.2463,1.857 C14.7772,1.6061 14.3196,1.5097 13.0753,1.5007 Z M9,15.25 C9.4142,15.25 9.75,15.5858 9.75,16 C9.75,16.4142 9.4142,16.75 9,16.75 L4.5,16.75 C4.0858,16.75 3.75,16.4142 3.75,16 C3.75,15.5858 4.0858,15.25 4.5,15.25 L9,15.25 Z M13.5,10.25 C13.9142,10.25 14.25,10.5858 14.25,11 C14.25,11.4142 13.9142,11.75 13.5,11.75 L4.5,11.75 C4.0858,11.75 3.75,11.4142 3.75,11 C3.75,10.5858 4.0858,10.25 4.5,10.25 L13.5,10.25 Z M13.5,5.25 C13.9142,5.25 14.25,5.5858 14.25,6 C14.25,6.4142 13.9142,6.75 13.5,6.75 L4.5,6.75 C4.0858,6.75 3.75,6.4142 3.75,6 C3.75,5.5858 4.0858,5.25 4.5,5.25 L13.5,5.25 Z" id="path-1"></path>
    </defs>
    <g id="1首页" stroke="none" stroke-width="1" fill="none" fill-rule="evenodd">
        <g id="画板" transform="translate(-479.000000, -25.000000)">
            <g id="编组-40" transform="translate(476.000000, 24.000000)">
                <rect id="矩形备份-8" fill-opacity="0" fill="#FFFFFF" x="0" y="0" width="24" height="24"></rect>
                <g id="编组备份-9" transform="translate(3.000000, 1.000000)">
                    <mask id="mask-2" fill="white">
                        <use xlink:href="#path-1"></use>
                    </mask>
                    <g id="Clip-143"></g>
                    <polygon id="Fill-142" fill-opacity="0.9" fill="#000000" mask="url(#mask-2)" points="-1 -1 19 -1 19 23 -1 23"></polygon>
                </g>
            </g>
        </g>
    </g>
</svg>