<?xml version="1.0" encoding="UTF-8"?>
<svg width="43px" height="35px" viewBox="0 0 43 35" version="1.1" xmlns="http://www.w3.org/2000/svg" xmlns:xlink="http://www.w3.org/1999/xlink">
    <title>账户</title>
    <g id="1、首页" stroke="none" stroke-width="1" fill="none" fill-rule="evenodd">
        <g id="首页/平板" transform="translate(-1057.000000, -115.000000)">
            <g id="账户" transform="translate(1051.000000, 106.000000)">
                <rect id="矩形" x="0" y="0" width="54" height="54"></rect>
                <g id="编组" transform="translate(6.000000, 9.000000)" fill="#FFFFFF" fill-rule="nonzero">
                    <path d="M43,8.75 L43,28.4375 C43,32.0618687 40.1122367,35 36.55,35 L6.45,35 C2.88776337,35 0,32.0618687 0,28.4375 L0,8.75 L43,8.75 Z M15.1546468,15.3125 L5.9125,15.3125 C5.02194084,15.3125 4.3,16.0470328 4.3,16.953125 C4.3,17.7895178 4.91514487,18.4797298 5.71023142,18.5809672 L5.9125,18.59375 L15.1546468,18.59375 C16.0452059,18.59375 16.7671468,17.8592172 16.7671468,16.953125 C16.7671468,16.0470328 16.0452059,15.3125 15.1546468,15.3125 Z" id="形状"></path>
                    <path d="M36.55,0 C40.1122367,0 43,2.93813134 43,6.5625 L43,8.75 L0,8.75 L0,6.5625 C0,2.93813134 2.88776337,0 6.45,0 L36.55,0 Z" id="路径" fill-opacity="0.6"></path>
                </g>
            </g>
        </g>
    </g>
</svg>