<?xml version="1.0" encoding="UTF-8"?>
<svg width="22px" height="18px" viewBox="0 0 22 18" version="1.1" xmlns="http://www.w3.org/2000/svg" xmlns:xlink="http://www.w3.org/1999/xlink">
    <title>编组 39</title>
    <defs>
        <path d="M18,0 C20.1422,0 21.8911,1.684 21.9951,3.8004 L22,4 L22,14 C22,16.2091 20.2091,18 18,18 L4,18 C1.7909,18 0,16.2091 0,14 L0,4 C0,1.7909 1.7909,0 4,0 L18,0 Z M20.5,6 L1.5,6 L1.5,14 C1.5,15.3573 2.5817,16.462 3.93,16.499 L4,16.5 L18,16.5 C19.3573,16.5 20.462,15.4183 20.499,14.07 L20.5,14 L20.5,6 Z M10.25,7.5 C10.6642,7.5 11,7.8358 11,8.25 C11,8.6642 10.6642,9 10.25,9 L3.75,9 C3.3358,9 3,8.6642 3,8.25 C3,7.8358 3.3358,7.5 3.75,7.5 L10.25,7.5 Z M4,1.5 C2.6427,1.5 1.538,2.5817 1.501,3.93 L1.5,4 L20.5,4 C20.5,2.6427 19.4183,1.538 18.07,1.501 L4,1.5 Z" id="path-1"></path>
    </defs>
    <g id="1首页" stroke="none" stroke-width="1" fill="none" fill-rule="evenodd">
        <g id="画板" transform="translate(-333.000000, -27.000000)">
            <g id="编组-39" transform="translate(332.000000, 24.000000)">
                <rect id="矩形备份-2" fill-opacity="0" fill="#FFFFFF" x="0" y="0" width="24" height="24"></rect>
                <g id="编组备份-8" transform="translate(1.000000, 3.000000)">
                    <mask id="mask-2" fill="white">
                        <use xlink:href="#path-1"></use>
                    </mask>
                    <g id="Clip-137"></g>
                    <polygon id="Fill-136" fill-opacity="0.9" fill="#000000" mask="url(#mask-2)" points="-1 -1 23 -1 23 19 -1 19"></polygon>
                </g>
            </g>
        </g>
    </g>
</svg>