<?xml version="1.0" encoding="UTF-8"?>
<svg width="18px" height="22px" viewBox="0 0 18 22" version="1.1" xmlns="http://www.w3.org/2000/svg" xmlns:xlink="http://www.w3.org/1999/xlink">
    <title>编组 43</title>
    <defs>
        <path d="M12.872,0 C14.617,0 15.274,0.1778 15.912,0.5122 L15.954,0.5343 C16.575,0.8663 17.068,1.3461 17.415,1.9541 L17.466,2.0463 C17.814,2.6982 18,3.3447 18,5.1278 L18,16.8722 L17.999,17.0938 C17.984,18.6744 17.808,19.3016 17.488,19.9121 L17.466,19.9537 C17.134,20.5745 16.654,21.0681 16.046,21.4148 L15.954,21.4657 C15.302,21.8143 14.655,22 12.872,22 L5.128,22 L4.906,21.999 C3.326,21.9842 2.698,21.8076 2.088,21.4878 L2.046,21.4657 C1.425,21.1337 0.932,20.6539 0.585,20.0459 L0.534,19.9537 C0.186,19.3018 0,18.6553 0,16.8722 L0,5.1278 C0,3.3827 0.178,2.7262 0.512,2.0879 L0.534,2.0463 C0.866,1.4255 1.346,0.9319 1.954,0.5852 L2.046,0.5343 C2.698,0.1857 3.345,0 5.128,0 L12.872,0 Z M13.075,1.5007 L5.025,1.5002 L4.823,1.5017 C3.655,1.5152 3.21,1.6131 2.754,1.857 C2.363,2.0658 2.066,2.3633 1.857,2.7537 C1.593,3.2475 1.5,3.7286 1.5,5.1278 L1.5,16.9755 L1.502,17.1769 C1.515,18.3449 1.613,18.7902 1.857,19.2463 C2.066,19.6367 2.363,19.9342 2.754,20.143 C3.223,20.3939 3.68,20.4903 4.925,20.4993 L12.872,20.5 C14.271,20.5 14.752,20.4071 15.246,20.143 C15.637,19.9342 15.934,19.6367 16.143,19.2463 C16.394,18.7772 16.49,18.3196 16.499,17.0753 L16.5,16.8722 L16.5,5.1278 C16.5,3.7286 16.407,3.2475 16.143,2.7537 C15.934,2.3633 15.637,2.0658 15.246,1.857 C14.777,1.6061 14.32,1.5097 13.075,1.5007 Z M12.191,6.5263 C12.506,6.7086 12.615,7.1122 12.432,7.4279 L10.845,10.1768 L11.421,10.1768 L11.518,10.184 C11.837,10.2311 12.081,10.5055 12.081,10.8368 C12.081,11.2013 11.785,11.4968 11.421,11.4968 L9.881,11.4968 L9.881,12.3768 L11.421,12.3768 L11.518,12.384 C11.837,12.4311 12.081,12.7055 12.081,13.0368 C12.081,13.4013 11.785,13.6968 11.421,13.6968 L9.881,13.6968 L9.881,15.0168 L9.874,15.1144 C9.826,15.4326 9.552,15.6768 9.221,15.6768 C8.856,15.6768 8.561,15.3813 8.561,15.0168 L8.561,13.6968 L7.021,13.6968 L6.923,13.6897 C6.605,13.6425 6.361,13.3682 6.361,13.0368 C6.361,12.6723 6.656,12.3768 7.021,12.3768 L8.561,12.3768 L8.561,11.4968 L7.021,11.4968 L6.923,11.4897 C6.605,11.4425 6.361,11.1682 6.361,10.8368 C6.361,10.4723 6.656,10.1768 7.021,10.1768 L7.596,10.1768 L6.009,7.4279 L5.963,7.3308 C5.851,7.0337 5.967,6.6903 6.251,6.5263 C6.566,6.3441 6.97,6.4522 7.152,6.7679 L9.12,10.1768 L9.321,10.1768 L11.289,6.7679 L11.35,6.6795 C11.551,6.4335 11.907,6.3623 12.191,6.5263 Z" id="path-1"></path>
    </defs>
    <g id="1首页" stroke="none" stroke-width="1" fill="none" fill-rule="evenodd">
        <g id="画板" transform="translate(-911.000000, -25.000000)">
            <g id="编组-43" transform="translate(908.000000, 24.000000)">
                <rect id="矩形备份-14" fill-opacity="0" fill="#FFFFFF" x="0" y="0" width="24" height="24"></rect>
                <g id="编组备份-10" transform="translate(3.000000, 1.000000)">
                    <mask id="mask-2" fill="white">
                        <use xlink:href="#path-1"></use>
                    </mask>
                    <g id="Clip-134"></g>
                    <polygon id="Fill-133" fill="#000000" mask="url(#mask-2)" points="-1 -1 19 -1 19 23 -1 23"></polygon>
                </g>
            </g>
        </g>
    </g>
</svg>