<?xml version="1.0" encoding="UTF-8"?>
<svg width="23.9998px" height="18px" viewBox="0 0 23.9998 18" version="1.1" xmlns="http://www.w3.org/2000/svg" xmlns:xlink="http://www.w3.org/1999/xlink">
    <title>编组 37</title>
    <defs>
        <path d="M23.2498,16.5 C23.664,16.5 23.9998,16.8358 23.9998,17.25 C23.9998,17.6494 23.6875,17.9759 23.2938,17.9987 L23.2498,18 L0.75,18 C0.3358,18 0,17.6642 0,17.25 C0,16.8506 0.3122,16.5241 0.7059,16.5013 L0.75,16.5 L23.2498,16.5 Z M19.75,0 C21.5449,0 23,1.4551 23,3.25 L23,12.75 C23,14.5449 21.5449,16 19.75,16 L4.25,16 C2.4551,16 1,14.5449 1,12.75 L1,3.25 C1,1.4551 2.4551,0 4.25,0 L19.75,0 Z M19.75,1.5 L4.25,1.5 C3.2835,1.5 2.5,2.2835 2.5,3.25 L2.5,12.75 C2.5,13.7165 3.2835,14.5 4.25,14.5 L19.75,14.5 C20.7165,14.5 21.5,13.7165 21.5,12.75 L21.5,3.25 C21.5,2.2835 20.7165,1.5 19.75,1.5 Z" id="path-1"></path>
        <path d="M3.7426,0 C3.8753,0 4.0024,0.0527 4.0962,0.1464 C4.2915,0.3417 4.2915,0.6583 4.0962,0.8536 L2.4749,2.4749 C2.2796,2.6701 1.963,2.6701 1.7678,2.4749 L0.1465,0.8536 C0.0527,0.7598 0,0.6326 0,0.5 C0,0.2239 0.2239,0 0.5,0 L3.7426,0 Z" id="path-3"></path>
        <path d="M1.280375,0.219675 L3.755275,2.694575 C4.048175,2.987475 4.048175,3.462375 3.755275,3.755275 C3.462375,4.048175 2.987475,4.048175 2.694575,3.755275 L0.219675,1.280375 C-0.073225,0.987475 -0.073225,0.512575 0.219675,0.219675 C0.512575,-0.073225 0.987475,-0.073225 1.280375,0.219675 Z" id="path-5"></path>
        <path d="M4.815875,0.219675 C5.108775,-0.073225 5.583575,-0.073225 5.876475,0.219675 C6.169375,0.512575 6.169375,0.987375 5.876475,1.280275 L1.280275,5.876475 C0.987375,6.169375 0.512575,6.169375 0.219675,5.876475 C-0.073225,5.583575 -0.073225,5.108775 0.219675,4.815875 L4.815875,0.219675 Z" id="path-7"></path>
        <path d="M3.401675,0.219675 C3.694575,-0.073225 4.169475,-0.073225 4.462375,0.219675 C4.755275,0.512575 4.755275,0.987475 4.462375,1.280375 L1.280375,4.462375 C0.987475,4.755275 0.512575,4.755275 0.219675,4.462375 C-0.073225,4.169475 -0.073225,3.694575 0.219675,3.401675 L3.401675,0.219675 Z" id="path-9"></path>
    </defs>
    <g id="1首页" stroke="none" stroke-width="1" fill="none" fill-rule="evenodd">
        <g id="画板" transform="translate(-44.000000, -27.000000)">
            <g id="编组-37" transform="translate(44.000000, 24.000000)">
                <rect id="矩形" fill-opacity="0" fill="#FFFFFF" x="0" y="0" width="24" height="24"></rect>
                <g id="编组-19备份" transform="translate(0.000000, 3.000000)">
                    <g id="编组">
                        <mask id="mask-2" fill="white">
                            <use xlink:href="#path-1"></use>
                        </mask>
                        <g id="Clip-113"></g>
                        <polygon id="Fill-112" fill-opacity="0.9" fill="#000000" mask="url(#mask-2)" points="-1 -1 24.9998 -1 24.9998 19 -1 19"></polygon>
                    </g>
                    <g id="编组" transform="translate(13.957100, 4.500000)">
                        <mask id="mask-4" fill="white">
                            <use xlink:href="#path-3"></use>
                        </mask>
                        <g id="Clip-115"></g>
                        <polygon id="Fill-114" fill="#000000" mask="url(#mask-4)" points="7.0407 1.3351 2.1457 -3.5599 -2.7493 1.3351 2.1457 6.2301"></polygon>
                    </g>
                    <g id="编组" transform="translate(8.512525, 7.262525)">
                        <mask id="mask-6" fill="white">
                            <use xlink:href="#path-5"></use>
                        </mask>
                        <g id="Clip-117"></g>
                        <polygon id="Fill-116" fill="#000000" mask="url(#mask-6)" points="1.987475 -3.548025 7.522975 1.987475 1.987475 7.522975 -3.548025 1.987475"></polygon>
                    </g>
                    <g id="编组" transform="translate(10.951925, 5.201925)">
                        <mask id="mask-8" fill="white">
                            <use xlink:href="#path-7"></use>
                        </mask>
                        <g id="Clip-119"></g>
                        <polygon id="Fill-118" fill="#000000" mask="url(#mask-8)" points="3.048075 -4.608825 -4.608825 3.048075 3.048075 10.704975 10.704975 3.048075"></polygon>
                    </g>
                    <g id="编组" transform="translate(5.310625, 7.310625)">
                        <mask id="mask-10" fill="white">
                            <use xlink:href="#path-9"></use>
                        </mask>
                        <g id="Clip-121"></g>
                        <polygon id="Fill-120" fill="#000000" mask="url(#mask-10)" points="2.341075 -3.901625 -3.901625 2.341075 2.341075 8.583675 8.583675 2.341075"></polygon>
                    </g>
                </g>
            </g>
        </g>
    </g>
</svg>