<?xml version="1.0" encoding="UTF-8"?>
<svg width="40px" height="40px" viewBox="0 0 40 40" version="1.1" xmlns="http://www.w3.org/2000/svg" xmlns:xlink="http://www.w3.org/1999/xlink">
    <title>相册</title>
    <g id="5扫一扫" stroke="none" stroke-width="1" fill="none" fill-rule="evenodd">
        <g id="扫一扫/平板备份" transform="translate(-743.000000, -516.500000)" fill="#FFFFFF" fill-rule="nonzero">
            <g id="手电筒开关" transform="translate(361.000000, 413.000000)">
                <g id="相册" transform="translate(382.000000, 103.500000)">
                    <circle id="椭圆形" fill-opacity="0.2" cx="20" cy="20" r="20"></circle>
                    <path d="M14.4079447,31 C12.8304892,31 12.0627749,30.8517475 11.2648193,30.4249962 C10.5384552,30.0365324 9.96346758,29.4615448 9.57500382,28.7351807 C9.50994976,28.6135402 9.45365222,28.4982079 9.40282365,28.3805144 L9.40282365,28.3805144 L9.18684996,27.8804283 L9.22337575,27.8423144 C9.07636072,27.2906933 9,26.5587942 9,25.3594526 L9,14.6405474 C9,12.7209369 9.19561873,11.9988075 9.56345847,11.296712 L9.58769195,11.2509395 C9.95290681,10.568047 10.4807151,10.0251112 11.149558,9.64369094 L11.2509395,9.58769195 C11.9679764,9.20421634 12.6792062,9 14.6405474,9 L25.3594526,9 C27.2790631,9 28.0011925,9.19561873 28.703288,9.56345847 L28.7490605,9.58769195 C29.431953,9.95290681 29.9748888,10.4807151 30.356309,11.149558 L30.4123081,11.2509395 C30.7957837,11.9679764 31,12.6792062 31,14.6405474 L31,21.8062 L29.35,20.1551 L29.35,14.6405474 C29.35,13.1014426 29.2478082,12.5722503 28.9573163,12.0290776 C28.7276203,11.5995835 28.4004165,11.2723797 27.9709224,11.0426837 C27.4549083,10.7667163 26.9515116,10.6606899 25.5828719,10.6507772 L14.5269921,10.650193 L14.3053638,10.6518238 C13.0205898,10.6666944 12.5307977,10.7743609 12.0290776,11.0426837 C11.5995835,11.2723797 11.2723797,11.5995835 11.0426837,12.0290776 C10.7521917,12.5722503 10.65,13.1014426 10.65,14.6405474 L10.650193,25.4730079 L10.6518238,25.6946362 C10.6547664,25.9488718 10.6613428,26.1719778 10.6720786,26.3702063 L13.6542946,23.3882298 C14.3267845,22.7264615 14.7556963,22.4445294 15.3226493,22.272688 C15.8677704,22.1074638 16.4322296,22.1074638 16.9887343,22.2762283 L16.9887343,22.2762283 L17.0807914,22.3056969 C17.59773,22.4795869 18.0183629,22.7702265 18.6570207,23.3994199 L18.6570207,23.3994199 L18.7824836,23.5248213 C19.1050615,23.8469282 19.6277382,23.84687 19.9499612,23.5249736 L19.9499612,23.5249736 L23.061249,20.41446 C23.7337389,19.7526917 24.1626507,19.4707596 24.7296037,19.2989182 C25.2747247,19.1336939 25.839184,19.1336939 26.3843051,19.2989182 C26.9549122,19.4718671 27.3838457,19.7556017 28.0641097,20.4257846 L28.0641097,20.4257846 L31,23.3613857 L31,25.5920553 C31,27.1695108 30.8517475,27.9372251 30.4249962,28.7351807 C30.0365324,29.4615448 29.4615448,30.0365324 28.7351807,30.4249962 C27.9828225,30.8273617 27.2573483,30.9821474 25.8547007,30.9985235 L25.8547007,30.9985235 L25.5920553,31 L14.4079447,31 Z M25.9056973,20.8779795 C25.6726384,20.8073402 25.4412703,20.8073402 25.2082115,20.8779795 C24.9134665,20.9673156 24.6902385,21.1182831 24.1460698,21.6624518 L24.1460698,21.6624518 L21.1163787,24.6920085 C20.149745,25.6576623 18.5834592,25.6578372 17.6163268,24.6921165 L17.6163268,24.6921165 L17.4948228,24.5706417 C17.0238105,24.1066318 16.8002993,23.9521949 16.5670698,23.8736323 L16.5670698,23.8736323 L16.4987429,23.8517493 C16.265684,23.78111 16.034316,23.78111 15.8012571,23.8517493 C15.5065121,23.9410855 15.2832842,24.0920529 14.7391284,24.6362087 L14.7391284,24.6362087 L11.1790414,28.1971006 C11.2044251,28.2345677 11.2307072,28.2711089 11.2578918,28.3067283 C11.2568981,28.3089904 11.2574621,28.3097217 11.2580266,28.3104528 C11.2939855,28.3540213 11.3316702,28.3996894 11.3709556,28.4437422 C11.3823523,28.4588544 11.3950467,28.4726983 11.4078988,28.4863855 L11.3709556,28.4437422 C11.41459,28.4926719 11.4601992,28.539609 11.5077965,28.5845668 L11.4078988,28.4863855 C11.4488516,28.5299992 11.4914053,28.5720208 11.5355493,28.6124398 L11.5077965,28.5845668 C11.660851,28.7291338 11.8344631,28.8532353 12.0290776,28.9573163 C12.5450917,29.2332836 13.0484884,29.3393101 14.4171281,29.3492229 L14.6405474,29.35 L25.3594526,29.35 C26.8985574,29.35 27.4277497,29.2478082 27.9709224,28.9573163 C28.4004165,28.7276203 28.7276203,28.4004165 28.9573163,27.9709224 C29.2332836,27.4549083 29.3393101,26.9515116 29.3492228,25.5828719 L29.35,25.3594526 L29.35,24.8224 L29.349725,24.0447 L26.9017772,21.5968718 C26.4640831,21.1656848 26.2474106,21.0046513 26.0096109,20.9133993 L26.0096109,20.9133993 L25.9408841,20.889053 L25.9056973,20.8779795 Z M15.875,14.775 C16.9381481,14.775 17.8,15.6368519 17.8,16.7 C17.8,17.7631481 16.9381481,18.625 15.875,18.625 C14.8118519,18.625 13.95,17.7631481 13.95,16.7 C13.95,15.6368519 14.8118519,14.775 15.875,14.775 Z" id="形状结合"></path>
                </g>
            </g>
        </g>
    </g>
</svg>