<?xml version="1.0" encoding="UTF-8"?>
<svg width="20px" height="20px" viewBox="0 0 20 20" version="1.1" xmlns="http://www.w3.org/2000/svg" xmlns:xlink="http://www.w3.org/1999/xlink">
    <title>更多</title>
    <g id="5扫一扫" stroke="none" stroke-width="1" fill="none" fill-rule="evenodd">
        <g id="扫一扫/手机" transform="translate(-314.000000, -42.000000)" fill="#FFFFFF" fill-rule="nonzero">
            <g id="更多" transform="translate(314.000000, 42.000000)">
                <path d="M2.5,15 C3.88071187,15 5,16.1192881 5,17.5 C5,18.8807119 3.88071187,20 2.5,20 C1.11928813,20 0,18.8807119 0,17.5 C0,16.1192881 1.11928813,15 2.5,15 Z M17.5,15 C18.8807119,15 20,16.1192881 20,17.5 C20,18.8807119 18.8807119,20 17.5,20 C16.1192881,20 15,18.8807119 15,17.5 C15,16.1192881 16.1192881,15 17.5,15 Z M2.5,0 C3.88071187,0 5,1.11928813 5,2.5 C5,3.88071187 3.88071187,5 2.5,5 C1.11928813,5 0,3.88071187 0,2.5 C0,1.11928813 1.11928813,0 2.5,0 Z M17.5,0 C18.8807119,0 20,1.11928813 20,2.5 C20,3.88071187 18.8807119,5 17.5,5 C16.1192881,5 15,3.88071187 15,2.5 C15,1.11928813 16.1192881,0 17.5,0 Z" id="path-1"></path>
            </g>
        </g>
    </g>
</svg>