<?xml version="1.0" encoding="UTF-8"?>
<svg width="21.5px" height="19.4579542px" viewBox="0 0 21.5 19.4579542" version="1.1" xmlns="http://www.w3.org/2000/svg" xmlns:xlink="http://www.w3.org/1999/xlink">
    <title>编组</title>
    <g id="1、首页" stroke="none" stroke-width="1" fill="none" fill-rule="evenodd">
        <g id="首页/手机" transform="translate(-242.000000, -713.000000)" fill="#C0C2C4" fill-rule="nonzero">
            <g id="编组" transform="translate(242.000000, 713.000000)">
                <path d="M14,0 C18.1421356,0 21.5,3.35786438 21.5,7.5 C21.5,11.6421356 18.1421356,15 14,15 L12.992,15 L8.70109876,19.1694991 C7.98879599,19.8615105 6.85018745,19.2054723 7.01634813,18.2886077 L7.0414094,18.18172 L7.0555986,18.1360222 C7.34525694,17.2670472 7.569429,16.5305351 7.7278248,15.9289706 L7.7278248,15.9289706 L7.7841394,15.7097144 L7.7841394,15.7097144 L7.82408556,15.5448805 C7.86092949,15.3905291 7.91218799,15.1714148 7.95008134,14.9994258 L7.5,15 C3.35786438,15 0,11.6421356 0,7.5 C0,3.35786438 3.35786438,0 7.5,0 L14,0 Z M5.75,9 C6.44035594,9 7,8.4403559 7,7.75 C7,7.05964406 6.44035594,6.5 5.75,6.5 C5.05964406,6.5 4.5,7.05964406 4.5,7.75 C4.5,8.4403559 5.05964406,9 5.75,9 Z M10.75,9 C11.4403559,9 12,8.4403559 12,7.75 C12,7.05964406 11.4403559,6.5 10.75,6.5 C10.0596441,6.5 9.5,7.05964406 9.5,7.75 C9.5,8.4403559 10.0596441,9 10.75,9 Z M15.75,9 C16.4403559,9 17,8.4403559 17,7.75 C17,7.05964406 16.4403559,6.5 15.75,6.5 C15.0596441,6.5 14.5,7.05964406 14.5,7.75 C14.5,8.4403559 15.0596441,9 15.75,9 Z" id="path-1"></path>
            </g>
        </g>
    </g>
</svg>