<?xml version="1.0" encoding="UTF-8"?>
<svg width="22px" height="22px" viewBox="0 0 22 22" version="1.1" xmlns="http://www.w3.org/2000/svg" xmlns:xlink="http://www.w3.org/1999/xlink">
    <title>编组 45</title>
    <defs>
        <path d="M11,0 C17.075,0 22,4.9249 22,11 C22,17.0751 17.075,22 11,22 C4.925,22 0,17.0751 0,11 C0,4.9249 4.925,0 11,0 Z M11,1.5 C5.753,1.5 1.5,5.7533 1.5,11 C1.5,16.2467 5.753,20.5 11,20.5 C16.247,20.5 20.5,16.2467 20.5,11 C20.5,5.7533 16.247,1.5 11,1.5 Z M6.75,10 C7.44,10 8,10.5596 8,11.25 C8,11.9404 7.44,12.5 6.75,12.5 C6.06,12.5 5.5,11.9404 5.5,11.25 C5.5,10.5596 6.06,10 6.75,10 Z M11.25,10 C11.94,10 12.5,10.5596 12.5,11.25 C12.5,11.9404 11.94,12.5 11.25,12.5 C10.56,12.5 10,11.9404 10,11.25 C10,10.5596 10.56,10 11.25,10 Z M15.75,10 C16.44,10 17,10.5596 17,11.25 C17,11.9404 16.44,12.5 15.75,12.5 C15.06,12.5 14.5,11.9404 14.5,11.25 C14.5,10.5596 15.06,10 15.75,10 Z" id="path-1"></path>
    </defs>
    <g id="1首页" stroke="none" stroke-width="1" fill="none" fill-rule="evenodd">
        <g id="画板" transform="translate(-1053.000000, -95.000000)">
            <g id="编组-45" transform="translate(1052.000000, 94.000000)">
                <rect id="矩形备份-18" fill-opacity="0" fill="#FFFFFF" x="0" y="0" width="24" height="24"></rect>
                <g id="编组备份-12" transform="translate(1.000000, 1.000000)">
                    <mask id="mask-2" fill="white">
                        <use xlink:href="#path-1"></use>
                    </mask>
                    <g id="Clip-186"></g>
                    <polygon id="Fill-185" fill="#000000" mask="url(#mask-2)" points="23 -1 23 23 -1 23 -1 -1"></polygon>
                </g>
            </g>
        </g>
    </g>
</svg>