<?xml version="1.0" encoding="UTF-8"?>
<svg width="22px" height="22px" viewBox="0 0 22 22" version="1.1" xmlns="http://www.w3.org/2000/svg" xmlns:xlink="http://www.w3.org/1999/xlink">
    <title>更多</title>
    <defs>
        <path d="M11,0 C17.0751322,0 22,4.92486775 22,11 C22,17.0751322 17.0751322,22 11,22 C4.92486775,22 0,17.0751322 0,11 C0,4.92486775 4.92486775,0 11,0 Z M11,1.5 C5.75329488,1.5 1.5,5.75329488 1.5,11 C1.5,16.2467051 5.75329488,20.5 11,20.5 C16.2467051,20.5 20.5,16.2467051 20.5,11 C20.5,5.75329488 16.2467051,1.5 11,1.5 Z M11.25,14 C11.9403559,14 12.5,14.5596441 12.5,15.25 C12.5,15.9403559 11.9403559,16.5 11.25,16.5 C10.5596441,16.5 10,15.9403559 10,15.25 C10,14.5596441 10.5596441,14 11.25,14 Z M11.25,9.5 C11.9403559,9.5 12.5,10.0596441 12.5,10.75 C12.5,11.4403559 11.9403559,12 11.25,12 C10.5596441,12 10,11.4403559 10,10.75 C10,10.0596441 10.5596441,9.5 11.25,9.5 Z M11.25,5 C11.9403559,5 12.5,5.55964406 12.5,6.25 C12.5,6.94035594 11.9403559,7.5 11.25,7.5 C10.5596441,7.5 10,6.94035594 10,6.25 C10,5.55964406 10.5596441,5 11.25,5 Z" id="path-1"></path>
    </defs>
    <g id="1、首页" stroke="none" stroke-width="1" fill="none" fill-rule="evenodd">
        <g id="首页/手机" transform="translate(-308.000000, -286.000000)">
            <g id="更多" transform="translate(307.000000, 285.000000)">
                <rect id="矩形" x="0" y="0" width="24" height="24"></rect>
                <g id="Public/ic_public_detail" transform="translate(12.000000, 12.000000) rotate(90.000000) translate(-12.000000, -12.000000) translate(1.000000, 1.000000)">
                    <mask id="mask-2" fill="white">
                        <use xlink:href="#path-1"></use>
                    </mask>
                    <use id="形状结合" fill="#000000" fill-rule="nonzero" xlink:href="#path-1"></use>
                </g>
            </g>
        </g>
    </g>
</svg>