<?xml version="1.0" encoding="UTF-8"?>
<svg width="18.5px" height="22.4985938px" viewBox="0 0 18.5 22.4985938" version="1.1" xmlns="http://www.w3.org/2000/svg" xmlns:xlink="http://www.w3.org/1999/xlink">
    <title>编组 44</title>
    <defs>
        <path d="M10.827,0.576293835 L11.102,0.813993835 C11.192,0.892493835 11.28,0.970093835 11.367,1.04689384 L11.622,1.27499384 C11.663,1.31259384 11.704,1.34999384 11.745,1.38719384 L11.985,1.60789384 C12.141,1.75349384 12.291,1.89589384 12.434,2.03509384 L12.643,2.24149384 C12.915,2.51349384 13.16,2.77279384 13.379,3.01959384 C13.477,3.13019384 13.573,3.23949384 13.667,3.34759384 L13.944,3.66799384 L14.211,3.98149384 C15.3,5.27449384 16.123,6.40689384 16.808,7.60959384 C17.907,9.54149384 18.5,11.4529938 18.5,13.4091938 C18.5,18.4323938 14.355,22.4985938 9.25,22.4985938 L9.13,22.4985938 L8.983,22.4973938 C3.958,22.4174938 0,18.3955938 0,13.4091938 C0,10.4799938 1.276,7.76159384 3.676,4.73369384 L3.901,4.45329384 L4.132,4.17099384 C4.171,4.12379384 4.21,4.07649384 4.25,4.02919384 L4.49,3.74399384 L4.737,3.45669384 L4.863,3.31229384 L5.119,3.02169384 L5.351,2.76299384 L5.445,2.66209384 C5.461,2.64469384 5.478,2.62719384 5.495,2.60929384 L5.602,2.49929384 L5.717,2.38309384 L5.842,2.26079384 L5.975,2.13229384 L6.116,1.99739384 L6.346,1.78339384 L6.595,1.55509384 L6.864,1.31229384 L7.153,1.05499384 L7.357,0.875293835 L7.688,0.586693835 L7.759,0.527393835 C8.671,-0.195106165 9.954,-0.171906165 10.827,0.576293835 Z M8.704,1.69259384 L8.66,1.72929384 L8.249,2.08819384 L7.976,2.33039384 L7.721,2.55899384 L7.484,2.77389384 L7.337,2.90949384 L7.132,3.10129384 L6.946,3.27909384 L6.779,3.44289384 L6.678,3.54429384 L6.585,3.63939384 L6.501,3.72809384 C6.488,3.74239384 6.475,3.75639384 6.462,3.77009384 L6.238,4.02059384 L5.986,4.30589384 C3.049,7.66689384 1.5,10.4924938 1.5,13.4091938 C1.5,17.5764938 4.801,20.9306938 9.001,20.9975938 L9.136,20.9985884 L9.25,20.9985884 C13.533,20.9985884 17,17.5974938 17,13.4091938 C17,10.9180938 15.973,8.64949384 13.872,5.94919384 L13.662,5.68219384 C13.52,5.50319384 13.373,5.32229384 13.221,5.13919384 L12.99,4.86299384 L12.752,4.58349384 C12.712,4.53659384 12.672,4.48959384 12.631,4.44239384 L12.382,4.15759384 L12.256,4.01379384 C12.03,3.75879384 11.77,3.48599384 11.475,3.19579384 L11.273,2.99969384 L11.062,2.79839384 L10.84,2.59199384 L10.608,2.38039384 C10.529,2.30899384 10.448,2.23679384 10.365,2.16369384 L10.113,1.94189384 L9.851,1.71509384 C9.524,1.43479384 9.04,1.42599384 8.704,1.69259384 Z M11.43,8.50119384 C11.631,8.25519384 11.986,8.18399384 12.27,8.34809384 C12.586,8.53029384 12.694,8.93399384 12.512,9.24959384 L10.924,11.9984938 L11.5,11.9985938 L11.598,12.0056938 C11.916,12.0528938 12.16,12.3271938 12.16,12.6585938 C12.16,13.0230938 11.865,13.3185938 11.5,13.3185938 L9.96,13.3184938 L9.96,14.1984938 L11.5,14.1985938 L11.598,14.2056938 C11.916,14.2528938 12.16,14.5271938 12.16,14.8585938 C12.16,15.2230938 11.865,15.5185938 11.5,15.5185938 L9.96,15.5184938 L9.96,16.8385938 L9.953,16.9360938 C9.906,17.2543938 9.631,17.4985938 9.3,17.4985938 C8.936,17.4985938 8.64,17.2030938 8.64,16.8385938 L8.64,15.5184938 L7.1,15.5185938 L7.003,15.5113938 C6.684,15.4642938 6.44,15.1899938 6.44,14.8585938 C6.44,14.4940938 6.736,14.1985938 7.1,14.1985938 L8.64,14.1984938 L8.64,13.3184938 L7.1,13.3185938 L7.003,13.3113938 C6.684,13.2642938 6.44,12.9899938 6.44,12.6585938 C6.44,12.2940938 6.736,11.9985938 7.1,11.9985938 L7.675,11.9984938 L6.089,9.24959384 L6.042,9.15259384 C5.93,8.85549384 6.046,8.51209384 6.33,8.34809384 C6.646,8.16579384 7.049,8.27399384 7.232,8.58959384 L9.199,11.9984938 L9.4,11.9984938 L11.369,8.58959384 L11.43,8.50119384 Z" id="path-1"></path>
    </defs>
    <g id="1首页" stroke="none" stroke-width="1" fill="none" fill-rule="evenodd">
        <g id="画板" transform="translate(-1055.000000, -25.000000)">
            <g id="编组-44" transform="translate(1052.000000, 24.000000)">
                <rect id="矩形备份-16" fill-opacity="0" fill="#FFFFFF" x="0" y="0" width="24" height="24"></rect>
                <g id="编组备份-11" transform="translate(3.000000, 1.000000)">
                    <mask id="mask-2" fill="white">
                        <use xlink:href="#path-1"></use>
                    </mask>
                    <g id="Clip-140"></g>
                    <polygon id="Fill-139" fill="#000000" mask="url(#mask-2)" points="-1 23.4985938 19.5 23.4985938 19.5 -1.19512616 -1 -1.19512616"></polygon>
                </g>
            </g>
        </g>
    </g>
</svg>