<?xml version="1.0" encoding="UTF-8"?>
<svg width="27px" height="22px" viewBox="0 0 27 22" version="1.1" xmlns="http://www.w3.org/2000/svg" xmlns:xlink="http://www.w3.org/1999/xlink">
    <title>明细</title>
    <g id="1、首页" stroke="none" stroke-width="1" fill="none" fill-rule="evenodd">
        <g id="首页/这叠屏" transform="translate(-216.000000, -124.000000)">
            <g id="明细" transform="translate(181.000000, 96.000000)">
                <g id="编组-22" transform="translate(20.000000, 11.000000)">
                    <g id="明细" transform="translate(8.000000, 8.000000)">
                        <rect id="矩形" x="0" y="0" width="40" height="40"></rect>
                        <g id="收付款备份" transform="translate(7.000000, 9.000000)" fill="#FFFFFF" fill-rule="nonzero">
                            <g id="编组备份">
                                <path d="M22.7258346,2.87461556e-21 C25.0863909,2.87461556e-21 27,1.93203331 27,4.31531719 L27,17.6846828 C27,20.0679668 25.0863909,22 22.7258346,22 L4.27416539,22 C1.91360903,22 1.51906914e-24,20.0679668 1.51906914e-24,17.6846828 L1.51906914e-24,4.31531719 C1.51906914e-24,1.93203331 1.91360903,2.87461556e-21 4.27416539,2.87461556e-21 L22.7258346,2.87461556e-21 Z M10.88955,5.96546331 C10.1026979,5.96546331 9.46482818,6.6094744 9.46482818,7.40390237 L9.46482818,7.40390237 L9.46482818,14.5960977 C9.46482818,15.3905257 10.1026979,16.0345367 10.88955,16.0345367 C11.6764021,16.0345367 12.3142718,15.3905257 12.3142718,14.5960977 L12.3142718,14.5960977 L12.3142718,7.40390237 C12.3142718,6.6094744 11.6764021,5.96546331 10.88955,5.96546331 Z M20.4527163,5.96546331 C19.6658643,5.96546331 19.0279945,6.6094744 19.0279945,7.40390237 L19.0279945,7.40390237 L19.0279945,14.5960977 C19.0279945,15.3905257 19.6658643,16.0345367 20.4527163,16.0345367 C21.2395685,16.0345367 21.8774381,15.3905257 21.8774381,14.5960977 L21.8774381,14.5960977 L21.8774381,7.40390237 C21.8774381,6.6094744 21.2395685,5.96546331 20.4527163,5.96546331 Z M6.10796679,5.96546331 C5.56374267,5.96546331 5.12256186,6.41089182 5.12256186,6.96035575 L5.12256186,6.96035575 L5.12256186,15.0396442 C5.12256186,15.5891083 5.56374267,16.0345367 6.10796679,16.0345367 C6.65219091,16.0345367 7.09337173,15.5891083 7.09337173,15.0396442 L7.09337173,15.0396442 L7.09337173,6.96035575 C7.09337173,6.41089182 6.65219091,5.96546331 6.10796679,5.96546331 Z M15.6711332,5.96546331 C15.1269091,5.96546331 14.6857282,6.41089182 14.6857282,6.96035575 L14.6857282,6.96035575 L14.6857282,15.0396442 C14.6857282,15.5891083 15.1269091,16.0345367 15.6711332,16.0345367 C16.2153573,16.0345367 16.6565381,15.5891083 16.6565381,15.0396442 L16.6565381,15.0396442 L16.6565381,6.96035575 C16.6565381,6.41089182 16.2153573,5.96546331 15.6711332,5.96546331 Z" id="形状"></path>
                                <rect id="矩形" fill-opacity="0.6" x="9.4652184" y="5.96600592" width="2.84944359" height="10.0690734" rx="1.125"></rect>
                            </g>
                        </g>
                    </g>
                </g>
            </g>
        </g>
    </g>
</svg>