<?xml version="1.0" encoding="UTF-8"?>
<svg width="23.5px" height="17.5px" viewBox="0 0 23.5 17.5" version="1.1" xmlns="http://www.w3.org/2000/svg" xmlns:xlink="http://www.w3.org/1999/xlink">
    <title>编组 42</title>
    <defs>
        <path d="M9,0 C10.6569,0 12,1.3431 12,3 L12,5 C12,6.6569 10.6569,8 9,8 L3,8 C1.3431,8 0,6.6569 0,5 L0,3 C0,1.3431 1.3431,0 3,0 L9,0 Z M9,1.5 L3,1.5 C2.1716,1.5 1.5,2.1716 1.5,3 L1.5,5 C1.5,5.8284 2.1716,6.5 3,6.5 L9,6.5 C9.8284,6.5 10.5,5.8284 10.5,5 L10.5,3 C10.5,2.1716 9.8284,1.5 9,1.5 Z" id="path-1"></path>
        <path d="M8.25,0 C9.7688,0 11,1.3431 11,3 L11,5 C11,6.6569 9.7688,8 8.25,8 L2.75,8 C1.2312,8 0,6.6569 0,5 L0,3 C0,1.3431 1.2312,0 2.75,0 L8.25,0 Z M8.1667,1.5 L2.8333,1.5 C2.097,1.5 1.5,2.1716 1.5,3 L1.5,5 C1.5,5.8284 2.097,6.5 2.8333,6.5 L8.1667,6.5 C8.903,6.5 9.5,5.8284 9.5,5 L9.5,3 C9.5,2.1716 8.903,1.5 8.1667,1.5 Z" id="path-3"></path>
        <path d="M8.25,0 C9.7688,0 11,1.3431 11,3 L11,5 C11,6.6569 9.7688,8 8.25,8 L2.75,8 C1.2312,8 0,6.6569 0,5 L0,3 C0,1.3431 1.2312,0 2.75,0 L8.25,0 Z M8.1667,1.5 L2.8333,1.5 C2.097,1.5 1.5,2.1716 1.5,3 L1.5,5 C1.5,5.8284 2.097,6.5 2.8333,6.5 L8.1667,6.5 C8.903,6.5 9.5,5.8284 9.5,5 L9.5,3 C9.5,2.1716 8.903,1.5 8.1667,1.5 Z" id="path-5"></path>
    </defs>
    <g id="1首页" stroke="none" stroke-width="1" fill="none" fill-rule="evenodd">
        <g id="画板" transform="translate(-764.000000, -27.000000)">
            <g id="编组-42" transform="translate(764.000000, 24.000000)">
                <rect id="矩形备份-12" fill-opacity="0" fill="#FFFFFF" x="0" y="0" width="24" height="24"></rect>
                <g id="编组-10备份" transform="translate(0.000000, 3.000000)">
                    <g id="编组" transform="translate(5.500000, 0.000000)">
                        <mask id="mask-2" fill="white">
                            <use xlink:href="#path-1"></use>
                        </mask>
                        <g id="Clip-124"></g>
                        <polygon id="Fill-123" fill="#000000" mask="url(#mask-2)" points="-1 -1 13 -1 13 9 -1 9"></polygon>
                    </g>
                    <g id="编组" transform="translate(12.500000, 9.500000)">
                        <mask id="mask-4" fill="white">
                            <use xlink:href="#path-3"></use>
                        </mask>
                        <g id="Clip-126"></g>
                        <polygon id="Fill-125" fill="#000000" mask="url(#mask-4)" points="-1 -1 12 -1 12 9 -1 9"></polygon>
                    </g>
                    <g id="编组" transform="translate(0.000000, 9.500000)">
                        <mask id="mask-6" fill="white">
                            <use xlink:href="#path-5"></use>
                        </mask>
                        <g id="Clip-128"></g>
                        <polygon id="Fill-127" fill="#000000" mask="url(#mask-6)" points="-1 -1 12 -1 12 9 -1 9"></polygon>
                    </g>
                </g>
            </g>
        </g>
    </g>
</svg>