<?xml version="1.0" encoding="UTF-8"?>
<svg width="22px" height="24px" viewBox="0 0 22 24" version="1.1" xmlns="http://www.w3.org/2000/svg" xmlns:xlink="http://www.w3.org/1999/xlink">
    <title>编组 46</title>
    <defs>
        <path d="M17.3301,0 C17.7234,0 18.0422,0.3211 18.0422,0.7171 C18.0422,0.8223 18.0192,0.9262 17.9749,1.0214 L16.2087,4.8169 C19.6566,6.687 22,10.356 22,14.5762 C22,20.6941 17.1962,24 11.1211,24 C5.0459,24 0,20.6941 0,14.5762 C0,10.356 2.3434,6.687 5.7913,4.8169 L4.0251,1.0214 C3.8582,0.6628 4.0116,0.2358 4.3677,0.0678 C4.4623,0.0231 4.5655,0 4.6699,0 L17.3301,0 Z" id="path-1"></path>
        <path d="M5.42948942,0.241713951 C5.63058942,-0.00428604864 5.98598942,-0.0754860486 6.27008942,0.0885139514 C6.58578942,0.270813951 6.69388942,0.674413951 6.51168942,0.990113951 L4.92398942,3.73901395 L5.50008942,3.73911395 L5.59758942,3.74621395 C5.91588942,3.79331395 6.16008942,4.06771395 6.16008942,4.39911395 C6.16008942,4.76361395 5.86458942,5.05911395 5.50008942,5.05911395 L3.95998942,5.05901395 L3.95998942,5.93901395 L5.50008942,5.93911395 L5.59758942,5.94621395 C5.91588942,5.99331395 6.16008942,6.26771395 6.16008942,6.59911395 C6.16008942,6.96361395 5.86458942,7.25911395 5.50008942,7.25911395 L3.95998942,7.25901395 L3.96008942,8.57911395 L3.95298942,8.67661395 C3.90578942,8.99481395 3.63148942,9.23911395 3.30008942,9.23911395 C2.93558942,9.23911395 2.64008942,8.94361395 2.64008942,8.57911395 L2.63998942,7.25901395 L1.10008942,7.25911395 L1.00258942,7.25191395 C0.684289418,7.20481395 0.440089418,6.93041395 0.440089418,6.59911395 C0.440089418,6.23451395 0.735589418,5.93911395 1.10008942,5.93911395 L2.63998942,5.93901395 L2.63998942,5.05901395 L1.10008942,5.05911395 L1.00258942,5.05191395 C0.684289418,5.00481395 0.440089418,4.73041395 0.440089418,4.39911395 C0.440089418,4.03451395 0.735589418,3.73911395 1.10008942,3.73911395 L1.67498942,3.73901395 L0.0884894182,0.990113951 L0.0424894182,0.893113951 C-0.0700105818,0.595913951 0.0459894182,0.252613951 0.330089418,0.0885139514 C0.645789418,-0.0936860486 1.04938942,0.0144139514 1.23168942,0.330113951 L3.19898942,3.73901395 L3.39998942,3.73901395 L5.36848942,0.330113951 L5.42948942,0.241713951 Z" id="path-3"></path>
    </defs>
    <g id="1首页" stroke="none" stroke-width="1" fill="none" fill-rule="evenodd">
        <g id="画板" transform="translate(-45.000000, -94.000000)">
            <g id="编组-46" transform="translate(44.000000, 94.000000)">
                <rect id="矩形备份-20" fill-opacity="0" fill="#FFFFFF" x="0" y="0" width="24" height="24"></rect>
                <g id="编组-17备份" transform="translate(1.000000, 0.000000)">
                    <g id="编组">
                        <mask id="mask-2" fill="white">
                            <use xlink:href="#path-1"></use>
                        </mask>
                        <g id="Clip-146"></g>
                        <path d="M17.33009,0 C17.72338,0 18.0422,0.3210629 18.0422,0.7171141 C18.0422,0.8222979 18.01922,0.926194 17.97489,1.021437 L16.20868,4.816895 C19.65657,6.68701 22,10.35599 22,14.57616 C22,20.69405 17.19619,24 11.12106,24 C5.045923,24 0,20.69405 0,14.57616 C0,10.35599 2.343427,6.68701 5.791323,4.816895 L4.025106,1.021437 C3.858208,0.6628169 4.011597,0.2358483 4.367711,0.06777562 C4.462288,0.02313867 4.565458,0 4.669906,0 L17.33009,0 Z" id="Stroke-145" stroke="#000000" stroke-width="3" stroke-linejoin="round" mask="url(#mask-2)"></path>
                    </g>
                    <g id="编组" transform="translate(7.500011, 9.499986)">
                        <mask id="mask-4" fill="white">
                            <use xlink:href="#path-3"></use>
                        </mask>
                        <g id="Clip-148"></g>
                        <polygon id="Fill-147" fill="#000000" mask="url(#mask-4)" points="-1.07001058 -1.09368605 7.69388942 -1.09368605 7.69388942 10.239114 -1.07001058 10.239114"></polygon>
                    </g>
                </g>
            </g>
        </g>
    </g>
</svg>