<?xml version="1.0" encoding="UTF-8"?>
<svg width="22.9900393px" height="16.6744187px" viewBox="0 0 22.9900393 16.6744187" version="1.1" xmlns="http://www.w3.org/2000/svg" xmlns:xlink="http://www.w3.org/1999/xlink">
    <title>编组备份</title>
    <g id="2、收款" stroke="none" stroke-width="1" fill="none" fill-rule="evenodd">
        <g id="收款/折叠屏" transform="translate(-122.000000, -597.000000)" fill="#000000" fill-rule="nonzero">
            <g id="弹窗" transform="translate(98.000000, 61.000000)">
                <g id="编组备份" transform="translate(24.000000, 536.000000)">
                    <path d="M19.6297132,0.22021633 C21.767174,2.36208412 22.9900393,5.25753275 22.9900393,8.3446605 C22.9900393,11.4239324 21.7734214,14.3126391 19.6455849,16.4531692 C19.3535641,16.7469322 18.8786924,16.7483444 18.5849295,16.4563235 C18.2911665,16.1643026 18.2897543,15.6894309 18.5817752,15.395668 C20.4329978,13.5334019 21.4900393,11.0235894 21.4900393,8.3446605 C21.4900393,5.6589026 20.4275654,3.14322181 18.5679613,1.27978367 C18.2753698,0.98658898 18.2758589,0.5117155 18.5690535,0.21912406 C18.8622482,-0.0734673798 19.3371217,-0.0729783498 19.6297132,0.22021633 Z M7.67146054,2.02188408 C8.4325828,1.42622318 9.53247286,1.56035612 10.1281338,2.32147837 C10.3690847,2.62936011 10.5,3.00905937 10.5,3.40001783 L10.5,3.40001783 L10.5,13.295134 C10.5,14.2616323 9.71649831,15.045134 8.75,15.045134 C8.35904154,15.045134 7.97934229,14.9142187 7.67138834,14.6732113 L7.67138834,14.6732113 L4.38,12.0965759 L2.25,12.0975759 C1.05913601,12.0975759 0.084355084,11.1724143 0.00519081254,10.0016247 L0.00519081254,10.0016247 L0,9.8475759 L0,6.8475759 C0,5.60493524 1.00735931,4.59757593 2.24981101,4.59757595 L2.24981101,4.59757595 L4.379,4.59657593 L7.67146054,2.02188408 Z M16.4901783,2.74794378 C17.9618152,4.22261488 18.8039928,6.21668727 18.8039928,8.3421781 C18.8039928,10.4622592 17.966117,12.4516903 16.5011051,13.9254418 C16.2090842,14.2192047 15.7342125,14.2206169 15.4404496,13.928596 C15.1466866,13.6365751 15.1452744,13.1617035 15.4372953,12.8679406 C16.6256934,11.6724531 17.3039928,10.0619162 17.3039928,8.3421781 C17.3039928,6.6180571 16.6222066,5.00375258 15.4284264,3.80751111 C15.1358349,3.51431643 15.136324,3.03944294 15.4295187,2.7468515 C15.7227133,2.45426006 16.1975868,2.45474909 16.4901783,2.74794378 Z M8.94687625,3.24594076 C8.86178184,3.13720901 8.70465469,3.11804716 8.59586895,3.20318383 L8.59586895,3.20318383 L4.89763507,6.09690879 L2.25,6.09757593 C1.83578644,6.09757593 1.5,6.4333624 1.5,6.8475759 L1.5,6.8475759 L1.5,9.8475759 C1.5,10.2617895 1.83578644,10.5975759 2.24981101,10.597576 L2.24981101,10.597576 L4.89755819,10.5969088 L8.59592293,13.4920103 C8.63990604,13.5264318 8.69414879,13.545134 8.75,13.545134 C8.88807119,13.545134 9,13.4332052 9,13.295134 L9,13.295134 L9,3.40001783 C9,3.34416662 8.98129781,3.28992387 8.94687625,3.24594076 Z M13.6408603,5.4589851 C14.3913218,6.22869506 14.819589,7.2598911 14.819589,8.3567087 C14.819589,9.4671715 14.3805594,10.5100877 13.613475,11.2822585 C13.3215512,11.576118 12.8466801,11.5776871 12.5528206,11.2857634 C12.2589611,10.9938396 12.2573919,10.5189685 12.5493157,10.225109 C13.0399975,9.7311736 13.319589,9.067003 13.319589,8.3567087 C13.319589,7.6551196 13.0468694,6.9984563 12.5668561,6.5061312 C12.2776947,6.2095531 12.2837071,5.73471743 12.5802852,5.44555603 C12.8768633,5.15639462 13.3516989,5.16240702 13.6408603,5.4589851 Z" id="path-1"></path>
                </g>
            </g>
        </g>
    </g>
</svg>