<?xml version="1.0" encoding="UTF-8"?>
<svg width="18px" height="22.000228px" viewBox="0 0 18 22.000228" version="1.1" xmlns="http://www.w3.org/2000/svg" xmlns:xlink="http://www.w3.org/1999/xlink">
    <title>编组</title>
    <g id="2、收款" stroke="none" stroke-width="1" fill="none" fill-rule="evenodd">
        <g id="收款/折叠屏" transform="translate(-122.000000, -642.000000)" fill="#000000" fill-rule="nonzero">
            <g id="弹窗" transform="translate(98.000000, 61.000000)">
                <g id="编组" transform="translate(24.000000, 581.000000)">
                    <path d="M11.764,0 L18,6.2355 L18,7.75022798 L13.25,7.75022798 C11.5931458,7.75022798 10.25,6.40708223 10.25,4.75022798 L10.25,1.499 L4,1.50022798 C2.64269002,1.50022798 1.53801707,2.58189568 1.50096045,3.93025177 L1.5,18.000228 C1.5,19.357538 2.5816677,20.4622109 3.93002379,20.4992676 L4,20.500228 L14,20.500228 C15.35731,20.500228 16.4619829,19.4185603 16.4990396,18.0702042 L16.5,18.000228 L16.5,8.75 L18,8.75 L18,18.000228 C18,20.209367 16.209139,22.000228 14,22.000228 L4,22.000228 C1.790861,22.000228 0,20.209367 0,18.000228 L0,4.00022798 C0,1.79108898 1.790861,0.000227984 4,0.000227984 L11.764,0 Z M13.5,13.750228 C13.9142136,13.750228 14.25,14.0860144 14.25,14.500228 C14.25,14.9144416 13.9142136,15.250228 13.5,15.250228 L4.5,15.250228 C4.08578644,15.250228 3.75,14.9144416 3.75,14.500228 C3.75,14.0860144 4.08578644,13.750228 4.5,13.750228 L13.5,13.750228 Z M8.5,9.50022798 C8.9142136,9.50022798 9.25,9.83601438 9.25,10.250228 C9.25,10.6644416 8.9142136,11.000228 8.5,11.000228 L4.5,11.000228 C4.08578644,11.000228 3.75,10.6644416 3.75,10.250228 C3.75,9.83601438 4.08578644,9.50022798 4.5,9.50022798 L8.5,9.50022798 Z M11.75,2.107 L11.75,4.75022798 C11.75,5.55982722 12.3913937,6.21962092 13.1937654,6.24919336 L13.25,6.25022798 L15.894,6.25 L11.75,2.107 Z" id="path-1"></path>
                </g>
            </g>
        </g>
    </g>
</svg>