<?xml version="1.0" encoding="UTF-8"?>
<svg width="24px" height="24px" viewBox="0 0 24 24" version="1.1" xmlns="http://www.w3.org/2000/svg" xmlns:xlink="http://www.w3.org/1999/xlink">
    <title>收款</title>
    <g id="2、收款" stroke="none" stroke-width="1" fill="none" fill-rule="evenodd">
        <g id="首页/平板" transform="translate(-424.000000, -107.000000)" fill="#FF8F1F" fill-rule="nonzero">
            <g id="弹窗" transform="translate(400.000000, 80.000000)">
                <g id="编组-4" transform="translate(24.000000, 25.000000)">
                    <g id="收款" transform="translate(0.000000, 2.000000)">
                        <circle id="椭圆形" fill-opacity="0.2" cx="12" cy="12" r="12"></circle>
                        <g id="编组" transform="translate(7.000000, 6.000000)">
                            <path d="M7.90903989,7.02174144 C8.05567444,6.88228552 8.29341605,6.86654612 8.44005066,6.98935477 L8.44005066,6.98935477 L9.89002409,8.28603634 C10.0366586,8.4254922 10.0366586,8.65383907 9.89002409,8.79329493 L9.89002409,8.79329493 L8.44005066,10.0899765 C8.36963423,10.1491421 8.27412909,10.1785955 8.17454524,10.1721324 C7.96717266,10.1586738 7.79906399,9.9996715 7.79906399,9.81699077 L7.79906399,9.81699077 L7.79856366,9.3724911 L0.868456469,9.37269689 C0.388821205,9.37269689 -2.72697478e-16,8.99974735 -2.72697478e-16,8.53969082 C-2.72697478e-16,8.10669638 0.344422936,7.75086254 0.784818317,7.71049801 L0.868456469,7.70668474 L7.79856366,7.7062265 L7.79906399,7.26234056 C7.79906399,7.19215943 7.82438206,7.12279712 7.87056251,7.06384946 L7.90903989,7.02174144 Z" id="路径" fill-opacity="0.6"></path>
                            <path d="M5.86820118,6.00008394 L5.86867915,11.1669939 C5.86867915,11.6270505 5.47985795,12 5.00022269,12 C4.54880127,12 4.17782413,11.6696364 4.13574177,11.2472179 L4.13176622,11.1669939 L4.13163913,6.00008394 L5.86820118,6.00008394 Z M8.75195722,0.230438497 C9.07577937,0.5269141 9.10851197,1.00600515 8.84218292,1.33913661 L8.78053208,1.40816811 L5.86820118,4.33381933 L5.86820118,4.33440832 L4.13163913,4.33381933 L4.13163913,4.31025956 L1.22241542,1.41067199 C0.889802891,1.07920778 0.900307308,0.551873754 1.2458777,0.232838466 C1.56841005,-0.0649278077 2.06882809,-0.0760019017 2.40454332,0.193337634 L2.47383649,0.255343004 L5.0099508,2.78347582 L7.52410678,0.257846883 C7.85527764,-0.0749427882 8.40500502,-0.0872139417 8.75195722,0.230438497 Z" id="形状"></path>
                            <path d="M2.09096009,3.64936369 C2.16137648,3.71578938 2.20093601,3.80223644 2.20093601,3.88996282 L2.2007915,4.33384879 L9.13154352,4.334307 C9.61117877,4.334307 10,4.70725653 10,5.16731309 C10,5.60030749 9.65557704,5.95614135 9.21518171,5.9965059 L9.13154352,6.00031917 L2.2007915,6.00011339 L2.20093601,6.44461303 C2.20093601,6.62729376 2.03282731,6.7862961 1.82545473,6.79975468 C1.7258709,6.80621772 1.63036577,6.7767644 1.55994937,6.71759878 L0.109975922,5.42091724 C-0.0366586406,5.28146134 -0.0366586406,5.0531145 0.109975922,4.91365861 L1.55994937,3.61697707 C1.70658393,3.49416839 1.94432552,3.5099078 2.09096009,3.64936369 Z" id="路径" fill-opacity="0.6"></path>
                        </g>
                    </g>
                </g>
            </g>
        </g>
    </g>
</svg>