<?xml version="1.0" encoding="UTF-8"?>
<svg width="24px" height="24px" viewBox="0 0 24 24" version="1.1" xmlns="http://www.w3.org/2000/svg" xmlns:xlink="http://www.w3.org/1999/xlink">
    <title>账户</title>
    <g id="1、首页" stroke="none" stroke-width="1" fill="none" fill-rule="evenodd">
        <g id="首页/这叠屏" transform="translate(-62.000000, -123.000000)">
            <g id="扫一扫" transform="translate(24.000000, 96.000000)">
                <g id="编组-21" transform="translate(21.000000, 11.000000)">
                    <g id="账户" transform="translate(9.000000, 8.000000)">
                        <rect id="矩形" x="0" y="0" width="40" height="40"></rect>
                        <g id="扫一扫" transform="translate(8.000000, 8.000000)" fill="#FFFFFF" fill-rule="nonzero">
                            <path d="M23.1,14.4 C23.555635,14.4 23.9321892,14.7385847 23.9917841,15.1778753 L24,15.3 L24,19.2 C24,21.7706345 21.9792378,23.8692947 19.4395684,23.9941256 L19.2,24 L15.3,24 C14.8029437,24 14.4,23.5970563 14.4,23.1 C14.4,22.644365 14.7385847,22.2678108 15.1778753,22.2082159 L15.3,22.2 L19.2,22.2 C20.7905801,22.2 22.0920464,20.9621569 22.1936188,19.3972508 L22.2,19.2 L22.2,15.3 C22.2,14.8029437 22.6029437,14.4 23.1,14.4 Z M0.9,14.4 C1.35563492,14.4 1.73218915,14.7385847 1.79178406,15.1778753 L1.8,15.3 L1.8,19.2 C1.8,20.7905801 3.03784313,22.0920464 4.60274917,22.1936188 L4.8,22.2 L8.7,22.2 C9.19705627,22.2 9.6,22.6029437 9.6,23.1 C9.6,23.555635 9.26141534,23.9321892 8.82212467,23.9917841 L8.7,24 L4.8,24 C2.22936553,24 0.130705344,21.9792378 0.005874372,19.4395684 L0,19.2 L0,15.3 C0,14.8029437 0.402943728,14.4 0.9,14.4 Z M19.5,11.1 C19.9970563,11.1 20.4,11.5029437 20.4,12 C20.4,12.4970563 19.9970563,12.9 19.5,12.9 L4.5,12.9 C4.00294373,12.9 3.6,12.4970563 3.6,12 C3.6,11.5029437 4.00294373,11.1 4.5,11.1 L19.5,11.1 Z M19.2,0 C21.7706345,0 23.8692947,2.02076216 23.9941256,4.56043159 L24,4.8 L24,8.7 C24,9.19705627 23.5970563,9.6 23.1,9.6 C22.644365,9.6 22.2678108,9.26141534 22.2082159,8.82212467 L22.2,8.7 L22.2,4.8 C22.2,3.20941992 20.9621569,1.9079536 19.3972508,1.80638122 L19.2,1.8 L15.3,1.8 C14.8029437,1.8 14.4,1.39705627 14.4,0.9 C14.4,0.444365076 14.7385847,0.067810848 15.1778753,0.008215944 L15.3,0 L19.2,0 Z M8.7,0 C9.19705627,0 9.6,0.402943728 9.6,0.9 C9.6,1.35563492 9.26141534,1.73218915 8.82212467,1.79178406 L8.7,1.8 L4.8,1.8 C3.20941992,1.8 1.9079536,3.03784313 1.80638122,4.60274917 L1.8,4.8 L1.8,8.7 C1.8,9.19705627 1.39705627,9.6 0.9,9.6 C0.444365076,9.6 0.067810848,9.26141534 0.008215944,8.82212467 L0,8.7 L0,4.8 C0,2.22936553 2.02076216,0.130705344 4.56043159,0.005874372 L4.8,0 L8.7,0 Z" id="path-1"></path>
                        </g>
                    </g>
                </g>
            </g>
        </g>
    </g>
</svg>