<?xml version="1.0" encoding="UTF-8"?>
<svg width="22px" height="22px" viewBox="0 0 22 22" version="1.1" xmlns="http://www.w3.org/2000/svg" xmlns:xlink="http://www.w3.org/1999/xlink">
    <title>编组 41</title>
    <defs>
        <path d="M11,0 C17.0751,0 22,4.9249 22,11 L20.5,11 C20.5,5.7533 16.2467,1.5 11,1.5 C10.3229,1.5 9.6555,1.5707 9.0051,1.7097 C4.6579,2.6383 1.5,6.4969 1.5,11 C1.5,16.2467 5.7533,20.5 11,20.5 C11.9442,20.5 12.8692,20.3625 13.7543,20.0948 C15.0604,19.6998 16.2629,19.0262 17.284,18.1249 C17.5945,17.8508 18.0685,17.8803 18.3426,18.1908 C18.6167,18.5014 18.5872,18.9753 18.2766,19.2494 C17.0948,20.2927 15.702,21.0729 14.1885,21.5306 C13.163,21.8407 12.0917,22 11,22 C4.9249,22 0,17.0751 0,11 C0,5.7856 3.6559,1.3185 8.6917,0.2427 C9.445,0.0818 10.2175,0 11,0 Z M20.5,11 L20.4904062,11.4309969 C20.4712437,11.86055 20.42345,12.285575 20.3477,12.7043 C20.2739,13.1118 20.5445,13.5021 20.9521,13.5759 C21.3257333,13.64355 21.6847458,13.4218083 21.7988314,13.0704258 L21.817,12.995 L21.7914506,13.1426447 C21.709358,13.5584686 21.6038321,13.965869 21.4763062,14.3634052 L21.3415,14.7576 L21.3134484,14.8183953 C21.2805188,14.8764312 21.2334,14.92565 21.1761,14.9612 C20.9881,15.0777 20.7412,15.0198 20.6247,14.8318 L18.7231,11.7634 C18.6741,11.6843 18.6481,11.5931 18.6481,11.5 C18.6481,11.2239 18.872,11 19.1481,11 L20.5,11 Z" id="path-1"></path>
        <path d="M5.42948942,0.241713951 C5.63058942,-0.00428604864 5.98598942,-0.0754860486 6.27008942,0.0885139514 C6.58578942,0.270813951 6.69388942,0.674413951 6.51168942,0.990113951 L4.92398942,3.73901395 L5.50008942,3.73911395 L5.59758942,3.74621395 C5.91588942,3.79331395 6.16008942,4.06771395 6.16008942,4.39911395 C6.16008942,4.76361395 5.86458942,5.05911395 5.50008942,5.05911395 L3.95998942,5.05901395 L3.95998942,5.93901395 L5.50008942,5.93911395 L5.59758942,5.94621395 C5.91588942,5.99331395 6.16008942,6.26771395 6.16008942,6.59911395 C6.16008942,6.96361395 5.86458942,7.25911395 5.50008942,7.25911395 L3.95998942,7.25901395 L3.96008942,8.57911395 L3.95298942,8.67661395 C3.90578942,8.99481395 3.63148942,9.23911395 3.30008942,9.23911395 C2.93558942,9.23911395 2.64008942,8.94361395 2.64008942,8.57911395 L2.63998942,7.25901395 L1.10008942,7.25911395 L1.00258942,7.25191395 C0.684289418,7.20481395 0.440089418,6.93041395 0.440089418,6.59911395 C0.440089418,6.23451395 0.735589418,5.93911395 1.10008942,5.93911395 L2.63998942,5.93901395 L2.63998942,5.05901395 L1.10008942,5.05911395 L1.00258942,5.05191395 C0.684289418,5.00481395 0.440089418,4.73041395 0.440089418,4.39911395 C0.440089418,4.03451395 0.735589418,3.73911395 1.10008942,3.73911395 L1.67498942,3.73901395 L0.0884894182,0.990113951 L0.0424894182,0.893113951 C-0.0700105818,0.595913951 0.0459894182,0.252613951 0.330089418,0.0885139514 C0.645789418,-0.0936860486 1.04938942,0.0144139514 1.23168942,0.330113951 L3.19898942,3.73901395 L3.39998942,3.73901395 L5.36848942,0.330113951 L5.42948942,0.241713951 Z" id="path-3"></path>
    </defs>
    <g id="1首页" stroke="none" stroke-width="1" fill="none" fill-rule="evenodd">
        <g id="画板" transform="translate(-621.000000, -25.000000)">
            <g id="编组-41" transform="translate(620.000000, 24.000000)">
                <rect id="矩形备份-10" fill-opacity="0" fill="#FFFFFF" x="0" y="0" width="24" height="24"></rect>
                <g id="编组-9备份" transform="translate(1.000000, 1.000000)">
                    <g id="编组">
                        <mask id="mask-2" fill="white">
                            <use xlink:href="#path-1"></use>
                        </mask>
                        <g id="Clip-181"></g>
                        <polygon id="Fill-180" fill-opacity="0.9" fill="#000000" mask="url(#mask-2)" points="-1 -1 23 -1 23 23 -1 23"></polygon>
                    </g>
                    <g id="编组" transform="translate(7.500011, 6.499986)">
                        <mask id="mask-4" fill="white">
                            <use xlink:href="#path-3"></use>
                        </mask>
                        <g id="Clip-183"></g>
                        <polygon id="Fill-182" fill="#000000" mask="url(#mask-4)" points="-1.07001058 -1.09368605 7.69388942 -1.09368605 7.69388942 10.239114 -1.07001058 10.239114"></polygon>
                    </g>
                </g>
            </g>
        </g>
    </g>
</svg>