<?xml version="1.0" encoding="UTF-8"?>
<svg width="26px" height="24px" viewBox="0 0 26 24" version="1.1" xmlns="http://www.w3.org/2000/svg" xmlns:xlink="http://www.w3.org/1999/xlink">
    <title>出行</title>
    <g id="1、首页" stroke="none" stroke-width="1" fill="none" fill-rule="evenodd">
        <g id="首页/这叠屏" transform="translate(-381.000000, -123.000000)">
            <g id="转账" transform="translate(338.000000, 96.000000)">
                <g id="编组-23" transform="translate(20.000000, 11.000000)">
                    <g id="出行" transform="translate(16.000000, 8.000000)">
                        <rect id="矩形" x="0" y="0" width="40" height="40"></rect>
                        <g id="出行备份" transform="translate(7.000000, 8.000000)" fill="#FFFFFF" fill-rule="nonzero">
                            <path d="M24.3726936,0.125558624 L0.595299879,12.4432055 C0.051843423,12.7247378 -0.157672898,13.3881553 0.127332086,13.9249899 C0.265392557,14.1850403 0.503183868,14.3796001 0.787544624,14.465173 L10.1115743,17.271058 C10.6327131,17.4278847 11.1989402,17.2895249 11.5859632,16.9107857 L19.3714646,9.29192096 L19.3714646,9.29192096 L13.9460248,17.672135 C13.6219562,18.172696 13.7599652,18.8371081 14.2573968,19.1711635 L21.1649401,23.8099958 C21.6724247,24.1508023 22.3635083,24.0206959 22.7085187,23.5193947 C22.8042201,23.3803403 22.8662994,23.2214246 22.8899659,23.0549118 L25.9890701,1.25018555 C26.0743894,0.649894988 25.65092,0.0949410217 25.043225,0.0106613614 C24.8130504,-0.0212609074 24.5785366,0.0189235028 24.3726936,0.125558624 Z" id="路径备份"></path>
                        </g>
                    </g>
                </g>
            </g>
        </g>
    </g>
</svg>