<?xml version="1.0" encoding="UTF-8"?>
<svg width="22px" height="21.993px" viewBox="0 0 22 21.993" version="1.1" xmlns="http://www.w3.org/2000/svg" xmlns:xlink="http://www.w3.org/1999/xlink">
    <title>编组 38</title>
    <defs>
        <path d="M10.998,0 L11.1122494,0.00221191406 C12.0643328,0.0311265625 12.47065,0.1604625 12.8798,0.3793 C13.3475,0.6294 13.7145,0.9964 13.9645,1.464 L14.0031,1.5379 C14.2283,1.9827 14.3478,2.4628 14.3478,3.6746 L14.3478,18.3174 L14.3467,18.5127 C14.3335,19.6454 14.2015,20.085 13.9645,20.528 C13.7145,20.9956 13.3475,21.3626 12.8798,21.6127 L12.8059,21.6512 C12.4204067,21.84646 12.0083991,21.9622524 11.1165467,21.9896591 L11.004,21.993 L10.917995,21.9906801 C9.94417156,21.9636333 9.53366667,21.8339 9.1202,21.6127 C8.6525,21.3626 8.2855,20.9956 8.0355,20.528 L7.9969,20.4541 C7.7717,20.0093 7.6522,19.5292 7.6522,18.3174 L7.6522,3.6746 C7.6522,2.3955 7.7854,1.9316 8.0355,1.464 C8.2855,0.9964 8.6525,0.6294 9.1202,0.3793 L9.1941,0.3408 C9.57959333,0.14554 9.99160089,0.0297475556 10.8834533,0.00234085926 L10.998,0 Z M18.65,12.435 L18.7644494,12.4370119 C19.7165328,12.4659266 20.12285,12.5952625 20.532,12.8141 C20.9996,13.0642 21.3666,13.4312 21.6167,13.8988 L21.6552,13.9727 C21.8805,14.4175 22,14.8976 22,16.1094 L22,18.3174 L21.9989,18.5127 C21.9857,19.6454 21.8537,20.085 21.6167,20.528 C21.3666,20.9956 20.9996,21.3626 20.532,21.6127 L20.4581,21.6512 C20.0726067,21.84646 19.6605991,21.9622524 18.7687467,21.9896591 L18.657,21.993 L18.570195,21.9906801 C17.5963716,21.9636333 17.1858667,21.8339 16.7724,21.6127 C16.3047,21.3626 15.9377,20.9956 15.6876,20.528 L15.6491,20.4541 C15.4239,20.0093 15.3043,19.5292 15.3043,18.3174 L15.3043,16.1094 C15.3043,14.8303 15.4375,14.3664 15.6876,13.8988 C15.9377,13.4312 16.3047,13.0642 16.7724,12.8141 L16.8463,12.7755 C17.2317933,12.5803267 17.6438009,12.4645458 18.5356533,12.4371406 L18.65,12.435 Z M3.346,7.652 L3.46007813,7.65441191 C4.41220938,7.68332656 4.81845,7.8126625 5.2276,8.0315 C5.6953,8.2815 6.0623,8.6485 6.3124,9.1162 L6.3509,9.1901 C6.5761,9.6349 6.6957,10.115 6.6957,11.3268 L6.6957,18.3174 L6.6945,18.5127 C6.6813,19.6454 6.5493,20.085 6.3124,20.528 C6.0623,20.9956 5.6953,21.3626 5.2276,21.6127 L5.1537,21.6512 C4.76820667,21.84646 4.35619911,21.9622524 3.46434673,21.9896591 L3.352,21.993 L3.26579496,21.9906801 C2.29197156,21.9636333 1.88146667,21.8339 1.468,21.6127 C1.0004,21.3626 0.6334,20.9956 0.3833,20.528 L0.3448,20.4541 C0.1195,20.0093 0,19.5292 0,18.3174 L0,11.3268 C0,10.0477 0.1332,9.5838 0.3833,9.1162 C0.6334,8.6485 1.0004,8.2815 1.468,8.0315 L1.5419,7.9929 C1.92739333,7.79772667 2.33940089,7.68194578 3.23125327,7.65454062 L3.346,7.652 Z M11.005,1.434 L11.0877,1.4322 C10.3285,1.4418 10.0652,1.501 9.7968,1.6445 C9.5792,1.7609 9.417,1.9231 9.3007,2.1406 C9.1476,2.4269 9.0904,2.7075 9.0871,3.5901 L9.0871,18.4019 L9.0884,18.5654 C9.0982,19.3208 9.1575,19.5836 9.3007,19.8514 C9.417,20.0689 9.5792,20.2311 9.7968,20.3475 C10.0428333,20.4790417 10.2845813,20.5397479 10.9079413,20.5563466 L11.002,20.559 L11.0376816,20.5576487 C11.701551,20.5431735 11.9501714,20.4828429 12.2032,20.3475 C12.4208,20.2311 12.583,20.0689 12.6993,19.8514 C12.8428,19.583 12.902,19.3196 12.9116,18.5605 L12.913,18.3174 L12.913,3.6746 C12.913,2.725 12.8572,2.4358 12.6993,2.1406 C12.583,1.9231 12.4208,1.7609 12.2032,1.6445 C11.9610308,1.51495385 11.722871,1.45414142 11.1205602,1.43637569 L11.005,1.434 Z M18.646,13.869 L18.7399,13.867 C17.9807,13.8766 17.7173,13.9358 17.449,14.0793 C17.2314,14.1956 17.0692,14.3578 16.9528,14.5754 C16.7998,14.8617 16.7426,15.1423 16.7393,16.0249 L16.7393,18.4019 L16.7406,18.5654 C16.7504,19.3208 16.8096,19.5836 16.9528,19.8514 C17.0692,20.0689 17.2314,20.2311 17.449,20.3475 C17.6949417,20.4790417 17.936766,20.5397479 18.5601394,20.5563466 L18.655,20.559 L18.6898816,20.5576487 C19.353751,20.5431735 19.6023714,20.4828429 19.8554,20.3475 C20.0729,20.2311 20.2351,20.0689 20.3515,19.8514 C20.495,19.583 20.5542,19.3196 20.5638,18.5605 L20.5652,18.3174 L20.5652,16.1094 C20.5652,15.1598 20.5094,14.8706 20.3515,14.5754 C20.2351,14.3578 20.0729,14.1956 19.8554,14.0793 C19.6131462,13.9497538 19.3749734,13.8888698 18.7727211,13.8712032 L18.646,13.869 Z M3.353,9.086 L3.4355,9.0844 C2.6764,9.094 2.413,9.1532 2.1446,9.2967 C1.9271,9.413 1.7649,9.5752 1.6485,9.7928 C1.4954,10.079 1.4383,10.3596 1.4349,11.2423 L1.4349,18.4019 L1.4363,18.5654 C1.446,19.3208 1.5053,19.5836 1.6485,19.8514 C1.7649,20.0689 1.9271,20.2311 2.1446,20.3475 C2.39063333,20.4790417 2.63246528,20.5397479 3.25576233,20.5563466 L3.35,20.559 L3.38548163,20.5576487 C4.04935102,20.5431735 4.29797143,20.4828429 4.551,20.3475 C4.7686,20.2311 4.9308,20.0689 5.0472,19.8514 C5.1907,19.583 5.2499,19.3196 5.2595,18.5605 L5.2609,18.3174 L5.2609,11.3268 C5.2609,10.3772 5.205,10.088 5.0472,9.7928 C4.9308,9.5752 4.7686,9.413 4.551,9.2967 C4.30883077,9.16715385 4.07067101,9.10626982 3.46842076,9.08860323 L3.353,9.086 Z" id="path-1"></path>
    </defs>
    <g id="1首页" stroke="none" stroke-width="1" fill="none" fill-rule="evenodd">
        <g id="画板" transform="translate(-189.000000, -25.000000)">
            <g id="编组-38" transform="translate(188.000000, 24.000000)">
                <rect id="矩形" fill-opacity="0" fill="#FFFFFF" x="0" y="0" width="24" height="24"></rect>
                <g id="编组备份-7" transform="translate(1.000000, 1.000000)">
                    <mask id="mask-2" fill="white">
                        <use xlink:href="#path-1"></use>
                    </mask>
                    <g id="Clip-131"></g>
                    <polygon id="Fill-130" fill="#000000" mask="url(#mask-2)" points="-1 -1.004 23 -1.004 23 22.996 -1 22.996"></polygon>
                </g>
            </g>
        </g>
    </g>
</svg>