<svg width="360.000000" height="52.000000" viewBox="0 0 360 52" fill="none" xmlns="http://www.w3.org/2000/svg" xmlns:xlink="http://www.w3.org/1999/xlink">
	<desc>
			Created with Pixso.
	</desc>
	<defs/>
	<path id="我的" d="M271.99 37L270.9 37L270.9 44.53L271.79 44.53L271.79 43.99L274.52 43.99L274.52 38.79L275.34 39.3Q275.74 38.64 276.04 37.96L278.24 37.96L278.09 42.62Q278.09 42.85 278.04 43.05Q278.04 43.07 278.03 43.09Q277.98 43.18 277.89 43.25Q277.81 43.32 277.71 43.36Q277.67 43.38 277.62 43.39Q277.42 43.43 277.23 43.41Q277.19 43.4 277.15 43.39L275.97 43.39L276.13 44.33L277.46 44.33Q277.81 44.33 278.15 44.25Q278.25 44.24 278.34 44.21Q278.51 44.15 278.66 44.02Q278.78 43.87 278.87 43.71Q278.89 43.65 278.91 43.58Q278.97 43.32 278.97 43.05L279.18 37.03L276.45 37.03Q276.64 36.53 276.78 36Q276.83 35.8 276.88 35.58L275.97 35.39Q275.74 36.32 275.35 37.17L275.34 37.19Q275.03 38.01 274.52 38.76L274.52 37L273.01 37Q273.2 36.32 273.35 35.63L272.38 35.46Q272.22 36.26 271.99 37ZM263.58 43.08L264.06 43.95Q265.16 43.39 266.21 42.7Q266.37 43.16 266.59 43.56Q266.84 43.95 267.22 44.25Q267.44 44.42 267.68 44.49Q267.84 44.53 268.01 44.53Q268.15 44.53 268.28 44.5Q268.51 44.43 268.71 44.25Q268.87 44.1 268.97 43.87Q269.06 43.64 269.14 43.44Q269.34 42.77 269.49 42.11L268.71 41.71Q268.58 42.31 268.44 42.85Q268.35 43.16 268.24 43.44Q268.2 43.49 268.15 43.52Q268.09 43.56 268.01 43.56Q267.84 43.56 267.74 43.48Q267.72 43.46 267.7 43.44Q267.5 43.29 267.38 43.09Q267.38 43.09 267.38 43.08Q267.1 42.65 266.9 42.14Q267.66 41.52 268.29 40.79Q268.68 40.34 269.02 39.84L268.27 39.38Q268.19 39.51 268.09 39.65Q267.49 40.54 266.64 41.26Q266.45 40.24 266.37 39.21L269.38 39.21L269.38 38.36L266.33 38.36Q266.28 37.96 266.25 37.57Q266.21 36.6 266.16 35.63L265.27 35.63Q265.31 36.64 265.34 37.62L265.39 38.36L263.35 38.36L263.35 37.03Q264.06 36.91 264.72 36.76L264.6 35.89Q262.7 36.37 260.77 36.52L260.85 37.34Q261.64 37.26 262.41 37.19L262.41 38.36L260.54 38.36L260.54 39.21L262.41 39.21L262.41 40.66Q261.47 40.86 260.54 41.01L260.65 41.91L262.41 41.57L262.41 43.25Q262.41 43.29 262.4 43.34Q262.38 43.39 262.33 43.44Q262.27 43.48 262.22 43.48Q262.02 43.51 261.88 43.51L260.85 43.51L261.02 44.38L262.02 44.38Q262.38 44.38 262.7 44.3Q262.85 44.27 262.98 44.19Q263.04 44.15 263.09 44.1Q263.2 43.95 263.27 43.79Q263.35 43.51 263.35 43.25L263.35 41.37L265.03 41.06L265 40.63L264.91 40.15Q264.14 40.35 263.35 40.46L263.35 39.21L265.51 39.21Q265.59 40.5 265.94 41.8Q264.79 42.57 263.58 43.08ZM267.27 35.86L266.68 36.45Q267.09 36.84 267.49 37.24Q267.88 37.64 268.27 38.05L268.95 37.43Q268.13 36.64 267.27 35.86ZM271.79 37.93L273.63 37.93L273.63 40.01L271.79 40.01L271.79 37.93ZM275.85 38.99L275.2 39.53Q275.97 40.55 276.68 41.6L277.46 41.09Q276.68 40.04 275.85 38.99ZM271.79 43.05L271.79 40.89L273.63 40.89L273.63 43.05L271.79 43.05Z" fill="#000000" fill-opacity="0.600000" fill-rule="evenodd"/>
	<g opacity="0.500000">
		<path id="差集" d="M270 6.5L270.173 6.50146C275.899 6.59424 280.5 11.2656 280.5 17.0081L280.499 17.1733C280.405 22.8994 275.734 27.5 269.992 27.5L269.826 27.4985C264.101 27.4058 259.5 22.7344 259.5 16.9919L259.501 16.8267C259.594 11.1006 264.266 6.5 270 6.5ZM267.001 14.3076C267.001 12.6506 268.344 11.3076 270.001 11.3076C271.658 11.3076 273.001 12.6506 273.001 14.3076C273.001 15.9644 271.658 17.3076 270.001 17.3076C268.344 17.3076 267.001 15.9644 267.001 14.3076ZM270 25.5C272.442 25.5 274.645 24.4697 276.195 22.8201C275.549 19.9956 273.021 17.8887 270 17.8887C266.979 17.8887 264.451 19.9956 263.805 22.8201C265.355 24.4697 267.558 25.5 270 25.5Z" clip-rule="evenodd" fill="#000000" fill-opacity="0.600000" fill-rule="evenodd"/>
	</g>
	<path id="家居" d="M84.65 36.57L80.9 36.57L80.9 38.51L81.79 38.51L81.79 37.34L88.2 37.34L88.2 38.56L89.09 38.56L89.09 36.57L85.54 36.57L85.7 36.52Q85.54 36.18 85.39 35.83Q85.27 35.63 85.2 35.43L84.22 35.7Q84.4 36.14 84.65 36.57ZM96.28 38.76L95.31 38.76L95.31 39.58L92.33 39.58L92.33 38.68L98.91 38.68L98.91 36.09L91.45 36.09L91.45 39.3Q91.45 40.12 91.41 40.94Q91.36 41.45 91.25 41.91Q91.13 42.46 90.9 43Q90.65 43.59 90.31 44.1L91.21 44.61Q91.61 43.89 91.86 43.13Q91.95 42.86 92.02 42.57Q92.29 41.49 92.33 40.39L95.31 40.39L95.31 41.21L92.97 41.21L92.97 44.58L93.91 44.58L93.91 44.1L97.72 44.1L97.72 44.53L98.66 44.53L98.66 41.21L96.28 41.21L96.28 40.39L99.48 40.39L99.48 39.58L96.28 39.58L96.28 38.76ZM92.33 36.91L98.01 36.91L98.01 37.85L92.33 37.85L92.33 36.91ZM80.62 40.32L80.93 41.09Q81.38 40.97 81.81 40.82Q83.02 40.41 84.17 39.81Q84.34 40.01 84.45 40.2Q83.95 40.48 83.45 40.73Q83.11 40.9 82.77 41.06Q81.72 41.52 80.59 41.88L80.9 42.62Q82.02 42.23 83.12 41.71Q83.97 41.32 84.79 40.83L84.96 41.29Q83.96 42.06 82.84 42.56Q82.82 42.57 82.81 42.57Q81.93 43.02 81.01 43.32Q80.7 43.43 80.39 43.51L80.73 44.3Q82.02 43.82 83.2 43.25Q84.22 42.74 85.11 42.08L85.11 42.65Q85.11 42.93 85.08 43.16Q85 43.33 84.91 43.39Q84.77 43.56 84.6 43.59Q84.34 43.64 84.06 43.64L83.04 43.64L83.15 44.45L84.34 44.45Q84.77 44.45 85.2 44.33Q85.25 44.32 85.29 44.3Q85.47 44.22 85.62 44.1Q85.71 44.03 85.77 43.95Q85.88 43.79 85.93 43.59Q86.04 43.2 86.04 42.77Q86.04 42 85.9 41.26L86.28 41.09Q86.5 41.63 86.83 42.08Q87.03 42.36 87.27 42.62Q87.77 43.15 88.36 43.57Q88.68 43.79 89.02 43.99L89.6 43.28Q89.09 43 88.66 42.74Q88.43 42.58 88.23 42.39Q88.09 42.25 87.97 42.11Q87.8 41.95 87.66 41.77Q87.28 41.31 87.02 40.75Q87.89 40.32 88.75 39.81L88.27 39.1Q86.98 39.89 85.62 40.46Q85.34 39.93 84.88 39.41Q85.27 39.18 85.65 38.9L87.97 38.9L87.97 38.16L81.98 38.16L81.98 38.9L84.26 38.9Q83.65 39.27 83 39.53Q82.73 39.63 82.46 39.73Q81.65 40.04 80.82 40.26Q80.72 40.29 80.62 40.32ZM93.91 42.03L97.72 42.03L97.72 43.33L93.91 43.33L93.91 42.03Z" fill="#0A59F7" fill-opacity="1.000000" fill-rule="evenodd"/>
	<path id="差集" d="M90 6.5L90.1729 6.50146C95.8994 6.59424 100.5 11.2656 100.5 17.0081L100.499 17.1733C100.405 22.8994 95.7344 27.5 89.9922 27.5L89.8262 27.4985C84.1006 27.4058 79.5 22.7344 79.5 16.9919L79.501 16.8267C79.5938 11.1006 84.2656 6.5 90 6.5ZM87.001 14.3076C87.001 12.6506 88.3438 11.3076 90.001 11.3076C91.6582 11.3076 93.001 12.6506 93.001 14.3076C93.001 15.9644 91.6582 17.3076 90.001 17.3076C88.3438 17.3076 87.001 15.9644 87.001 14.3076ZM90 25.5C92.4424 25.5 94.6445 24.4697 96.1953 22.8201C95.5488 19.9956 93.0205 17.8887 90 17.8887C86.9795 17.8887 84.4512 19.9956 83.8047 22.8201C85.3555 24.4697 87.5576 25.5 90 25.5Z" clip-rule="evenodd" fill="#0A59F7" fill-opacity="1.000000" fill-rule="evenodd"/>
</svg>
