<svg width="64.000000" height="28.000000" viewBox="0 0 64 28" fill="none" xmlns="http://www.w3.org/2000/svg" xmlns:xlink="http://www.w3.org/1999/xlink">
	<desc>
			Created with Pixso.
	</desc>
	<defs/>
	<rect id="Rectangle 2" rx="14.000000" width="64.000000" height="28.000000" fill="#000000" fill-opacity="0.050980"/>
	<rect id="Rectangle 2" x="0.500000" y="0.500000" rx="13.500000" width="63.000000" height="27.000000" stroke="#000000" stroke-opacity="0" stroke-width="1.000000"/>
	<path id="ðŸ”¤Text" d="M30.88 11.16L28.3 11.16L28.3 12.23L32.34 12.23L32.34 14.11L27.79 14.11L27.79 15.23L32.15 15.23Q31.96 15.74 31.69 16.17Q31.67 16.19 31.66 16.21Q31.24 16.71 30.7 17.11Q30 17.63 29.2 18.05Q28.35 18.37 27.56 18.71L28.17 19.77Q29.06 19.45 29.88 19Q30.45 18.69 30.98 18.32Q31.59 17.9 32.15 17.39Q32.58 16.87 32.95 16.31Q33.43 17.17 34.11 17.82Q34.36 18.06 34.64 18.27Q35.34 18.74 36.09 19.13Q36.88 19.5 37.77 19.73L38.34 18.61Q37.64 18.42 36.93 18.19Q36.26 17.91 35.65 17.53Q35.54 17.46 35.43 17.39Q34.82 16.97 34.3 16.4Q33.88 15.89 33.61 15.23L38.06 15.23L38.06 14.11L33.51 14.11L33.51 12.23L37.5 12.23L37.5 11.16L34.96 11.16Q35.72 10.21 36.41 9.27L35.38 8.67Q34.5 9.94 33.51 11.16L31.3 11.16L32.01 10.69Q31.25 9.74 30.46 8.76L29.53 9.37Q30.24 10.26 30.88 11.16ZM46.3 8.71L45.37 9.19Q45.84 10.03 46.25 10.82L42.98 10.82L42.98 11.9L45.84 11.9L45.84 14.29L43.08 14.29L43.08 15.37L45.84 15.37L45.84 18.1L42.32 18.1L42.32 19.17L50.38 19.17L50.38 18.1L46.91 18.1L46.91 15.37L49.74 15.37L49.74 14.29L46.91 14.29L46.91 11.9L50.11 11.9L50.11 10.82L46.59 10.82L47.29 10.5Q46.82 9.61 46.3 8.71ZM40.69 9.19L40.08 10.08Q41.2 10.87 42.32 11.67L42.93 10.73Q41.8 9.94 40.69 9.19ZM40.08 11.9L39.41 12.79Q40.64 13.64 41.8 14.53L42.46 13.6Q41.25 12.74 40.08 11.9ZM40.77 19.64L42.51 15.66L42 15.42L41.48 15.19Q41.06 16.31 40.54 17.39Q40.12 18.27 39.7 19.17L40.77 19.64Z" fill="#0A59F7" fill-opacity="1.000000" fill-rule="evenodd"/>
	<rect id="çŸ©å½¢" x="13.000000" y="8.000000" width="12.000000" height="12.000000" fill="#D8D8D8" fill-opacity="0"/>
	<rect id="çŸ©å½¢" x="13.500000" y="8.500000" width="11.000000" height="11.000000" stroke="#979797" stroke-opacity="0" stroke-width="1.000000"/>
	<mask id="mask588_13468" maskUnits="userSpaceOnUse" x="14.500000" y="9.500000" width="9.000000" height="9.000000">
		<mask id="mask_588_13468" fill="white">
			<path id="å½¢çŠ¶ç»“åˆ" d="M19 9.5C18.5859 9.5 18.25 9.83582 18.25 10.25L18.25 13.25L15.25 13.25C14.8359 13.25 14.5 13.5858 14.5 14C14.5 14.4142 14.8359 14.75 15.25 14.75L18.25 14.75L18.25 17.75C18.25 18.1642 18.5859 18.5 19 18.5C19.4141 18.5 19.75 18.1642 19.75 17.75L19.75 10.25C19.75 9.83582 19.4141 9.5 19 9.5ZM22.75 14.75L20.375 14.75L20.375 13.25L22.75 13.25C23.1641 13.25 23.5 13.5858 23.5 14C23.5 14.4142 23.1641 14.75 22.75 14.75Z" clip-rule="evenodd" fill="" fill-opacity="1.000000" fill-rule="evenodd"/>
		</mask>
		<path id="å½¢çŠ¶ç»“åˆ" d="M19 9.5C18.5859 9.5 18.25 9.83582 18.25 10.25L18.25 13.25L15.25 13.25C14.8359 13.25 14.5 13.5858 14.5 14C14.5 14.4142 14.8359 14.75 15.25 14.75L18.25 14.75L18.25 17.75C18.25 18.1642 18.5859 18.5 19 18.5C19.4141 18.5 19.75 18.1642 19.75 17.75L19.75 10.25C19.75 9.83582 19.4141 9.5 19 9.5ZM22.75 14.75L20.375 14.75L20.375 13.25L22.75 13.25C23.1641 13.25 23.5 13.5858 23.5 14C23.5 14.4142 23.1641 14.75 22.75 14.75Z" clip-rule="evenodd" fill="#000000" fill-opacity="1.000000" fill-rule="evenodd" mask="url(#mask_588_13468)"/>
		<path id="å½¢çŠ¶ç»“åˆ" d="" clip-rule="evenodd" fill="#979797" fill-opacity="0.000000" fill-rule="evenodd"/>
	</mask>
	<g mask="url(#mask588_13468)">
		<rect id="color/#000000" x="7.000000" y="2.000000" width="24.000000" height="24.000000" fill="#0A59F7" fill-opacity="1.000000"/>
		<rect id="color/#000000" x="7.500000" y="2.500000" width="23.000000" height="23.000000" stroke="#000000" stroke-opacity="0" stroke-width="1.000000"/>
	</g>
</svg>
