<svg width="179.104492" height="35.000000" viewBox="0 0 179.104 35" fill="none" xmlns="http://www.w3.org/2000/svg" xmlns:xlink="http://www.w3.org/1999/xlink">
	<desc>
			Created with Pixso.
	</desc>
	<defs/>
	<path id="Photographer" d="M15.83 15.11L15.83 10.67Q15.83 9.23 15.12 8.45Q14.88 8.18 14.58 8.01Q14.02 7.67 13.26 7.67Q12.64 7.67 12.11 7.89Q12.02 7.93 11.93 7.98Q11.73 8.09 11.55 8.22Q11.21 8.49 10.97 8.89L10.97 4.45L9.53 4.45L9.53 15.11L10.97 15.11L10.97 11.13Q10.97 10.19 11.44 9.65Q11.48 9.6 11.52 9.56Q11.8 9.28 12.13 9.15Q12.46 9 12.86 9Q13.38 9 13.71 9.25Q13.88 9.37 14 9.55Q14.37 10.09 14.37 11.1L14.37 15.11L15.83 15.11ZM75.72 15.11L75.72 10.67Q75.72 9.23 75.01 8.45Q74.77 8.18 74.47 8.01Q73.91 7.67 73.15 7.67Q72.53 7.67 72.01 7.89Q71.91 7.93 71.82 7.98Q71.62 8.09 71.44 8.22Q71.1 8.49 70.86 8.89L70.86 4.45L69.42 4.45L69.42 15.11L70.86 15.11L70.86 11.13Q70.86 10.19 71.33 9.65Q71.37 9.6 71.41 9.56Q71.69 9.28 72.02 9.15Q72.36 9 72.75 9Q73.27 9 73.61 9.25Q73.77 9.37 73.89 9.55Q74.27 10.09 74.27 11.1L74.27 15.11L75.72 15.11ZM7.91 9.44Q8.19 8.84 8.19 8.11Q8.19 7.38 7.91 6.77Q7.83 6.59 7.72 6.41Q7.59 6.22 7.44 6.04Q7.02 5.56 6.39 5.27Q5.54 4.86 4.45 4.86L1.17 4.86L1.17 15.11L2.67 15.11L2.67 11.34L4.45 11.34Q5.55 11.34 6.4 10.93Q7.04 10.63 7.46 10.14Q7.6 9.98 7.72 9.79Q7.82 9.62 7.91 9.44ZM30.26 14.81Q30.31 14.77 30.36 14.73L29.83 13.65Q29.66 13.78 29.48 13.85Q29.21 13.96 28.89 13.96Q28.51 13.96 28.25 13.77Q27.79 13.43 27.79 12.45L27.79 9.07L29.91 9.07L29.91 7.84L27.79 7.84L27.79 5.74L26.34 5.74L26.34 7.84L25.11 7.84L25.11 9.07L26.34 9.07L26.34 12.64Q26.34 14.11 26.99 14.69Q27.1 14.78 27.22 14.86Q27.82 15.26 28.68 15.26Q29.64 15.26 30.26 14.81ZM5.97 9.52Q5.36 10.04 4.25 10.04L2.67 10.04L2.67 6.16L4.25 6.16Q5.36 6.16 5.97 6.69Q6.2 6.89 6.34 7.14Q6.58 7.56 6.58 8.11Q6.58 8.66 6.33 9.08Q6.19 9.32 5.97 9.52ZM21.8 7.79Q21.37 7.67 20.91 7.67Q20.42 7.67 19.95 7.8Q19.53 7.92 19.14 8.15Q18.89 8.29 18.68 8.47Q18.17 8.89 17.83 9.49Q17.78 9.58 17.73 9.68Q17.34 10.48 17.34 11.47Q17.34 12.44 17.72 13.24Q17.77 13.34 17.83 13.44Q18.17 14.04 18.67 14.46Q18.89 14.64 19.14 14.79Q19.53 15.01 19.95 15.13Q20.42 15.26 20.91 15.26Q21.37 15.26 21.8 15.15Q22.25 15.03 22.66 14.79Q22.91 14.64 23.12 14.46Q23.62 14.05 23.96 13.44Q24.02 13.33 24.08 13.22Q24.45 12.43 24.45 11.47Q24.45 10.49 24.07 9.7Q24.02 9.59 23.96 9.49Q23.62 8.88 23.12 8.47Q22.9 8.29 22.66 8.15Q22.25 7.91 21.8 7.79ZM35.34 7.79Q34.91 7.67 34.45 7.67Q33.95 7.67 33.49 7.8Q33.07 7.92 32.68 8.15Q32.43 8.29 32.21 8.47Q31.71 8.89 31.37 9.49Q31.32 9.58 31.27 9.68Q30.88 10.48 30.88 11.47Q30.88 12.44 31.26 13.24Q31.31 13.34 31.37 13.44Q31.71 14.04 32.21 14.46Q32.43 14.64 32.68 14.79Q33.07 15.01 33.49 15.13Q33.95 15.26 34.45 15.26Q34.91 15.26 35.34 15.15Q35.78 15.03 36.2 14.79Q36.44 14.64 36.66 14.46Q37.16 14.05 37.5 13.44Q37.56 13.33 37.62 13.22Q37.99 12.43 37.99 11.47Q37.99 10.49 37.61 9.7Q37.56 9.59 37.5 9.49Q37.16 8.88 36.65 8.47Q36.44 8.29 36.2 8.15Q35.78 7.91 35.34 7.79ZM46.17 14.6L46.17 7.84L44.91 7.84Q44.89 8.26 44.81 9Q44.5 8.47 44.03 8.15Q43.92 8.07 43.8 8.01Q43.59 7.89 43.36 7.82Q42.93 7.67 42.46 7.67Q42.11 7.67 41.79 7.75Q41.3 7.85 40.85 8.12Q40.75 8.18 40.66 8.25Q40.04 8.69 39.65 9.43Q39.2 10.29 39.2 11.47Q39.2 12.63 39.65 13.49Q40.04 14.23 40.65 14.67Q40.75 14.74 40.85 14.81Q41.31 15.08 41.81 15.19Q42.12 15.26 42.46 15.26Q42.97 15.26 43.42 15.1Q43.59 15.04 43.75 14.96Q43.85 14.91 43.95 14.85Q44.41 14.55 44.74 14.04L44.74 14.53Q44.74 16.31 43.89 16.95Q43.4 17.32 42.64 17.32Q41.95 17.32 41.42 17.03Q41.39 17.01 41.36 17Q41.21 16.91 41.08 16.8Q40.73 16.51 40.51 16.04L39.42 16.68Q39.5 16.94 39.63 17.17Q39.95 17.73 40.59 18.1Q40.84 18.24 41.1 18.34Q41.81 18.62 42.63 18.62Q43.13 18.62 43.6 18.5Q43.97 18.41 44.32 18.24Q44.37 18.21 44.43 18.18Q45.16 17.79 45.64 16.95Q46.17 16.06 46.17 14.6ZM52.15 9.27L52.69 8.14Q52.51 7.93 52.17 7.8Q51.84 7.67 51.45 7.67Q50.97 7.67 50.59 7.86Q49.94 8.17 49.55 9.02Q49.5 8.5 49.47 7.84L48.2 7.84L48.2 15.11L49.64 15.11L49.64 11.51Q49.64 10.29 50.12 9.64Q50.4 9.24 50.79 9.08Q51.04 8.98 51.34 8.98Q51.69 8.98 51.95 9.13Q52.05 9.19 52.15 9.27ZM58.89 15.11L58.89 10.81Q58.89 9.52 58.27 8.72Q58.18 8.61 58.08 8.51Q57.85 8.27 57.59 8.11Q56.9 7.67 55.94 7.67Q55.19 7.67 54.55 7.95Q54.36 8.03 54.18 8.14Q53.69 8.43 53.37 8.85Q53.19 9.09 53.06 9.38L54.12 10Q54.44 9.39 54.94 9.13Q55.34 8.92 55.84 8.92Q56.47 8.92 56.86 9.22Q57.45 9.7 57.47 10.89Q56.65 10.67 55.86 10.67Q54.5 10.67 53.62 11.3Q53.19 11.62 52.97 12.04Q52.75 12.47 52.75 13.01Q52.75 13.61 53.01 14.07Q53.06 14.15 53.11 14.23Q53.21 14.36 53.32 14.47Q53.64 14.8 54.09 15Q54.69 15.26 55.42 15.26Q56.15 15.26 56.69 15Q56.94 14.88 57.14 14.71Q57.39 14.5 57.58 14.21Q57.62 14.48 57.65 15.11L58.89 15.11ZM67.35 13.5Q67.8 12.64 67.8 11.47Q67.8 10.31 67.35 9.44Q66.95 8.67 66.32 8.23Q66.25 8.18 66.17 8.13Q65.73 7.86 65.26 7.75Q64.94 7.67 64.59 7.67Q64.15 7.67 63.74 7.8Q63.47 7.88 63.21 8.02Q63.06 8.1 62.92 8.2Q62.48 8.52 62.18 9.03Q62.13 8.57 62.1 7.84L60.83 7.84L60.83 18.48L62.27 18.48L62.27 14.04Q62.6 14.54 63.06 14.83Q63.17 14.9 63.28 14.96Q63.49 15.07 63.72 15.13Q64.13 15.26 64.59 15.26Q64.95 15.26 65.28 15.18Q65.74 15.07 66.17 14.81Q66.24 14.77 66.31 14.72Q66.95 14.28 67.35 13.5ZM83.84 11.8Q83.91 11.35 83.91 11.03Q83.91 10.12 83.55 9.39Q83.54 9.35 83.52 9.32Q83.3 8.89 82.97 8.56Q82.72 8.31 82.42 8.11Q82.35 8.07 82.28 8.04Q81.61 7.67 80.75 7.67Q80.21 7.67 79.71 7.82Q79.35 7.93 79 8.11Q78.79 8.23 78.6 8.38Q78.07 8.78 77.72 9.41Q77.23 10.26 77.23 11.44Q77.23 12.64 77.72 13.51Q78.08 14.15 78.61 14.56Q78.8 14.71 79.01 14.82Q79.18 14.91 79.36 14.98Q80.03 15.26 80.82 15.26Q81.64 15.26 82.34 14.96Q82.45 14.91 82.57 14.85Q83.11 14.56 83.41 14.12Q83.54 13.92 83.63 13.68L82.56 13.05Q82.32 13.47 81.97 13.71Q81.53 14 80.89 14Q80.3 14 79.84 13.76Q79.61 13.63 79.42 13.45Q78.83 12.9 78.73 11.8L83.84 11.8ZM89.3 9.27L89.85 8.14Q89.67 7.93 89.33 7.8Q88.99 7.67 88.6 7.67Q88.13 7.67 87.75 7.86Q87.1 8.17 86.71 9.02Q86.66 8.5 86.63 7.84L85.35 7.84L85.35 15.11L86.8 15.11L86.8 11.51Q86.8 10.29 87.27 9.64Q87.56 9.24 87.94 9.08Q88.2 8.98 88.49 8.98Q88.84 8.98 89.11 9.13Q89.21 9.19 89.3 9.27ZM82.38 10.71L78.78 10.71Q78.94 9.86 79.46 9.4Q79.69 9.19 79.97 9.07Q80.3 8.93 80.69 8.93Q81.22 8.93 81.6 9.17Q81.76 9.26 81.89 9.4Q81.9 9.41 81.91 9.42Q82.34 9.88 82.38 10.71ZM21.75 13.78Q21.37 13.96 20.9 13.96Q20.46 13.96 20.09 13.79Q19.73 13.63 19.43 13.29Q19.42 13.27 19.4 13.25Q18.85 12.58 18.85 11.47Q18.85 10.35 19.4 9.69Q19.42 9.67 19.43 9.65Q19.73 9.31 20.1 9.14Q20.46 8.98 20.9 8.98Q21.33 8.98 21.69 9.14Q22.06 9.3 22.36 9.65Q22.38 9.67 22.4 9.69Q22.94 10.35 22.94 11.47Q22.94 12.6 22.39 13.27Q22.38 13.28 22.37 13.29Q22.09 13.61 21.75 13.78ZM35.28 13.78Q34.9 13.96 34.44 13.96Q34 13.96 33.63 13.79Q33.26 13.63 32.97 13.29Q32.95 13.27 32.94 13.25Q32.39 12.58 32.39 11.47Q32.39 10.35 32.94 9.69Q32.95 9.67 32.97 9.65Q33.27 9.31 33.64 9.14Q34 8.98 34.44 8.98Q34.87 8.98 35.23 9.14Q35.6 9.3 35.9 9.65Q35.92 9.67 35.93 9.69Q36.48 10.35 36.48 11.47Q36.48 12.6 35.93 13.27Q35.92 13.28 35.91 13.29Q35.63 13.61 35.28 13.78ZM65.76 9.64Q66.3 10.31 66.3 11.47Q66.3 12.64 65.77 13.3Q65.55 13.56 65.27 13.72Q64.87 13.95 64.34 13.95Q63.91 13.95 63.55 13.8Q63.18 13.65 62.88 13.34Q62.27 12.74 62.27 11.47Q62.27 10.21 62.88 9.59Q63.19 9.27 63.58 9.12Q63.93 8.98 64.34 8.98Q64.81 8.98 65.19 9.17Q65.51 9.33 65.76 9.64ZM44.13 9.6Q44.74 10.21 44.74 11.47Q44.74 12.74 44.13 13.36Q43.81 13.68 43.43 13.83Q43.08 13.97 42.67 13.97Q42.16 13.97 41.76 13.76Q41.46 13.6 41.23 13.32Q40.69 12.66 40.69 11.47Q40.69 10.29 41.23 9.65Q41.46 9.38 41.74 9.22Q42.14 9 42.67 9Q43.09 9 43.46 9.15Q43.83 9.3 44.13 9.6ZM57.47 11.97L57.47 12.43Q57.47 12.94 57.24 13.31Q57.11 13.5 56.92 13.66Q56.76 13.79 56.57 13.88Q56.14 14.1 55.6 14.1Q54.99 14.1 54.61 13.8Q54.61 13.8 54.61 13.8Q54.46 13.68 54.37 13.52Q54.23 13.29 54.23 12.98Q54.23 12.68 54.36 12.45Q54.47 12.24 54.69 12.08Q55.16 11.76 56 11.76Q56.63 11.76 57.47 11.97Z" fill="#000000" fill-opacity="0.901961" fill-rule="evenodd"/>
	<path id="Author" d="M25.67 32.09L25.67 28.25Q25.67 27.06 25.08 26.4Q25.07 26.39 25.06 26.38Q24.83 26.13 24.55 25.97Q24.08 25.72 23.48 25.72Q22.94 25.72 22.49 25.92Q22.41 25.95 22.33 26Q22.17 26.08 22.03 26.18Q21.71 26.43 21.49 26.8L21.49 22.96L20.47 22.96L20.47 32.09L21.49 32.09L21.49 28.55Q21.49 27.94 21.74 27.53Q21.93 27.22 22.2 27.02Q22.29 26.96 22.39 26.9Q22.58 26.81 22.78 26.75Q23.01 26.69 23.25 26.69Q23.73 26.69 24.04 26.92Q24.19 27.02 24.3 27.17Q24.64 27.65 24.64 28.54L24.64 32.09L25.67 32.09ZM6.91 32.09L8.08 32.09L4.44 23.29L3.58 23.29L0.08 32.09L1.16 32.09L2.14 29.5L5.86 29.5L6.91 32.09ZM19.38 31.9Q19.43 31.87 19.48 31.83L19.1 31.02Q18.95 31.12 18.78 31.18Q18.55 31.26 18.29 31.26Q18 31.26 17.78 31.13Q17.68 31.07 17.59 30.99Q17.32 30.71 17.32 29.96L17.32 26.74L19.12 26.74L19.12 25.85L17.32 25.85L17.32 24.11L16.29 24.11L16.29 25.85L15.26 25.85L15.26 26.74L16.29 26.74L16.29 30.08Q16.29 31.29 16.89 31.82Q17.35 32.22 18.17 32.22Q18.88 32.22 19.38 31.9ZM2.5 28.54L3.94 24.76L5.48 28.54L2.5 28.54ZM30.81 25.82Q30.45 25.72 30.05 25.72Q29.69 25.72 29.35 25.81Q28.95 25.91 28.58 26.13Q28.4 26.24 28.24 26.37Q27.79 26.74 27.48 27.29Q27.43 27.39 27.38 27.48Q27.07 28.15 27.07 28.97Q27.07 29.86 27.43 30.57Q27.45 30.61 27.48 30.66Q27.75 31.15 28.15 31.51Q28.35 31.68 28.57 31.81Q28.96 32.04 29.38 32.14Q29.71 32.22 30.05 32.22Q30.44 32.22 30.79 32.13Q31.18 32.02 31.53 31.81Q31.74 31.68 31.93 31.52Q32.34 31.16 32.62 30.66Q32.65 30.61 32.67 30.57Q33.03 29.86 33.03 28.97Q33.03 28.08 32.67 27.37Q32.65 27.33 32.62 27.28Q32.33 26.74 31.89 26.38Q31.72 26.24 31.53 26.13Q31.19 25.92 30.81 25.82ZM37.7 26.91L38.07 26.08Q37.92 25.92 37.66 25.82Q37.4 25.72 37.08 25.72Q36.69 25.72 36.38 25.87Q35.82 26.13 35.48 26.87Q35.44 26.36 35.42 25.86L34.52 25.86L34.52 32.09L35.54 32.09L35.54 28.91Q35.54 27.83 35.97 27.25Q36.23 26.9 36.58 26.76Q36.79 26.68 37.04 26.68Q37.34 26.68 37.56 26.81Q37.63 26.85 37.7 26.91ZM14.2 25.85L13.18 25.85L13.18 29.39Q13.18 30 12.93 30.42Q12.74 30.74 12.47 30.94Q12.38 31 12.28 31.05Q12.1 31.15 11.9 31.2Q11.67 31.26 11.42 31.26Q10.97 31.26 10.66 31.05Q10.5 30.94 10.38 30.78Q10.03 30.3 10.03 29.41L10.03 25.85L9.01 25.85L9.01 29.69Q9.01 30.9 9.61 31.56Q9.81 31.78 10.05 31.93Q10.54 32.22 11.2 32.22Q11.63 32.22 12.01 32.09Q12.2 32.03 12.38 31.94Q12.55 31.85 12.69 31.73Q13.02 31.47 13.23 31.07Q13.28 31.48 13.3 32.09L14.2 32.09L14.2 25.85ZM30.74 31.13Q30.42 31.26 30.05 31.26Q29.7 31.26 29.39 31.14Q29.23 31.08 29.08 30.99Q29.03 30.95 28.98 30.92Q28.62 30.65 28.4 30.2Q28.15 29.68 28.15 28.97Q28.15 28.26 28.4 27.75Q28.62 27.29 28.98 27.03Q29.03 26.99 29.08 26.96Q29.24 26.86 29.41 26.79Q29.71 26.68 30.05 26.68Q30.42 26.68 30.73 26.8Q30.89 26.86 31.03 26.96Q31.1 27 31.16 27.05Q31.5 27.32 31.71 27.75Q31.95 28.26 31.95 28.97Q31.95 29.68 31.71 30.2Q31.5 30.63 31.16 30.89Q31.1 30.94 31.03 30.99Q30.89 31.07 30.74 31.13Z" fill="#000000" fill-opacity="0.501961" fill-rule="evenodd"/>
</svg>
