<svg width="179.104492" height="35.000000" viewBox="0 0 179.104 35" fill="none" xmlns="http://www.w3.org/2000/svg" xmlns:xlink="http://www.w3.org/1999/xlink">
	<desc>
			Created with Pixso.
	</desc>
	<defs/>
	<path id="摄影师" d="M29.03 15.09L30.03 15.96Q30.84 15.26 31.55 14.38Q31.93 13.83 32.21 13.18Q32.59 12.2 32.76 11.2Q32.87 9.9 32.87 8.58L32.87 3.33L31.66 3.33L31.66 8.64Q31.66 9.84 31.55 10.99Q31.54 11.21 31.51 11.42Q31.42 12.06 31.17 12.68Q30.89 13.18 30.52 13.67Q29.8 14.43 29.03 15.09ZM22.14 6.61L22.91 7.7Q23.84 7 24.78 6.18Q25.81 5.25 26.79 4.16L25.87 3.39Q25.04 4.31 24.17 5.08Q23.18 5.95 22.14 6.61ZM13.13 3.88L4.48 3.88L4.48 4.8L5.53 4.8L5.53 8.96L4.48 9.02L4.48 9.24L4.42 8.9L4.32 8.36L3.33 8.81L3.33 6.95L4.64 6.95L4.64 5.74L3.33 5.74L3.33 3.45L2.13 3.45L2.13 5.74L0.77 5.74L0.77 6.95L2.13 6.95L2.13 9.35L0.48 10L0.71 11.26L2.13 10.6L2.13 14.06Q2.13 14.09 2.14 14.12Q2.15 14.3 1.97 14.49Q1.75 14.6 1.47 14.6L0.66 14.6L0.88 15.75L1.8 15.75Q2.18 15.75 2.57 15.64Q2.64 15.62 2.71 15.6Q2.9 15.54 3.06 15.42Q3.17 15.26 3.22 15.09Q3.33 14.76 3.33 14.43L3.33 10.11L4.53 9.56L4.53 9.95L10.72 9.68L10.72 10.33L11.87 10.33L11.87 9.62L13.28 9.56L13.34 8.64L11.87 8.7L11.87 4.8L13.13 4.8L13.13 3.88ZM21.98 3.77L15.42 3.77L15.42 7.76L18.97 7.76L17.88 8.09Q18.04 8.36 18.21 8.64L14.66 8.64L14.66 9.56L22.75 9.56L22.75 8.64L19.47 8.64Q19.19 8.2 18.97 7.76L21.98 7.76L21.98 3.77ZM41.17 3.99L33.57 3.99L33.57 5.14L36.63 5.14L36.63 6.78L33.91 6.78L33.91 13.89L35.05 13.89L35.05 7.98L36.63 7.98L36.63 15.75L37.78 15.75L37.78 7.98L39.48 7.98L39.48 11.97Q39.48 12.2 39.42 12.35Q39.42 12.46 39.38 12.52Q39.27 12.63 39.16 12.68L38.01 12.68L38.27 13.89L39.16 13.89Q39.53 13.89 39.92 13.83Q40.08 13.72 40.25 13.61Q40.35 13.54 40.41 13.45Q40.5 13.33 40.53 13.18Q40.57 12.8 40.57 12.4L40.57 6.78L37.78 6.78L37.78 5.14L41.17 5.14L41.17 3.99ZM29.26 4.26L29.26 12.52L30.41 12.52L30.41 4.26L29.26 4.26ZM16.57 4.7L20.83 4.7L20.83 5.35L16.57 5.35L16.57 4.7ZM6.67 4.8L10.72 4.8L10.72 5.57L6.67 5.57L6.67 4.8ZM16.57 6.89L16.57 6.18L20.83 6.18L20.83 6.89L16.57 6.89ZM6.67 6.45L10.72 6.45L10.72 7.21L6.67 7.21L6.67 6.45ZM22.09 10.56L22.86 11.59Q24.29 10.59 25.53 9.38Q26.31 8.61 27.02 7.76L26.02 7.06Q25.65 7.51 25.24 7.93Q23.83 9.4 22.09 10.56ZM6.67 8.09L10.72 8.09L10.72 8.75L6.67 8.9L6.67 8.09ZM14.38 14.76L15.2 15.58Q16.41 14.55 17.38 13.34L16.57 12.68L18.27 12.68L18.27 13.83Q18.27 14.06 18.21 14.21Q18.21 14.25 18.2 14.29Q18.17 14.34 18.1 14.38Q17.98 14.43 17.88 14.49L16.46 14.49L16.67 15.64L17.82 15.64Q18.27 15.64 18.64 15.53Q18.87 15.47 19.02 15.36Q19.12 15.29 19.19 15.2Q19.27 15.08 19.3 14.93Q19.38 14.69 19.41 14.45Q19.41 14.36 19.41 14.27L19.41 12.68L21.82 12.68L21.82 10.17L15.58 10.17L15.58 12.68L16.57 12.68Q16.03 13.31 15.42 13.88Q14.92 14.34 14.38 14.76ZM21.77 14.93L22.52 15.96Q23.95 15.04 25.21 13.83Q26.47 12.63 27.51 11.16L26.53 10.5Q25.74 11.6 24.8 12.54Q23.44 13.89 21.77 14.93ZM4.92 11.75L4.32 12.4Q5.02 12.95 5.73 13.5Q4.76 14.38 3.5 15.04L4.21 15.96Q4.95 15.53 5.62 15.01Q6.14 14.61 6.62 14.15Q7.05 14.55 7.48 14.93L8.2 14.15L7.28 13.4Q7.67 12.89 7.95 12.32Q8.13 11.97 8.26 11.59L8.26 10.65L4.32 10.65L4.32 11.59L7.22 11.59Q6.88 12.25 6.45 12.8Q5.68 12.25 4.92 11.75ZM7.43 15.04L8.03 15.96Q9.35 15.42 10.55 14.55Q10.68 14.65 10.82 14.75Q11.81 15.47 13.02 15.9L13.45 14.93Q12.49 14.61 11.65 14.1Q11.48 14 11.32 13.89Q11.72 13.49 12.04 13.03Q12.5 12.37 12.79 11.59L12.79 10.65L8.52 10.65L8.52 11.59L9.13 11.59L8.47 11.86Q8.54 12.03 8.63 12.19Q9.1 13.1 9.78 13.89Q9.29 14.15 8.8 14.43Q8.14 14.76 7.43 15.04ZM16.73 10.99L20.67 10.99L20.67 11.8L16.73 11.8L16.73 10.99ZM9.46 11.59L11.64 11.59Q11.49 11.98 11.27 12.33Q10.97 12.82 10.55 13.23Q10.13 12.81 9.83 12.32Q9.62 11.97 9.46 11.59ZM20.67 12.74L19.96 13.34Q20.77 14.15 21.54 15.09L22.37 14.38Q21.54 13.5 20.67 12.74Z" fill="#000000" fill-opacity="0.901961" fill-rule="evenodd"/>
	<path id="风景摄影领域作者" d="M48.27 25.94L48.75 26.64Q49.11 26.28 49.43 25.88Q50.39 24.73 51.09 23.36L53.01 25.51L53.58 24.9L51.41 22.61L51.61 22.05L50.85 21.76Q50.77 22 50.67 22.24Q50.34 23.06 49.87 23.82Q49.17 25 48.27 25.94ZM69.61 21.76L69.09 22.27Q69.75 22.89 70.4 23.6L70.96 23.03Q70.3 22.37 69.61 21.76ZM65.9 31.84L66.51 32.5Q67.22 31.99 67.82 31.38Q68.22 30.98 68.58 30.53Q68.72 30.95 68.85 31.32Q69.04 31.79 69.41 32.22Q69.46 32.26 69.5 32.3Q69.77 32.51 70.17 32.55Q70.35 32.55 70.54 32.45Q70.61 32.42 70.66 32.38Q70.78 32.29 70.87 32.17Q71.01 31.94 71.11 31.66Q71.2 31.37 71.25 31.1Q71.38 30.34 71.43 29.64L70.74 29.4Q70.64 30.01 70.54 30.58Q70.5 30.95 70.35 31.32Q70.31 31.47 70.23 31.5Q70.2 31.51 70.17 31.51Q69.97 31.51 69.87 31.41Q69.85 31.39 69.84 31.37Q69.74 31.25 69.68 31.12Q69.63 31 69.61 30.86Q69.33 30.32 69.24 29.75Q69.24 29.72 69.24 29.69Q69.75 28.89 70.17 28Q70.69 26.87 71.01 25.71L70.25 25.47Q69.98 26.4 69.65 27.29Q69.37 27.95 69 28.61Q68.72 26.6 68.67 24.53L71.38 24.53L71.38 23.73L68.67 23.73L68.62 21.86L67.77 21.86L67.77 23.73L64.03 23.73L64.03 24.53L67.82 24.53Q67.87 25.84 67.96 27.16Q68.11 28.37 68.34 29.55Q67.99 30 67.59 30.4Q67.45 30.54 67.3 30.67L67.25 30.24L67.17 29.87Q65.2 30.39 63.24 30.81L63.41 31.71Q65.34 31.19 67.25 30.71Q66.61 31.32 65.9 31.84ZM75.46 26.5L76.08 27.21Q76.2 27.06 76.32 26.91Q77.2 25.81 77.85 24.53L78.61 24.53L78.61 32.69L79.5 32.69L79.5 30.16L82.91 30.16L82.91 29.26L79.5 29.26L79.5 27.34L82.69 27.34L82.69 26.45L79.5 26.45L79.5 24.53L83.25 24.53L83.25 23.64L78.27 23.64Q78.61 22.89 78.88 22.14L78.04 21.86Q77.53 23.26 76.82 24.53Q76.22 25.61 75.46 26.5ZM88.87 25.51L84.75 25.51L84.75 26.26L89.67 26.26Q88.64 26.87 87.51 27.39Q85.96 28.05 84.41 28.56L84.7 29.4Q85.74 29.03 86.75 28.61L86.75 32.64L87.65 32.64L87.65 32.08L92.8 32.08L92.8 32.64L93.7 32.64L93.7 27.58L89.06 27.58Q90.19 27.01 91.25 26.26L95.38 26.26L95.38 25.51L92.29 25.51Q92.87 24.99 93.42 24.42Q94.09 23.71 94.69 22.94L93.93 22.42Q93 23.69 91.86 24.71Q91.39 25.13 90.88 25.51L89.75 25.51L89.75 24.01L92.58 24.01L92.58 23.21L89.75 23.21L89.75 21.9L88.87 21.9L88.87 23.21L85.87 23.21L85.87 24.01L88.87 24.01L88.87 25.51ZM35.29 22.51L27.79 22.51L27.79 23.17L28.77 23.17L28.77 26.92L27.84 26.92L27.79 26.82L27.7 26.36L26.72 26.82L26.72 24.95L27.93 24.95L27.93 24.11L26.72 24.11L26.72 22.05L25.91 22.05L25.91 24.11L24.61 24.11L24.61 24.95L25.91 24.95L25.91 27.21Q25.17 27.53 24.41 27.81L24.56 28.71Q25.22 28.37 25.91 28.1L25.91 31.23Q25.91 31.41 25.83 31.54Q25.8 31.58 25.77 31.61Q25.7 31.69 25.62 31.71Q25.61 31.71 25.59 31.71Q25.4 31.74 25.25 31.74L24.51 31.74L24.7 32.6L25.5 32.6Q25.82 32.6 26.11 32.5Q26.19 32.48 26.26 32.45Q26.4 32.4 26.53 32.31Q26.62 32.17 26.67 32.03Q26.72 31.79 26.72 31.51L26.72 27.71L27.79 27.24L27.84 27.63L33.27 27.39L33.27 28.05L34.12 28.05L34.12 27.34L35.43 27.29L35.48 26.64L34.12 26.69L34.12 23.17L35.29 23.17L35.29 22.51ZM62.85 22.05L61.96 22.05L61.96 24.9L60.7 24.9L60.7 25.74L61.96 25.74L61.96 29.87Q61.22 30.11 60.46 30.29L60.65 31.19Q62.07 30.74 63.5 30.32Q63.86 30.21 64.22 30.11L64.17 29.73L64.12 29.21Q63.46 29.4 62.85 29.6L62.85 25.74L64.08 25.74L64.08 24.9L62.85 24.9L62.85 22.05ZM72.27 27.24L72.79 28.1Q73.5 27.29 74.06 26.4L74.06 32.64L75 32.64L75 24.76Q75.56 23.6 75.98 22.32L75.04 22.05Q74.86 22.59 74.64 23.12Q74.3 23.96 73.87 24.76Q73.79 24.91 73.71 25.07Q73.11 26.22 72.27 27.24ZM43.08 24.9L43.59 25.66Q44.09 25.3 44.55 24.9Q44.88 24.63 45.19 24.34Q45.71 23.9 46.19 23.41Q46.56 23.02 46.91 22.61L46.25 22.1Q45.56 22.84 44.8 23.55Q43.96 24.29 43.08 24.9ZM17.95 25.71L17.34 25.98Q17.53 26.26 17.67 26.5L12.65 26.5L12.65 27.21L23.34 27.21L23.34 26.5L18.7 26.5L18.19 25.71L21.98 25.71L21.98 22.42L13.96 22.42L13.96 25.71L17.95 25.71ZM37.25 22.42L37.25 25.74L40.17 25.74L39.41 26.03Q39.61 26.31 39.75 26.6L36.51 26.6L36.51 27.24L43.5 27.24L43.5 26.6L40.64 26.6L40.17 25.74L42.75 25.74L42.75 22.42L37.25 22.42ZM0.46 32.22L1.3 32.64Q1.52 32.26 1.71 31.85Q2.09 31.04 2.34 30.16Q2.52 29.42 2.59 28.67Q2.64 28.03 2.62 27.39L2.62 23.36L8.95 23.36L8.95 27.81Q8.93 28.2 8.94 28.59Q8.95 29.33 9.04 30.06Q9.06 30.4 9.12 30.73Q9.2 31.13 9.32 31.51Q9.38 31.8 9.54 32.02Q9.61 32.13 9.7 32.22Q9.8 32.34 9.93 32.41Q10.09 32.5 10.3 32.5Q10.41 32.5 10.5 32.47Q10.71 32.4 10.87 32.17Q11.02 31.97 11.12 31.74Q11.21 31.54 11.25 31.32Q11.48 30.34 11.62 29.36L10.77 29.08Q10.69 29.87 10.54 30.67Q10.5 30.9 10.4 31.1Q10.4 31.19 10.35 31.23L10.35 31.23L10.3 31.27Q10.17 31.23 10.12 31.14Q10.08 30.9 10.03 30.71Q9.88 30.06 9.88 29.36Q9.84 28.37 9.84 27.34L9.84 22.47L1.74 22.47L1.74 27.34Q1.74 27.57 1.73 27.8Q1.68 28.84 1.45 29.87Q1.42 29.97 1.39 30.07Q1.07 31.19 0.46 32.22ZM55.45 24.71L53.75 24.71L53.75 29.87L54.61 29.87L54.61 25.51L57.88 25.51L57.88 29.87L58.74 29.87L58.74 24.71L56.34 24.71Q56.58 24.06 56.72 23.31L59.43 23.31L59.43 22.51L53.2 22.51L53.2 23.31L55.77 23.31Q55.64 24.06 55.45 24.71ZM38.06 23.08L41.95 23.08L41.95 23.73L38.06 23.73L38.06 23.08ZM14.8 23.13L21.14 23.13L21.14 23.73L14.8 23.73L14.8 23.13ZM29.62 23.17L33.27 23.17L33.27 23.92L29.62 23.92L29.62 23.17ZM2.53 30.86L3.19 31.51Q3.95 30.72 4.65 29.88Q5.23 29.17 5.75 28.42L7.87 31.47L8.62 30.9Q7.5 29.26 6.32 27.63Q7.35 26.13 8.25 24.48L7.45 24.06Q6.7 25.56 5.8 26.87Q4.82 25.51 3.79 24.16L3.14 24.67Q4.22 26.17 5.25 27.67Q4.13 29.26 2.78 30.61Q2.65 30.73 2.53 30.86ZM14.8 25.05L14.8 24.39L21.14 24.39L21.14 25.05L14.8 25.05ZM38.06 25.1L38.06 24.39L41.95 24.39L41.95 25.1L38.06 25.1ZM29.62 24.63L33.27 24.63L33.27 25.37L29.62 25.37L29.62 24.63ZM50.75 24.81L50.15 25.27Q50.8 26.17 51.41 27.06L52.08 26.6L50.75 24.81ZM43.03 28.27L43.54 29.03Q44.49 28.37 45.33 27.6Q46.28 26.73 47.11 25.71L46.45 25.19Q45.26 26.64 43.8 27.73Q43.42 28.01 43.03 28.27ZM64.35 25.79L64.35 29.13L67.12 29.13L67.12 25.79L64.35 25.79ZM29.62 26.03L33.27 26.03L33.27 26.73L29.62 26.87L29.62 26.03ZM52.54 32.08L53.06 32.77Q53.07 32.77 53.08 32.77Q53.68 32.49 54.24 32.13Q54.7 31.84 55.12 31.51Q55.37 31.33 55.58 31.11Q55.9 30.79 56.15 30.39Q57.56 31.51 58.91 32.64L59.53 31.94Q57.98 30.76 56.43 29.64Q56.46 29.5 56.49 29.36Q56.62 28.69 56.62 28L56.62 26.08L55.77 26.08L55.77 27.81Q55.77 28.56 55.64 29.26Q55.5 29.82 55.12 30.34Q54.93 30.55 54.71 30.73Q54.51 30.91 54.27 31.05Q53.43 31.61 52.54 32.08ZM65.11 26.55L66.37 26.55L66.37 28.32L65.11 28.32L65.11 26.55ZM49.59 29.13L49.08 29.77Q50.53 31.05 51.98 32.36L52.5 31.66Q52.03 31.23 51.51 30.76Q52.35 29.5 53.15 28.19L53.15 27.29L48.84 27.29L48.84 28.1L52.22 28.1Q51.56 29.17 50.9 30.21L49.59 29.13ZM16.74 31.71L15.65 31.71L15.84 32.5L17.06 32.5Q17.43 32.5 17.8 32.4Q18.04 32.36 18.24 32.26Q18.24 32.26 18.24 32.25Q18.42 32.12 18.51 31.89Q18.61 31.56 18.61 31.27L18.61 30.11L21.84 30.11L21.84 27.86L14.15 27.86L14.15 30.11L17.62 30.11L17.62 30.9Q17.62 31.14 17.58 31.32Q17.53 31.47 17.43 31.56Q17.34 31.61 17.2 31.66Q16.96 31.71 16.74 31.71ZM38.95 31.71L38.11 31.71L38.25 32.5L39.24 32.5Q39.27 32.5 39.3 32.5Q39.59 32.49 39.88 32.4Q40.08 32.36 40.22 32.26Q40.27 32.22 40.32 32.17Q40.41 32.05 40.45 31.89Q40.54 31.66 40.54 31.37L40.54 29.97L42.61 29.97L42.61 27.86L37.4 27.86L37.4 29.97L39.75 29.97L39.75 31.05Q39.75 31.23 39.7 31.37Q39.65 31.51 39.56 31.56L39.37 31.66Q39.19 31.71 38.95 31.71ZM45.08 30.23Q44.03 31.25 42.75 32.03L43.25 32.77Q44.48 31.94 45.56 30.95Q46.64 29.92 47.53 28.66L46.82 28.19Q46.04 29.31 45.08 30.23ZM28.17 29.21L27.75 29.69Q28.4 30.21 29.06 30.71Q28.96 30.81 28.85 30.91Q28.56 31.17 28.22 31.37Q27.65 31.74 27.04 32.13L27.51 32.77Q27.95 32.53 28.36 32.25Q29.06 31.78 29.67 31.19L30.51 31.89L31.03 31.32L30.14 30.63Q30.61 30.05 30.91 29.4Q31 29.19 31.08 28.98L31.08 28.27L27.65 28.27L27.65 28.94L30.32 28.94Q30.08 29.54 29.71 30.04Q29.64 30.13 29.58 30.21Q28.87 29.69 28.17 29.21ZM30.37 32.13L30.79 32.82Q31.73 32.41 32.58 31.85Q32.79 31.71 33 31.56L33 31.57Q33.98 32.31 35.2 32.73L35.58 32.03Q34.91 31.79 34.35 31.56Q33.93 31.32 33.56 31.1Q33.87 30.78 34.13 30.43Q34.6 29.78 34.87 28.98L34.87 28.27L31.25 28.27L31.25 28.94L31.59 28.94L31.22 29.13Q31.45 29.71 31.78 30.23Q32.07 30.66 32.43 31.05Q31.53 31.65 30.55 32.05Q30.46 32.09 30.37 32.13ZM87.65 28.32L92.8 28.32L92.8 29.4L87.65 29.4L87.65 28.32ZM38.2 28.51L41.8 28.51L41.8 29.31L38.2 29.31L38.2 28.51ZM15 28.56L21 28.56L21 29.5L15 29.5L15 28.56ZM31.91 28.94L34.08 28.94Q33.88 29.42 33.6 29.85Q33.34 30.24 33 30.58Q32.65 30.24 32.39 29.85Q32.11 29.42 31.91 28.94ZM36.37 31.84L36.93 32.45Q37.96 31.56 38.8 30.53L38.25 30.06Q37.85 30.53 37.41 30.95Q36.91 31.42 36.37 31.84ZM41.67 30.06L41.15 30.53Q41.9 31.23 42.56 32.03L43.12 31.51Q42.41 30.76 41.67 30.06ZM87.65 30.21L92.8 30.21L92.8 31.27L87.65 31.27L87.65 30.21ZM12.65 31.71L12.98 32.5Q13.91 32.13 14.85 31.66Q15.61 31.32 16.25 30.9L15.84 30.24Q15.59 30.4 15.34 30.55Q14.92 30.8 14.48 31Q13.59 31.37 12.65 31.71ZM19.91 30.29L19.59 30.95Q21.19 31.66 22.77 32.5L23.2 31.74Q21.61 30.95 19.91 30.29Z" fill="#000000" fill-opacity="0.501961" fill-rule="evenodd"/>
</svg>
