<svg width="280.654297" height="36.000000" viewBox="0 0 280.654 36" fill="none" xmlns="http://www.w3.org/2000/svg" xmlns:xlink="http://www.w3.org/1999/xlink">
	<desc>
			Created with Pixso.
	</desc>
	<defs/>
	<rect id="状态=enable" rx="18.000000" width="60.000000" height="36.000000" transform="translate(140.000000 0.000000)" fill="#FFFFFF" fill-opacity="0.149020"/>
	<path id="我家" d="M176.51 13.09L171.26 13.09L171.26 15.82L172.51 15.82L172.51 14.18L181.48 14.18L181.48 15.88L182.73 15.88L182.73 13.09L177.76 13.09L177.98 13.04Q177.76 12.55 177.54 12.06Q177.37 11.78 177.28 11.5L175.91 11.89Q176.17 12.49 176.51 13.09ZM161.02 22.22L161.68 23.43Q163.22 22.65 164.69 21.68Q164.91 22.33 165.23 22.88Q165.57 23.43 166.12 23.86Q166.41 24.1 166.75 24.19Q166.97 24.25 167.21 24.25Q167.41 24.25 167.6 24.2Q167.92 24.11 168.19 23.86Q168.41 23.65 168.57 23.31Q168.68 22.99 168.79 22.71Q169.07 21.79 169.28 20.85L168.19 20.3Q168.02 21.13 167.81 21.9Q167.7 22.33 167.53 22.71Q167.48 22.79 167.41 22.83Q167.32 22.88 167.21 22.88Q166.98 22.88 166.84 22.77Q166.81 22.75 166.78 22.71Q166.5 22.5 166.33 22.23Q166.33 22.22 166.33 22.22Q165.95 21.62 165.67 20.9Q166.73 20.03 167.61 19.01Q168.15 18.37 168.62 17.68L167.59 17.03Q167.46 17.22 167.33 17.41Q166.48 18.65 165.29 19.66Q165.03 18.23 164.91 16.8L169.13 16.8L169.13 15.6L164.86 15.6Q164.8 15.05 164.75 14.51Q164.69 13.15 164.63 11.78L163.37 11.78Q163.43 13.2 163.48 14.56L163.54 15.6L160.7 15.6L160.7 13.75Q161.68 13.58 162.62 13.36L162.45 12.15Q159.78 12.81 157.09 13.04L157.2 14.18Q158.29 14.07 159.38 13.96L159.38 15.6L156.76 15.6L156.76 16.8L159.38 16.8L159.38 18.83Q158.07 19.1 156.76 19.32L156.92 20.58L159.38 20.09L159.38 22.45Q159.38 22.51 159.36 22.57Q159.33 22.65 159.27 22.71Q159.17 22.77 159.12 22.77Q158.84 22.82 158.63 22.82L157.2 22.82L157.42 24.03L158.84 24.03Q159.33 24.03 159.78 23.92Q160 23.88 160.17 23.76Q160.25 23.71 160.32 23.65Q160.48 23.43 160.59 23.2Q160.7 22.82 160.7 22.45L160.7 19.81L163.05 19.38L163 18.78L162.88 18.12Q161.79 18.4 160.7 18.55L160.7 16.8L163.71 16.8Q163.82 18.61 164.31 20.42Q162.72 21.51 161.02 22.22ZM166.17 12.1L165.35 12.93Q165.92 13.47 166.48 14.03Q167.04 14.59 167.59 15.17L168.53 14.3Q167.38 13.2 166.17 12.1ZM170.88 18.34L171.31 19.43Q171.93 19.26 172.53 19.06Q174.24 18.48 175.85 17.63Q176.07 17.91 176.23 18.18Q175.54 18.57 174.83 18.92Q174.36 19.16 173.87 19.38Q172.41 20.04 170.82 20.53L171.26 21.56Q172.84 21.02 174.38 20.3Q175.57 19.76 176.72 19.06L176.94 19.7Q175.55 20.79 173.98 21.48Q173.95 21.49 173.93 21.51Q172.7 22.12 171.42 22.55Q170.98 22.7 170.54 22.82L171.03 23.92Q172.84 23.26 174.48 22.45Q175.91 21.73 177.16 20.81L177.16 21.62Q177.16 22 177.11 22.33Q177 22.56 176.88 22.65Q176.67 22.88 176.45 22.93Q176.07 22.99 175.68 22.99L174.26 22.99L174.42 24.14L176.07 24.14Q176.67 24.14 177.28 23.97Q177.35 23.95 177.42 23.92Q177.66 23.81 177.88 23.65Q177.99 23.55 178.08 23.43Q178.24 23.21 178.31 22.93Q178.47 22.39 178.47 21.79Q178.47 20.7 178.26 19.66L178.8 19.43Q179.1 20.18 179.56 20.82Q179.84 21.21 180.17 21.56Q180.88 22.31 181.71 22.9Q182.15 23.21 182.62 23.48L183.45 22.5Q182.73 22.11 182.13 21.73Q181.81 21.51 181.53 21.24Q181.33 21.06 181.16 20.85Q180.93 20.63 180.73 20.38Q180.19 19.74 179.84 18.95Q181.04 18.34 182.25 17.63L181.59 16.65Q179.78 17.74 177.88 18.55Q177.48 17.8 176.83 17.08Q177.37 16.75 177.92 16.37L181.16 16.37L181.16 15.33L172.78 15.33L172.78 16.37L175.96 16.37Q175.11 16.87 174.2 17.24Q173.83 17.39 173.44 17.52Q172.31 17.95 171.15 18.27Q171.01 18.31 170.88 18.34Z" fill="#FFFFFF" fill-opacity="0.898039" fill-rule="evenodd"/>
	<rect id="状态=enable" rx="18.000000" width="60.000000" height="36.000000" transform="translate(70.000000 0.000000)" fill="#0A59F7" fill-opacity="1.000000"/>
	<path id="空间" d="M92.51 13.2L87.26 13.2L87.26 16.05L88.57 16.05L88.57 14.41L97.38 14.41L97.38 16.05L98.73 16.05L98.73 13.2L93.6 13.2L93.92 13.09Q93.54 12.27 93.16 11.5L91.9 11.95Q92.23 12.55 92.51 13.2ZM102.51 11.67L101.63 12.55Q102.73 13.64 103.78 14.73L104.76 13.81L102.51 11.67ZM112.62 12.55L105.02 12.55L105.02 13.81L111.32 13.81L111.32 21.9Q111.32 22.17 111.26 22.45Q111.21 22.6 111.16 22.71Q110.98 22.82 110.78 22.88Q110.44 22.93 110.17 22.93L108.75 22.93L109.03 24.14L110.55 24.14Q111.1 24.14 111.59 24.03Q111.63 24.02 111.66 24.01Q112 23.94 112.3 23.7Q112.37 23.61 112.42 23.51Q112.49 23.37 112.53 23.2Q112.62 22.71 112.62 22.17L112.62 12.55ZM101.37 14.3L101.37 24.2L102.67 24.2L102.67 14.3L101.37 14.3ZM86.76 17.74L87.31 18.95Q89.82 17.74 92.23 16.26L91.53 15.11Q89.21 16.7 86.76 17.74ZM94.37 15.11L93.76 16.26Q96.21 17.4 98.62 18.78L99.28 17.68Q96.82 16.37 94.37 15.11ZM104.21 15.33L104.21 22.17L109.78 22.17L109.78 15.33L104.21 15.33ZM105.47 16.54L108.52 16.54L108.52 18.12L105.47 18.12L105.47 16.54ZM88.46 18.67L88.46 19.87L92.34 19.87L92.34 22.5L87.09 22.5L87.09 23.76L98.9 23.76L98.9 22.5L93.71 22.5L93.71 19.87L97.53 19.87L97.53 18.67L88.46 18.67ZM105.47 20.9L105.47 19.32L108.52 19.32L108.52 20.9L105.47 20.9Z" fill="#FFFFFF" fill-opacity="0.898039" fill-rule="evenodd"/>
	<rect id=".item" rx="18.000000" width="60.000000" height="36.000000" fill="#FFFFFF" fill-opacity="0.149020"/>
	<path id="设备" d="M30.54 17.35L30.88 18.5Q32.63 18.23 34.32 17.8Q35.62 17.4 36.88 16.92Q38.09 17.46 39.4 17.8Q41.21 18.23 43.07 18.5L43.45 17.25Q41.96 17.08 40.55 16.75Q39.51 16.54 38.46 16.2Q40.27 15.33 41.87 14.02L41.87 12.76L35.41 12.76Q35.73 12.32 36.07 11.89L34.7 11.55Q33.76 12.87 32.61 13.95Q31.75 14.76 30.76 15.45L31.58 16.43Q32.67 15.71 33.66 14.79Q34.48 15.56 35.47 16.16Q33.01 16.92 30.54 17.35ZM18.63 11.89L17.58 12.7Q18.63 13.96 19.66 15.22L20.76 14.41Q19.72 13.09 18.63 11.89ZM20.76 16.37L21.62 17.31Q22.51 16.75 23.11 15.99Q23.23 15.81 23.33 15.61Q23.61 15.04 23.65 14.35L23.65 13.58L26.12 13.58L26.12 15.33Q26.12 15.65 26.21 15.99Q26.27 16.16 26.38 16.26Q26.61 16.43 26.82 16.54Q27.21 16.59 27.53 16.54L29.07 16.54L29.23 15.33L28.08 15.33Q28.03 15.35 27.98 15.36Q27.87 15.37 27.76 15.33Q27.63 15.33 27.56 15.27Q27.54 15.25 27.53 15.22Q27.48 15.17 27.42 15.05Q27.38 14.95 27.42 14.79L27.42 12.43L22.39 12.43L22.39 13.81Q22.39 14.24 22.28 14.62Q22.17 14.95 22.01 15.28Q21.79 15.5 21.57 15.71Q21.19 16.1 20.76 16.37ZM34.53 13.9L39.95 13.9Q38.52 14.95 36.94 15.6Q36.74 15.5 36.55 15.4Q35.46 14.8 34.53 13.9ZM19.72 16.16L16.65 16.16L16.65 17.35L18.4 17.35L18.4 22.11Q18.4 22.39 18.29 22.6Q18.18 22.82 18.03 22.99L18.84 23.97Q19.12 23.7 19.5 23.43Q20.64 22.5 21.79 21.62L21.25 20.47L19.72 21.68L19.72 16.16ZM20.26 23.26L20.96 24.46Q22.17 23.97 23.32 23.43Q24.14 23.05 24.97 22.5Q25.73 22.99 26.61 23.43Q27.7 23.97 28.85 24.4L29.39 23.16Q28.36 22.82 27.38 22.45Q26.76 22.15 26.19 21.79Q26.1 21.74 26.01 21.68Q26.6 21.14 27.08 20.52Q27.79 19.6 28.25 18.5L28.25 17.35L21.13 17.35L21.13 18.5L22.17 18.5L21.73 18.72Q21.96 19.27 22.27 19.77Q22.91 20.82 23.88 21.68Q22.13 22.65 20.26 23.26ZM32.18 18.34L32.18 24.35L33.44 24.35L33.44 23.76L40.5 23.76L40.5 24.35L41.81 24.35L41.81 18.34L32.18 18.34ZM23 18.5L26.82 18.5Q26.55 19.1 26.16 19.62Q25.64 20.34 24.91 20.9Q24.51 20.58 24.17 20.2Q23.47 19.45 23 18.5ZM33.44 19.38L36.34 19.38L36.34 20.47L33.44 20.47L33.44 19.38ZM40.5 19.38L40.5 20.47L37.6 20.47L37.6 19.38L40.5 19.38ZM33.44 21.51L36.34 21.51L36.34 22.65L33.44 22.65L33.44 21.51ZM37.6 21.51L40.5 21.51L40.5 22.65L37.6 22.65L37.6 21.51Z" fill="#FFFFFF" fill-opacity="0.898039" fill-rule="evenodd"/>
</svg>
