<?xml version="1.0" encoding="UTF-8"?>
<svg width="16.6666667px" height="17.5px" viewBox="0 0 16.6666667 17.5" version="1.1" xmlns="http://www.w3.org/2000/svg" xmlns:xlink="http://www.w3.org/1999/xlink">
    <title>calendars</title>
    <defs>
        <path d="M11.875,1.11022302e-16 C12.2998344,3.2981485e-17 12.6504183,0.31790432 12.7018405,0.728801771 L12.708,0.833 L12.7083333,2.5 C12.7083333,2.96023729 12.3352373,3.33333333 11.875,3.33333333 C11.4147627,3.33333333 11.0416667,2.96023729 11.0416667,2.5 L11.041,2.084 L5.624,2.083 L5.625,2.5 C5.625,2.96023729 5.25190396,3.33333333 4.79166667,3.33333333 C4.33142938,3.33333333 3.95833333,2.96023729 3.95833333,2.5 L3.958,2.083 L3.33333333,2.08333333 C2.20224168,2.08333333 1.28168089,2.98472308 1.25080037,4.10835316 L1.25,5.41633333 L15.416,5.41633333 L15.4166667,4.16666667 C15.4166667,3.08631178 14.5943295,2.19802403 13.5414502,2.09359836 L13.5414274,0.839723165 C15.2854423,0.94714633 16.6666667,2.39560539 16.6666667,4.16666667 L16.6666667,14.1666667 C16.6666667,16.0076158 15.1742825,17.5 13.3333333,17.5 L3.33333333,17.5 C1.49238417,17.5 2.22044605e-16,16.0076158 2.22044605e-16,14.1666667 L2.22044605e-16,4.16666667 C2.22044605e-16,2.3257175 1.49238417,0.833333333 3.33333333,0.833333333 L3.95833333,0.833333333 C3.95833333,0.373096042 4.33142938,1.95566521e-16 4.79166667,1.11022302e-16 C5.25190396,2.64780836e-17 5.625,0.373096042 5.625,0.833333333 L11.0416667,0.833333333 C11.0416667,0.373096042 11.4147627,1.95566521e-16 11.875,1.11022302e-16 Z M15.416,6.66633333 L1.25,6.66633333 L1.25,14.1666667 C1.25,15.2977583 2.15138975,16.2183191 3.27501982,16.2491996 L3.33333333,16.25 L13.3333333,16.25 C14.464425,16.25 15.3849858,15.3486103 15.4158663,14.2249802 L15.4166667,14.1666667 L15.416,6.66633333 Z" id="path-1"></path>
    </defs>
    <g id="0319" stroke="none" stroke-width="1" fill="none" fill-rule="evenodd">
        <g id="（新）折叠屏查询车票分栏（待定）" transform="translate(-285.666667, -92.833333)">
            <g id="编组-3" transform="translate(274.000000, 87.000000)">
                <g id="calendars" transform="translate(10.000000, 5.000000)">
                    <g id="Public/ic_public_calendar" transform="translate(1.666667, 0.833333)">
                        <mask id="mask-2" fill="white">
                            <use xlink:href="#path-1"></use>
                        </mask>
                        <g id="形状结合" fill-rule="nonzero"></g>
                        <g id="Symbol/color-light/colorPrimary" mask="url(#mask-2)" fill="#FFFFFF" fill-opacity="0.9">
                            <g transform="translate(-1.666667, -0.833333)" id="color/#000000">
                                <rect x="0" y="0" width="20" height="20"></rect>
                            </g>
                        </g>
                    </g>
                </g>
            </g>
        </g>
    </g>
</svg>