<?xml version="1.0" encoding="UTF-8"?>
<svg width="13.3333333px" height="14px" viewBox="0 0 13.3333333 14" version="1.1" xmlns="http://www.w3.org/2000/svg" xmlns:xlink="http://www.w3.org/1999/xlink">
    <title>cheapday</title>
    <defs>
        <path d="M9.5,-3.33066907e-16 C9.83471803,-3.94553612e-16 10.111822,0.246675069 10.1594383,0.568151553 L10.166,0.666 L10.1666667,2 C10.1666667,2.36818983 9.86818983,2.66666667 9.5,2.66666667 C9.13181017,2.66666667 8.83333333,2.36818983 8.83333333,2 L8.833,1.667 L4.5,1.666 L4.5,2 C4.5,2.36818983 4.20152317,2.66666667 3.83333333,2.66666667 C3.4651435,2.66666667 3.16666667,2.36818983 3.16666667,2 L3.166,1.666 L2.66666667,1.66666667 C1.76179335,1.66666667 1.02534471,2.38777846 1.0006403,3.28668253 L1,4.33266667 L12.333,4.33266667 L12.3333333,3.33333333 C12.3333333,2.46922007 11.6757234,1.75869985 10.8336591,1.67492825 L10.833,0.671 C12.2294989,0.758918195 13.3333333,1.91721859 13.3333333,3.33333333 L13.3333333,11.3333333 C13.3333333,12.8060927 12.139426,14 10.6666667,14 L2.66666667,14 C1.19390733,14 0,12.8060927 0,11.3333333 L0,3.33333333 C0,1.860574 1.19390733,0.666666667 2.66666667,0.666666667 L3.16666667,0.666666667 C3.16666667,0.298476833 3.4651435,-2.65431532e-16 3.83333333,-3.33066907e-16 C4.20152317,-4.00702282e-16 4.5,0.298476833 4.5,0.666666667 L8.83333333,0.666666667 C8.83333333,0.298476833 9.13181017,-2.65431532e-16 9.5,-3.33066907e-16 Z M12.333,5.33266667 L1,5.33266667 L1,11.3333333 C1,12.2382067 1.7211118,12.9746553 2.62001586,12.9993597 L2.66666667,13 L10.6666667,13 C11.57154,13 12.3079886,12.2788882 12.332693,11.3799841 L12.3333333,11.3333333 L12.333,5.33266667 Z" id="path-1"></path>
    </defs>
    <g id="0319" stroke="none" stroke-width="1" fill="none" fill-rule="evenodd">
        <g id="新平板酒店详情页" transform="translate(-1199.333333, -350.666667)">
            <g id="编组-3" transform="translate(1190.000000, 350.000000)">
                <g id="cheapday" transform="translate(9.333333, 0.666667)">
                    <mask id="mask-2" fill="white">
                        <use xlink:href="#path-1"></use>
                    </mask>
                    <g id="形状结合" fill-rule="nonzero"></g>
                    <g id="Symbol/color-light/colorPrimary" mask="url(#mask-2)" fill="#000000" fill-opacity="0.6">
                        <g transform="translate(-1.333333, -0.666667)" id="color/#000000">
                            <rect x="0" y="0" width="16" height="16"></rect>
                        </g>
                    </g>
                </g>
            </g>
        </g>
    </g>
</svg>