<svg width="48.000000" height="48.000000" viewBox="0 0 48 48" fill="none" xmlns="http://www.w3.org/2000/svg" xmlns:xlink="http://www.w3.org/1999/xlink">
	<desc>
		Created with Pixso.
	</desc>
	<defs>
		<clipPath id="clip2_585">
			<rect id="svg" width="48.000000" height="48.000000" transform="translate(0.000000 0.000000)" fill="white" fill-opacity="0"/>
		</clipPath>
	</defs>
	<g clip-path="url(#clip2_585)">
		<circle id="circle" cx="24.000000" cy="24.000000" r="24.000000" fill="#0A59F7" fill-opacity="1.000000"/>
		<circle id="circle" cx="24.000000" cy="24.000000" r="24.000000" stroke="#000000" stroke-opacity="0" stroke-width="1.000000"/>
		<path id="形状" d="M30.5 28.25C30.5 30.18 28.93 31.75 27 31.75L15.5 31.75C13.56 31.75 12 30.18 12 28.25L12 19.75C12 17.81 13.56 16.25 15.5 16.25L27 16.25C28.93 16.25 30.49 17.81 30.5 19.74L30.5 28.25ZM27.06 17.75L15.5 17.75C14.41 17.75 13.53 18.61 13.5 19.68L13.5 28.25C13.5 29.33 14.36 30.21 15.43 30.24L27 30.25C28.08 30.25 28.96 29.38 28.99 28.31L29 19.75C29 18.66 28.13 17.78 27.06 17.75ZM33.43 18.85C34.29 18.4 35.35 18.73 35.79 19.59C35.9 19.79 35.97 20.01 35.99 20.23L36 20.4L36 27.59C36 28.56 35.21 29.34 34.25 29.34C34.02 29.34 33.79 29.3 33.59 29.21L33.43 29.14L31.5 28.12L31.5 26.43L34.13 27.81L34.25 27.84C34.36 27.84 34.46 27.76 34.49 27.65L34.5 20.4L34.47 20.28C34.41 20.2 34.29 20.13 34.19 20.16L31.5 21.56L31.5 19.87L33.43 18.85Z" fill="#FFFFFF" fill-opacity="1.000000" fill-rule="nonzero"/>
		<path id="形状" d="M27 31.75L15.5 31.75C13.56 31.75 12 30.18 12 28.25L12 19.75C12 17.81 13.56 16.25 15.5 16.25L27 16.25C28.93 16.25 30.49 17.81 30.5 19.74L30.5 28.25C30.5 30.18 28.93 31.75 27 31.75ZM15.5 17.75C14.41 17.75 13.53 18.61 13.5 19.68L13.5 28.25C13.5 29.33 14.36 30.21 15.43 30.24L27 30.25C28.08 30.25 28.96 29.38 28.99 28.31L29 19.75C29 18.66 28.13 17.78 27.06 17.75L15.5 17.75ZM35.79 19.59C35.9 19.79 35.97 20.01 35.99 20.23L36 20.4L36 27.59C36 28.56 35.21 29.34 34.25 29.34C34.02 29.34 33.79 29.3 33.59 29.21L33.43 29.14L31.5 28.12L31.5 26.43L34.13 27.81L34.25 27.84C34.36 27.84 34.46 27.76 34.49 27.65L34.5 20.4L34.47 20.28C34.41 20.2 34.29 20.13 34.19 20.16L31.5 21.56L31.5 19.87L33.43 18.85C34.29 18.4 35.35 18.73 35.79 19.59Z" stroke="#000000" stroke-opacity="0" stroke-width="1.000000"/>
	</g>
</svg>
