<svg width="177.242188" height="177.242676" viewBox="0 0 177.242 177.243" fill="none" xmlns="http://www.w3.org/2000/svg" xmlns:xlink="http://www.w3.org/1999/xlink">
	<desc>
			Created with Pixso.
	</desc>
	<defs/>
	<ellipse id="椭圆 61" cx="90.000000" cy="89.157715" rx="67.000000" ry="67.500000" fill="#737580" fill-opacity="1.000000"/>
	<path id="形状结合" d="M88.62 0C137.56 0 177.24 39.67 177.24 88.62C177.24 137.56 137.56 177.24 88.62 177.24C39.67 177.24 0 137.56 0 88.62C0 39.67 39.67 0 88.62 0ZM100.09 31.19L75.72 31.19C73.07 31.19 70.92 33.34 70.92 35.99L70.92 72.3L34.57 72.3C31.92 72.3 29.77 74.45 29.77 77.1L29.77 101.44C29.77 104.09 31.92 106.24 34.57 106.24L70.92 106.24L70.92 141.24C70.92 143.89 73.07 146.04 75.72 146.04L100.09 146.04C102.74 146.04 104.89 143.89 104.89 141.24L104.89 106.24L141.24 106.24C143.89 106.24 146.04 104.09 146.04 101.44L146.04 77.1C146.04 74.45 143.89 72.3 141.24 72.3L104.89 72.3L104.89 35.99C104.89 33.34 102.74 31.19 100.09 31.19Z" fill="#3A3B40" fill-opacity="1.000000" fill-rule="evenodd"/>
	<path id="形状结合" d="M177.24 88.62C177.24 137.56 137.56 177.24 88.62 177.24C39.67 177.24 0 137.56 0 88.62C0 39.67 39.67 0 88.62 0C137.56 0 177.24 39.67 177.24 88.62ZM75.72 31.19C73.07 31.19 70.92 33.34 70.92 35.99L70.92 72.3L34.57 72.3C31.92 72.3 29.77 74.45 29.77 77.1L29.77 101.44C29.77 104.09 31.92 106.24 34.57 106.24L70.92 106.24L70.92 141.24C70.92 143.89 73.07 146.04 75.72 146.04L100.09 146.04C102.74 146.04 104.89 143.89 104.89 141.24L104.89 106.24L141.24 106.24C143.89 106.24 146.04 104.09 146.04 101.44L146.04 77.1C146.04 74.45 143.89 72.3 141.24 72.3L104.89 72.3L104.89 35.99C104.89 33.34 102.74 31.19 100.09 31.19L75.72 31.19Z" stroke="#000000" stroke-opacity="0" stroke-width="1.000000"/>
	<path id="三角形" d="M88.78 40.5L95.14 50.61C95.32 50.89 95.24 51.26 94.96 51.43C94.86 51.49 94.75 51.53 94.64 51.53L81.9 51.53C81.57 51.53 81.3 51.26 81.3 50.93C81.3 50.81 81.34 50.7 81.4 50.61L87.76 40.5C87.94 40.22 88.31 40.14 88.59 40.31C88.67 40.36 88.73 40.43 88.78 40.5Z" fill="#FFFFFF" fill-opacity="1.000000" fill-rule="evenodd"/>
	<path id="三角形" d="M95.14 50.61C95.32 50.89 95.24 51.26 94.96 51.43C94.86 51.49 94.75 51.53 94.64 51.53L81.9 51.53C81.57 51.53 81.3 51.26 81.3 50.93C81.3 50.81 81.34 50.7 81.4 50.61L87.76 40.5C87.94 40.22 88.31 40.14 88.59 40.31C88.67 40.36 88.73 40.43 88.78 40.5L95.14 50.61Z" stroke="#000000" stroke-opacity="0" stroke-width="1.000000"/>
	<path id="三角形备份" d="M88.78 140.1L95.14 130C95.32 129.72 95.24 129.35 94.96 129.17C94.86 129.11 94.75 129.08 94.64 129.08L81.9 129.08C81.57 129.08 81.3 129.35 81.3 129.68C81.3 129.79 81.34 129.9 81.4 130L87.76 140.1C87.94 140.38 88.31 140.47 88.59 140.29C88.67 140.24 88.73 140.18 88.78 140.1Z" fill="#FFFFFF" fill-opacity="1.000000" fill-rule="evenodd"/>
	<path id="三角形备份" d="M95.14 130C95.32 129.72 95.24 129.35 94.96 129.17C94.86 129.11 94.75 129.08 94.64 129.08L81.9 129.08C81.57 129.08 81.3 129.35 81.3 129.68C81.3 129.79 81.34 129.9 81.4 130L87.76 140.1C87.94 140.38 88.31 140.47 88.59 140.29C88.67 140.24 88.73 140.18 88.78 140.1L95.14 130Z" stroke="#000000" stroke-opacity="0" stroke-width="1.000000"/>
	<path id="三角形" d="M38.38 89.16L48.48 82.8C48.76 82.62 49.13 82.7 49.31 82.98C49.37 83.08 49.4 83.19 49.4 83.3L49.4 96.04C49.4 96.37 49.13 96.64 48.8 96.64C48.69 96.64 48.58 96.6 48.48 96.54L38.38 90.18C38.1 90 38.01 89.63 38.19 89.35C38.24 89.27 38.3 89.21 38.38 89.16Z" fill="#FFFFFF" fill-opacity="1.000000" fill-rule="evenodd"/>
	<path id="三角形" d="M48.48 82.8C48.76 82.62 49.13 82.7 49.31 82.98C49.37 83.08 49.4 83.19 49.4 83.3L49.4 96.04C49.4 96.37 49.13 96.64 48.8 96.64C48.69 96.64 48.58 96.6 48.48 96.54L38.38 90.18C38.1 90 38.01 89.63 38.19 89.35C38.24 89.27 38.3 89.21 38.38 89.16L48.48 82.8Z" stroke="#000000" stroke-opacity="0" stroke-width="1.000000"/>
	<path id="三角形备份" d="M137.97 89.16L127.87 82.8C127.59 82.62 127.22 82.7 127.04 82.98C126.98 83.08 126.95 83.19 126.95 83.3L126.95 96.04C126.95 96.37 127.22 96.64 127.55 96.64C127.66 96.64 127.77 96.6 127.87 96.54L137.97 90.18C138.25 90 138.34 89.63 138.16 89.35C138.11 89.27 138.05 89.21 137.97 89.16Z" fill="#FFFFFF" fill-opacity="1.000000" fill-rule="evenodd"/>
	<path id="三角形备份" d="M127.87 82.8C127.59 82.62 127.22 82.7 127.04 82.98C126.98 83.08 126.95 83.19 126.95 83.3L126.95 96.04C126.95 96.37 127.22 96.64 127.55 96.64C127.66 96.64 127.77 96.6 127.87 96.54L137.97 90.18C138.25 90 138.34 89.63 138.16 89.35C138.11 89.27 138.05 89.21 137.97 89.16L127.87 82.8Z" stroke="#000000" stroke-opacity="0" stroke-width="1.000000"/>
</svg>
