<svg width="195.333984" height="195.333008" viewBox="0 0 195.334 195.333" fill="none" xmlns="http://www.w3.org/2000/svg" xmlns:xlink="http://www.w3.org/1999/xlink">
	<desc>
			Created with Pixso.
	</desc>
	<defs/>
	<g opacity="0.500000">
		<ellipse id="椭圆形" rx="26.966511" ry="27.009018" transform="matrix(0.707107 0.707107 -0.707107 0.707107 97.166 38.1665)" fill="#737580" fill-opacity="1.000000"/>
		<ellipse id="椭圆形" rx="26.966511" ry="27.009018" transform="matrix(0.707107 0.707107 -0.707107 0.707107 97.166 38.1665)" stroke="#000000" stroke-opacity="0" stroke-width="1.000000"/>
	</g>
	<ellipse id="椭圆形备份-3" rx="26.966511" ry="27.009022" transform="matrix(0.707107 0.707107 -0.707107 0.707107 38.166 98.1665)" fill="#737580" fill-opacity="1.000000"/>
	<ellipse id="椭圆形备份-3" rx="26.966511" ry="27.009022" transform="matrix(0.707107 0.707107 -0.707107 0.707107 38.166 98.1665)" stroke="#000000" stroke-opacity="0" stroke-width="1.000000"/>
	<ellipse id="椭圆形备份-2" rx="26.966507" ry="27.009020" transform="matrix(0.707107 0.707107 -0.707107 0.707107 157.166 98.1665)" fill="#737580" fill-opacity="1.000000"/>
	<ellipse id="椭圆形备份-2" rx="26.966507" ry="27.009020" transform="matrix(0.707107 0.707107 -0.707107 0.707107 157.166 98.1665)" stroke="#000000" stroke-opacity="0" stroke-width="1.000000"/>
	<g opacity="0.500000">
		<ellipse id="椭圆形备份-4" rx="26.966515" ry="27.009022" transform="matrix(0.707107 0.707107 -0.707107 0.707107 97.166 157.167)" fill="#737580" fill-opacity="1.000000"/>
		<ellipse id="椭圆形备份-4" rx="26.966515" ry="27.009022" transform="matrix(0.707107 0.707107 -0.707107 0.707107 97.166 157.167)" stroke="#000000" stroke-opacity="0" stroke-width="1.000000"/>
	</g>
	<path id="Y" d="M100.72 33.84L99.36 33.84L96.66 38.51L93.77 33.84L92.29 33.84L95.96 39.73L95.96 44.11L97.2 44.11L97.2 39.77L100.72 33.84Z" fill="#FFFFFF" fill-opacity="1.000000" fill-rule="evenodd"/>
	<path id="A" d="M100.25 163.11L101.63 163.11L97.37 152.84L96.38 152.84L92.29 163.11L93.55 163.11L94.7 160.08L99.04 160.08L100.25 163.11ZM95.12 158.96L96.8 154.55L98.59 158.96L95.12 158.96Z" fill="#FFFFFF" fill-opacity="1.000000" fill-rule="evenodd"/>
	<path id="B" d="M160.37 102.76Q160.79 102.12 160.79 101.21Q160.79 100.29 160.35 99.68Q159.87 99.02 158.87 98.73Q159.52 98.42 159.85 97.91Q160.19 97.38 160.19 96.63Q160.19 95.99 159.93 95.47Q159.85 95.31 159.75 95.16Q159.7 95.08 159.63 95Q159.21 94.49 158.52 94.2Q157.72 93.86 156.64 93.86L153.41 93.86L153.41 104.11L157.08 104.11Q158.91 104.11 159.85 103.35Q160.16 103.09 160.37 102.76ZM154.66 98.32L154.66 94.96L156.42 94.96Q157.57 94.96 158.21 95.41Q158.55 95.65 158.71 95.97Q158.86 96.26 158.86 96.63Q158.86 97.05 158.68 97.37Q158.52 97.66 158.22 97.88Q157.58 98.32 156.42 98.32L154.66 98.32ZM158.81 102.54Q158.16 103.01 156.84 103.01L154.66 103.01L154.66 99.36L156.84 99.36Q158.16 99.36 158.81 99.85Q159.08 100.06 159.24 100.33Q159.46 100.71 159.46 101.21Q159.46 101.7 159.25 102.06Q159.09 102.33 158.81 102.54Z" fill="#FFFFFF" fill-opacity="1.000000" fill-rule="evenodd"/>
	<path id="X" d="M42.24 104.11L38.47 98.89L42.14 93.86L40.74 93.86L37.83 97.98L34.94 93.86L33.46 93.86L37.13 98.94L33.36 104.11L34.76 104.11L37.77 99.87L40.77 104.11L42.24 104.11Z" fill="#FFFFFF" fill-opacity="1.000000" fill-rule="evenodd"/>
</svg>
