<?xml version="1.0" standalone="no"?>
<svg xmlns="http://www.w3.org/2000/svg" width="48" height="48"><rect width="48" height="48" opacity="0"></rect><g><path d="M4.75 19.3Q4.75 19.92 5.18 20.35Q5.62 20.78 6.24 20.78Q6.86 20.78 7.32 20.35Q7.78 19.92 7.78 19.3L7.78 9.89L18.29 20.45Q18.72 20.88 19.34 20.88Q19.97 20.88 20.4 20.45Q20.88 20.02 20.88 19.39Q20.88 18.77 20.4 18.34L9.84 7.73L19.25 7.73Q19.87 7.73 20.3 7.3Q20.74 6.86 20.74 6.24Q20.74 5.62 20.3 5.18Q19.87 4.75 19.25 4.75L7.34 4.75Q6.29 4.75 5.52 5.5Q4.75 6.24 4.75 7.34L4.75 19.3ZM27.26 41.76Q27.26 42.38 27.7 42.82Q28.13 43.25 28.75 43.25L40.66 43.25Q41.76 43.25 42.5 42.48Q43.25 41.71 43.25 40.66L43.25 28.7Q43.25 28.08 42.82 27.65Q42.38 27.22 41.76 27.22Q41.14 27.22 40.68 27.65Q40.22 28.08 40.22 28.7L40.22 38.06L29.71 27.55Q29.28 27.12 28.66 27.12Q28.03 27.12 27.6 27.55Q27.12 27.98 27.12 28.61Q27.12 29.23 27.6 29.66L38.11 40.22L28.75 40.22Q28.13 40.22 27.7 40.68Q27.26 41.14 27.26 41.76Z" fill="rgba(255,255,255,1)"></path></g></svg>