<?xml version="1.0" standalone="no"?>
<svg xmlns="http://www.w3.org/2000/svg" width="48" height="48"><rect width="48" height="48" opacity="0"></rect><g><path d="M17.9 20.02L8.5 20.02Q7.87 20.02 7.42 20.45Q6.96 20.88 6.96 21.5Q6.96 22.13 7.42 22.56Q7.87 22.99 8.5 22.99L20.4 22.99Q21.46 22.99 22.22 22.22Q22.99 21.46 22.99 20.4L22.99 8.45Q22.99 7.82 22.54 7.39Q22.08 6.96 21.46 6.96Q20.83 6.96 20.4 7.39Q19.97 7.82 19.97 8.45L19.97 17.86L8.06 5.95Q7.63 5.52 7.01 5.52Q6.38 5.52 5.95 5.95Q5.52 6.38 5.52 7.01Q5.52 7.63 5.95 8.06ZM25.01 39.5Q25.01 40.13 25.44 40.56Q25.87 40.99 26.5 40.99Q27.12 40.99 27.55 40.56Q27.98 40.13 27.98 39.5L27.98 30.14L39.89 42.05Q40.32 42.48 40.94 42.48Q41.57 42.48 42 42.05Q42.48 41.62 42.48 40.99Q42.48 40.37 42 39.94L30.05 27.98L39.5 27.98Q40.13 27.98 40.56 27.55Q40.99 27.12 40.99 26.5Q40.99 25.87 40.56 25.42Q40.13 24.96 39.5 24.96L27.6 24.96Q26.54 24.96 25.78 25.73Q25.01 26.5 25.01 27.6L25.01 39.5Z" fill="rgba(255,255,255,1)"></path></g></svg>