<svg width="24.000000" height="12.000000" viewBox="0 0 24 12" fill="none" xmlns="http://www.w3.org/2000/svg" xmlns:xlink="http://www.w3.org/1999/xlink">
	<desc>
			Created with Pixso.
	</desc>
	<defs/>
	<path id="路径" d="M18.21 4.5L18.18 4.53L13.23 9.48C12.56 10.15 11.49 10.17 10.8 9.52L10.76 9.48L5.81 4.53C5.68 4.4 5.61 4.24 5.59 4.07L5.59 4.03L5.59 3.98C5.59 3.8 5.67 3.61 5.81 3.47C6.09 3.19 6.54 3.18 6.84 3.44L6.87 3.47L11.46 8.07C11.75 8.35 12.2 8.36 12.49 8.1L12.52 8.07L17.12 3.47C17.41 3.18 17.89 3.18 18.18 3.47C18.32 3.61 18.4 3.8 18.4 3.98L18.4 4.03C18.4 4.2 18.33 4.37 18.21 4.5Z" fill="#000000" fill-opacity="0.400000" fill-rule="evenodd"/>
</svg>
