<?xml version="1.0" encoding="UTF-8"?>
<svg width="15.4166667px" height="18.7488198px" viewBox="0 0 15.4166667 18.7488198" version="1.1" xmlns="http://www.w3.org/2000/svg" xmlns:xlink="http://www.w3.org/1999/xlink">
    <title>map</title>
    <defs>
        <path d="M7.70833333,-5.55111512e-16 C11.9628756,-5.55111512e-16 15.4166667,3.38850227 15.4166667,7.5744603 C15.4166667,9.20465793 14.9228749,10.7975576 14.0063572,12.4074681 C13.4357553,13.4097595 12.7501207,14.3534223 11.8423862,15.4309196 L11.6202108,15.6921871 L11.3891778,15.9591851 C11.310654,16.0492052 11.2305992,16.1402789 11.1489584,16.2325048 C10.9669154,16.4381506 10.7625018,16.6542409 10.535643,16.880918 L10.3612893,17.0529132 C10.2422463,17.168903 10.1175874,17.2875484 9.98730314,17.4088673 L9.78765664,17.592853 C9.75367868,17.6238522 9.71934884,17.655019 9.68466698,17.6863538 L9.47235047,17.8763799 C9.40016945,17.9403951 9.32657919,18.0050842 9.25157853,18.0704495 L9.02234417,18.2685761 C8.29510245,18.8920639 7.22581416,18.9114318 6.46614002,18.3092869 L6.40687811,18.2598905 L6.13113318,18.0194082 L5.96101586,17.8696489 L5.71991365,17.6552099 L5.49561442,17.4529109 L5.28802194,17.2626398 L5.09703996,17.0842839 L4.97889916,16.9719441 L4.86806953,16.8648168 L4.76452253,16.7628686 L4.66822966,16.6660663 L4.57916239,16.5743765 L4.53732945,16.5304384 L4.45904713,16.446355 L4.26578422,16.2307049 L4.05227726,15.9885797 C4.01712607,15.9483813 3.98219184,15.9082597 3.94747503,15.8682134 L3.74178698,15.6288259 L3.54133935,15.3911689 C3.50836935,15.3516994 3.47561862,15.3122988 3.44308764,15.2729656 L3.25054235,15.0377621 L3.06329309,14.8040996 C1.06352671,12.2808288 3.55271368e-15,10.0154889 3.55271368e-15,7.5744603 C3.55271368e-15,3.41915074 3.29825907,0.0675828169 7.48620713,0.000950776223 Z M7.70833333,5.71629695 C6.67279943,5.71629695 5.83333333,6.55576304 5.83333333,7.59129695 C5.83333333,8.62683085 6.67279943,9.46629695 7.70833333,9.46629695 C8.74386724,9.46629695 9.58333333,8.62683085 9.58333333,7.59129695 C9.58333333,6.55576304 8.74386724,5.71629695 7.70833333,5.71629695 Z" id="path-1"></path>
    </defs>
    <g id="0319" stroke="none" stroke-width="1" fill="none" fill-rule="evenodd">
        <g id="折叠屏低价日历" transform="translate(-624.291667, -226.742036)">
            <g id="编组-3" transform="translate(612.000000, 226.000000)">
                <g id="map" transform="translate(12.291667, 0.742036)">
                    <mask id="mask-2" fill="white">
                        <use xlink:href="#path-1"></use>
                    </mask>
                    <g id="蒙版" fill-rule="nonzero"></g>
                    <g id="Symbol/color-light/colorPrimary" mask="url(#mask-2)" fill="#000000" fill-opacity="0.6">
                        <g transform="translate(-2.291667, -0.742036)" id="color/#000000">
                            <rect x="0" y="0" width="20" height="20"></rect>
                        </g>
                    </g>
                </g>
            </g>
        </g>
    </g>
</svg>