<?xml version="1.0" encoding="UTF-8"?>
<svg width="15px" height="15px" viewBox="0 0 15 15" version="1.1" xmlns="http://www.w3.org/2000/svg" xmlns:xlink="http://www.w3.org/1999/xlink">
    <title>more</title>
    <defs>
        <path d="M1.75,3.5 C2.71649831,3.5 3.5,2.71649831 3.5,1.75 C3.5,0.783501688 2.71649831,0 1.75,0 C0.783501688,0 0,0.783501688 0,1.75 C0,2.71649831 0.783501688,3.5 1.75,3.5 Z M1.75,15 C2.71649831,15 3.5,14.2164983 3.5,13.25 C3.5,12.2835017 2.71649831,11.5 1.75,11.5 C0.783501688,11.5 0,12.2835017 0,13.25 C0,14.2164983 0.783501688,15 1.75,15 Z M13.25,15 C14.2164983,15 15,14.2164983 15,13.25 C15,12.2835017 14.2164983,11.5 13.25,11.5 C12.2835017,11.5 11.5,12.2835017 11.5,13.25 C11.5,14.2164983 12.2835017,15 13.25,15 Z M13.25,3.5 C14.2164983,3.5 15,2.71649831 15,1.75 C15,0.783501688 14.2164983,0 13.25,0 C12.2835017,0 11.5,0.783501688 11.5,1.75 C11.5,2.71649831 12.2835017,3.5 13.25,3.5 Z" id="path-1"></path>
    </defs>
    <g id="控件" stroke="none" stroke-width="1" fill="none" fill-rule="evenodd">
        <g id="AppBar/Item/action-area/ic_3" transform="translate(-164.500000, -20.500000)">
            <g id="more" transform="translate(164.500000, 20.500000)">
                <mask id="mask-2" fill="white">
                    <use xlink:href="#path-1"></use>
                </mask>
                <g id="形状结合"></g>
                <g id="Symbol/color-light/colorPrimary" mask="url(#mask-2)" fill="#ffffff" fill-opacity="0.901960784">
                    <g transform="translate(-4.500000, -4.500000)" id="color/#000000">
                        <rect x="0" y="0" width="24" height="24"></rect>
                    </g>
                </g>
            </g>
        </g>
    </g>
</svg>