<?xml version="1.0" encoding="UTF-8"?>
<svg width="12.5406645px" height="13.0909091px" viewBox="0 0 12.5406645 13.0909091" version="1.1" xmlns="http://www.w3.org/2000/svg" xmlns:xlink="http://www.w3.org/1999/xlink">
    <title>one</title>
    <g id="0319" stroke="none" stroke-width="1" fill="none" fill-rule="evenodd">
        <g id="手机酒店详情页" transform="translate(-325.181786, -500.454545)">
            <g id="编组" transform="translate(0.000000, 484.000000)">
                <g id="编组-3备份" transform="translate(318.000000, 15.000000)">
                    <g id="one" transform="translate(5.000000, 0.000000)">
                        <rect id="矩形" x="0" y="0" width="16" height="16"></rect>
                        <path d="M10.4058304,11.7890909 C10.1367402,11.7890909 9.90183168,12.0305455 9.90183168,12.3061818 L9.90183168,13.512 L3.18912129,13.512 L3.18912129,2.48727273 L9.90183168,2.48727273 L9.90183168,3.34836364 C9.90183168,3.62472727 10.1367402,3.86472727 10.4058304,3.86472727 C10.6741934,3.86472727 10.9091348,3.62472727 10.9091348,3.34836364 L10.9091348,2.14327273 C10.9127486,1.76818856 10.6128841,1.46052616 10.2378308,1.45454545 L2.85312213,1.45454545 C2.47806887,1.46052616 2.17820436,1.76818856 2.18181818,2.14327273 L2.18181818,13.8567273 C2.18181818,14.2349091 2.48366852,14.5454545 2.85312213,14.5454545 L10.2378308,14.5454545 C10.6128841,14.5394738 10.9127486,14.2318114 10.9091348,13.8567273 L10.9091348,12.3054545 C10.9091348,12.0298182 10.6741934,11.7890909 10.4058304,11.7890909 L10.4058304,11.7890909 Z" id="路径" fill-opacity="0.6" fill="#000000" fill-rule="nonzero"></path>
                        <path d="M4.36366379,6.97309091 L4.36366379,8 C4.36366379,8.27418182 4.60220864,8.51345455 4.87493523,8.51345455 C5.14766182,8.51345455 5.38620667,8.27345455 5.38620667,8 L5.38620667,6.97309091 C5.38009202,6.69293292 5.15506393,6.46694398 4.87493523,6.45963636 C4.59480653,6.46694398 4.36977844,6.69293292 4.36366379,6.97309091 L4.36366379,6.97309091 Z M8.79492538,5.09090909 C8.41826545,5.09290817 8.1138671,5.39860675 8.11347254,5.77527273 L8.11347254,10.2247273 C8.11347254,10.6014545 8.42038086,10.9090909 8.79565265,10.9090909 L14.0409975,10.9090909 C14.4176575,10.9070918 14.7220558,10.6013932 14.7224504,10.2247273 L14.7224504,5.77454545 C14.721654,5.39788102 14.4169312,5.09250768 14.0402703,5.09090909 L8.79492538,5.09090909 Z M13.6991802,9.88218182 L9.1367427,9.88218182 L9.1367427,6.11781818 L13.6991802,6.11781818 L13.6991802,9.88218182 Z" id="形状" fill-opacity="0.6" fill="#000000" fill-rule="nonzero"></path>
                        <rect id="矩形" fill-opacity="0.6" fill="#000000" fill-rule="nonzero" x="9.94826362" y="6.90909091" width="2.90909091" height="1.09090909" rx="0.545454545"></rect>
                    </g>
                </g>
            </g>
        </g>
    </g>
</svg>