<?xml version="1.0" encoding="UTF-8"?>
<svg width="24px" height="24px" viewBox="0 0 24 24" version="1.1" xmlns="http://www.w3.org/2000/svg"
     xmlns:xlink="http://www.w3.org/1999/xlink">
    <title>shop</title>
    <g id="shop" stroke="none" stroke-width="1" fill="none" fill-rule="evenodd">
        <path d="M3.0106811,3.32603561 L4.46793108,3.32603561 C4.91205997,3.32603561 5.30297283,3.61896012 5.42769216,4.04521775 L9.00457663,16.2700614 C9.25401528,17.1225767 10.035841,17.7084257 10.9240988,17.7084257 L20.0982513,17.7084257 L20.0982513,17.7084257"
              id="路径-5" stroke="#000000" stroke-width="1.5" stroke-linecap="round"></path>
        <path d="M10,21.3185481 C10.5522847,21.3185481 11,20.8708328 11,20.3185481 C11,19.7662633 10.5522847,19.3185481 10,19.3185481 C9.44771525,19.3185481 9,19.7662633 9,20.3185481 C9,20.8708328 9.44771525,21.3185481 10,21.3185481 Z"
              id="椭圆形" fill="#000000"></path>
        <path d="M19,21.3185481 C19.5522847,21.3185481 20,20.8708328 20,20.3185481 C20,19.7662633 19.5522847,19.3185481 19,19.3185481 C18.4477153,19.3185481 18,19.7662633 18,20.3185481 C18,20.8708328 18.4477153,21.3185481 19,21.3185481 Z"
              id="椭圆形备份" fill="#000000"></path>
        <path d="M20.1216856,6.32603561 L9.68182567,6.32603561 C9.12954092,6.32603561 8.68182567,6.77375086 8.68182567,7.32603561 C8.68182567,7.33760263 8.68202637,7.34916879 8.68242767,7.36072884 L8.79629077,10.6407505 C8.83003454,11.6127976 9.55819422,12.4196365 10.521697,12.5525904 L21.4249841,14.0571372 L21.4249841,14.0571372"
              id="路径-5备份" stroke="#000000" stroke-width="1.5" stroke-linecap="round"
              transform="translate(15.035747, 10.191586) scale(-1, 1) translate(-15.035747, -10.191586) "></path>
    </g>
</svg>