<svg width="24.000000" height="24.000000" viewBox="0 0 24 24" fill="none" xmlns="http://www.w3.org/2000/svg" xmlns:xlink="http://www.w3.org/1999/xlink">
	<desc>
			Created with Pixso.
	</desc>
	<defs>
		<clipPath id="clip15_1646">
			<rect id="dot_video" width="24.000000" height="24.000000" fill="white" fill-opacity="0"/>
		</clipPath>
	</defs>
	<g clip-path="url(#clip15_1646)">
		<g opacity="0.000000">
			<rect id="rect" width="24.000000" height="24.000000" fill="#000000" fill-opacity="1.000000"/>
		</g>
		<path id="path" d="M22.13 7.25C21.87 7.09 21.59 7 21.3 7C21 6.98 20.72 7.05 20.45 7.19L17.95 8.51L17.95 7.54C17.95 7.04 17.82 6.58 17.58 6.17C17.33 5.77 17 5.45 16.6 5.22C16.18 4.98 15.74 4.87 15.26 4.87L3.66 4.87C3.19 4.87 2.74 4.98 2.34 5.22C1.93 5.45 1.6 5.77 1.37 6.17C1.13 6.58 1.01 7.04 1.01 7.54L1.01 16.45C1.01 16.95 1.13 17.41 1.37 17.82C1.6 18.22 1.93 18.54 2.34 18.78C2.74 19.01 3.19 19.12 3.66 19.12L15.26 19.12C15.74 19.12 16.18 19.01 16.6 18.78C17 18.54 17.33 18.22 17.58 17.82C17.82 17.41 17.95 16.95 17.95 16.45L17.95 15.22L20.42 16.62C20.68 16.79 20.96 16.87 21.26 16.87C21.56 16.87 21.85 16.8 22.13 16.68C22.4 16.52 22.61 16.31 22.76 16.06C22.91 15.8 22.99 15.52 22.99 15.22L22.99 8.63C22.99 8.33 22.91 8.05 22.76 7.81C22.61 7.56 22.4 7.37 22.13 7.25ZM16.42 16.45C16.42 16.78 16.31 17.04 16.1 17.27C15.89 17.48 15.64 17.59 15.34 17.59L3.62 17.59C3.32 17.59 3.06 17.48 2.84 17.27C2.62 17.04 2.52 16.78 2.52 16.45L2.52 7.54C2.52 7.22 2.62 6.94 2.84 6.72C3.06 6.51 3.32 6.41 3.62 6.41L15.34 6.41C15.64 6.41 15.89 6.51 16.1 6.72C16.31 6.94 16.42 7.22 16.42 7.54L16.42 16.45ZM21.48 15.19C21.48 15.25 21.46 15.3 21.43 15.32C21.39 15.34 21.34 15.35 21.26 15.34L17.95 13.42L17.95 10.32L21.29 8.54C21.32 8.51 21.36 8.51 21.41 8.53C21.45 8.55 21.48 8.6 21.48 8.66L21.48 15.19ZM9.23 9.73C8.84 9.73 8.46 9.84 8.12 10.04C7.78 10.24 7.51 10.51 7.31 10.86C7.1 11.2 7.01 11.58 7.01 12C7.01 12.41 7.1 12.79 7.31 13.14C7.51 13.48 7.78 13.76 8.12 13.96C8.46 14.16 8.84 14.26 9.23 14.26C9.65 14.26 10.03 14.16 10.38 13.96C10.72 13.76 11 13.48 11.2 13.14C11.4 12.79 11.5 12.41 11.5 12C11.5 11.58 11.4 11.2 11.2 10.86C11 10.51 10.72 10.24 10.38 10.04C10.03 9.84 9.65 9.73 9.23 9.73Z" fill="#E84026" fill-opacity="1.000000" fill-rule="nonzero"/>
	</g>
</svg>
