<svg xmlns="http://www.w3.org/2000/svg" width="24" height="24">
    <rect width="24" height="24" opacity="0"></rect>
    <g>
        <path d="M12 1.01Q9 1.01 6.48 2.48Q3.96 3.96 2.48 6.48Q1.01 9 1.01 12Q1.01 15 2.48 17.52Q3.96 20.04 6.48 21.52Q9 22.99 12 22.99Q14.98 22.99 17.51 21.52Q20.04 20.04 21.52 17.51Q22.99 14.98 22.99 12Q22.99 9.02 21.52 6.49Q20.04 3.96 17.51 2.48Q14.98 1.01 12 1.01Z"
              fill="rgba(0,0,0,0.05)"></path>
    </g>
    <g>
        <path d="M9.5,7.5 C10.0522847,7.5 10.5,7.94771525 10.5,8.5 L10.5,15.5 C10.5,16.0522847 10.0522847,16.5 9.5,16.5 C8.94771525,16.5 8.5,16.0522847 8.5,15.5 L8.5,8.5 C8.5,7.94771525 8.94771525,7.5 9.5,7.5 Z M14.5,7.5 C15.0522847,7.5 15.5,7.94771525 15.5,8.5 L15.5,15.5 C15.5,16.0522847 15.0522847,16.5 14.5,16.5 C13.9477153,16.5 13.5,16.0522847 13.5,15.5 L13.5,8.5 C13.5,7.94771525 13.9477153,7.5 14.5,7.5 Z"
              fill="rgba(0,0,0,0.9019607843137255)"></path>
    </g>
</svg>