<?xml version="1.0" encoding="UTF-8"?>
<svg width="72px" height="72px" viewBox="0 0 72 72" version="1.1" xmlns="http://www.w3.org/2000/svg" xmlns:xlink="http://www.w3.org/1999/xlink">
    <title>pic01</title>
    <g id="pic01" stroke="none" stroke-width="1" fill="none" fill-rule="evenodd">
        <g id="位图备份-5">
            <circle id="椭圆形" fill="#007DFF" cx="36" cy="36" r="36"></circle>
            <g id="编组" transform="translate(16.000000, 16.000000)" fill="#FFFFFF">
                <g id="编组-2" fill-opacity="0.4" opacity="0.598798776">
                    <path d="M20,0 C31.045695,0 40,8.954305 40,20 C40,31.045695 31.045695,40 20,40 C8.954305,40 0,31.045695 0,20 C0,8.954305 8.954305,0 20,0 Z M20.0701814,1.67251512 C9.9094309,1.67251512 1.67251512,9.9094309 1.67251512,20.0701814 C1.67251512,30.230932 9.9094309,38.4678478 20.0701814,38.4678478 C30.230932,38.4678478 38.4678478,30.230932 38.4678478,20.0701814 C38.4678478,9.9094309 30.230932,1.67251512 20.0701814,1.67251512 Z M20.0701814,3.34503024 C29.3072274,3.34503024 36.7953326,10.8331355 36.7953326,20.0701814 C36.7953326,29.3072274 29.3072274,36.7953326 20.0701814,36.7953326 C10.8331355,36.7953326 3.34503024,29.3072274 3.34503024,20.0701814 C3.34503024,10.8331355 10.8331355,3.34503024 20.0701814,3.34503024 Z M26.9279867,15.0138806 C26.7062831,13.6822781 25.3846082,12.7726952 23.9759432,12.9822703 L15.9961217,14.1694737 L15.8342753,14.1985256 C14.6618652,14.4455479 13.8155416,15.4313001 13.8155416,16.5805533 L13.8155416,23.9062755 C13.8155416,24.793824 13.6616079,25.1864731 13.3460853,25.4594854 C12.8204111,25.9143354 12.0604485,26.2022972 11.4627298,26.5279415 C10.0076497,27.3206864 9.41181267,28.9174161 10.1318906,30.094337 C10.8519685,31.271258 12.6152824,31.5826942 14.0703625,30.7899493 C14.8699326,30.354334 15.2712517,29.678213 15.476147,28.9601232 C15.6718656,28.2741949 15.6870319,27.8585791 15.6926978,27.0290484 L15.6933671,27.0126953 L15.6934498,26.9095637 C15.6947518,26.6896935 15.6949146,26.4663865 15.6933934,26.2454438 L15.6932761,19.0502375 L25.0812761,17.4842375 L25.0813808,22.0231226 C25.0813808,22.9106712 24.9274471,23.3033203 24.6119245,23.5763326 C24.0862504,24.0311826 23.3262877,24.3191444 22.728569,24.6447887 C21.2734889,25.4375336 20.6776519,27.0342632 21.3977298,28.2111842 C22.1178077,29.3881051 23.8811216,29.6995413 25.3362017,28.9067965 C26.1357718,28.4711812 26.5370909,27.7950602 26.7419862,27.0769703 C26.9468816,26.3588805 26.9538964,25.9370461 26.959289,25.0264109 L26.9603199,25.0156295 L26.9593831,15.3931253 L26.9558793,15.2662384 C26.9512182,15.1817475 26.9419112,15.0975141 26.9279867,15.0138806 Z M20.2424001,6.51965288 C14.0217454,6.51965288 8.97890835,11.5624899 8.97890835,17.7831446 L8.97890835,25.200566 L8.98030741,25.2489916 C9.00537456,25.6816215 9.36415249,26.024724 9.80306628,26.024724 C10.2582361,26.024724 10.6272242,25.6557359 10.6272242,25.200566 L10.6272242,24.9284037 L11.418736,24.9284037 C11.6650572,24.9284037 11.8647401,24.7287209 11.8647401,24.4823997 L11.8647401,19.1835511 C11.8647401,18.9372299 11.6650572,18.7375471 11.418736,18.7375471 L10.6285124,18.7375471 L10.6272242,17.7831446 L10.6285124,17.6241401 C10.713422,12.3871629 14.9851882,8.16796874 20.2424001,8.16796874 C25.5527151,8.16796874 29.857576,12.4728296 29.857576,17.7831446 L29.858975,18.7401218 L29.0660642,18.7401218 L28.9857953,18.7472249 C28.7777448,18.7850359 28.6200219,18.9671737 28.620161,19.1861258 L28.6213584,24.4823997 C28.6215149,24.7286815 28.8211814,24.9283029 29.0674632,24.9284037 L29.858975,24.9284037 L29.857576,25.1130329 L29.858975,25.1614585 C29.8840422,25.5940884 30.2428201,25.9371908 30.6817339,25.9371908 C31.1369038,25.9371908 31.5058919,25.5682028 31.5058919,25.1130329 L31.5058919,17.7831446 L31.5043829,17.5968822 C31.4049173,11.4621374 26.4008483,6.51965288 20.2424001,6.51965288 Z" id="形状结合"></path>
                </g>
                <path d="M20.0701814,1.67251512 C30.230932,1.67251512 38.4678478,9.9094309 38.4678478,20.0701814 C38.4678478,30.230932 30.230932,38.4678478 20.0701814,38.4678478 C9.9094309,38.4678478 1.67251512,30.230932 1.67251512,20.0701814 C1.67251512,9.9094309 9.9094309,1.67251512 20.0701814,1.67251512 Z M20.0701814,3.34503024 C10.8331355,3.34503024 3.34503024,10.8331355 3.34503024,20.0701814 C3.34503024,29.3072274 10.8331355,36.7953326 20.0701814,36.7953326 C29.3072274,36.7953326 36.7953326,29.3072274 36.7953326,20.0701814 C36.7953326,10.8331355 29.3072274,3.34503024 20.0701814,3.34503024 Z" id="形状结合" fill-opacity="0.604563893" fill-rule="nonzero"></path>
                <path d="M26.9279867,15.0138806 C26.9419112,15.0975141 26.9512182,15.1817475 26.9558793,15.2662384 L26.9593831,15.3931253 L26.9603199,25.0156295 L26.959289,25.0264109 C26.9538964,25.9370461 26.9468816,26.3588805 26.7419862,27.0769703 C26.5370909,27.7950602 26.1357718,28.4711812 25.3362017,28.9067965 C23.8811216,29.6995413 22.1178077,29.3881051 21.3977298,28.2111842 C20.6776519,27.0342632 21.2734889,25.4375336 22.728569,24.6447887 C23.3262877,24.3191444 24.0862504,24.0311826 24.6119245,23.5763326 C24.9274471,23.3033203 25.0813808,22.9106712 25.0813808,22.0231226 L25.0812761,17.4842375 L15.6932761,19.0502375 L15.6933934,26.2454438 C15.6949146,26.4663865 15.6947518,26.6896935 15.6934498,26.9095637 L15.6933671,27.0126953 L15.6926978,27.0290484 C15.6870319,27.8585791 15.6718656,28.2741949 15.476147,28.9601232 C15.2712517,29.678213 14.8699326,30.354334 14.0703625,30.7899493 C12.6152824,31.5826942 10.8519685,31.271258 10.1318906,30.094337 C9.41181267,28.9174161 10.0076497,27.3206864 11.4627298,26.5279415 C12.0604485,26.2022972 12.8204111,25.9143354 13.3460853,25.4594854 C13.6616079,25.1864731 13.8155416,24.793824 13.8155416,23.9062755 L13.8155416,16.5805533 C13.8155416,15.4313001 14.6618652,14.4455479 15.8342753,14.1985256 L15.9961217,14.1694737 L23.9759432,12.9822703 C25.3846082,12.7726952 26.7062831,13.6822781 26.9279867,15.0138806 Z M20.2424001,6.51965288 C26.4008483,6.51965288 31.4049173,11.4621374 31.5043829,17.5968822 L31.5058919,17.7831446 L31.5058919,25.1130329 C31.5058919,25.5682028 31.1369038,25.9371908 30.6817339,25.9371908 C30.2428201,25.9371908 29.8840422,25.5940884 29.858975,25.1614585 L29.857576,25.1130329 L29.858975,24.9284037 L29.0674632,24.9284037 C28.8211814,24.9283029 28.6215149,24.7286815 28.6213584,24.4823997 L28.620161,19.1861258 C28.6200219,18.9671737 28.7777448,18.7850359 28.9857953,18.7472249 L29.0660642,18.7401218 L29.858975,18.7401218 L29.857576,17.7831446 C29.857576,12.4728296 25.5527151,8.16796874 20.2424001,8.16796874 C14.9851882,8.16796874 10.713422,12.3871629 10.6285124,17.6241401 L10.6272242,17.7831446 L10.6285124,18.7375471 L11.418736,18.7375471 C11.6650572,18.7375471 11.8647401,18.9372299 11.8647401,19.1835511 L11.8647401,24.4823997 C11.8647401,24.7287209 11.6650572,24.9284037 11.418736,24.9284037 L10.6272242,24.9284037 L10.6272242,25.200566 C10.6272242,25.6557359 10.2582361,26.024724 9.80306628,26.024724 C9.36415249,26.024724 9.00537456,25.6816215 8.98030741,25.2489916 L8.97890835,25.200566 L8.97890835,17.7831446 C8.97890835,11.5624899 14.0217454,6.51965288 20.2424001,6.51965288 Z" id="形状结合" fill-opacity="0.873099801"></path>
            </g>
        </g>
    </g>
</svg>