<?xml version="1.0" encoding="UTF-8"?>
<svg width="24px" height="24px" viewBox="0 0 24 24" version="1.1" xmlns="http://www.w3.org/2000/svg" xmlns:xlink="http://www.w3.org/1999/xlink">
    <title>cheap</title>
    <g id="cheap" stroke="none" stroke-width="1" fill="none" fill-rule="evenodd">
        <g id="活动" transform="translate(2.000000, 2.000000)" fill="#000000" fill-rule="nonzero">
            <path d="M19.1950331,0.807204228 C19.1944617,0.806632384 19.1939131,0.806060562 19.1933416,0.805511585 C18.6734604,0.286055419 17.9824188,0 17.24749,0 L11.8181095,0.00114366582 C10.8653672,0.00105217702 9.75303076,0.139299323 8.72536014,1.16560837 C8.62007642,1.27105501 8.32200874,1.569119 7.97408786,1.91697849 L7.97340213,1.91629229 L6.43092473,3.4598159 C6.42715316,3.46356714 6.42521023,3.46553428 6.42521023,3.46553428 L6.42493593,3.46580877 C6.15262916,3.73830024 6.15262916,4.17987228 6.42493593,4.45234087 C6.69717413,4.72476372 7.13826401,4.72480945 7.41057077,4.45254673 L7.41059362,4.4525696 C7.41059362,4.4525696 7.41079935,4.45236373 7.41079935,4.45236373 C7.4109365,4.45222649 7.41269655,4.45048811 7.41630812,4.44685123 C7.53331796,4.32987638 9.41018431,2.45354399 9.71088065,2.15248359 C10.3415087,1.52270874 10.9847085,1.3962643 11.8181551,1.3962643 L17.2475585,1.3951435 C17.6104513,1.39521212 17.9515148,1.53645571 18.2082325,1.79286713 C18.2085525,1.79318735 18.2088039,1.79341608 18.2090325,1.79366771 C18.4652016,2.05003339 18.606098,2.39059626 18.605778,2.75268305 L18.6159726,2.75261443 C18.609321,2.81274874 18.6057094,2.87784658 18.605778,2.94825109 L18.6044065,8.04743038 C18.6036065,8.81737375 18.5115804,9.62158156 17.8497512,10.2848202 C17.6827282,10.4511789 15.5427897,12.5890235 15.5427897,12.5890235 L15.5449612,12.5911965 L15.5445269,12.5916311 C15.2722201,12.8641225 15.2722201,13.3056946 15.5445269,13.578186 C15.8168337,13.8506775 16.2581064,13.8506775 16.5303903,13.578186 L18.0788336,12.0286696 L18.0780107,12.027869 C18.4577041,11.6486271 18.7741496,11.3326303 18.8347918,11.2721987 C19.8645653,10.2401484 19.9976672,9.00736066 19.9984672,8.04811658 L20,2.7538496 C20.0007073,2.01855952 19.7148458,1.32736946 19.1950331,0.807204228 Z" id="路径"></path>
            <path d="M16.5384135,3.45791742 C15.7230247,2.64197553 14.3961663,2.64197553 13.5807775,3.45791742 C12.7653887,4.2738593 12.7653887,5.60161761 13.5807775,6.4175595 C14.3961663,7.23350138 15.7230247,7.23350138 16.5384135,6.4175595 C17.3538023,5.60161761 17.3538023,4.2738593 16.5384135,3.45791742 Z M15.5525272,5.43100451 C15.2807005,5.70301562 14.8384677,5.70301562 14.5666409,5.43100451 C14.2948142,5.15899339 14.2948142,4.71646066 14.5666409,4.44447241 C14.8384677,4.17246129 15.2807004,4.17246129 15.5525272,4.44447241 C15.8243539,4.71646066 15.8243539,5.15901625 15.5525272,5.43100451 Z" id="形状"></path>
            <path d="M9.79732946,7.66896621 L10.2782379,7.18773159 C10.5504532,6.91530874 10.5504532,6.47359946 10.2782379,6.2011766 C10.0059997,5.92877662 9.5645898,5.92877662 9.2923516,6.2011766 L8.81144318,6.68241122 C8.53920498,6.95483407 8.53920498,7.39654336 8.81144318,7.66896621 C9.08365852,7.94138906 9.52509127,7.94138906 9.79732946,7.66896621 Z" id="路径"></path>
            <path d="M13.3160139,11.1900601 L13.7969223,10.7088255 C14.0691605,10.4364255 14.0691605,9.99469334 13.7969223,9.72229337 C13.5247069,9.44987052 13.0832742,9.44987052 12.8110589,9.72229337 L12.3301505,10.203528 C12.0579123,10.4759508 12.0579123,10.9176601 12.3301505,11.190083 C12.6023658,11.4624601 13.0437985,11.4624601 13.3160139,11.1900601 Z" id="路径"></path>
            <path d="M7.6837919,9.41190059 C7.5758795,9.87394438 7.57939965,10.8421777 8.27670428,11.5399325 C8.97046594,12.2341647 9.94037452,12.2472483 10.4041166,12.1455987 C10.7802442,12.0630712 11.0182869,11.6911031 10.935884,11.3148119 C10.8532296,10.938109 10.4816279,10.7003166 10.1056604,10.7826839 C10.1006087,10.7838962 9.58753918,10.8785465 9.26259054,10.5533775 C8.9467851,10.2373579 9.03666257,9.7546822 9.0431542,9.7218588 C9.12603713,9.34909011 8.89343462,8.97824277 8.52123862,8.89130079 C8.14623111,8.8036268 7.77133786,9.03670731 7.6837919,9.41190059 Z" id="路径"></path>
            <path d="M13.7475263,14.3899192 L13.7471605,14.3895532 C13.7471605,14.3895532 9.96700404,18.1679506 9.92816838,18.2068126 C9.67151931,18.4634756 9.33029582,18.6048793 8.96724299,18.604948 C8.60451017,18.6048565 8.26360668,18.4636358 8.00686618,18.2067211 C8.00679761,18.2066296 8.00661475,18.2064695 8.0064776,18.2063094 L1.79210934,11.9937189 C1.53543742,11.7474862 1.39408384,11.3961499 1.39424384,11.033903 C1.39440385,10.6719763 1.53568885,10.3316422 1.79268078,10.0749563 C1.83030497,10.0373066 5.61528447,6.25312223 5.61528447,6.25312223 L5.61329582,6.25113224 L5.61350155,6.25092637 C5.88580832,5.9784349 5.88580832,5.53686285 5.61350155,5.26439427 C5.34119477,4.99190279 4.89992203,4.99190279 4.62763813,5.26439427 L3.07917196,6.81391073 L3.08049773,6.81523739 C2.03001488,7.86549494 0.828166668,9.06710615 0.807297371,9.08796674 C0.286913259,9.60758301 0.000251697379,10.2985901 0,11.0334456 C-0.000319736764,11.7683697 0.285793219,12.4594682 0.805605897,12.9796563 C0.805994478,12.9800452 0.806405932,12.9804569 0.806817364,12.9808686 L7.02061416,19.1929101 C7.02093417,19.1932303 7.02116275,19.1934591 7.02148277,19.1937793 C7.54106685,19.7137158 8.23208557,20 8.96724299,20 C9.70256041,20 10.3938991,19.7137158 10.9139632,19.1934591 C10.9357926,19.1716149 12.1348521,17.9731374 13.1834149,16.9250299 L13.1846264,16.9262422 L14.7330925,15.3767258 C15.0053993,15.1042343 15.0053993,14.6626623 14.7330925,14.3901708 C14.4608772,14.1177708 14.019833,14.1177251 13.7475263,14.3899192 Z" id="路径"></path>
        </g>
    </g>
</svg>