<?xml version="1.0" encoding="UTF-8"?>
<svg width="15.2536614px" height="15.0906485px" viewBox="0 0 15.2536614 15.0906485" version="1.1" xmlns="http://www.w3.org/2000/svg" xmlns:xlink="http://www.w3.org/1999/xlink">
    <title>star_filled</title>
    <defs>
        <path d="M8.94343196,1.18108236 L10.4698379,5.52897275 L10.4698379,5.52897275 L14.6319769,5.52897275 C15.1842616,5.52897275 15.6319769,5.976688 15.6319769,6.52897275 C15.6319769,6.83472312 15.4921019,7.12367285 15.2522838,7.31333192 L11.8152598,10.0314869 L11.8152598,10.0314869 L13.0883592,14.2625062 C13.247492,14.7913684 12.9477671,15.3490985 12.418905,15.5082313 C12.1185852,15.5985965 11.793267,15.5428362 11.5401832,15.3576162 L8.01535123,12.7779592 L8.01535123,12.7779592 L4.6713047,15.3906668 C4.23610167,15.7306915 3.60765546,15.6535341 3.2676308,15.2183311 C3.07198957,14.9679268 3.00700556,14.6394436 3.09256613,14.333409 L4.29153471,10.0449151 L4.29153471,10.0449151 L0.76676307,7.32013954 C0.329813717,6.98236194 0.249419128,6.35432165 0.587196729,5.9173723 C0.776566926,5.67240287 1.06873295,5.52897275 1.37836352,5.52897275 L5.53194963,5.52897275 L5.53194963,5.52897275 L7.05620828,1.18147098 C7.23893695,0.660290904 7.80956774,0.385921831 8.33074782,0.568650508 C8.61738955,0.669148714 8.84281571,0.894482049 8.94343196,1.18108236 Z" id="path-1"></path>
    </defs>
    <g id="0319" stroke="none" stroke-width="1" fill="none" fill-rule="evenodd">
        <g id="手机酒店详情页" transform="translate(-163.835307, -244.200498)">
            <g id="star" transform="translate(163.456991, 243.688440)">
                <mask id="mask-2" fill="white">
                    <use xlink:href="#path-1"></use>
                </mask>
                <g id="Stroke-161-Copy-2" fill-rule="nonzero"></g>
                <g id="color/light/#000000" mask="url(#mask-2)" fill="#F7CE00">
                    <g transform="translate(-1.105583, -1.187112)" id="color/#000000">
                        <rect x="0" y="0" width="18.2110346" height="19.1075146"></rect>
                    </g>
                </g>
            </g>
        </g>
    </g>
</svg>