<?xml version="1.0" standalone="no"?>
<svg xmlns="http://www.w3.org/2000/svg" width="24" height="24"><rect width="24" height="24" opacity="0"></rect><g><path d="M2.76 9.53Q3.07 9.53 3.29 9.31Q3.5 9.1 3.5 8.78L3.5 5.76Q3.5 4.82 4.16 4.16Q4.82 3.5 5.76 3.5L8.71 3.5Q9.02 3.5 9.25 3.29Q9.48 3.07 9.48 2.76Q9.48 2.42 9.26 2.21Q9.05 1.99 8.71 1.99L5.76 1.99Q4.75 1.99 3.89 2.51Q3.02 3.02 2.51 3.89Q1.99 4.75 1.99 5.76L1.99 8.78Q1.99 9.1 2.22 9.31Q2.45 9.53 2.76 9.53ZM8.69 22.01Q9 22.01 9.23 21.78Q9.46 21.55 9.46 21.24Q9.46 20.93 9.23 20.71Q9 20.5 8.69 20.5L5.76 20.5Q4.82 20.5 4.16 19.84Q3.5 19.18 3.5 18.24L3.5 15.22Q3.5 14.9 3.29 14.69Q3.07 14.47 2.76 14.47Q2.45 14.47 2.22 14.69Q1.99 14.9 1.99 15.24L1.99 18.24Q1.99 19.25 2.51 20.11Q3.02 20.98 3.89 21.49Q4.75 22.01 5.76 22.01L8.69 22.01ZM18.24 22.01Q19.25 22.01 20.11 21.49Q20.98 20.98 21.49 20.11Q22.01 19.25 22.01 18.24L22.01 15.24Q22.01 14.93 21.78 14.7Q21.55 14.47 21.24 14.47Q20.93 14.47 20.71 14.7Q20.5 14.93 20.5 15.24L20.5 18.24Q20.5 19.18 19.84 19.84Q19.18 20.5 18.24 20.5L15.24 20.5Q14.93 20.5 14.7 20.71Q14.47 20.93 14.47 21.24Q14.47 21.55 14.7 21.78Q14.93 22.01 15.24 22.01L18.24 22.01ZM21.24 9.53Q21.55 9.53 21.78 9.31Q22.01 9.1 22.01 8.78L22.01 5.76Q22.01 4.75 21.49 3.89Q20.98 3.02 20.11 2.51Q19.25 1.99 18.24 1.99L15.31 1.99Q15 1.99 14.77 2.21Q14.54 2.42 14.54 2.76Q14.54 3.07 14.77 3.29Q15 3.5 15.31 3.5L18.24 3.5Q19.18 3.5 19.84 4.16Q20.5 4.82 20.5 5.76L20.5 8.78Q20.5 9.1 20.71 9.31Q20.93 9.53 21.24 9.53Z" fill="rgba(255,255,255,1)"></path><path d="M12.74 6.24Q12.65 5.98 12.47 5.82Q12.29 5.66 12.02 5.66Q11.78 5.66 11.62 5.82Q11.45 5.98 11.38 6.17L7.3 16.51Q7.18 16.8 7.31 17.09Q7.44 17.38 7.73 17.47Q7.99 17.57 8.22 17.5Q8.45 17.42 8.59 17.21L8.69 17.06L9.74 14.33L14.23 14.33L15.29 17.06Q15.34 17.14 15.36 17.21Q15.5 17.42 15.73 17.5Q15.96 17.57 16.27 17.5Q16.56 17.4 16.69 17.1Q16.82 16.8 16.7 16.51L12.74 6.24ZM12.02 8.57L13.68 12.82L10.37 12.82Z" fill="rgba(255,255,255,1)"></path></g></svg>