<?xml version="1.0" standalone="no"?>
<svg xmlns="http://www.w3.org/2000/svg" width="24" height="24"><rect width="24" height="24" opacity="0"></rect><g mask="url(#hms_mask_0)"><path d="M16.32 20.54Q16.68 20.54 17.11 20.35Q17.59 20.14 17.87 19.69Q18.14 19.25 18.14 18.7L18.14 3.89Q18.14 3.34 17.87 2.89Q17.59 2.45 17.11 2.23Q16.63 1.99 16.1 2.05Q15.58 2.11 15.14 2.45L10.3 6.36L6.58 6.36Q5.9 6.36 5.35 6.68Q4.8 7.01 4.48 7.56Q4.15 8.11 4.15 8.78L4.15 13.8Q4.15 14.47 4.48 15.02Q4.8 15.58 5.35 15.9Q5.9 16.22 6.58 16.22L10.3 16.22L15.14 20.14Q15.67 20.54 16.32 20.54ZM10.82 7.87L16.08 3.6Q16.2 3.53 16.3 3.53Q16.39 3.53 16.44 3.58Q16.54 3.6 16.6 3.68Q16.66 3.77 16.66 3.89L16.66 18.7Q16.66 18.89 16.44 19.03Q16.27 19.08 16.08 18.96L10.82 14.71L6.58 14.71Q6.19 14.71 5.92 14.45Q5.64 14.18 5.64 13.8L5.64 8.78Q5.64 8.4 5.92 8.14Q6.19 7.87 6.58 7.87Z" fill="rgba(255,255,255,1)"></path></g><defs><mask id="hms_mask_0"><rect width="24" height="24" fill="#ffffff"></rect><g><path d="M4.7 1.8Q4.46 1.51 4.08 1.37Q3.7 1.22 3.29 1.22Q2.45 1.22 1.8 1.82Q1.22 2.4 1.22 3.29Q1.22 3.7 1.37 4.07Q1.51 4.44 1.8 4.7L19.25 22.13Q19.54 22.42 19.92 22.58Q20.3 22.75 20.69 22.75Q21.12 22.75 21.5 22.58Q21.89 22.42 22.13 22.13Q22.42 21.89 22.58 21.5Q22.75 21.12 22.75 20.69Q22.78 20.3 22.61 19.92Q22.44 19.54 22.13 19.25L4.7 1.8Z" fill="#000000"></path></g></mask></defs><g><path d="M21.22 21.22Q21.43 21 21.43 20.69Q21.43 20.38 21.22 20.16L3.79 2.74Q3.58 2.52 3.26 2.51Q2.95 2.5 2.74 2.74Q2.52 2.95 2.52 3.26Q2.52 3.58 2.74 3.79L20.16 21.22Q20.38 21.43 20.69 21.43Q21 21.43 21.22 21.22Z" fill="rgba(255,255,255,1)"></path></g></svg>