<?xml version="1.0" standalone="no"?>
<svg xmlns="http://www.w3.org/2000/svg" width="24" height="24"><rect width="24" height="24" opacity="0"></rect><g><path d="M4.99 4.01Q4.58 4.01 4.3 4.3Q4.01 4.58 4.01 4.99L4.01 14.57Q4.01 15 4.3 15.29Q4.58 15.58 4.99 15.59Q5.4 15.6 5.69 15.29L15.31 5.69Q15.6 5.38 15.59 4.98Q15.58 4.58 15.3 4.3Q15.02 4.01 14.59 4.01L4.99 4.01ZM19.01 19.99Q19.42 19.99 19.7 19.69Q19.99 19.39 19.99 19.01L19.99 9.41Q19.99 8.98 19.69 8.7Q19.39 8.42 19 8.4Q18.6 8.38 18.29 8.69L8.69 18.29Q8.4 18.6 8.41 19Q8.42 19.39 8.7 19.69Q8.98 19.99 9.41 19.99L19.01 19.99Z" fill="rgba(255,255,255,1)"></path></g></svg>