<?xml version="1.0" standalone="no"?>
<svg xmlns="http://www.w3.org/2000/svg" width="48" height="48"><rect width="48" height="48" opacity="0"></rect><g><path d="M24 45.98Q29.95 45.98 35.02 43.03Q40.08 40.08 43.03 35.02Q45.98 29.95 45.98 24Q45.98 18.05 43.03 12.98Q40.08 7.92 35.02 4.97Q29.95 2.02 24 2.02Q18.05 2.02 12.98 4.97Q7.92 7.92 4.97 12.98Q2.02 18.05 2.02 24Q2.02 29.95 4.97 35.02Q7.92 40.08 12.98 43.03Q18.05 45.98 24 45.98Z" fill="rgba(49,122,247,1)"></path></g><g><path d="M35.33 21.79Q35.95 22.42 36.05 23.04Q36.14 23.66 35.62 24.19Q35.09 24.72 34.49 24.67Q33.89 24.62 33.22 24L33.17 23.95L25.39 16.18L25.39 33.98Q25.39 34.9 24.98 35.4Q24.58 35.9 23.86 35.9Q23.14 35.9 22.73 35.4Q22.32 34.9 22.32 33.98L22.32 16.22L14.64 23.95Q14.02 24.58 13.39 24.65Q12.77 24.72 12.24 24.19Q11.71 23.66 11.76 23.04Q11.81 22.42 12.48 21.74L22.03 12.14Q22.75 11.38 23.81 11.35Q24.86 11.33 25.68 12.1L35.33 21.79Z" fill="rgba(255,255,255,1)"></path></g></svg>