<?xml version="1.0" encoding="UTF-8"?>
<svg width="56px"
     height="56px"
     viewBox="0 0 56 56"
     version="1.1"
     xmlns="http://www.w3.org/2000/svg"
     xmlns:xlink="http://www.w3.org/1999/xlink">
    <title>ic_public_hangup</title>
    <defs>
        <path
            d="M41.2585675,23.7627544 C42.7436202,24.6927705 43.641149,26.3248418 43.6339905,28.0808052 C43.6941927,29.1200301 43.5475411,29.9000913 43.1940356,30.4209886 C42.6637775,31.2023346 41.7334857,31.615033 40.797963,31.513717 L37.4155396,31.1578412 L37.4155396,31.1578412 L37.2017896,31.1387377 C36.0580219,31.0706661 35.1616842,30.1461873 35.1210186,29.0095189 L35.1195775,28.9298803 L35.173815,27.0679203 C35.1749164,26.3074984 34.6523673,25.6489433 33.9120435,25.4779724 C32.4718384,25.1419154 30.2398919,24.9789382 28.0000613,24.9984712 C25.7601081,24.9789382 23.5281616,25.1419154 22.0879565,25.4779724 C21.3476327,25.6489433 20.8250836,26.3074984 20.826185,27.0679203 L20.8804225,28.9298803 L20.8789814,29.0095189 C20.8394149,30.1154665 19.9898037,31.0205392 18.8903941,31.1313544 L18.4658251,31.1695345 L18.4658251,31.1695345 L15.202037,31.513717 L15.202037,31.513717 C14.2665143,31.615033 13.3362225,31.2023346 12.8059644,30.4209886 C12.4524589,29.9000913 12.3058073,29.1200301 12.3660095,28.0808052 C12.358851,26.3248418 13.2563798,24.6927705 14.7414325,23.7627544 C17.9103301,21.7886671 22.9665441,20.7632071 27.9999387,20.7376 C33.0334559,20.7632071 38.0896699,21.7886671 41.2585675,23.7627544 Z"
            id="path-1"></path>
    </defs>
    <g
        id="ic_public_ring-off"
        stroke="none"
        stroke-width="1"
        fill="none"
        fill-rule="evenodd">
        <circle
            id="backplane/round"
            fill="#E84026"
            cx="28"
            cy="28"
            r="28"></circle>
        <mask
            id="mask-2"
            fill="white">
            <use xlink:href="#path-1"></use>
        </mask>
        <use
            id="路径"
            fill="#FFFFFF"
            xlink:href="#path-1"></use>
    </g>
</svg>