<?xml version="1.0" encoding="UTF-8"?>
<svg width="40px" height="40px" viewBox="0 0 40 40" version="1.1" xmlns="http://www.w3.org/2000/svg" xmlns:xlink="http://www.w3.org/1999/xlink">
    <title>light非激活态-静音</title>
    <g id="light非激活态-静音" stroke="none" stroke-width="1" fill="none" fill-rule="evenodd">
        <g id="light非激活态" fill="#000000" fill-rule="nonzero">
            <circle id="椭圆形" fill-opacity="0.05" cx="20" cy="20" r="20"></circle>
            <path d="M20,-1.44328993e-15 C8.954305,-1.44328993e-15 -1.44328993e-15,8.954305 -1.44328993e-15,20 C-1.44328993e-15,31.045695 8.954305,40 20,40 C31.045695,40 40,31.045695 40,20 C40,8.954305 31.045695,-1.44328993e-15 20,-1.44328993e-15 Z M20,0.8 C30.6038672,0.8 39.2,9.3961328 39.2,20 C39.2,30.6038672 30.6038672,39.2 20,39.2 C9.3961328,39.2 0.8,30.6038672 0.8,20 C0.8,9.3961328 9.3961328,0.8 20,0.8 Z" id="椭圆形" fill-opacity="0.08"></path>
        </g>
        <g id="静音" transform="translate(8.000000, 8.000000)">
            <rect id="矩形" x="0" y="0" width="24" height="24"></rect>
            <g id="形状结合" transform="translate(2.000000, 2.000000)" fill="#000000" fill-opacity="0.897974828" fill-rule="nonzero">
                <path d="M1.66726352,0.255142542 L1.70710678,0.292893222 L2.749,1.334 L18.91425,17.5000492 L18.915,17.5 L19.7071068,18.2928932 C20.0976311,18.6834175 20.0976311,19.3165825 19.7071068,19.7071068 C19.3296,20.0846136 18.7253589,20.0971972 18.3327365,19.7448575 L18.2928932,19.7071068 L14.2899298,15.7053761 C13.3240246,16.3485531 12.2055498,16.7807191 11.0003445,16.9360348 L11,19 C11,19.5522847 10.5522847,20 10,20 C9.4644512,20 9.0272303,19.5790079 9.0012238,19.0499101 L9,19 L9.0006622,16.9361644 C5.19249276,16.4459097 2.25,13.1915829 2.25,9.25 C2.25,8.6977153 2.69771525,8.25 3.25,8.25 C3.80228475,8.25 4.25,8.6977153 4.25,9.25 C4.25,12.4256373 6.82436269,15 10,15 C11.0315987,15 11.9997473,14.7283376 12.8368084,14.2526501 L11.5305277,12.9467365 C11.0590646,13.1421505 10.5421271,13.25 10,13.25 C7.790861,13.25 6,11.459139 6,9.25 L6,7.415 L0.292893217,1.70710678 C-0.0976310725,1.31658249 -0.0976310725,0.683417512 0.292893217,0.292893222 C0.670400028,-0.0846135981 1.27464109,-0.0971971581 1.66726352,0.255142542 Z M16.75,8.25 C17.3022847,8.25 17.75,8.6977153 17.75,9.25 C17.75,10.6754885 17.3651411,12.0110883 16.6936609,13.1585621 L15.2135063,11.6785053 C15.5451495,10.9677483 15.7357262,10.1779399 15.7492297,9.3450868 L15.75,9.25 C15.75,8.6977153 16.1977153,8.25 16.75,8.25 Z M10,1.87871585e-09 C12.209139,1.87871585e-09 14,1.790861 14,4 L14,9.25 C14,9.6205419 13.9496163,9.9793161 13.8553259,10.3198453 L6.22064449,2.68653469 C6.7641107,1.12257529 8.2509596,1.87871585e-09 10,1.87871585e-09 Z" id="path-1"></path>
            </g>
        </g>
    </g>
</svg>