<?xml version="1.0" encoding="UTF-8"?>
<!DOCTYPE svg PUBLIC "-//W3C//DTD SVG 1.1//EN" "http://www.w3.org/Graphics/SVG/1.1/DTD/svg11.dtd">
<svg xmlns="http://www.w3.org/2000/svg" version="1.1" width="433px" height="371px" style="shape-rendering:geometricPrecision; text-rendering:geometricPrecision; image-rendering:optimizeQuality; fill-rule:evenodd; clip-rule:evenodd" xmlns:xlink="http://www.w3.org/1999/xlink">
<g><path style="opacity:1" fill="#fefefe" d="M -0.5,-0.5 C 143.833,-0.5 288.167,-0.5 432.5,-0.5C 432.5,123.167 432.5,246.833 432.5,370.5C 288.167,370.5 143.833,370.5 -0.5,370.5C -0.5,246.833 -0.5,123.167 -0.5,-0.5 Z"/></g>
<g><path style="opacity:1" fill="#f4fef3" d="M 284.5,38.5 C 281.253,37.7485 277.919,37.2485 274.5,37C 209.159,36.14 143.826,36.4733 78.5,38C 76.9419,38.21 75.6085,38.71 74.5,39.5C 71.2186,39.4203 68.2186,40.087 65.5,41.5C 65.1667,41.5 64.8333,41.5 64.5,41.5C 61.1389,43.5113 57.8056,45.5113 54.5,47.5C 54.3367,45.1432 54.5034,42.8098 55,40.5C 55.3333,40.8333 55.6667,41.1667 56,41.5C 58.6212,40.0085 61.4545,39.3418 64.5,39.5C 64.3601,37.8762 65.0267,36.7096 66.5,36C 82.4885,35.067 98.4885,34.4004 114.5,34C 115.872,33.5983 117.205,33.0983 118.5,32.5C 125.192,35.0382 131.858,35.0382 138.5,32.5C 145.192,35.0382 151.858,35.0382 158.5,32.5C 165.192,35.0382 171.858,35.0382 178.5,32.5C 185.192,35.0382 191.858,35.0382 198.5,32.5C 205.192,35.0382 211.858,35.0382 218.5,32.5C 225.192,35.0382 231.858,35.0382 238.5,32.5C 245.192,35.0382 251.858,35.0382 258.5,32.5C 266.195,34.5868 274.028,35.9202 282,36.5C 283.376,36.6842 284.209,37.3509 284.5,38.5 Z"/></g>
<g><path style="opacity:1" fill="#e3f7e1" d="M 284.5,38.5 C 286.292,39.3091 288.292,39.8091 290.5,40C 292.92,42.6552 295.92,44.4885 299.5,45.5C 301.555,48.6805 303.221,52.0139 304.5,55.5C 304.167,55.5 303.833,55.5 303.5,55.5C 299.209,48.1758 292.875,43.5092 284.5,41.5C 282.031,40.6829 279.365,40.1829 276.5,40C 209.167,39.5 141.834,39.3333 74.5,39.5C 75.6085,38.71 76.9419,38.21 78.5,38C 143.826,36.4733 209.159,36.14 274.5,37C 277.919,37.2485 281.253,37.7485 284.5,38.5 Z"/></g>
<g><path style="opacity:1" fill="#62a563" d="M 74.5,39.5 C 141.834,39.3333 209.167,39.5 276.5,40C 279.365,40.1829 282.031,40.6829 284.5,41.5C 211.5,41.5 138.5,41.5 65.5,41.5C 68.2186,40.087 71.2186,39.4203 74.5,39.5 Z"/></g>
<g><path style="opacity:1" fill="#4caf51" d="M 64.5,41.5 C 64.8333,41.5 65.1667,41.5 65.5,41.5C 138.5,41.5 211.5,41.5 284.5,41.5C 287.025,44.8522 290.358,47.1855 294.5,48.5C 296.93,50.6439 298.93,53.1439 300.5,56C 301.577,56.4696 302.577,56.3029 303.5,55.5C 303.552,60.4815 304.719,65.1481 307,69.5C 307.17,80.0081 307.67,90.3415 308.5,100.5C 308.833,100.5 309.167,100.5 309.5,100.5C 309.5,130.167 309.5,159.833 309.5,189.5C 309.5,189.833 309.5,190.167 309.5,190.5C 309.167,190.5 308.833,190.5 308.5,190.5C 307.669,201.993 307.169,213.659 307,225.5C 306.02,227.059 305.187,228.726 304.5,230.5C 302.954,231.684 301.287,232.684 299.5,233.5C 298.764,235.541 297.931,237.541 297,239.5C 291.361,244.849 284.527,247.349 276.5,247C 275.244,247.417 274.577,248.25 274.5,249.5C 207.833,249.667 141.166,249.5 74.5,249C 67.5239,247.346 60.8572,244.846 54.5,241.5C 54.5,241.167 54.5,240.833 54.5,240.5C 51.5299,237.499 49.8633,233.832 49.5,229.5C 48.1667,229.5 46.8333,229.5 45.5,229.5C 44.1711,173.499 44.1711,117.499 45.5,61.5C 47.1439,61.7135 48.6439,61.3802 50,60.5C 52.5203,57.7917 54.3536,54.6251 55.5,51C 58.1497,48.4039 61.3164,46.9039 65,46.5C 65.6397,44.735 65.4731,43.0683 64.5,41.5 Z"/></g>
<g><path style="opacity:1" fill="#74b373" d="M 284.5,41.5 C 292.875,43.5092 299.209,48.1758 303.5,55.5C 302.577,56.3029 301.577,56.4696 300.5,56C 298.93,53.1439 296.93,50.6439 294.5,48.5C 290.358,47.1855 287.025,44.8522 284.5,41.5 Z"/></g>
<g><path style="opacity:1" fill="#66a866" d="M 64.5,41.5 C 65.4731,43.0683 65.6397,44.735 65,46.5C 61.3164,46.9039 58.1497,48.4039 55.5,51C 54.3536,54.6251 52.5203,57.7917 50,60.5C 48.6439,61.3802 47.1439,61.7135 45.5,61.5C 45.5,60.8333 45.5,60.1667 45.5,59.5C 48.0638,56.7198 50.3971,53.7198 52.5,50.5C 53.1667,49.5 53.8333,48.5 54.5,47.5C 57.8056,45.5113 61.1389,43.5113 64.5,41.5 Z"/></g>
<g><path style="opacity:1" fill="#bde9c5" d="M 52.5,50.5 C 50.3971,53.7198 48.0638,56.7198 45.5,59.5C 46.1628,55.163 48.4962,52.163 52.5,50.5 Z"/></g>
<g><path style="opacity:1" fill="#f1fdf1" d="M 394.5,49.5 C 394.5,49.8333 394.5,50.1667 394.5,50.5C 388.308,53.0441 382.641,56.3774 377.5,60.5C 376.508,60.3284 375.842,60.6618 375.5,61.5C 373.716,61.8925 372.05,62.5592 370.5,63.5C 368.243,63.9617 366.243,64.9617 364.5,66.5C 363.707,66.0688 362.873,65.7355 362,65.5C 359.707,68.1416 356.874,69.8083 353.5,70.5C 353.655,67.3908 354.322,64.3908 355.5,61.5C 357.655,63.0058 359.988,64.0058 362.5,64.5C 366.619,63.3491 370.619,62.0158 374.5,60.5C 373.839,56.6669 375.172,55.1669 378.5,56C 377.5,53.9093 378.167,52.2426 380.5,51C 382.235,50.3486 383.902,50.5153 385.5,51.5C 388.333,50.0668 391.333,49.4001 394.5,49.5 Z"/></g>
<g><path style="opacity:1" fill="#508d53" d="M 375.5,61.5 C 373.167,65.8333 369.833,69.1667 365.5,71.5C 362.144,73.5036 358.477,75.0036 354.5,76C 351.898,79.096 348.565,80.596 344.5,80.5C 352.855,74.4754 361.521,68.8087 370.5,63.5C 372.05,62.5592 373.716,61.8925 375.5,61.5 Z"/></g>
<g><path style="opacity:1" fill="#b0dbaa" d="M 308.5,70.5 C 308.843,80.3764 309.843,90.0431 311.5,99.5C 311.5,99.8333 311.5,100.167 311.5,100.5C 310.833,100.5 310.167,100.5 309.5,100.5C 309.167,100.5 308.833,100.5 308.5,100.5C 308.5,90.5 308.5,80.5 308.5,70.5 Z"/></g>
<g><path style="opacity:1" fill="#d8f4db" d="M 370.5,63.5 C 361.521,68.8087 352.855,74.4754 344.5,80.5C 339.861,83.1548 335.194,85.8215 330.5,88.5C 331.171,87.1529 331.171,85.9862 330.5,85C 335.407,84.2049 339.74,82.3716 343.5,79.5C 343.33,78.1779 343.663,77.0113 344.5,76C 347.264,75.4677 349.93,74.6343 352.5,73.5C 353.386,72.675 353.719,71.675 353.5,70.5C 356.874,69.8083 359.707,68.1416 362,65.5C 362.873,65.7355 363.707,66.0688 364.5,66.5C 366.243,64.9617 368.243,63.9617 370.5,63.5 Z"/></g>
<g><path style="opacity:1" fill="#7ab677" d="M 303.5,55.5 C 303.833,55.5 304.167,55.5 304.5,55.5C 304.461,58.089 305.461,60.089 307.5,61.5C 308.159,64.4552 308.492,67.4552 308.5,70.5C 308.5,80.5 308.5,90.5 308.5,100.5C 307.67,90.3415 307.17,80.0081 307,69.5C 304.719,65.1481 303.552,60.4815 303.5,55.5 Z"/></g>
<g><path style="opacity:1" fill="#388e3d" d="M 382.5,229.5 C 380.167,229.5 377.833,229.5 375.5,229.5C 375.67,228.178 375.337,227.011 374.5,226C 371.382,224.186 368.049,223.019 364.5,222.5C 364.586,221.504 364.252,220.671 363.5,220C 360.122,216.958 356.455,214.291 352.5,212C 349.382,210.273 346.049,209.439 342.5,209.5C 339.352,208.424 336.352,207.091 333.5,205.5C 333.5,205.167 333.5,204.833 333.5,204.5C 332.468,200.472 329.801,198.638 325.5,199C 324.971,196.571 323.637,194.738 321.5,193.5C 317.888,191.028 313.888,189.695 309.5,189.5C 309.5,159.833 309.5,130.167 309.5,100.5C 310.167,100.5 310.833,100.5 311.5,100.5C 312.873,100.657 314.207,100.49 315.5,100C 317.863,97.8199 320.53,96.1532 323.5,95C 324.305,93.8873 324.972,92.7206 325.5,91.5C 326.167,90.8333 326.833,90.1667 327.5,89.5C 328.609,89.4431 329.609,89.1098 330.5,88.5C 335.194,85.8215 339.861,83.1548 344.5,80.5C 348.565,80.596 351.898,79.096 354.5,76C 358.477,75.0036 362.144,73.5036 365.5,71.5C 366.428,75.458 365.094,78.1246 361.5,79.5C 362,80.8805 363,81.5472 364.5,81.5C 367.475,80.8607 370.475,80.3607 373.5,80C 375.353,75.7598 374.353,72.4265 370.5,70C 371.716,68.2602 373.382,67.2602 375.5,67C 378.167,66.6667 380.833,66.3333 383.5,66C 384.376,64.414 385.376,62.914 386.5,61.5C 387.5,117.496 387.833,173.496 387.5,229.5C 385.833,229.5 384.167,229.5 382.5,229.5 Z"/></g>
<g><path style="opacity:1" fill="#3a8b3d" d="M 382.5,229.5 C 384.167,229.5 385.833,229.5 387.5,229.5C 387.833,173.496 387.5,117.496 386.5,61.5C 385.376,62.914 384.376,64.414 383.5,66C 380.833,66.3333 378.167,66.6667 375.5,67C 373.382,67.2602 371.716,68.2602 370.5,70C 374.353,72.4265 375.353,75.7598 373.5,80C 370.475,80.3607 367.475,80.8607 364.5,81.5C 363,81.5472 362,80.8805 361.5,79.5C 365.094,78.1246 366.428,75.458 365.5,71.5C 369.833,69.1667 373.167,65.8333 375.5,61.5C 375.842,60.6618 376.508,60.3284 377.5,60.5C 380.518,60.6646 383.518,60.498 386.5,60C 388.818,58.0073 391.484,56.8406 394.5,56.5C 395.481,116.148 395.814,175.815 395.5,235.5C 392.476,233.69 389.142,232.523 385.5,232C 384.429,231.148 383.429,230.315 382.5,229.5 Z"/></g>
<g><path style="opacity:1" fill="#87b080" d="M 394.5,50.5 C 394.5,50.1667 394.5,49.8333 394.5,49.5C 396.099,49.2322 397.432,49.5655 398.5,50.5C 398.5,113.833 398.5,177.167 398.5,240.5C 395.393,240.649 392.393,240.149 389.5,239C 385.92,236.723 382.586,234.223 379.5,231.5C 385.271,231.942 389.938,234.442 393.5,239C 394.448,239.483 395.448,239.649 396.5,239.5C 397.163,176.158 396.496,113.158 394.5,50.5 Z"/></g>
<g><path style="opacity:1" fill="#e5f8dd" d="M 45.5,59.5 C 45.5,60.1667 45.5,60.8333 45.5,61.5C 44.2395,64.2578 43.4061,67.2578 43,70.5C 42.3333,120.5 42.3333,170.5 43,220.5C 43.6489,224.25 44.4822,227.917 45.5,231.5C 46.1168,234.355 47.1168,237.022 48.5,239.5C 46.2921,238.977 44.7921,237.644 44,235.5C 43.6667,232.833 43.3333,230.167 43,227.5C 41.1726,225.698 40.0059,223.532 39.5,221C 40.3309,170.571 40.8309,120.071 41,69.5C 41.6667,66.8333 42.3333,64.1667 43,61.5C 43.7083,60.6195 44.5416,59.9528 45.5,59.5 Z"/></g>
<g><path style="opacity:1" fill="#ddf8de" d="M 307.5,61.5 C 308.927,63.1484 309.76,65.1484 310,67.5C 310.5,76.8274 310.666,86.1607 310.5,95.5C 314.281,96.2114 317.281,95.0447 319.5,92C 322.096,90.8644 324.763,90.031 327.5,89.5C 326.833,90.1667 326.167,90.8333 325.5,91.5C 320.861,94.1548 316.194,96.8215 311.5,99.5C 309.843,90.0431 308.843,80.3764 308.5,70.5C 308.492,67.4552 308.159,64.4552 307.5,61.5 Z"/></g>
<g><path style="opacity:1" fill="#649669" d="M 325.5,91.5 C 324.972,92.7206 324.305,93.8873 323.5,95C 320.53,96.1532 317.863,97.8199 315.5,100C 314.207,100.49 312.873,100.657 311.5,100.5C 311.5,100.167 311.5,99.8333 311.5,99.5C 316.194,96.8215 320.861,94.1548 325.5,91.5 Z"/></g>
<g><path style="opacity:1" fill="#67b26a" d="M 45.5,61.5 C 44.1711,117.499 44.1711,173.499 45.5,229.5C 46.8333,229.5 48.1667,229.5 49.5,229.5C 49.8633,233.832 51.5299,237.499 54.5,240.5C 53.448,240.649 52.448,240.483 51.5,240C 50.1037,236.695 48.1037,233.862 45.5,231.5C 44.4822,227.917 43.6489,224.25 43,220.5C 42.3333,170.5 42.3333,120.5 43,70.5C 43.4061,67.2578 44.2395,64.2578 45.5,61.5 Z"/></g>
<g><path style="opacity:1" fill="#f6feee" d="M 398.5,50.5 C 400.34,65.6353 401.34,81.1353 401.5,97C 400.219,139.665 400.219,182.331 401.5,225C 401.333,230.833 401.167,236.667 401,242.5C 400.292,241.619 399.458,240.953 398.5,240.5C 398.5,177.167 398.5,113.833 398.5,50.5 Z"/></g>
<g><path style="opacity:1" fill="#498647" d="M 394.5,50.5 C 396.496,113.158 397.163,176.158 396.5,239.5C 395.448,239.649 394.448,239.483 393.5,239C 389.938,234.442 385.271,231.942 379.5,231.5C 377.847,231.34 376.514,230.674 375.5,229.5C 377.833,229.5 380.167,229.5 382.5,229.5C 383.429,230.315 384.429,231.148 385.5,232C 389.142,232.523 392.476,233.69 395.5,235.5C 395.814,175.815 395.481,116.148 394.5,56.5C 391.484,56.8406 388.818,58.0073 386.5,60C 383.518,60.498 380.518,60.6646 377.5,60.5C 382.641,56.3774 388.308,53.0441 394.5,50.5 Z"/></g>
<g><path style="opacity:1" fill="#59975f" d="M 309.5,190.5 C 309.5,190.167 309.5,189.833 309.5,189.5C 313.888,189.695 317.888,191.028 321.5,193.5C 323.637,194.738 324.971,196.571 325.5,199C 329.801,198.638 332.468,200.472 333.5,204.5C 329.484,201.728 325.151,199.395 320.5,197.5C 317.709,195.265 314.709,193.265 311.5,191.5C 311.158,190.662 310.492,190.328 309.5,190.5 Z"/></g>
<g><path style="opacity:1" fill="#a9dbaa" d="M 308.5,190.5 C 308.833,190.5 309.167,190.5 309.5,190.5C 310.492,190.328 311.158,190.662 311.5,191.5C 309.843,200.957 308.843,210.624 308.5,220.5C 308.5,210.5 308.5,200.5 308.5,190.5 Z"/></g>
<g><path style="opacity:1" fill="#e7fde7" d="M 311.5,191.5 C 314.709,193.265 317.709,195.265 320.5,197.5C 317.545,196.841 314.545,196.508 311.5,196.5C 311.785,207.54 311.285,218.54 310,229.5C 308.887,230.305 307.721,230.972 306.5,231.5C 307.91,228.05 308.576,224.384 308.5,220.5C 308.843,210.624 309.843,200.957 311.5,191.5 Z"/></g>
<g><path style="opacity:1" fill="#548a58" d="M 342.5,209.5 C 346.049,209.439 349.382,210.273 352.5,212C 356.455,214.291 360.122,216.958 363.5,220C 364.252,220.671 364.586,221.504 364.5,222.5C 364.167,222.5 363.833,222.5 363.5,222.5C 362.609,221.89 361.609,221.557 360.5,221.5C 354.534,217.512 348.534,213.512 342.5,209.5 Z"/></g>
<g><path style="opacity:1" fill="#eafae8" d="M 333.5,205.5 C 336.352,207.091 339.352,208.424 342.5,209.5C 348.534,213.512 354.534,217.512 360.5,221.5C 357.183,221.219 354.017,221.219 351,221.5C 350.506,219.866 350.34,218.199 350.5,216.5C 347.537,216.047 345.204,214.547 343.5,212C 338.948,211.6 335.615,209.433 333.5,205.5 Z"/></g>
<g><path style="opacity:1" fill="#639962" d="M 364.5,222.5 C 368.049,223.019 371.382,224.186 374.5,226C 375.337,227.011 375.67,228.178 375.5,229.5C 371.561,227.554 367.894,225.221 364.5,222.5 Z"/></g>
<g><path style="opacity:1" fill="#ecf9ec" d="M 363.5,222.5 C 363.833,222.5 364.167,222.5 364.5,222.5C 367.894,225.221 371.561,227.554 375.5,229.5C 376.514,230.674 377.847,231.34 379.5,231.5C 382.586,234.223 385.92,236.723 389.5,239C 392.393,240.149 395.393,240.649 398.5,240.5C 398.5,241.5 398.5,242.5 398.5,243.5C 396.202,242.69 393.868,241.856 391.5,241C 387.129,240.828 382.796,240.328 378.5,239.5C 378.931,238.707 379.265,237.873 379.5,237C 377.132,235.619 375.465,233.619 374.5,231C 371.203,229.255 367.703,228.088 364,227.5C 363.535,226.069 362.701,224.903 361.5,224C 362.416,223.722 363.082,223.222 363.5,222.5 Z"/></g>
<g><path style="opacity:1" fill="#64aa68" d="M 308.5,190.5 C 308.5,200.5 308.5,210.5 308.5,220.5C 308.576,224.384 307.91,228.05 306.5,231.5C 305.833,231.5 305.5,231.833 305.5,232.5C 299.975,240.029 292.975,245.696 284.5,249.5C 281.167,249.5 277.833,249.5 274.5,249.5C 274.577,248.25 275.244,247.417 276.5,247C 284.527,247.349 291.361,244.849 297,239.5C 297.931,237.541 298.764,235.541 299.5,233.5C 301.287,232.684 302.954,231.684 304.5,230.5C 305.187,228.726 306.02,227.059 307,225.5C 307.169,213.659 307.669,201.993 308.5,190.5 Z"/></g>
<g><path style="opacity:1" fill="#fdfef7" d="M 291.5,249.5 C 291.953,250.458 292.619,251.292 293.5,252C 291.235,255.602 287.902,257.436 283.5,257.5C 214.493,256.17 145.493,256.17 76.5,257.5C 73.9456,257.02 71.6123,256.02 69.5,254.5C 68.4461,254.68 67.4461,255.013 66.5,255.5C 64.6245,253.074 62.2912,251.407 59.5,250.5C 63.0781,250.549 66.4115,251.215 69.5,252.5C 70.9516,253.302 72.6183,253.802 74.5,254C 73.3044,254.654 73.3044,255.154 74.5,255.5C 141.481,254.17 208.481,254.17 275.5,255.5C 279.138,254.818 282.805,254.318 286.5,254C 288.687,252.975 290.354,251.475 291.5,249.5 Z"/></g>
<g><path style="opacity:1" fill="#c8e8ca" d="M 45.5,231.5 C 48.1037,233.862 50.1037,236.695 51.5,240C 52.448,240.483 53.448,240.649 54.5,240.5C 54.5,240.833 54.5,241.167 54.5,241.5C 59.4677,248.104 66.1344,251.104 74.5,250.5C 141.665,251.665 208.999,251.832 276.5,251C 279.365,250.817 282.031,250.317 284.5,249.5C 292.975,245.696 299.975,240.029 305.5,232.5C 305.628,234.655 305.128,236.655 304,238.5C 301.587,240.409 299.753,242.743 298.5,245.5C 296.64,246.26 294.973,247.26 293.5,248.5C 290.451,249.306 287.451,250.306 284.5,251.5C 215.571,252.496 146.571,252.83 77.5,252.5C 74.8333,252.5 72.1667,252.5 69.5,252.5C 66.4115,251.215 63.0781,250.549 59.5,250.5C 59.0334,247.703 57.3667,246.369 54.5,246.5C 54.5792,245.07 54.2458,243.736 53.5,242.5C 51.4565,241.935 49.7898,240.935 48.5,239.5C 47.1168,237.022 46.1168,234.355 45.5,231.5 Z"/></g>
<g><path style="opacity:1" fill="#6ea371" d="M 274.5,249.5 C 277.833,249.5 281.167,249.5 284.5,249.5C 282.031,250.317 279.365,250.817 276.5,251C 208.999,251.832 141.665,251.665 74.5,250.5C 141.335,250.832 208.002,250.499 274.5,249.5 Z"/></g>
<g><path style="opacity:1" fill="#5ea760" d="M 54.5,241.5 C 60.8572,244.846 67.5239,247.346 74.5,249C 141.166,249.5 207.833,249.667 274.5,249.5C 208.002,250.499 141.335,250.832 74.5,250.5C 66.1344,251.104 59.4677,248.104 54.5,241.5 Z"/></g>
<g><path style="opacity:1" fill="#47b252" d="M 61.5,239.5 C 64.4647,240.645 67.4647,241.811 70.5,243C 141.499,243.5 212.499,243.667 283.5,243.5C 283.33,242.178 283.663,241.011 284.5,240C 286.473,239.505 288.473,239.338 290.5,239.5C 290.863,241.911 289.863,243.411 287.5,244C 282.277,244.02 277.277,245.02 272.5,247C 207.167,247.667 141.833,247.667 76.5,247C 72.3388,245.263 68.0055,244.263 63.5,244C 62.6721,243.085 61.6721,242.419 60.5,242C 61.2524,241.329 61.5858,240.496 61.5,239.5 Z"/></g>
<g><path style="opacity:1" fill="#eaffe8" d="M 284.5,251.5 C 250.34,252.833 215.84,253.5 181,253.5C 146.332,253.5 111.832,253.167 77.5,252.5C 146.571,252.83 215.571,252.496 284.5,251.5 Z"/></g>
<g><path style="opacity:1" fill="#f5feed" d="M 293.5,248.5 C 293.158,249.338 292.492,249.672 291.5,249.5C 290.354,251.475 288.687,252.975 286.5,254C 282.805,254.318 279.138,254.818 275.5,255.5C 208.481,254.17 141.481,254.17 74.5,255.5C 73.3044,255.154 73.3044,254.654 74.5,254C 72.6183,253.802 70.9516,253.302 69.5,252.5C 72.1667,252.5 74.8333,252.5 77.5,252.5C 111.832,253.167 146.332,253.5 181,253.5C 215.84,253.5 250.34,252.833 284.5,251.5C 287.451,250.306 290.451,249.306 293.5,248.5 Z"/></g>
<g><path style="opacity:1" fill="#7d7d7d" d="M 179.5,278.5 C 182.287,277.523 185.287,277.19 188.5,277.5C 188.5,280.5 188.5,283.5 188.5,286.5C 185.287,286.81 182.287,286.477 179.5,285.5C 182.167,285.5 184.833,285.5 187.5,285.5C 187.5,283.167 187.5,280.833 187.5,278.5C 184.833,278.5 182.167,278.5 179.5,278.5 Z"/></g>
<g><path style="opacity:1" fill="#c8c8c8" d="M 142.5,280.5 C 139.428,280.183 136.428,280.516 133.5,281.5C 134.372,283.45 135.039,285.45 135.5,287.5C 132.387,285.36 131.054,282.36 131.5,278.5C 134.85,278.335 138.183,278.502 141.5,279C 142.056,279.383 142.389,279.883 142.5,280.5 Z"/></g>
<g><path style="opacity:1" fill="#060606" d="M 179.5,278.5 C 182.167,278.5 184.833,278.5 187.5,278.5C 187.5,280.833 187.5,283.167 187.5,285.5C 184.833,285.5 182.167,285.5 179.5,285.5C 179.5,283.167 179.5,280.833 179.5,278.5 Z"/></g>
<g><path style="opacity:1" fill="#a3a3a3" d="M 164.5,280.5 C 167.687,279.194 171.02,279.194 174.5,280.5C 174.376,281.107 174.043,281.44 173.5,281.5C 170.713,280.523 167.713,280.19 164.5,280.5 Z"/></g>
<g><path style="opacity:1" fill="#545454" d="M 229.5,278.5 C 226.833,278.5 224.167,278.5 221.5,278.5C 221.819,283.363 221.486,288.03 220.5,292.5C 220.5,287.5 220.5,282.5 220.5,277.5C 223.713,277.19 226.713,277.523 229.5,278.5 Z"/></g>
<g><path style="opacity:1" fill="#0d0d0d" d="M 142.5,280.5 C 143.809,284.086 145.142,287.752 146.5,291.5C 146.166,294.491 147.166,296.824 149.5,298.5C 149.971,300.579 150.637,302.579 151.5,304.5C 151.116,306.665 151.783,308.332 153.5,309.5C 154.298,309.043 154.631,308.376 154.5,307.5C 154.875,305.302 155.542,303.302 156.5,301.5C 157.674,300.486 158.34,299.153 158.5,297.5C 159.167,294.833 159.833,292.167 160.5,289.5C 162.584,286.947 163.917,283.947 164.5,280.5C 167.713,280.19 170.713,280.523 173.5,281.5C 173.5,281.833 173.5,282.167 173.5,282.5C 171.755,284.033 170.755,286.033 170.5,288.5C 170.107,290.284 169.441,291.95 168.5,293.5C 166.6,296.518 165.267,299.851 164.5,303.5C 164.107,305.284 163.441,306.95 162.5,308.5C 160.935,310.509 159.935,312.843 159.5,315.5C 159.539,318.089 158.539,320.089 156.5,321.5C 154.143,321.663 151.81,321.497 149.5,321C 148.291,317.165 146.624,313.665 144.5,310.5C 144.5,310.167 144.5,309.833 144.5,309.5C 143.586,305.064 141.919,301.064 139.5,297.5C 139.443,296.391 139.11,295.391 138.5,294.5C 138.245,292.033 137.245,290.033 135.5,288.5C 135.5,288.167 135.5,287.833 135.5,287.5C 135.039,285.45 134.372,283.45 133.5,281.5C 136.428,280.516 139.428,280.183 142.5,280.5 Z"/></g>
<g><path style="opacity:1" fill="#858585" d="M 164.5,280.5 C 163.917,283.947 162.584,286.947 160.5,289.5C 161.083,286.053 162.416,283.053 164.5,280.5 Z"/></g>
<g><path style="opacity:1" fill="#919191" d="M 173.5,282.5 C 173.245,284.967 172.245,286.967 170.5,288.5C 170.755,286.033 171.755,284.033 173.5,282.5 Z"/></g>
<g><path style="opacity:1" fill="#a7a7a7" d="M 293.5,289.5 C 289.766,289.323 286.099,289.656 282.5,290.5C 283.871,289.213 285.705,288.547 288,288.5C 290.033,288.506 291.866,288.839 293.5,289.5 Z"/></g>
<g><path style="opacity:1" fill="#0e0e0e" d="M 229.5,278.5 C 229.5,292.833 229.5,307.167 229.5,321.5C 226.5,321.5 223.5,321.5 220.5,321.5C 220.657,320.127 220.49,318.793 220,317.5C 218.786,319.049 217.286,320.215 215.5,321C 203.017,323.35 196.684,318.183 196.5,305.5C 197.031,291.483 204.031,286.65 217.5,291C 218.333,291.833 219.167,292.667 220,293.5C 220.399,293.272 220.565,292.938 220.5,292.5C 221.486,288.03 221.819,283.363 221.5,278.5C 224.167,278.5 226.833,278.5 229.5,278.5 Z"/></g>
<g><path style="opacity:1" fill="#0c0c0c" d="M 264.5,296.5 C 264.66,298.153 265.326,299.486 266.5,300.5C 266.5,302.833 266.5,305.167 266.5,307.5C 259.167,307.5 251.833,307.5 244.5,307.5C 244.232,309.099 244.566,310.432 245.5,311.5C 248.684,315.438 252.684,316.438 257.5,314.5C 259.5,313.167 261.5,313.167 263.5,314.5C 264.626,315.858 264.626,317.192 263.5,318.5C 256.653,322.052 249.653,322.386 242.5,319.5C 240.781,317.456 239.114,315.456 237.5,313.5C 236.117,307.741 236.451,302.075 238.5,296.5C 241.168,291.385 245.502,289.052 251.5,289.5C 257.408,289.047 261.742,291.38 264.5,296.5 Z"/></g>
<g><path style="opacity:1" fill="#676767" d="M 187.5,321.5 C 187.5,311.167 187.5,300.833 187.5,290.5C 184.833,290.5 182.167,290.5 179.5,290.5C 179.5,300.833 179.5,311.167 179.5,321.5C 178.506,311.013 178.172,300.346 178.5,289.5C 181.833,289.5 185.167,289.5 188.5,289.5C 188.828,300.346 188.494,311.013 187.5,321.5 Z"/></g>
<g><path style="opacity:1" fill="#040404" d="M 187.5,321.5 C 184.833,321.5 182.167,321.5 179.5,321.5C 179.5,311.167 179.5,300.833 179.5,290.5C 182.167,290.5 184.833,290.5 187.5,290.5C 187.5,300.833 187.5,311.167 187.5,321.5 Z"/></g>
<g><path style="opacity:1" fill="#858585" d="M 135.5,288.5 C 137.245,290.033 138.245,292.033 138.5,294.5C 136.755,292.967 135.755,290.967 135.5,288.5 Z"/></g>
<g><path style="opacity:1" fill="#0f0f0f" d="M 293.5,289.5 C 303.801,292.759 307.967,299.759 306,310.5C 304.389,313.938 302.223,316.938 299.5,319.5C 294.02,321.283 288.353,321.949 282.5,321.5C 276.867,318.874 273.533,314.541 272.5,308.5C 272.368,305.43 272.701,302.43 273.5,299.5C 274.93,294.948 277.93,291.948 282.5,290.5C 286.099,289.656 289.766,289.323 293.5,289.5 Z"/></g>
<g><path style="opacity:1" fill="#5b5b5a" d="M 146.5,291.5 C 148.065,293.509 149.065,295.843 149.5,298.5C 147.166,296.824 146.166,294.491 146.5,291.5 Z"/></g>
<g><path style="opacity:1" fill="#959595" d="M 168.5,293.5 C 168.23,297.358 166.897,300.691 164.5,303.5C 165.267,299.851 166.6,296.518 168.5,293.5 Z"/></g>
<g><path style="opacity:1" fill="#b7b7b7" d="M 256.5,298.5 C 253.887,297.565 251.221,297.398 248.5,298C 247.922,299.417 246.922,300.25 245.5,300.5C 245.511,298.983 246.177,297.816 247.5,297C 250.167,296.333 252.833,296.333 255.5,297C 256.056,297.383 256.389,297.883 256.5,298.5 Z"/></g>
<g><path style="opacity:1" fill="#828282" d="M 218.5,298.5 C 213.554,296.383 209.554,297.383 206.5,301.5C 206.167,301.5 205.833,301.5 205.5,301.5C 205.859,299.629 206.859,298.129 208.5,297C 211.5,296.333 214.5,296.333 217.5,297C 218.056,297.383 218.389,297.883 218.5,298.5 Z"/></g>
<g><path style="opacity:1" fill="#f9f9f9" d="M 256.5,298.5 C 256.539,299.583 256.873,300.583 257.5,301.5C 255.5,301.833 253.5,302.167 251.5,302.5C 249.048,302.461 247.048,301.794 245.5,300.5C 246.922,300.25 247.922,299.417 248.5,298C 251.221,297.398 253.887,297.565 256.5,298.5 Z"/></g>
<g><path style="opacity:1" fill="#7e7e7e" d="M 285.5,297.5 C 287.966,296.366 290.633,296.199 293.5,297C 294.056,297.383 294.389,297.883 294.5,298.5C 291.57,297.701 288.57,297.368 285.5,297.5 Z"/></g>
<g><path style="opacity:1" fill="#7f7f7f" d="M 264.5,296.5 C 266.104,297.287 266.771,298.62 266.5,300.5C 265.326,299.486 264.66,298.153 264.5,296.5 Z"/></g>
<g><path style="opacity:1" fill="#fafafa" d="M 285.5,297.5 C 288.57,297.368 291.57,297.701 294.5,298.5C 294.833,299.5 295.5,300.167 296.5,300.5C 296.5,304.167 296.5,307.833 296.5,311.5C 295.395,312.6 294.062,313.267 292.5,313.5C 289.43,313.632 286.43,313.299 283.5,312.5C 283.5,312.167 283.5,311.833 283.5,311.5C 283.611,310.883 283.944,310.383 284.5,310C 281.71,305.605 282.043,301.438 285.5,297.5 Z"/></g>
<g><path style="opacity:1" fill="#636363" d="M 158.5,297.5 C 158.34,299.153 157.674,300.486 156.5,301.5C 156.229,299.62 156.896,298.287 158.5,297.5 Z"/></g>
<g><path style="opacity:1" fill="#f7f7f7" d="M 218.5,298.5 C 221.022,303.261 221.022,307.928 218.5,312.5C 215.57,313.299 212.57,313.632 209.5,313.5C 208.833,313.5 208.5,313.167 208.5,312.5C 206.853,309.079 206.187,305.413 206.5,301.5C 209.554,297.383 213.554,296.383 218.5,298.5 Z"/></g>
<g><path style="opacity:1" fill="#7f7f7f" d="M 256.5,298.5 C 258.213,299.635 258.88,301.302 258.5,303.5C 253.833,303.5 249.167,303.5 244.5,303.5C 244.263,302.209 244.596,301.209 245.5,300.5C 247.048,301.794 249.048,302.461 251.5,302.5C 253.5,302.167 255.5,301.833 257.5,301.5C 256.873,300.583 256.539,299.583 256.5,298.5 Z"/></g>
<g><path style="opacity:1" fill="#bcbcbc" d="M 205.5,301.5 C 205.833,301.5 206.167,301.5 206.5,301.5C 206.187,305.413 206.853,309.079 208.5,312.5C 204.639,309.719 203.639,306.052 205.5,301.5 Z"/></g>
<g><path style="opacity:1" fill="#959595" d="M 273.5,299.5 C 272.701,302.43 272.368,305.43 272.5,308.5C 271.366,306.034 271.199,303.367 272,300.5C 272.383,299.944 272.883,299.611 273.5,299.5 Z"/></g>
<g><path style="opacity:1" fill="#aeaeae" d="M 285.5,297.5 C 282.043,301.438 281.71,305.605 284.5,310C 283.944,310.383 283.611,310.883 283.5,311.5C 280.167,307.99 279.667,303.99 282,299.5C 282.816,298.177 283.983,297.511 285.5,297.5 Z"/></g>
<g><path style="opacity:1" fill="#626262" d="M 238.5,296.5 C 236.451,302.075 236.117,307.741 237.5,313.5C 235.114,308.399 234.947,303.066 237,297.5C 237.383,296.944 237.883,296.611 238.5,296.5 Z"/></g>
<g><path style="opacity:1" fill="#a6a6a6" d="M 296.5,300.5 C 299.065,304.135 299.065,307.801 296.5,311.5C 296.5,307.833 296.5,304.167 296.5,300.5 Z"/></g>
<g><path style="opacity:1" fill="#5c5c5c" d="M 151.5,304.5 C 152.1,305.9 153.1,306.9 154.5,307.5C 154.631,308.376 154.298,309.043 153.5,309.5C 151.783,308.332 151.116,306.665 151.5,304.5 Z"/></g>
<g><path style="opacity:1" fill="#383838" d="M 266.5,307.5 C 259.5,308.167 252.5,308.833 245.5,309.5C 245.5,310.167 245.5,310.833 245.5,311.5C 244.566,310.432 244.232,309.099 244.5,307.5C 251.833,307.5 259.167,307.5 266.5,307.5 Z"/></g>
<g><path style="opacity:1" fill="#797979" d="M 139.5,297.5 C 141.919,301.064 143.586,305.064 144.5,309.5C 142.081,305.936 140.414,301.936 139.5,297.5 Z"/></g>
<g><path style="opacity:1" fill="#919191" d="M 266.5,300.5 C 267.477,303.287 267.81,306.287 267.5,309.5C 260.167,309.5 252.833,309.5 245.5,309.5C 252.5,308.833 259.5,308.167 266.5,307.5C 266.5,305.167 266.5,302.833 266.5,300.5 Z"/></g>
<g><path style="opacity:1" fill="#959595" d="M 162.5,308.5 C 162.834,311.491 161.834,313.824 159.5,315.5C 159.935,312.843 160.935,310.509 162.5,308.5 Z"/></g>
<g><path style="opacity:1" fill="#676767" d="M 263.5,314.5 C 261.5,313.167 259.5,313.167 257.5,314.5C 259.5,311.833 261.5,311.833 263.5,314.5 Z"/></g>
<g><path style="opacity:1" fill="#9a9a9a" d="M 218.5,312.5 C 215.715,315.666 212.715,315.999 209.5,313.5C 212.57,313.632 215.57,313.299 218.5,312.5 Z"/></g>
<g><path style="opacity:1" fill="#aeaeae" d="M 283.5,312.5 C 286.43,313.299 289.43,313.632 292.5,313.5C 290.034,314.634 287.367,314.801 284.5,314C 283.944,313.617 283.611,313.117 283.5,312.5 Z"/></g>
<g><path style="opacity:1" fill="#a5a5a5" d="M 144.5,310.5 C 146.624,313.665 148.291,317.165 149.5,321C 151.81,321.497 154.143,321.663 156.5,321.5C 154.034,322.634 151.367,322.801 148.5,322C 146.849,318.21 145.515,314.377 144.5,310.5 Z"/></g>
<g><path style="opacity:1" fill="#adadad" d="M 299.5,319.5 C 299.119,320.931 298.119,321.764 296.5,322C 291.648,322.815 286.981,322.648 282.5,321.5C 288.353,321.949 294.02,321.283 299.5,319.5 Z"/></g>
</svg>
