<svg width="24.000000" height="24.000000" viewBox="0 0 24 24" fill="none" xmlns="http://www.w3.org/2000/svg" xmlns:xlink="http://www.w3.org/1999/xlink">
	<desc>
			Created with Pixso.
	</desc>
	<defs>
		<clipPath id="clip6_20">
			<rect id="arrow_up_left_and_arrow_down_right" width="24.000000" height="24.000000" fill="white" fill-opacity="0"/>
		</clipPath>
	</defs>
	<g clip-path="url(#clip6_20)">
		<g opacity="0.000000">
			<rect id="rect" width="24.000000" height="24.000000" fill="#FFFFFF" fill-opacity="1.000000"/>
		</g>
		<path id="path" d="M2.38 9.65C2.38 9.85 2.44 10.03 2.58 10.18C2.73 10.31 2.91 10.39 3.12 10.39C3.32 10.39 3.5 10.31 3.66 10.18C3.81 10.03 3.89 9.85 3.89 9.65L3.89 4.94L9.14 10.22C9.28 10.36 9.46 10.44 9.67 10.44C9.87 10.44 10.05 10.36 10.2 10.22C10.36 10.08 10.44 9.9 10.44 9.69C10.44 9.48 10.36 9.31 10.2 9.17L4.92 3.85L9.62 3.85C9.83 3.85 10.01 3.79 10.14 3.65C10.29 3.5 10.37 3.32 10.37 3.12C10.37 2.91 10.29 2.73 10.14 2.58C10.01 2.44 9.83 2.38 9.62 2.38L3.67 2.38C3.31 2.38 3.01 2.5 2.76 2.75C2.5 2.99 2.38 3.3 2.38 3.67L2.38 9.65ZM13.63 20.88C13.63 21.08 13.7 21.26 13.85 21.41C13.99 21.55 14.16 21.62 14.38 21.62L20.33 21.62C20.69 21.62 21 21.49 21.25 21.24C21.49 20.98 21.62 20.68 21.62 20.33L21.62 14.35C21.62 14.14 21.55 13.96 21.41 13.81C21.26 13.68 21.08 13.61 20.88 13.61C20.67 13.61 20.49 13.68 20.34 13.81C20.18 13.96 20.11 14.14 20.11 14.35L20.11 19.03L14.86 13.78C14.71 13.63 14.53 13.56 14.33 13.56C14.12 13.56 13.94 13.63 13.8 13.78C13.64 13.92 13.56 14.09 13.56 14.3C13.56 14.51 13.64 14.69 13.8 14.83L19.06 20.11L14.38 20.11C14.16 20.11 13.99 20.18 13.85 20.34C13.7 20.49 13.63 20.67 13.63 20.88Z" fill="#FFFFFF" fill-opacity="1.000000" fill-rule="nonzero"/>
	</g>
</svg>
