<svg width="24.000000" height="24.000000" viewBox="0 0 24 24" fill="none" xmlns="http://www.w3.org/2000/svg" xmlns:xlink="http://www.w3.org/1999/xlink">
	<desc>
			Created with Pixso.
	</desc>
	<defs>
		<clipPath id="clip6_24">
			<rect id="arrow_down_right_and_arrow_up_left" width="24.000000" height="24.000000" fill="white" fill-opacity="0"/>
		</clipPath>
	</defs>
	<g clip-path="url(#clip6_24)">
		<g opacity="0.000000">
			<rect id="rect" width="24.000000" height="24.000000" fill="#FFFFFF" fill-opacity="1.000000"/>
		</g>
		<path id="path" d="M8.94 10.01L4.25 10.01C4.04 10.01 3.86 10.08 3.7 10.22C3.55 10.36 3.47 10.54 3.47 10.75C3.47 10.95 3.55 11.13 3.7 11.28C3.86 11.42 4.04 11.5 4.25 11.5L10.2 11.5C10.55 11.5 10.85 11.37 11.11 11.11C11.37 10.85 11.5 10.55 11.5 10.2L11.5 4.21C11.5 4.01 11.42 3.83 11.27 3.69C11.11 3.55 10.93 3.47 10.73 3.47C10.52 3.47 10.34 3.55 10.2 3.69C10.05 3.83 9.97 4.01 9.97 4.21L9.97 8.93L4.03 2.97C3.88 2.83 3.71 2.76 3.5 2.76C3.29 2.76 3.12 2.83 2.97 2.97C2.83 3.12 2.76 3.29 2.76 3.5C2.76 3.71 2.83 3.89 2.97 4.03L8.94 10.01ZM12.5 19.75C12.5 19.95 12.57 20.13 12.72 20.28C12.86 20.42 13.04 20.5 13.25 20.5C13.45 20.5 13.63 20.42 13.78 20.28C13.91 20.13 13.99 19.95 13.99 19.75L13.99 15.07L19.93 21.02C20.08 21.16 20.26 21.24 20.46 21.24C20.67 21.24 20.85 21.16 21 21.02C21.15 20.88 21.24 20.7 21.24 20.5C21.24 20.28 21.15 20.11 21 19.96L15.02 13.99L19.75 13.99C19.95 13.99 20.13 13.92 20.28 13.78C20.42 13.63 20.5 13.45 20.5 13.25C20.5 13.04 20.42 12.86 20.28 12.71C20.13 12.55 19.95 12.48 19.75 12.48L13.8 12.48C13.44 12.48 13.14 12.6 12.88 12.86C12.63 13.12 12.5 13.43 12.5 13.8L12.5 19.75Z" fill="#FFFFFF" fill-opacity="1.000000" fill-rule="nonzero"/>
	</g>
</svg>
