<?xml version="1.0" encoding="UTF-8"?>
<svg width="30px" height="24px" viewBox="0 0 30 24" version="1.1" xmlns="http://www.w3.org/2000/svg" xmlns:xlink="http://www.w3.org/1999/xlink">
    <title>HDR备份</title>
    <g id="HDR备份" stroke="none" stroke-width="1" fill="none" fill-rule="evenodd">
        <path d="M2.148,10.908 L6.768,10.908 L6.768,6.876 L8.812,6.876 L8.812,17.124 L6.768,17.124 L6.768,12.714 L2.148,12.714 L2.148,17.124 L0.118,17.124 L0.118,6.876 L2.148,6.876 L2.148,10.908 Z M14.384,6.876 C15.3826667,6.876 16.2856667,7.07666667 17.093,7.478 C17.9003333,7.87933333 18.5373333,8.465 19.004,9.235 C19.4706667,10.005 19.704,10.922 19.704,11.986 C19.704,13.05 19.4706667,13.9693333 19.004,14.744 C18.5373333,15.5186667 17.9026667,16.109 17.1,16.515 C16.2973333,16.921 15.392,17.124 14.384,17.124 L10.968,17.124 L10.968,6.876 L14.384,6.876 Z M14.146,15.388 C15.2473333,15.388 16.092,15.094 16.68,14.506 C17.268,13.918 17.562,13.078 17.562,11.986 C17.562,10.9126667 17.2656667,10.0796667 16.673,9.487 C16.0803333,8.89433333 15.238,8.598 14.146,8.598 L12.998,8.598 L12.998,15.388 L14.146,15.388 Z M29.882,17.124 L27.46,17.11 L24.968,13.428 L24.884,13.428 L23.4,13.428 L23.4,17.124 L21.37,17.124 L21.37,6.876 L24.912,6.876 C25.7146667,6.876 26.4193333,7.01133333 27.026,7.282 C27.6326667,7.55266667 28.0993333,7.93766667 28.426,8.437 C28.7526667,8.93633333 28.916,9.508 28.916,10.152 C28.916,10.8053333 28.748,11.3793333 28.412,11.874 C28.076,12.3686667 27.6046667,12.7466667 26.998,13.008 L29.882,17.124 Z M23.4,8.598 L23.4,11.706 L24.674,11.706 C25.2713333,11.706 25.7683333,11.5776667 26.165,11.321 C26.5616667,11.0643333 26.76,10.6746667 26.76,10.152 C26.76,9.62 26.564,9.228 26.172,8.976 C25.78,8.724 25.2806667,8.598 24.674,8.598 L23.4,8.598 Z" id="形状结合" fill="#FFFFFF" fill-rule="nonzero"></path>
    </g>
</svg>