<?xml version="1.0" encoding="UTF-8"?>
<svg width="24px" height="19px" viewBox="0 0 24 19" version="1.1" xmlns="http://www.w3.org/2000/svg" xmlns:xlink="http://www.w3.org/1999/xlink">
    <title>ic_system_collapse_up</title>
    <g id="ic_system_collapse_up" stroke="none" stroke-width="1" fill="none" fill-rule="evenodd">
        <g id="编组" transform="translate(12.000000, 9.500000) rotate(-90.000000) translate(-12.000000, -9.500000) translate(2.500000, -2.500000)">
            <path d="M13.5052038,11.2928932 C13.8957281,11.6834175 13.8957281,12.3165825 13.5052038,12.7071068 L8.90900974,17.3033009 C8.51848545,17.6938252 7.88532047,17.6938252 7.49479618,17.3033009 C7.10427189,16.9127766 7.10427189,16.2796116 7.49479618,15.8890873 L11.3838835,12 L7.49479618,8.1109127 C7.10427189,7.72038841 7.10427189,7.08722343 7.49479618,6.69669914 C7.88532047,6.30617485 8.51848545,6.30617485 8.90900974,6.69669914 L13.5052038,11.2928932 Z" id="路径" fill="#FFFFFF"></path>
            <polygon id="矩形" fill="#D8D8D8" opacity="0" points="7.27595761e-12 -4.54747351e-13 19 -4.54747351e-13 19 24 7.27595761e-12 24"></polygon>
        </g>
    </g>
</svg>