<?xml version="1.0" encoding="UTF-8"?>
<svg width="24px" height="24px" viewBox="0 0 24 24" version="1.1" xmlns="http://www.w3.org/2000/svg" xmlns:xlink="http://www.w3.org/1999/xlink">
    <title>防抖off备份 2</title>
    <g id="防抖off备份-2" stroke="none" stroke-width="1" fill="none" fill-rule="evenodd">
        <path d="M3.51465921,2.45399904 L21.546001,20.4853408 C21.8388942,20.778234 21.8388942,21.2531077 21.546001,21.546001 C21.2531077,21.8388942 20.778234,21.8388942 20.4853408,21.546001 L18.4049896,19.4655126 C18.1975574,19.717562 17.9694384,19.9554451 17.7215523,20.1765588 L17.519052,20.3498162 L17.3082229,20.515623 C14.6259507,22.5368601 10.8570765,22.1412989 8.64151101,19.649031 L8.47829731,19.4581846 L8.32031595,19.2575419 L4.3276653,13.9591155 C3.62968145,13.0328597 3.81473247,11.7161533 4.74098832,11.0181694 C5.53247149,10.4217441 6.6090483,10.4700805 7.34104313,11.0746509 L7.46651355,11.1870959 L7.56540435,11.2897962 L7.56406188,8.62512833 L2.45399904,3.51465921 C2.16110582,3.22176599 2.16110582,2.74689226 2.45399904,2.45399904 C2.74689226,2.16110582 3.22176599,2.16110582 3.51465921,2.45399904 Z M9.06406188,10.1251283 L9.06472276,13.5171518 C9.06470141,14.2010074 8.23833668,14.5117281 7.78422403,14.0482253 L7.71579029,13.9685482 L6.48398118,12.334215 C6.28455722,12.0695704 5.90835538,12.0166987 5.64371086,12.2161227 C5.40553078,12.3956042 5.33888668,12.7182759 5.47331972,12.9739413 L5.52561856,13.056393 L9.50822735,18.341793 L9.64641746,18.5173054 C11.3163349,20.5471244 14.2985751,20.9053518 16.4055004,19.3176698 C16.7616428,19.0492972 17.0735684,18.7394396 17.3376598,18.3983319 L9.06406188,10.1251283 Z M12.3649406,2.19212833 C13.1141269,2.19212833 13.7716828,2.58444441 14.1433767,3.17484478 L14.2239893,3.3145189 L14.2694043,3.4067962 L14.3470876,3.37612482 C14.4665387,3.33267805 14.5910477,3.29976418 14.7194912,3.2785063 L14.9149672,3.25550187 L15.0649406,3.25022914 C16.1743126,3.25022914 17.0827688,4.11045179 17.1596679,5.20025572 L17.1649406,5.35022914 L17.1654043,5.6287962 L17.3239139,5.588078 L17.4678398,5.56254351 L17.6149672,5.54696221 L17.7649406,5.54168948 C18.8743126,5.54168948 19.7828234,6.40191213 19.8597273,7.49171606 L19.8650003,7.64168948 L19.8650003,14.6369746 L19.8640004,14.7012007 L19.8610657,14.7652075 L19.8474043,14.9127962 L19.8576342,15.0793126 C19.8912929,15.7835269 19.8091598,16.4808478 19.6203138,17.1455777 L18.3417337,15.8667581 C18.3635388,15.6428693 18.3701386,15.4164523 18.3610158,15.1889702 L18.3455645,14.948971 L18.355,14.747052 L18.3624678,14.6926687 L18.3649985,14.6369746 L18.3649985,7.64168948 C18.3649985,7.31031863 18.0963115,7.04168948 17.7649406,7.04168948 C17.4667069,7.04168948 17.2192939,7.25927909 17.1727936,7.54436637 L17.1649406,7.64168948 L17.1649406,10.5572869 C17.1649406,10.9715005 16.8291542,11.3072869 16.4149406,11.3072869 C16.0007271,11.3072869 15.6649406,10.9715005 15.6649406,10.5572869 L15.6649406,5.35022914 C15.6649406,5.01885829 15.3963115,4.75022914 15.0649406,4.75022914 C14.7667069,4.75022914 14.5192939,4.96781875 14.4727936,5.25290602 L14.4649406,5.35022914 L14.4649406,10.5572869 C14.4649406,10.9501807 14.1628309,11.2725129 13.7782417,11.3046533 L12.9640619,10.4901283 L12.9649406,4.29212833 C12.9649406,3.96075748 12.6963115,3.69212833 12.3649406,3.69212833 C12.0667069,3.69212833 11.8192939,3.90971794 11.7727936,4.19480521 L11.7649406,4.29212833 L11.7640619,9.29012833 L10.2640619,7.79012833 L10.2649406,6.54110954 L10.2570876,6.44378643 C10.2105874,6.15869915 9.96317439,5.94110954 9.66494062,5.94110954 C9.36670686,5.94110954 9.11929387,6.15869915 9.07279361,6.4438035 L9.06494062,6.54113296 L9.06406188,6.59012833 L7.89065769,5.41725617 C8.21156454,4.91168314 8.74260965,4.55262255 9.3609108,4.46295661 L9.5149672,4.44638227 L9.66494062,4.44110954 C9.79940995,4.44110954 9.93092735,4.45374826 10.0583697,4.47790259 L10.2463366,4.5226304 L10.2654043,4.5277962 L10.2649406,4.29212833 C10.2649406,3.23558359 11.0451879,2.36127537 12.0609108,2.2139754 L12.2149672,2.19740106 L12.3649406,2.19212833 Z M2.73315684,8.07981643 L2.77483234,8.17291463 L3.43345313,9.95655935 C3.482982,10.090691 3.49288777,10.2354455 3.46317045,10.3738263 L3.43345313,10.4761512 L2.8710053,11.9991566 L3.43345313,13.5238488 C3.482982,13.6579805 3.49288777,13.8027349 3.46317045,13.9411157 L3.43345313,14.0434406 L2.77483234,15.8270854 C2.63135101,16.2156545 2.20003888,16.4143375 1.81146973,16.2708561 C1.45528135,16.1393316 1.25865013,15.7659492 1.33886895,15.405335 L1.36769898,15.3074935 L1.9310053,13.7831566 L1.36769898,12.2597959 C1.31817011,12.1256642 1.30826433,11.9809098 1.33798166,11.842529 L1.36769898,11.7402041 L1.9310053,10.2161566 L1.36769898,8.69250649 C1.23617443,8.3363181 1.3921629,7.94421374 1.71837153,7.77081938 L1.81146973,7.72914388 C2.16765812,7.59761933 2.55976249,7.7536078 2.73315684,8.07981643 Z M22.0808509,7.69819461 L22.1885303,7.72914388 L22.2816285,7.77081938 C22.5752162,7.9268743 22.7309257,8.26008433 22.6632503,8.58482712 L22.632301,8.69250649 L22.0690464,10.2161566 L22.632301,11.7402041 L22.6620183,11.842529 C22.6843063,11.9463146 22.6843063,12.0536854 22.6620183,12.157471 L22.632301,12.2597959 L22.0690464,13.7831566 L22.632301,15.3074935 L22.6611311,15.405335 C22.7413499,15.7659492 22.5447187,16.1393316 22.1885303,16.2708561 C21.8323419,16.4023807 21.4402375,16.2463922 21.2668432,15.9201836 L21.2251677,15.8270854 L20.5665469,14.0434406 L20.5368295,13.9411157 C20.5145416,13.8373301 20.5145416,13.7299593 20.5368295,13.6261737 L20.5665469,13.5238488 L21.1290464,11.9991566 L20.5665469,10.4761512 L20.5368295,10.3738263 C20.5145416,10.2700407 20.5145416,10.1626699 20.5368295,10.0588843 L20.5665469,9.95655935 L21.2251677,8.17291463 L21.2668432,8.07981643 C21.4228981,7.78622866 21.7561081,7.63051922 22.0808509,7.69819461 Z" id="形状结合" fill="#FFFFFF" fill-rule="nonzero"></path>
    </g>
</svg>