<?xml version="1.0" standalone="no"?>
<svg xmlns="http://www.w3.org/2000/svg" width="24" height="24"><rect width="24" height="24" opacity="0"></rect><g><path d="M17.95 7.58Q18.14 7.39 18.25 7.13Q18.36 6.86 18.36 6.55Q18.36 6.26 18.25 6Q18.14 5.74 17.95 5.52L13.85 1.49Q13.54 1.18 13.12 1.1Q12.7 1.03 12.29 1.2Q11.9 1.37 11.65 1.73Q11.4 2.09 11.4 2.5L11.4 2.52L11.4 9.91L6.91 5.42Q6.7 5.21 6.38 5.21Q6.07 5.21 5.86 5.42Q5.64 5.64 5.64 5.95Q5.64 6.26 5.86 6.48L11.35 12L5.86 17.5Q5.64 17.71 5.64 18.02Q5.64 18.34 5.86 18.55Q6.1 18.79 6.38 18.79Q6.67 18.79 6.91 18.55L11.4 14.09L11.4 21.46Q11.4 22.08 11.84 22.5Q12.29 22.92 12.84 22.92Q13.1 22.92 13.38 22.8Q13.66 22.68 13.85 22.49L17.93 18.46Q18.12 18.26 18.24 17.99Q18.36 17.71 18.36 17.42Q18.36 17.14 18.25 16.87Q18.14 16.61 17.93 16.39L13.49 12L17.95 7.58ZM12.86 10.49L12.79 2.57L16.85 6.55ZM12.89 13.51L16.85 17.42L12.89 21.46Z" fill="rgba(0,0,0,0.9019607843137255)"></path></g></svg>