<?xml version="1.0" standalone="no"?>
<svg xmlns="http://www.w3.org/2000/svg" width="24" height="24"><rect width="24" height="24" opacity="0"></rect><g><path d="M10.44 2.18Q8.81 2.57 7.57 3.62Q6.34 4.68 5.74 6.17Q5.14 7.66 5.28 9.31Q5.3 9.62 5.53 9.82Q5.76 10.01 6.07 9.98Q6.38 9.96 6.59 9.73Q6.79 9.5 6.77 9.19Q6.65 7.92 7.13 6.76Q7.61 5.59 8.56 4.78Q9.5 3.96 10.78 3.65Q12.19 3.31 13.52 3.72Q14.86 4.13 15.8 5.12Q16.75 6.12 17.09 7.54Q17.26 8.23 17.22 9.08Q17.18 9.94 16.94 10.82Q16.7 11.69 16.22 12.5Q15.74 13.32 14.45 14.95Q13.92 15.67 13.66 16.4Q13.39 17.14 13.3 18.19Q13.2 19.42 12.49 19.96Q11.78 20.5 10.54 20.5Q9.7 20.5 9 19.99Q8.3 19.49 7.94 18.74Q7.82 18.46 7.51 18.36Q7.2 18.26 6.94 18.41Q6.67 18.55 6.56 18.84Q6.46 19.13 6.6 19.42Q7.18 20.54 8.2 21.28Q9.22 22.01 10.54 22.01Q12.34 22.01 13.49 21.11Q14.64 20.21 14.78 18.34Q14.88 17.47 15.06 16.93Q15.24 16.39 15.65 15.84Q16.99 14.14 17.54 13.22Q18.1 12.31 18.41 11.23Q18.67 10.18 18.72 9.13Q18.77 8.09 18.55 7.2Q18.12 5.4 16.88 4.09Q15.65 2.78 13.94 2.27Q12.24 1.75 10.44 2.18ZM9.24 15Q9.48 15.19 9.79 15.18Q10.1 15.17 10.27 14.93Q10.8 14.35 11.06 13.84Q11.33 13.32 11.38 12.77Q11.45 12.1 11.26 11.59Q11.06 11.09 10.66 10.49L10.63 10.46Q10.27 9.98 10.18 9.72Q9.96 9.1 10.02 8.5Q10.08 7.9 10.44 7.44Q10.8 6.98 11.38 6.79Q12.05 6.6 12.77 6.92Q13.49 7.25 13.68 7.85Q13.92 8.71 13.49 9.36Q13.32 9.62 13.39 9.92Q13.46 10.22 13.7 10.39Q13.94 10.56 14.23 10.52Q14.52 10.49 14.69 10.27Q14.71 10.22 14.74 10.2Q15.17 9.58 15.26 8.87Q15.36 8.16 15.1 7.39Q14.86 6.62 14.18 6.07Q13.51 5.52 12.65 5.32Q11.78 5.11 10.94 5.35Q9.94 5.66 9.31 6.42Q8.69 7.18 8.56 8.2Q8.42 9.22 8.78 10.22Q8.81 10.27 9.17 10.9Q9.55 11.5 9.76 11.89Q9.96 12.29 9.91 12.55Q9.86 12.86 9.71 13.18Q9.55 13.49 9.17 13.94Q8.98 14.18 8.99 14.5Q9 14.81 9.24 15Z" fill="rgba(0,0,0,0.9019607843137255)"></path></g></svg>