<svg width="24.000000" height="24.000000" viewBox="0 0 24 24" fill="none" xmlns="http://www.w3.org/2000/svg" xmlns:xlink="http://www.w3.org/1999/xlink">
	<desc>
			Created with Pixso.
	</desc>
	<defs>
		<clipPath id="clip1515_21907">
			<rect id="person_crop_circle_fill_1" width="24.000000" height="24.000000" fill="white" fill-opacity="0"/>
		</clipPath>
	</defs>
	<g clip-path="url(#clip1515_21907)">
		<g opacity="0.000000">
			<rect id="rect" width="24.000000" height="24.000000" fill="#000000" fill-opacity="1.000000"/>
		</g>
		<mask id="mask1515_21911" mask-type="alpha" maskUnits="userSpaceOnUse" x="0.000000" y="0.000000" width="24.000000" height="24.000000">
			<rect id="rect" width="24.000000" height="24.000000" fill="#FFFFFF" fill-opacity="1.000000"/>
			<path id="path" d="M5.51 17.9C5.77 17.12 6.2 16.42 6.83 15.82C7.44 15.2 8.15 14.73 8.95 14.4C9.77 14.07 10.58 13.9 11.4 13.9L12.59 13.9C13.41 13.9 14.22 14.07 15.03 14.4C15.84 14.73 16.55 15.2 17.16 15.82C17.76 16.42 18.19 17.12 18.45 17.9C17.6 18.83 16.62 19.54 15.52 20.03C14.42 20.51 13.24 20.76 12 20.76C10.71 20.76 9.52 20.51 8.41 20.02C7.32 19.52 6.35 18.81 5.51 17.9ZM9.65 6.48C10.3 5.82 11.08 5.5 11.99 5.51C12.88 5.51 13.66 5.84 14.33 6.5C14.98 7.16 15.31 7.94 15.32 8.84C15.33 9.75 15 10.52 14.34 11.18C13.69 11.84 12.91 12.16 12 12.16C11.1 12.14 10.33 11.81 9.66 11.16C9.01 10.5 8.68 9.72 8.67 8.82C8.66 7.91 8.99 7.13 9.65 6.48Z" fill="#000000" fill-opacity="1.000000" fill-rule="nonzero"/>
		</mask>
		<g mask="url(#mask1515_21911)">
			<path id="path" d="M1.5 12C1.5 13.9 1.98 15.66 2.91 17.25C3.85 18.85 5.12 20.12 6.73 21.06C8.33 22.01 10.09 22.48 12 22.48C13.9 22.48 15.66 22.01 17.26 21.06C18.87 20.12 20.15 18.85 21.09 17.23C22.03 15.63 22.5 13.88 22.5 12C22.5 10.08 22.03 8.33 21.09 6.72C20.15 5.12 18.87 3.84 17.26 2.89C15.66 1.95 13.9 1.48 12 1.48C10.09 1.48 8.33 1.95 6.73 2.89C5.12 3.84 3.85 5.12 2.91 6.72C1.98 8.33 1.5 10.08 1.5 12Z" fill="#000000" fill-opacity="0.250000" fill-rule="nonzero"/>
		</g>
	</g>
</svg>
