<svg width="16.000000" height="16.000000" viewBox="0 0 16 16" fill="none" xmlns="http://www.w3.org/2000/svg" xmlns:xlink="http://www.w3.org/1999/xlink">
	<desc>
			Created with Pixso.
	</desc>
	<defs>
		<clipPath id="clip3_44044">
			<rect id="svg" width="16.000000" height="16.000000" fill="white" fill-opacity="0"/>
		</clipPath>
	</defs>
	<g clip-path="url(#clip3_44044)">
		<g opacity="0.000000">
			<rect id="rect" width="16.000000" height="16.000000" fill="#000000" fill-opacity="1.000000"/>
		</g>
		<path id="path" d="M1.67 6.22C1.67 5.43 1.82 4.75 2.1 4.19C2.38 3.62 2.78 3.2 3.3 2.91C3.82 2.62 4.43 2.48 5.15 2.48C5.62 2.48 6.07 2.57 6.5 2.76C6.93 2.95 7.31 3.23 7.64 3.58C7.73 3.69 7.84 3.74 8 3.74C8.15 3.74 8.28 3.69 8.36 3.58C8.69 3.23 9.08 2.95 9.51 2.76C9.94 2.57 10.38 2.48 10.84 2.48C11.64 2.48 12.3 2.65 12.83 3.01C13.35 3.37 13.73 3.83 13.96 4.39C14.2 4.96 14.32 5.57 14.32 6.22C14.32 7.03 13.86 8.05 12.96 9.28C12.45 9.95 11.86 10.61 11.19 11.28C10.51 11.94 9.87 12.48 9.28 12.9C8.68 13.32 8.25 13.53 8 13.53C7.74 13.53 7.33 13.32 6.76 12.92C6.2 12.51 5.58 11.97 4.91 11.31C4.24 10.65 3.63 9.97 3.08 9.28C2.65 8.74 2.32 8.2 2.06 7.65C1.8 7.1 1.67 6.63 1.67 6.22ZM10.84 1.48C10.32 1.48 9.82 1.57 9.33 1.76C8.84 1.95 8.4 2.21 8 2.56C7.59 2.21 7.15 1.95 6.66 1.76C6.17 1.57 5.67 1.48 5.15 1.48C4.28 1.48 3.51 1.69 2.83 2.11C2.14 2.52 1.61 3.08 1.23 3.78C0.86 4.48 0.67 5.24 0.67 6.07C0.67 6.81 0.93 7.64 1.44 8.56C1.96 9.49 2.64 10.39 3.47 11.26C4.35 12.19 5.21 12.96 6.05 13.58C6.89 14.2 7.53 14.51 7.98 14.51C8.48 14.51 9.13 14.21 9.94 13.6C10.75 13 11.6 12.22 12.51 11.26C13.33 10.41 14 9.52 14.53 8.59C15.06 7.66 15.32 6.82 15.32 6.07C15.32 5.24 15.13 4.48 14.75 3.78C14.36 3.08 13.83 2.52 13.15 2.11C12.46 1.69 11.7 1.48 10.84 1.48Z" fill="#000000" fill-opacity="0.600000" fill-rule="nonzero"/>
	</g>
</svg>
