<?xml version="1.0" encoding="UTF-8"?>
<svg width="40px" height="40px" viewBox="0 0 40 40" version="1.1" xmlns="http://www.w3.org/2000/svg" xmlns:xlink="http://www.w3.org/1999/xlink">
    <title>ic/40*40_avatar_blue</title>
    <defs>
        <rect id="path-1" x="0" y="0" width="40" height="40" rx="20"></rect>
    </defs>
    <g id="ic/40*40_avatar_blue" stroke="none" stroke-width="1" fill="none" fill-rule="evenodd">
        <g id="矩形备份-2">
            <use fill="#90D0EE" xlink:href="#path-1"></use>
            <use fill-opacity="0.1" fill="#FFFFFF" xlink:href="#path-1"></use>
        </g>
        <g id="编组-2" transform="translate(7.105647, 9.285714)" fill="#FFFFFF">
            <path d="M12.8278362,16.4285714 C19.0154874,16.4285714 22.2013044,18.8625843 23.9116426,21.0700759 L24.2246614,21.4937893 C24.2738971,21.5636986 24.3216999,21.6331936 24.3681211,21.7021849 L24.6167309,22.0871434 L24.8378349,22.4577091 L25.0335049,22.8102708 L25.283853,23.2974565 L25.6032797,23.968254 L25.691594,24.1727383 C22.3605355,27.3411351 17.8545347,29.2857143 12.8943531,29.2857143 C7.88580248,29.2857143 3.34033372,27.3030253 0,24.0797004 L0.052392679,23.968254 L0.381830457,23.2974565 L0.636120711,22.8102708 L0.833657432,22.4577091 L1.05607449,22.0871434 L1.30549113,21.7021849 L1.44918922,21.4937893 L1.44918922,21.4937893 L1.7623272,21.0700759 C3.47212231,18.8625843 6.64018496,16.4285714 12.8278362,16.4285714 Z" id="路径"></path>
            <path d="M12.8278362,0 C9.08018967,0 6.0421219,3.03806777 6.0421219,6.78571429 C6.0421219,10.5333608 9.08018967,13.5714286 12.8278362,13.5714286 C16.5754827,13.5714286 19.6135505,10.5333608 19.6135505,6.78571429 C19.6135505,3.03806777 16.5754827,0 12.8278362,0 Z" id="路径" fill-rule="nonzero"></path>
        </g>
    </g>
</svg>