<svg width="21.979980" height="21.979996" viewBox="0 0 21.98 21.98" fill="none" xmlns="http://www.w3.org/2000/svg" xmlns:xlink="http://www.w3.org/1999/xlink">
	<desc>
			Created with Pixso.
	</desc>
	<defs/>
	<path id="path" d="M10.99 0C8.98 0 7.15 0.49 5.46 1.47C3.79 2.45 2.45 3.78 1.46 5.47C0.48 7.15 0 8.99 0 10.99C0 12.99 0.48 14.83 1.46 16.51C2.45 18.19 3.79 19.52 5.46 20.51C7.15 21.49 8.98 21.98 10.99 21.98C12.97 21.98 14.81 21.49 16.5 20.51C18.18 19.52 19.52 18.18 20.51 16.5C21.49 14.81 21.98 12.97 21.98 10.99C21.98 9 21.49 7.16 20.51 5.48C19.52 3.79 18.18 2.45 16.5 1.47C14.81 0.49 12.97 0 10.99 0ZM10.99 20.49C9.27 20.49 7.69 20.06 6.23 19.2C4.78 18.35 3.62 17.2 2.77 15.74C1.91 14.28 1.48 12.7 1.48 10.99C1.48 9.27 1.91 7.69 2.77 6.24C3.62 4.78 4.78 3.62 6.23 2.77C7.69 1.91 9.27 1.49 10.99 1.49C12.7 1.49 14.28 1.91 15.74 2.77C17.2 3.62 18.35 4.78 19.2 6.24C20.06 7.69 20.49 9.27 20.49 10.99C20.49 12.7 20.06 14.28 19.2 15.74C18.35 17.2 17.2 18.35 15.74 19.2C14.28 20.06 12.7 20.49 10.99 20.49ZM7.41 8.22C7.41 7.89 7.29 7.61 7.06 7.38C6.83 7.14 6.54 7.03 6.18 7.03C5.85 7.03 5.57 7.14 5.33 7.38C5.1 7.61 4.98 7.89 4.98 8.22C4.98 8.56 5.1 8.85 5.33 9.09C5.57 9.33 5.85 9.45 6.18 9.45C6.54 9.45 6.83 9.33 7.06 9.09C7.29 8.85 7.41 8.56 7.41 8.22ZM15.72 7.05C15.38 7.05 15.09 7.17 14.87 7.41C14.63 7.65 14.52 7.94 14.52 8.28C14.52 8.61 14.63 8.89 14.87 9.14C15.09 9.38 15.38 9.5 15.72 9.5C16.07 9.5 16.36 9.38 16.59 9.14C16.82 8.89 16.93 8.61 16.93 8.28C16.93 7.94 16.82 7.65 16.59 7.41C16.36 7.17 16.07 7.05 15.72 7.05ZM16.03 13.32C15.85 13.24 15.67 13.23 15.47 13.31C15.27 13.37 15.13 13.5 15.05 13.7C14.69 14.5 14.15 15.13 13.43 15.59C12.69 16.04 11.88 16.27 10.99 16.27C10.07 16.27 9.26 16.04 8.54 15.59C7.81 15.13 7.27 14.49 6.91 13.68C6.82 13.48 6.68 13.35 6.48 13.28C6.29 13.2 6.09 13.21 5.9 13.29C5.7 13.37 5.57 13.51 5.52 13.71C5.45 13.91 5.45 14.1 5.54 14.3C6.04 15.37 6.77 16.22 7.75 16.85C8.72 17.46 9.8 17.78 10.99 17.78C12.17 17.78 13.25 17.47 14.22 16.86C15.18 16.24 15.91 15.39 16.41 14.33C16.49 14.13 16.49 13.94 16.43 13.74C16.35 13.54 16.22 13.4 16.03 13.32Z" fill="#000000" fill-opacity="0.901961" fill-rule="nonzero"/>
</svg>
