<svg width="21.979980" height="21.979996" viewBox="0 0 21.98 21.98" fill="none" xmlns="http://www.w3.org/2000/svg" xmlns:xlink="http://www.w3.org/1999/xlink">
	<desc>
			Created with Pixso.
	</desc>
	<defs/>
	<path id="path" d="M11.73 10.25L11.73 4.99C11.73 4.78 11.66 4.6 11.52 4.46C11.37 4.32 11.19 4.25 10.99 4.25C10.78 4.25 10.6 4.32 10.46 4.46C10.31 4.6 10.25 4.78 10.25 4.99L10.25 10.25L4.98 10.25C4.78 10.25 4.6 10.32 4.45 10.46C4.31 10.6 4.25 10.78 4.25 10.99C4.25 11.19 4.31 11.37 4.45 11.52C4.6 11.66 4.78 11.73 4.98 11.73L10.25 11.73L10.25 16.99C10.25 17.19 10.31 17.37 10.46 17.52C10.6 17.66 10.78 17.73 10.99 17.73C11.19 17.73 11.37 17.66 11.52 17.52C11.66 17.37 11.73 17.19 11.73 16.99L11.73 11.73L16.99 11.73C17.19 11.73 17.37 11.66 17.52 11.52C17.66 11.37 17.73 11.19 17.73 10.99C17.73 10.78 17.66 10.6 17.52 10.46C17.37 10.32 17.19 10.25 16.99 10.25L11.73 10.25Z" fill="#000000" fill-opacity="0.901961" fill-rule="nonzero"/>
	<path id="path" d="M10.99 1.49C12.7 1.49 14.28 1.91 15.74 2.77C17.2 3.62 18.35 4.78 19.2 6.24C20.06 7.69 20.49 9.27 20.49 10.99C20.49 12.7 20.06 14.28 19.2 15.74C18.35 17.2 17.2 18.35 15.74 19.2C14.28 20.06 12.7 20.49 10.99 20.49C9.27 20.49 7.69 20.06 6.23 19.2C4.78 18.35 3.62 17.2 2.77 15.74C1.91 14.28 1.48 12.7 1.48 10.99C1.48 9.27 1.91 7.69 2.77 6.24C3.62 4.78 4.78 3.62 6.23 2.77C7.69 1.91 9.27 1.49 10.99 1.49ZM10.99 0C8.98 0 7.15 0.49 5.46 1.47C3.79 2.45 2.45 3.78 1.46 5.47C0.48 7.15 0 8.99 0 10.99C0 12.97 0.48 14.81 1.46 16.5C2.45 18.18 3.79 19.52 5.47 20.51C7.16 21.49 9 21.98 10.99 21.98C12.97 21.98 14.81 21.49 16.5 20.51C18.18 19.52 19.52 18.18 20.51 16.5C21.49 14.81 21.98 12.97 21.98 10.99C21.98 8.99 21.49 7.15 20.51 5.47C19.52 3.78 18.18 2.45 16.51 1.47C14.83 0.49 12.99 0 10.99 0Z" fill="#000000" fill-opacity="0.901961" fill-rule="nonzero"/>
</svg>
