<?xml version="1.0" standalone="no"?><!DOCTYPE svg PUBLIC "-//W3C//DTD SVG 1.1//EN" "http://www.w3.org/Graphics/SVG/1.1/DTD/svg11.dtd"><svg t="1745925373863" class="icon" viewBox="0 0 1024 1024" version="1.1" xmlns="http://www.w3.org/2000/svg" p-id="10923" xmlns:xlink="http://www.w3.org/1999/xlink" width="200" height="200"><path d="M622.08 341.418667l-15.701333 27.904a32 32 0 0 0 45.482666-39.68l-29.738666 11.776z m-220.16 341.162666l15.701333-27.904a32 32 0 0 0-45.482666 39.68l29.738666-11.776z m216.021333-438.4a32 32 0 0 0-59.477333 23.637334l59.477333-23.637334zM406.058667 779.818667a32 32 0 0 0 59.477333-23.637334l-59.477333 23.637334z m342.954666-327.765334a32 32 0 0 0-61.568 17.493334l61.568-17.493334z m-474.026666 119.893334a32 32 0 0 0 61.568-17.493334l-61.568 17.493334zM693.333333 512c0 90.24-79.061333 167.125333-181.333333 167.125333v64c133.376 0 245.333333-101.461333 245.333333-231.125333h-64z m-362.666666 0c0-90.24 79.061333-167.125333 181.333333-167.125333v-64c-133.376 0-245.333333 101.461333-245.333333 231.125333h64zM512 344.874667c34.730667 0 66.986667 8.96 94.378667 24.448l31.445333-55.765334A255.872 255.872 0 0 0 512 280.874667v64z m0 334.250666c-34.730667 0-66.986667-8.96-94.378667-24.448l-31.445333 55.765334a255.872 255.872 0 0 0 125.824 32.682666v-64z m139.861333-349.525333l-33.92-85.418667-59.477333 23.637334 33.92 85.418666 59.477333-23.637333z m-279.722666 364.8l33.92 85.418667 59.477333-23.637334-33.92-85.418666-59.477333 23.637333z m315.306666-224.853333c3.84 13.525333 5.888 27.733333 5.888 42.453333h64c0-20.693333-2.901333-40.789333-8.32-59.946667l-61.568 17.493334z m-350.890666 84.906666A154.88 154.88 0 0 1 330.666667 512h-64c0 20.693333 2.901333 40.789333 8.32 59.946667l61.568-17.493334zM256 117.333333h512v-64H256v64zM906.666667 256v512h64V256h-64zM768 906.666667H256v64h512v-64zM117.333333 768V256h-64v512h64zM256 906.666667A138.666667 138.666667 0 0 1 117.333333 768h-64A202.666667 202.666667 0 0 0 256 970.666667v-64zM906.666667 768A138.666667 138.666667 0 0 1 768 906.666667v64A202.666667 202.666667 0 0 0 970.666667 768h-64zM768 117.333333A138.666667 138.666667 0 0 1 906.666667 256h64A202.666667 202.666667 0 0 0 768 53.333333v64zM256 53.333333A202.666667 202.666667 0 0 0 53.333333 256h64A138.666667 138.666667 0 0 1 256 117.333333v-64z" p-id="10924"></path></svg>