<svg width="3.371338" height="6.406525" viewBox="0 0 3.37134 6.40652" fill="none" xmlns="http://www.w3.org/2000/svg" xmlns:xlink="http://www.w3.org/1999/xlink">
    <desc>
        Created with Pixso.
    </desc>
    <defs/>
    <path id="路径" d="M0.62 0.09L0.64 0.1L3.11 2.58C3.44 2.91 3.45 3.45 3.13 3.8L3.11 3.82L0.64 6.29C0.57 6.36 0.49 6.39 0.4 6.4L0.38 6.4L0.36 6.4C0.27 6.4 0.18 6.36 0.1 6.29C-0.04 6.15 -0.04 5.92 0.09 5.78L0.1 5.76L2.4 3.46C2.54 3.32 2.55 3.1 2.42 2.95L2.4 2.93L0.1 0.64C-0.04 0.49 -0.04 0.25 0.1 0.1C0.18 0.03 0.27 0 0.36 0L0.38 6.1e-5C0.47 0 0.55 0.03 0.62 0.09Z" fill="#000000" fill-opacity="1.000000" fill-rule="evenodd"/>
</svg>
