<svg width="16.000000" height="8.000000" viewBox="0 0 16 8" fill="none" xmlns="http://www.w3.org/2000/svg" xmlns:xlink="http://www.w3.org/1999/xlink">
	<desc>
			Created with Pixso.
	</desc>
	<defs/>
	<g opacity="0.400000">
		<mask id="mask38_558" mask-type="alpha" maskUnits="userSpaceOnUse" x="3.729004" y="1.999512" width="4.495093" height="8.542050">
			<path id="路径" d="M12.14 2.83L12.12 2.85L8.82 6.15C8.37 6.59 7.66 6.6 7.2 6.18L7.17 6.15L3.87 2.85C3.78 2.76 3.74 2.65 3.73 2.54L3.72 2.51L3.72 2.48C3.73 2.36 3.78 2.23 3.87 2.14C4.06 1.95 4.36 1.95 4.56 2.12L4.58 2.14L7.64 5.21C7.83 5.39 8.13 5.4 8.33 5.23L8.35 5.21L11.41 2.14C11.61 1.95 11.92 1.95 12.12 2.14C12.21 2.24 12.26 2.36 12.27 2.48L12.27 2.51C12.26 2.62 12.22 2.74 12.14 2.83Z" fill="#000000" fill-opacity="1.000000" fill-rule="evenodd"/>
		</mask>
		<g mask="url(#mask38_558)">
			<rect id="color/#000000" x="16.000000" width="8.000000" height="16.000000" transform="rotate(90 16.000000 0.000000)" fill="#000000" fill-opacity="0.901961"/>
		</g>
	</g>
</svg>
