<svg width="30.000000" height="30.000000" viewBox="0 0 30 30" fill="none" xmlns="http://www.w3.org/2000/svg" xmlns:xlink="http://www.w3.org/1999/xlink">
	<desc>
			Created with Pixso.
	</desc>
	<defs>
		<clipPath id="clip30_1315">
			<rect id="chevron_left" width="12.000000" height="24.000000" transform="translate(9.000000 3.000000)" fill="white" fill-opacity="0"/>
		</clipPath>
	</defs>
	<path id="路径" d="M15 0C23.28 0 30 6.71 30 15C30 23.28 23.28 30 15 30C6.71 30 0 23.28 0 15C0 6.71 6.71 0 15 0Z" fill="#000000" fill-opacity="0.400000" fill-rule="evenodd"/>
	<g clip-path="url(#clip30_1315)">
		<g opacity="0.000000"/>
	</g>
	<path id="path" d="M18.73 22.71C18.92 22.55 19 22.35 18.99 22.13C18.99 21.9 18.9 21.7 18.73 21.52L12.12 15L18.69 8.44C18.89 8.26 18.98 8.06 18.98 7.83C18.98 7.6 18.89 7.41 18.69 7.25C18.51 7.09 18.27 7 17.98 7C17.7 6.99 17.48 7.07 17.32 7.25L10.39 14.13C10.14 14.38 10.01 14.67 10 15C9.98 15.32 10.11 15.61 10.39 15.86L17.32 22.71C17.5 22.89 17.72 22.99 17.98 22.99C18.25 23 18.5 22.91 18.73 22.71Z" fill="#FFFFFF" fill-opacity="0.898039" fill-rule="nonzero"/>
</svg>
