<svg width="24.000000" height="24.000000" viewBox="0 0 24 24" fill="none" xmlns="http://www.w3.org/2000/svg" xmlns:xlink="http://www.w3.org/1999/xlink">
	<desc>
			Created with Pixso.
	</desc>
	<defs>
		<linearGradient x1="24.843245" y1="23.999998" x2="-5.237957" y2="-5.382686" id="paint_linear_30_720_0" gradientUnits="userSpaceOnUse">
			<stop stop-color="#CF0A2C"/>
			<stop offset="1.000000" stop-color="#EA1559"/>
		</linearGradient>
	</defs>
	<rect id="矩形" rx="12.000000" width="24.000000" height="24.000000" transform="matrix(0 -1 -1 0 24 24)" fill="url(#paint_linear_30_720_0)" fill-opacity="1.000000"/>
	<rect id="矩形" rx="11.500000" width="23.000000" height="23.000000" transform="matrix(0 -1 -1 0 24 24)" stroke="#979797" stroke-opacity="0" stroke-width="1.000000"/>
	<mask id="mask30_721" mask-type="alpha" maskUnits="userSpaceOnUse" x="6.333252" y="5.000000" width="11.333252" height="14.000000">
		<path id="形状结合" d="M17.6665 6L17.6665 18C17.6665 18.5523 17.2188 19 16.6665 19C16.1143 19 15.6665 18.5523 15.6665 18L15.6665 6C15.6665 5.44769 16.1143 5 16.6665 5C17.2188 5 17.6665 5.44769 17.6665 6ZM12.9998 12L12.9998 18C12.9998 18.5523 12.552 19 11.9998 19C11.4475 19 10.9998 18.5523 10.9998 18L10.9998 12C10.9998 11.4477 11.4475 11 11.9998 11C12.552 11 12.9998 11.4477 12.9998 12ZM8.33325 18L8.33325 9.33893C8.33325 8.78668 7.8855 8.33893 7.33325 8.33893C6.78101 8.33893 6.33325 8.78668 6.33325 9.33893L6.33325 18C6.33325 18.5523 6.78101 19 7.33325 19C7.8855 19 8.33325 18.5523 8.33325 18Z" clip-rule="evenodd" fill="#FFFFFF" fill-opacity="1.000000" fill-rule="evenodd"/>
	</mask>
	<path id="形状结合" d="M17.6665 6L17.6665 18C17.6665 18.5523 17.2188 19 16.6665 19C16.1143 19 15.6665 18.5523 15.6665 18L15.6665 6C15.6665 5.44769 16.1143 5 16.6665 5C17.2188 5 17.6665 5.44769 17.6665 6ZM12.9998 12L12.9998 18C12.9998 18.5523 12.552 19 11.9998 19C11.4475 19 10.9998 18.5523 10.9998 18L10.9998 12C10.9998 11.4477 11.4475 11 11.9998 11C12.552 11 12.9998 11.4477 12.9998 12ZM8.33325 18L8.33325 9.33893C8.33325 8.78668 7.8855 8.33893 7.33325 8.33893C6.78101 8.33893 6.33325 8.78668 6.33325 9.33893L6.33325 18C6.33325 18.5523 6.78101 19 7.33325 19C7.8855 19 8.33325 18.5523 8.33325 18Z" clip-rule="evenodd" fill="#FFFFFF" fill-opacity="1.000000" fill-rule="evenodd"/>
</svg>
