<svg width="48.000000" height="58.000000" viewBox="0 0 48 58" fill="none" xmlns="http://www.w3.org/2000/svg" xmlns:xlink="http://www.w3.org/1999/xlink">
	<desc>
			Created with Pixso.
	</desc>
	<defs>
		<filter id="filter_30_718_dd" x="0.000000" y="0.000000" width="48.000000" height="58.000000" filterUnits="userSpaceOnUse" color-interpolation-filters="sRGB">
			<feFlood flood-opacity="0" result="BackgroundImageFix"/>
			<feGaussianBlur in="BackgroundImage" stdDeviation="5.43656"/>
			<feComposite in2="SourceAlpha" operator="in" result="effect_backgroundBlur_1"/>
			<feBlend mode="normal" in="SourceGraphic" in2="effect_backgroundBlur_1" result="shape"/>
		</filter>
		<linearGradient x1="24.843245" y1="23.999998" x2="-5.237957" y2="-5.382686" id="paint_linear_30_720_0" gradientUnits="userSpaceOnUse">
			<stop stop-color="#CF0A2C"/>
			<stop offset="1.000000" stop-color="#EA1559"/>
		</linearGradient>
	</defs>
	<g filter="url(#filter_30_718_dd)">
		<rect id="矩形" rx="8.000000" width="48.000000" height="58.000000" fill="#FFFFFF" fill-opacity="0.101961"/>
		<rect id="矩形" x="0.250000" y="0.250000" rx="8.000000" width="47.500000" height="57.500000" stroke="#000000" stroke-opacity="0.200000" stroke-width="0.500000"/>
	</g>
	<rect id="矩形" rx="12.000000" width="24.000000" height="24.000000" transform="matrix(0 -1 -1 0 36 32)" fill="url(#paint_linear_30_720_0)" fill-opacity="1.000000"/>
	<rect id="矩形" rx="11.500000" width="23.000000" height="23.000000" transform="matrix(0 -1 -1 0 36 32)" stroke="#979797" stroke-opacity="0" stroke-width="1.000000"/>
	<mask id="mask30_721" mask-type="alpha" maskUnits="userSpaceOnUse" x="18.333252" y="13.000000" width="11.333252" height="14.000000">
		<path id="形状结合" d="M29.6665 14L29.6665 26C29.6665 26.5523 29.2188 27 28.6665 27C28.1143 27 27.6665 26.5523 27.6665 26L27.6665 14C27.6665 13.4477 28.1143 13 28.6665 13C29.2188 13 29.6665 13.4477 29.6665 14ZM24.9998 20L24.9998 26C24.9998 26.5523 24.552 27 23.9998 27C23.4475 27 22.9998 26.5523 22.9998 26L22.9998 20C22.9998 19.4477 23.4475 19 23.9998 19C24.552 19 24.9998 19.4477 24.9998 20ZM20.3333 26L20.3333 17.3389C20.3333 16.7867 19.8855 16.3389 19.3333 16.3389C18.781 16.3389 18.3333 16.7867 18.3333 17.3389L18.3333 26C18.3333 26.5523 18.781 27 19.3333 27C19.8855 27 20.3333 26.5523 20.3333 26Z" clip-rule="evenodd" fill="#FFFFFF" fill-opacity="1.000000" fill-rule="evenodd"/>
	</mask>
	<path id="形状结合" d="M29.6665 14L29.6665 26C29.6665 26.5523 29.2188 27 28.6665 27C28.1143 27 27.6665 26.5523 27.6665 26L27.6665 14C27.6665 13.4477 28.1143 13 28.6665 13C29.2188 13 29.6665 13.4477 29.6665 14ZM24.9998 20L24.9998 26C24.9998 26.5523 24.552 27 23.9998 27C23.4475 27 22.9998 26.5523 22.9998 26L22.9998 20C22.9998 19.4477 23.4475 19 23.9998 19C24.552 19 24.9998 19.4477 24.9998 20ZM20.3333 26L20.3333 17.3389C20.3333 16.7867 19.8855 16.3389 19.3333 16.3389C18.781 16.3389 18.3333 16.7867 18.3333 17.3389L18.3333 26C18.3333 26.5523 18.781 27 19.3333 27C19.8855 27 20.3333 26.5523 20.3333 26Z" clip-rule="evenodd" fill="#FFFFFF" fill-opacity="1.000000" fill-rule="evenodd"/>
	<path id="直播中" d="M13.65 38.55L13.65 39.4L9.85 39.4L9.85 40.08L13.65 40.08L13.65 40.89L10.9 40.89L10.9 46.44L9.51 46.44L9.51 47.14L18.52 47.14L18.52 46.44L17.12 46.44L17.12 40.89L14.39 40.89L14.39 40.08L18.17 40.08L18.17 39.4L14.39 39.4L14.39 38.55L13.65 38.55ZM33.6 38.55L33.6 40.51L30.13 40.51L30.13 45.11L30.9 45.11L30.9 44.45L33.6 44.45L33.6 47.58L34.39 47.58L34.39 44.45L37.09 44.45L37.09 45.08L37.86 45.08L37.86 40.51L34.39 40.51L34.39 38.55L33.6 38.55ZM20.04 46.64L19.47 46.64L19.59 47.33L20.25 47.33Q20.47 47.33 20.76 47.3Q20.78 47.29 20.8 47.28Q20.97 47.24 21.1 47.1Q21.18 47.02 21.22 46.87Q21.27 46.64 21.27 46.36L21.27 43.46L22.27 43.07L22.2 42.73L22.15 42.33L21.27 42.69L21.27 41.08L22.15 41.08L22.15 40.34L21.27 40.34L21.27 38.58L20.59 38.58L20.59 40.34L19.54 40.34L19.54 41.08L20.59 41.08L20.59 42.96Q19.93 43.2 19.27 43.43L19.47 44.18L20.59 43.7L20.59 46.13Q20.59 46.28 20.56 46.39Q20.56 46.43 20.54 46.45Q20.52 46.49 20.47 46.51Q20.47 46.54 20.45 46.55Q20.41 46.59 20.33 46.59Q20.16 46.64 20.04 46.64ZM22.7 42.88Q22.22 43.17 21.7 43.39L22.01 44.01Q22.27 43.89 22.63 43.7L22.63 47.58L23.29 47.58L23.29 47.07L27.01 47.07L27.01 47.58L27.66 47.58L27.66 43.58Q28.02 43.78 28.37 43.89L28.72 43.27Q28.02 43.04 27.43 42.69Q26.81 42.3 26.29 41.79L28.48 41.79L28.48 41.16L26.77 41.16Q27.2 40.57 27.63 40L27.04 39.68Q26.66 40.26 26.18 40.85L26.72 41.16L25.47 41.16L25.47 39.68Q26.77 39.6 28.06 39.4L27.95 38.75Q26.61 38.94 25.33 39.01Q23.77 39.18 22.15 39.21L22.23 39.88Q22.71 39.83 23.22 39.83L22.75 40.11Q23.17 40.62 23.57 41.16L22.15 41.16L22.15 41.79L24.03 41.79Q23.52 42.33 22.95 42.73Q22.83 42.8 22.7 42.88ZM23.57 41.16L24.82 41.16L24.82 39.71Q24.08 39.8 23.29 39.8Q23.72 40.31 24.11 40.85L23.57 41.16ZM30.9 41.25L33.6 41.25L33.6 43.7L30.9 43.7L30.9 41.25ZM37.09 41.25L37.09 43.7L34.39 43.7L34.39 41.25L37.09 41.25ZM11.66 41.51L16.38 41.51L16.38 42.3L11.66 42.3L11.66 41.51ZM24.82 43.24L25.47 43.24L25.47 41.87Q25.84 42.3 26.22 42.64Q26.77 43.07 27.35 43.43L23.09 43.43Q23.73 43.04 24.25 42.52Q24.55 42.22 24.82 41.87L24.82 43.24ZM11.66 42.93L16.38 42.93L16.38 43.66L11.66 43.66L11.66 42.93ZM23.29 44.01L24.82 44.01L24.82 44.95L23.29 44.95L23.29 44.01ZM27.01 44.01L27.01 44.95L25.47 44.95L25.47 44.01L27.01 44.01ZM11.66 44.29L16.38 44.29L16.38 45.08L11.66 45.08L11.66 44.29ZM23.29 45.51L24.82 45.51L24.82 46.44L23.29 46.44L23.29 45.51ZM25.47 45.51L27.01 45.51L27.01 46.44L25.47 46.44L25.47 45.51ZM11.66 45.65L16.38 45.65L16.38 46.44L11.66 46.44L11.66 45.65Z" fill="#000000" fill-opacity="1.000000" fill-rule="evenodd"/>
</svg>
