<svg width="12.000000" height="12.000000" viewBox="0 0 12 12" fill="none" xmlns="http://www.w3.org/2000/svg" xmlns:xlink="http://www.w3.org/1999/xlink">
	<desc>
			Created with Pixso.
	</desc>
	<defs/>
	<g opacity="0.600000">
		<mask id="mask38_568" mask-type="alpha" maskUnits="userSpaceOnUse" x="1.375000" y="0.445679" width="9.250000" height="11.249292">
			<path id="蒙版" d="M6 0.445679L5.93994 0.445679L5.8667 0.446259C3.354 0.486237 1.375 2.49716 1.375 4.99036C1.375 6.45499 2.01306 7.81418 3.21301 9.32812L3.32532 9.46832L3.4408 9.60947C3.46033 9.63306 3.47998 9.65671 3.49976 9.68039L3.62012 9.82297L3.74353 9.96661C3.76428 9.99063 3.78528 10.0147 3.8064 10.0388L3.93445 10.1841L4.05042 10.3135L4.09741 10.364C4.10559 10.3726 4.11389 10.3814 4.12244 10.3903L4.1759 10.4453L4.23376 10.5034L4.2959 10.5646L4.3623 10.6288L4.43323 10.6963L4.54785 10.8033L4.67236 10.9174L4.80701 11.0388L4.95166 11.1675L5.05371 11.2573L5.21912 11.4016L5.25464 11.4312C5.71045 11.7925 6.35205 11.7809 6.78845 11.4068L6.9259 11.288C6.97095 11.2487 7.01514 11.2099 7.05835 11.1715L7.18579 11.0575C7.20667 11.0387 7.22717 11.02 7.24756 11.0014L7.36743 10.891C7.44556 10.8182 7.52039 10.747 7.5918 10.6774L7.69641 10.5742C7.83252 10.4382 7.9552 10.3086 8.06433 10.1852C8.1134 10.1299 8.16138 10.0752 8.2085 10.0212L8.34717 9.86099L8.48047 9.70422C9.02502 9.05774 9.4364 8.49155 9.77881 7.89017C10.3287 6.92422 10.625 5.96848 10.625 4.99036C10.625 2.47879 8.55273 0.445679 6 0.445679ZM6 1.19534L5.94299 1.19531L5.87573 1.19583C3.77539 1.22928 2.125 2.90637 2.125 4.98999C2.125 6.44836 2.89966 7.86118 4.36829 9.54166L4.49402 9.68433L4.6062 9.80957C4.61255 9.81644 4.61902 9.82343 4.62561 9.83057L4.6676 9.87494L4.71387 9.92245L4.76428 9.97314L4.8479 10.0551L4.94104 10.144L5.04358 10.2399L5.11719 10.3077L5.23535 10.4151L5.36292 10.5294L5.49976 10.6505L5.70496 10.83L5.72693 10.8483C5.89514 10.9816 6.13672 10.9772 6.30029 10.8371L6.43152 10.7237L6.55774 10.6128C6.59888 10.5762 6.63928 10.5401 6.67883 10.5044L6.7948 10.3987L6.90576 10.2954L7.01172 10.1948L7.11243 10.0967C7.25977 9.9516 7.38989 9.81522 7.50281 9.68771C7.52405 9.66367 7.54517 9.63971 7.56616 9.61581L7.69043 9.47342C7.71082 9.44983 7.73108 9.42633 7.75122 9.40289L7.87012 9.26312L7.9856 9.125C8.0614 9.03348 8.13489 8.94302 8.20618 8.85352L8.31116 8.72003C9.36157 7.36984 9.875 6.23557 9.875 4.98999C9.875 2.89587 8.14172 1.19534 6 1.19534ZM7.125 5C7.125 4.37869 6.62134 3.875 6 3.875C5.37866 3.875 4.875 4.37869 4.875 5C4.875 5.62134 5.37866 6.125 6 6.125C6.62134 6.125 7.125 5.62134 7.125 5Z" clip-rule="evenodd" fill="#000000" fill-opacity="1.000000" fill-rule="evenodd"/>
		</mask>
		<g mask="url(#mask38_568)">
			<rect id="color/#000000" width="12.000000" height="12.000000" fill="#000000" fill-opacity="0.901961"/>
		</g>
	</g>
</svg>
