<svg width="30.000000" height="30.000000" viewBox="0 0 30 30" fill="none" xmlns="http://www.w3.org/2000/svg" xmlns:xlink="http://www.w3.org/1999/xlink">
	<desc>
			Created with Pixso.
	</desc>
	<defs/>
	<path id="路径" d="M15 0C23.28 0 30 6.71 30 15C30 23.28 23.28 30 15 30C6.71 30 0 23.28 0 15C0 6.71 6.71 0 15 0Z" fill="#000000" fill-opacity="0.400000" fill-rule="evenodd"/>
	<path id="path" d="M20.25 8C19.75 8 19.34 8.16 19 8.51C18.66 8.84 18.5 9.25 18.5 9.75C18.5 10.22 18.66 10.64 19 10.99C19.34 11.33 19.75 11.51 20.25 11.51C20.73 11.51 21.14 11.33 21.49 10.99C21.83 10.64 22 10.22 22 9.75C22 9.25 21.83 8.84 21.49 8.51C21.14 8.16 20.73 8 20.25 8ZM8.72 8C8.25 8 7.84 8.16 7.51 8.51C7.16 8.84 7 9.25 7 9.75C7 10.22 7.16 10.64 7.51 10.99C7.84 11.33 8.25 11.51 8.72 11.51C9.2 11.51 9.62 11.33 9.96 10.99C10.31 10.64 10.48 10.22 10.48 9.75C10.48 9.25 10.31 8.84 9.96 8.51C9.62 8.16 9.2 8 8.72 8ZM20.25 18.99C19.75 18.99 19.34 19.16 19 19.51C18.66 19.85 18.5 20.27 18.5 20.75C18.5 21.23 18.66 21.64 19 21.98C19.34 22.32 19.75 22.5 20.25 22.5C20.73 22.5 21.14 22.32 21.49 21.98C21.83 21.64 22 21.23 22 20.75C22 20.27 21.83 19.85 21.49 19.51C21.14 19.16 20.73 18.99 20.25 18.99ZM8.72 18.99C8.25 18.99 7.84 19.16 7.51 19.51C7.16 19.85 7 20.27 7 20.75C7 21.23 7.16 21.64 7.51 21.98C7.84 22.32 8.25 22.5 8.72 22.5C9.2 22.5 9.62 22.32 9.96 21.98C10.31 21.64 10.48 21.23 10.48 20.75C10.48 20.27 10.31 19.85 9.96 19.51C9.62 19.16 9.2 18.99 8.72 18.99Z" fill="#FFFFFF" fill-opacity="1.000000" fill-rule="nonzero"/>
</svg>
