<svg width="36.000000" height="16.000000" viewBox="0 0 36 16" fill="none" xmlns="http://www.w3.org/2000/svg" xmlns:xlink="http://www.w3.org/1999/xlink">
	<desc>
			Created with Pixso.
	</desc>
	<defs/>
	<g opacity="0.400000">
		<rect id="矩形" rx="8.000000" width="36.000000" height="16.000000" fill="#000000" fill-opacity="1.000000"/>
		<rect id="矩形" x="0.500000" y="0.500000" rx="7.500000" width="35.000000" height="15.000000" stroke="#979797" stroke-opacity="0" stroke-width="1.000000"/>
	</g>
	<path id="1/5" d="M24.15 9.87Q24.39 9.37 24.39 8.77Q24.39 8.09 24.1 7.56Q24.1 7.55 24.09 7.55Q23.92 7.25 23.69 7.03Q23.5 6.85 23.27 6.72Q23.19 6.68 23.1 6.63Q22.64 6.43 22.11 6.43Q21.47 6.43 21 6.72L21.29 4.53L24.06 4.53L24.06 3.74L20.52 3.74L20.02 7.75L20.58 8.04Q20.66 7.91 20.76 7.8Q20.94 7.6 21.18 7.45Q21.25 7.41 21.33 7.37Q21.65 7.23 22.03 7.23Q22.51 7.23 22.84 7.45Q22.97 7.54 23.07 7.66Q23.12 7.71 23.15 7.77Q23.45 8.18 23.45 8.81Q23.45 9.46 23.13 9.88Q23.1 9.91 23.06 9.95Q22.95 10.08 22.8 10.17Q22.48 10.37 22.03 10.37Q21.67 10.37 21.37 10.23Q21.26 10.18 21.16 10.11Q21.15 10.1 21.14 10.1Q20.78 9.83 20.58 9.34L19.86 9.75Q20 10.13 20.24 10.41Q20.44 10.64 20.7 10.81Q20.94 10.96 21.2 11.05Q21.59 11.19 22.03 11.19Q22.46 11.19 22.84 11.05Q23.03 10.99 23.21 10.89Q23.4 10.78 23.57 10.63Q23.86 10.38 24.07 10.03Q24.11 9.95 24.15 9.87ZM13.57 3.76L11.61 4.89L11.61 5.81L13.35 4.83L13.35 11.08L14.26 11.08L14.26 3.76L13.57 3.76ZM18.3 3.76L15.55 11.08L16.42 11.08L19.16 3.76L18.3 3.76Z" fill="#FFFFFF" fill-opacity="1.000000" fill-rule="evenodd"/>
</svg>
