<svg width="24.000000" height="24.000000" viewBox="0 0 24 24" fill="none" xmlns="http://www.w3.org/2000/svg" xmlns:xlink="http://www.w3.org/1999/xlink">
	<desc>
			Created with Pixso.
	</desc>
	<defs/>
	<mask id="mask33_1201" mask-type="alpha" maskUnits="userSpaceOnUse" x="1.249756" y="1.638245" width="21.500004" height="20.362156">
		<path id="形状结合" d="M22.5853 10.2816C22.8165 10.5698 22.8051 10.9916 22.5435 11.2669C22.2582 11.5672 21.7834 11.5794 21.4832 11.2941L13.5494 3.75699L13.4335 3.65407C12.5635 2.93355 11.2808 2.96786 10.4501 3.75699L2.51636 11.2941L2.43787 11.3592C2.13818 11.5753 1.71753 11.5422 1.45605 11.2669C1.17078 10.9666 1.18286 10.4919 1.48315 10.2066L9.41699 2.66949L9.56433 2.53658C11.0148 1.29602 13.1835 1.34033 14.5825 2.66949L22.5164 10.2066L22.5853 10.2816ZM20.9381 12.1413C20.9579 12.1571 20.9785 12.1712 20.9999 12.1835L20.9999 19.2504C20.9999 20.7451 19.8075 21.9612 18.322 21.9995L18.2499 22.0004L5.74988 22.0004C4.25525 22.0004 3.03906 20.808 3.00085 19.3225L2.99988 19.2504L2.99988 12.1964C3.00757 12.1909 3.01501 12.1853 3.02246 12.1794L3.05493 12.151L4.49988 10.7783L4.49988 19.2504C4.49988 19.9226 5.03052 20.4709 5.69568 20.4992L5.74988 20.5004L8.24988 20.5004L8.24988 16.2504C8.24988 14.1793 9.92883 12.5004 11.9999 12.5004C14.0709 12.5004 15.7499 14.1793 15.7499 16.2504L15.7499 20.5004L18.2499 20.5004C18.9221 20.5004 19.4703 19.9698 19.4988 19.3046L19.4999 19.2504L19.4999 10.7776L20.9055 12.1129L20.9381 12.1413ZM14.2499 20.5004L14.2499 16.2504C14.2499 15.0595 13.3247 14.0848 12.1539 14.0056L11.9999 14.0004C10.7573 14.0004 9.74988 15.0078 9.74988 16.2504L9.74988 20.5004L14.2499 20.5004Z" clip-rule="evenodd" fill="#000000" fill-opacity="1.000000" fill-rule="evenodd"/>
	</mask>
	<g mask="url(#mask33_1201)">
		<rect id="color/#000000" width="24.000000" height="24.000000" fill="#000000" fill-opacity="0.901961"/>
	</g>
</svg>
