<svg width="72.345459" height="40.774231" viewBox="0 0 72.3455 40.7742" fill="none" xmlns="http://www.w3.org/2000/svg" xmlns:xlink="http://www.w3.org/1999/xlink">
	<desc>
			Created with Pixso.
	</desc>
	<defs/>
	<path id="path" d="M38.25 0C34.72 0 31.46 0.87 28.46 2.62C25.47 4.37 23.09 6.74 21.34 9.74C19.59 12.74 18.72 16 18.72 19.53C18.72 23.05 19.59 26.31 21.34 29.31C23.09 32.31 25.47 34.68 28.46 36.43C31.46 38.18 34.72 39.06 38.25 39.06C41.77 39.06 45.03 38.18 48.03 36.43C51.03 34.68 53.4 32.31 55.15 29.31C56.9 26.31 57.78 23.05 57.78 19.53C57.78 16 56.9 12.74 55.15 9.74C53.4 6.74 51.03 4.37 48.03 2.62C45.03 0.87 41.77 0 38.25 0Z" fill="#0A58F7" fill-opacity="1.000000" fill-rule="nonzero"/>
	<path id="path" d="M36.02 27.26C36.5 27.26 36.97 27.17 37.42 26.98C37.89 26.79 38.3 26.54 38.66 26.21L49.46 15.36C49.74 15.06 49.88 14.68 49.88 14.24C49.88 13.79 49.74 13.41 49.46 13.1C49.15 12.82 48.77 12.68 48.32 12.67C47.88 12.64 47.5 12.79 47.19 13.1L36.53 23.81C36.41 23.92 36.25 23.97 36.04 23.97C35.83 23.97 35.65 23.92 35.51 23.81L30.18 18.44C29.87 18.13 29.49 17.97 29.04 17.99C28.6 18.01 28.22 18.16 27.92 18.44C27.64 18.74 27.49 19.12 27.47 19.56C27.45 20.02 27.6 20.39 27.92 20.7L33.41 26.16C33.75 26.52 34.15 26.79 34.6 26.98C35.07 27.17 35.54 27.26 36.02 27.26Z" fill="#FFFFFF" fill-opacity="1.000000" fill-rule="nonzero"/>
	<g opacity="0.300000">
		<path id="path" d="M3 7.89L3 5.72C3 5.67 2.98 5.62 2.95 5.58C2.91 5.54 2.86 5.53 2.81 5.53C2.75 5.53 2.71 5.54 2.67 5.58C2.63 5.62 2.61 5.67 2.61 5.72L2.61 7.89L0.44 7.89C0.39 7.89 0.34 7.91 0.3 7.95C0.26 7.99 0.25 8.03 0.25 8.09C0.25 8.14 0.26 8.19 0.3 8.23C0.34 8.27 0.39 8.28 0.44 8.28L2.61 8.28L2.61 10.46C2.61 10.51 2.63 10.56 2.67 10.6C2.71 10.63 2.75 10.65 2.81 10.65C2.86 10.65 2.91 10.63 2.95 10.6C2.98 10.56 3 10.51 3 10.46L3 8.28L5.18 8.28C5.23 8.28 5.28 8.27 5.32 8.23C5.35 8.19 5.37 8.14 5.37 8.09C5.37 8.03 5.35 7.99 5.32 7.95C5.28 7.91 5.23 7.89 5.18 7.89L3 7.89Z" fill="#0A59F7" fill-opacity="1.000000" fill-rule="nonzero"/>
		<path id="path" d="M3 5.72C3 5.67 2.98 5.62 2.95 5.58C2.91 5.54 2.86 5.53 2.81 5.53C2.75 5.53 2.71 5.54 2.67 5.58C2.63 5.62 2.61 5.67 2.61 5.72L2.61 7.89L0.44 7.89C0.39 7.89 0.34 7.91 0.3 7.95C0.26 7.99 0.25 8.03 0.25 8.09C0.25 8.14 0.26 8.19 0.3 8.23C0.34 8.27 0.39 8.28 0.44 8.28L2.61 8.28L2.61 10.46C2.61 10.51 2.63 10.56 2.67 10.6C2.71 10.63 2.75 10.65 2.81 10.65C2.86 10.65 2.91 10.63 2.95 10.6C2.98 10.56 3 10.51 3 10.46L3 8.28L5.18 8.28C5.23 8.28 5.28 8.27 5.32 8.23C5.35 8.19 5.37 8.14 5.37 8.09C5.37 8.03 5.35 7.99 5.32 7.95C5.28 7.91 5.23 7.89 5.18 7.89L3 7.89L3 5.72Z" stroke="#0A59F7" stroke-opacity="1.000000" stroke-width="0.500000"/>
	</g>
	<g opacity="0.300000">
		<path id="path" d="M66.19 24.85C66.22 24.81 66.24 24.77 66.24 24.72C66.24 24.67 66.22 24.62 66.19 24.59C66.15 24.55 66.11 24.53 66.06 24.53C66 24.53 65.96 24.55 65.92 24.59L64.24 26.27L62.56 24.59C62.53 24.55 62.48 24.53 62.43 24.53C62.38 24.53 62.33 24.55 62.29 24.59C62.26 24.62 62.25 24.67 62.25 24.72C62.25 24.77 62.26 24.81 62.29 24.85L63.98 26.53L62.29 28.21C62.26 28.25 62.25 28.29 62.25 28.34C62.25 28.39 62.26 28.44 62.29 28.48C62.33 28.51 62.38 28.52 62.43 28.53C62.48 28.53 62.53 28.51 62.56 28.48L64.24 26.8L65.92 28.48C65.96 28.51 66 28.53 66.06 28.53C66.11 28.53 66.15 28.51 66.19 28.48C66.22 28.44 66.24 28.39 66.24 28.34C66.24 28.29 66.22 28.25 66.19 28.21L64.51 26.53L66.19 24.85Z" fill="#0A59F7" fill-opacity="1.000000" fill-rule="nonzero"/>
		<path id="path" d="M66.24 24.72C66.24 24.67 66.22 24.62 66.19 24.59C66.15 24.55 66.11 24.53 66.06 24.53C66 24.53 65.96 24.55 65.92 24.59L64.24 26.27L62.56 24.59C62.53 24.55 62.48 24.53 62.43 24.53C62.38 24.53 62.33 24.55 62.29 24.59C62.26 24.62 62.25 24.67 62.25 24.72C62.25 24.77 62.26 24.81 62.29 24.85L63.98 26.53L62.29 28.21C62.26 28.25 62.25 28.29 62.25 28.34C62.25 28.39 62.26 28.44 62.29 28.48C62.33 28.51 62.38 28.52 62.43 28.53C62.48 28.53 62.53 28.51 62.56 28.48L64.24 26.8L65.92 28.48C65.96 28.51 66 28.53 66.06 28.53C66.11 28.53 66.15 28.51 66.19 28.48C66.22 28.44 66.24 28.39 66.24 28.34C66.24 28.29 66.22 28.25 66.19 28.21L64.51 26.53L66.19 24.85C66.22 24.81 66.24 24.77 66.24 24.72Z" stroke="#0A59F7" stroke-opacity="1.000000" stroke-width="0.500000"/>
	</g>
	<g opacity="0.400000">
		<path id="path" d="M6.74 34C7.29 34 7.79 34.14 8.25 34.41C8.72 34.68 9.09 35.05 9.36 35.51C9.63 35.97 9.76 36.48 9.76 37.02C9.76 37.57 9.63 38.07 9.36 38.53C9.09 39 8.72 39.37 8.25 39.64C7.79 39.91 7.29 40.05 6.74 40.05C6.2 40.05 5.69 39.91 5.23 39.64C4.77 39.37 4.4 39 4.13 38.53C3.85 38.07 3.72 37.57 3.72 37.02C3.72 36.48 3.85 35.97 4.13 35.51C4.4 35.05 4.77 34.68 5.23 34.41C5.69 34.14 6.2 34 6.74 34ZM6.74 33.53C6.11 33.53 5.53 33.68 4.99 33.99C4.45 34.31 4.03 34.73 3.71 35.27C3.4 35.81 3.25 36.39 3.25 37.02C3.25 37.65 3.4 38.24 3.71 38.78C4.03 39.31 4.45 39.74 4.99 40.05C5.53 40.36 6.11 40.52 6.74 40.52C7.37 40.52 7.96 40.36 8.5 40.05C9.03 39.74 9.46 39.31 9.77 38.78C10.08 38.24 10.24 37.65 10.24 37.02C10.24 36.39 10.08 35.81 9.77 35.27C9.46 34.73 9.03 34.31 8.5 33.99C7.96 33.68 7.37 33.53 6.74 33.53ZM4.79 36.83C4.86 36.83 4.92 36.81 4.97 36.76C5.02 36.72 5.04 36.66 5.04 36.6C5.04 36.35 5.1 36.12 5.22 35.92C5.34 35.71 5.51 35.54 5.71 35.42C5.92 35.3 6.15 35.23 6.4 35.23C6.46 35.23 6.52 35.21 6.57 35.16C6.61 35.12 6.63 35.06 6.63 34.99C6.63 34.92 6.61 34.87 6.57 34.82C6.52 34.78 6.46 34.75 6.4 34.75C6.07 34.75 5.76 34.84 5.48 35C5.2 35.17 4.97 35.39 4.81 35.67C4.64 35.96 4.56 36.27 4.56 36.6C4.56 36.66 4.58 36.72 4.63 36.76C4.67 36.81 4.73 36.83 4.79 36.83Z" fill="#0A59F7" fill-opacity="1.000000" fill-rule="nonzero"/>
		<path id="path" d="M8.25 34.41C8.72 34.68 9.09 35.05 9.36 35.51C9.63 35.97 9.76 36.48 9.76 37.02C9.76 37.57 9.63 38.07 9.36 38.53C9.09 39 8.72 39.37 8.25 39.64C7.79 39.91 7.29 40.05 6.74 40.05C6.2 40.05 5.69 39.91 5.23 39.64C4.77 39.37 4.4 39 4.13 38.53C3.85 38.07 3.72 37.57 3.72 37.02C3.72 36.48 3.85 35.97 4.13 35.51C4.4 35.05 4.77 34.68 5.23 34.41C5.69 34.14 6.2 34 6.74 34C7.29 34 7.79 34.14 8.25 34.41ZM4.99 33.99C4.45 34.31 4.03 34.73 3.71 35.27C3.4 35.81 3.25 36.39 3.25 37.02C3.25 37.65 3.4 38.24 3.71 38.78C4.03 39.31 4.45 39.74 4.99 40.05C5.53 40.36 6.11 40.52 6.74 40.52C7.37 40.52 7.96 40.36 8.5 40.05C9.03 39.74 9.46 39.31 9.77 38.78C10.08 38.24 10.24 37.65 10.24 37.02C10.24 36.39 10.08 35.81 9.77 35.27C9.46 34.73 9.03 34.31 8.5 33.99C7.96 33.68 7.37 33.53 6.74 33.53C6.11 33.53 5.53 33.68 4.99 33.99ZM4.97 36.76C5.02 36.72 5.04 36.66 5.04 36.6C5.04 36.35 5.1 36.12 5.22 35.92C5.34 35.71 5.51 35.54 5.71 35.42C5.92 35.3 6.15 35.23 6.4 35.23C6.46 35.23 6.52 35.21 6.57 35.16C6.61 35.12 6.63 35.06 6.63 34.99C6.63 34.92 6.61 34.87 6.57 34.82C6.52 34.78 6.46 34.75 6.4 34.75C6.07 34.75 5.76 34.84 5.48 35C5.2 35.17 4.97 35.39 4.81 35.67C4.64 35.96 4.56 36.27 4.56 36.6C4.56 36.66 4.58 36.72 4.63 36.76C4.67 36.81 4.73 36.83 4.79 36.83C4.86 36.83 4.92 36.81 4.97 36.76Z" stroke="#0A59F7" stroke-opacity="1.000000" stroke-width="0.500000"/>
	</g>
	<g opacity="0.400000">
		<path id="path" d="M69.74 5.86C70.13 5.86 70.49 5.96 70.82 6.16C71.15 6.35 71.42 6.61 71.61 6.94C71.8 7.27 71.9 7.63 71.9 8.02C71.9 8.41 71.8 8.77 71.61 9.1C71.42 9.43 71.15 9.7 70.82 9.89C70.49 10.09 70.13 10.18 69.74 10.18C69.35 10.18 68.99 10.09 68.66 9.89C68.33 9.7 68.07 9.43 67.87 9.1C67.68 8.77 67.58 8.41 67.58 8.02C67.58 7.63 67.68 7.27 67.87 6.94C68.07 6.61 68.33 6.35 68.66 6.16C68.99 5.96 69.35 5.86 69.74 5.86ZM69.74 5.53C69.29 5.53 68.87 5.64 68.49 5.86C68.11 6.08 67.8 6.39 67.58 6.77C67.36 7.15 67.25 7.57 67.25 8.02C67.25 8.47 67.36 8.89 67.58 9.28C67.8 9.66 68.11 9.96 68.49 10.19C68.87 10.41 69.29 10.52 69.74 10.52C70.19 10.52 70.61 10.41 71 10.19C71.38 9.96 71.68 9.66 71.91 9.28C72.13 8.89 72.24 8.47 72.24 8.02C72.24 7.57 72.13 7.15 71.91 6.77C71.68 6.39 71.38 6.08 71 5.86C70.61 5.64 70.19 5.53 69.74 5.53ZM68.35 7.89C68.4 7.89 68.44 7.87 68.47 7.84C68.51 7.81 68.53 7.77 68.53 7.72C68.53 7.54 68.57 7.38 68.66 7.23C68.74 7.08 68.86 6.97 69.01 6.88C69.16 6.79 69.32 6.75 69.5 6.75C69.54 6.75 69.58 6.73 69.62 6.7C69.65 6.66 69.67 6.62 69.67 6.57C69.67 6.52 69.65 6.48 69.62 6.45C69.58 6.42 69.54 6.4 69.5 6.4C69.26 6.4 69.04 6.46 68.84 6.58C68.64 6.7 68.48 6.86 68.36 7.06C68.24 7.26 68.18 7.48 68.18 7.72C68.18 7.77 68.2 7.81 68.23 7.84C68.26 7.87 68.3 7.89 68.35 7.89Z" fill="#0A59F7" fill-opacity="1.000000" fill-rule="nonzero"/>
		<path id="path" d="M70.82 6.16C71.15 6.35 71.42 6.61 71.61 6.94C71.8 7.27 71.9 7.63 71.9 8.02C71.9 8.41 71.8 8.77 71.61 9.1C71.42 9.43 71.15 9.7 70.82 9.89C70.49 10.09 70.13 10.18 69.74 10.18C69.35 10.18 68.99 10.09 68.66 9.89C68.33 9.7 68.07 9.43 67.87 9.1C67.68 8.77 67.58 8.41 67.58 8.02C67.58 7.63 67.68 7.27 67.87 6.94C68.07 6.61 68.33 6.35 68.66 6.16C68.99 5.96 69.35 5.86 69.74 5.86C70.13 5.86 70.49 5.96 70.82 6.16ZM68.49 5.86C68.11 6.08 67.8 6.39 67.58 6.77C67.36 7.15 67.25 7.57 67.25 8.02C67.25 8.47 67.36 8.89 67.58 9.28C67.8 9.66 68.11 9.96 68.49 10.19C68.87 10.41 69.29 10.52 69.74 10.52C70.19 10.52 70.61 10.41 71 10.19C71.38 9.96 71.68 9.66 71.91 9.28C72.13 8.89 72.24 8.47 72.24 8.02C72.24 7.57 72.13 7.15 71.91 6.77C71.68 6.39 71.38 6.08 71 5.86C70.61 5.64 70.19 5.53 69.74 5.53C69.29 5.53 68.87 5.64 68.49 5.86ZM68.47 7.84C68.51 7.81 68.53 7.77 68.53 7.72C68.53 7.54 68.57 7.38 68.66 7.23C68.74 7.08 68.86 6.97 69.01 6.88C69.16 6.79 69.32 6.75 69.5 6.75C69.54 6.75 69.58 6.73 69.62 6.7C69.65 6.66 69.67 6.62 69.67 6.57C69.67 6.52 69.65 6.48 69.62 6.45C69.58 6.42 69.54 6.4 69.5 6.4C69.26 6.4 69.04 6.46 68.84 6.58C68.64 6.7 68.48 6.86 68.36 7.06C68.24 7.26 68.18 7.48 68.18 7.72C68.18 7.77 68.2 7.81 68.23 7.84C68.26 7.87 68.3 7.89 68.35 7.89C68.4 7.89 68.44 7.87 68.47 7.84Z" stroke="#0A59F7" stroke-opacity="1.000000" stroke-width="0.200000"/>
	</g>
</svg>
