<svg width="112.000122" height="24.000000" viewBox="0 0 112 24" fill="none" xmlns="http://www.w3.org/2000/svg" xmlns:xlink="http://www.w3.org/1999/xlink">
	<desc>
			Created with Pixso.
	</desc>
	<defs/>
	<g opacity="0.050000">
		<rect id="矩形" rx="12.000000" width="112.000000" height="24.000000" fill="#000000" fill-opacity="1.000000"/>
		<rect id="矩形" x="0.500000" y="0.500000" rx="11.500000" width="111.000000" height="23.000000" stroke="#979797" stroke-opacity="0" stroke-width="1.000000"/>
	</g>
	<path id="3D" d="M18.17 15.91Q18.49 15.35 18.49 14.61Q18.49 13.79 18.11 13.23Q18.11 13.22 18.1 13.22Q18.07 13.17 18.04 13.13Q17.65 12.63 16.92 12.4Q17.48 12.17 17.79 11.75Q17.83 11.69 17.86 11.63Q17.91 11.56 17.94 11.49Q18.17 11.04 18.17 10.47Q18.17 9.8 17.88 9.29Q17.72 9.02 17.49 8.8Q17.37 8.69 17.24 8.6Q16.61 8.16 15.68 8.16Q14.92 8.16 14.31 8.46Q14.14 8.55 13.98 8.66Q13.84 8.75 13.72 8.86Q13.2 9.34 12.96 10.13L13.83 10.62Q14.07 9.9 14.52 9.52Q14.66 9.4 14.82 9.31Q15.17 9.13 15.61 9.13Q16.1 9.13 16.45 9.36Q16.55 9.42 16.63 9.5Q16.73 9.59 16.81 9.7Q17.03 10.02 17.03 10.49Q17.03 10.89 16.87 11.2Q16.76 11.42 16.57 11.6Q16.11 12.03 15.22 12.03L14.8 12.03L14.79 12.99L15.16 12.99Q16.59 12.99 17.09 13.67Q17.35 14.03 17.35 14.6Q17.35 15.2 17.07 15.6Q16.99 15.72 16.88 15.81Q16.73 15.95 16.55 16.05Q16.18 16.25 15.7 16.25Q15.44 16.25 15.19 16.19Q14.83 16.1 14.49 15.88Q14.37 15.8 14.26 15.7Q13.88 15.36 13.71 14.8L12.84 15.29Q13 15.84 13.34 16.24Q13.59 16.53 13.93 16.73Q14.3 16.96 14.7 17.08Q15.18 17.22 15.7 17.22Q16.34 17.22 16.89 17.01Q16.99 16.97 17.09 16.92Q17.4 16.77 17.66 16.55Q17.92 16.32 18.11 16.02Q18.14 15.97 18.17 15.91ZM26.37 15.06Q26.96 14.07 26.96 12.69Q26.96 11.32 26.37 10.33Q26.07 9.82 25.65 9.44Q25.25 9.08 24.75 8.82Q24.75 8.82 24.74 8.82Q23.72 8.31 22.44 8.31L20.04 8.31L20.04 17.09L22.44 17.09Q23.74 17.09 24.76 16.57Q25.29 16.3 25.7 15.91Q26.09 15.54 26.37 15.06ZM24.7 15.41Q23.79 16.14 22.3 16.14L21.11 16.14L21.11 9.24L22.3 9.24Q23.75 9.24 24.65 9.95Q24.77 10.04 24.88 10.15Q25.02 10.29 25.15 10.45Q25.82 11.31 25.82 12.69Q25.82 14.13 25.11 15Q25.01 15.13 24.88 15.24Q24.79 15.33 24.7 15.41Z" fill="#000000" fill-opacity="1.000000" fill-rule="evenodd"/>
	<g opacity="0.400000">
		<mask id="mask38_549" mask-type="alpha" maskUnits="userSpaceOnUse" x="32.499878" y="9.796753" width="3.371320" height="6.406538">
			<path id="路径" d="M33.12 9.89L33.14 9.9L35.61 12.38C35.94 12.71 35.95 13.25 35.63 13.59L35.61 13.61L33.14 16.09C33.07 16.15 32.99 16.19 32.9 16.2L32.88 16.2L32.86 16.2C32.77 16.2 32.68 16.16 32.6 16.09C32.46 15.95 32.46 15.72 32.59 15.57L32.6 15.56L34.9 13.26C35.04 13.12 35.05 12.89 34.92 12.75L34.9 12.73L32.6 10.43C32.46 10.29 32.46 10.05 32.6 9.9C32.68 9.83 32.77 9.79 32.86 9.79L32.88 9.79C32.97 9.79 33.05 9.83 33.12 9.89Z" fill="#000000" fill-opacity="1.000000" fill-rule="evenodd"/>
		</mask>
		<g mask="url(#mask38_549)">
			<rect id="color/#000000" x="31.000122" y="7.000000" width="6.000000" height="12.000000" fill="#000000" fill-opacity="0.901961"/>
		</g>
	</g>
	<path id="机型对比" d="M48.34 9.16L46.61 9.16L46.61 10L48.34 10Q47.9 11.38 47.23 12.62Q46.82 13.37 46.32 14.08L46.79 14.92Q47.71 13.64 48.31 12.23Q48.32 12.19 48.34 12.16L48.34 17.73L49.24 17.73L49.24 11.92Q49.98 12.71 50.64 13.56L51.25 13Q50.45 12.11 49.65 11.21L49.24 11.6L49.24 10L50.91 10L50.91 9.16L49.24 9.16L49.24 6.9L48.34 6.9L48.34 9.16ZM78.06 16.51L76.61 16.51L76.79 17.45L78.29 17.45Q78.57 17.45 78.86 17.41Q79 17.39 79.14 17.36Q79.37 17.26 79.56 17.13Q79.67 17.03 79.76 16.91Q79.84 16.8 79.88 16.66Q79.98 16.27 79.98 15.9L79.98 10.19L81.53 10.19L81.53 9.29L79.98 9.29L79.98 6.9L79.04 6.9L79.04 9.29L75.53 9.29L75.53 10.19L79.04 10.19L79.04 15.63Q79.04 15.86 79 16.1Q78.95 16.27 78.85 16.37Q78.72 16.47 78.62 16.47Q78.34 16.51 78.06 16.51ZM89.22 7L88.27 7L88.27 15.67Q88.26 15.78 88.26 15.89Q88.26 16.15 88.32 16.42Q88.41 16.61 88.56 16.79Q88.69 16.95 88.86 17.03Q88.94 17.06 89.03 17.08Q89.35 17.17 89.74 17.17L91.37 17.17Q91.79 17.17 92.22 17.08Q92.45 17.03 92.69 16.89Q92.87 16.71 93.01 16.42Q93.11 16.1 93.15 15.71L93.2 13.79L92.3 13.61Q92.3 14.5 92.25 15.34Q92.25 15.63 92.17 15.86Q92.12 16 92.08 16.1Q92.04 16.12 92 16.14Q91.88 16.2 91.75 16.23Q91.46 16.27 91.24 16.27L90.11 16.27Q89.82 16.27 89.64 16.23Q89.53 16.2 89.45 16.14Q89.42 16.12 89.4 16.1Q89.36 16.07 89.32 16.03Q89.24 15.94 89.22 15.81Q89.21 15.77 89.21 15.73Q89.18 15.54 89.22 15.34L89.22 12.63Q91.32 11.17 93.25 9.44L92.59 8.73Q91.88 9.39 91.14 10.05Q90.2 10.79 89.22 11.5L89.22 7ZM67.32 12.34Q67.09 12.39 66.85 12.39L65.91 12.39L66.06 13.19L67.14 13.19Q67.51 13.19 67.88 13.14Q68.08 13.1 68.25 12.95Q68.45 12.76 68.54 12.53Q68.59 12.37 68.61 12.21Q68.64 12.04 68.64 11.87L68.64 7.1L67.75 7.1L67.75 11.64Q67.75 11.82 67.7 12.06Q67.65 12.16 67.61 12.21Q67.46 12.34 67.32 12.34ZM83.3 16.47L83.74 17.4Q84.15 17.17 84.62 16.98L87.67 15.76L87.62 14.82L84.67 15.95L84.67 11.36L87.62 11.36L87.62 10.42L84.67 10.42L84.67 7.14L83.74 7.14L83.74 15.9Q83.74 16.08 83.66 16.2Q83.65 16.21 83.64 16.23Q83.5 16.37 83.3 16.47ZM60.29 10.23L58.7 10.23L58.7 11.03L60.2 11.03Q60.17 11.47 60.01 11.86Q59.95 12.01 59.87 12.16Q59.72 12.43 59.53 12.66Q59.49 12.71 59.45 12.76Q59.17 13.1 58.84 13.42L59.54 13.94Q60.2 13.37 60.62 12.67Q60.77 12.4 60.88 12.12Q61.06 11.6 61.09 11.03L62.77 11.03L62.77 13.23L63.67 13.23L63.67 11.03L65.17 11.03L65.17 10.23L63.67 10.23L63.67 8.4L64.93 8.4L64.93 7.61L59.03 7.61L59.03 8.4L60.29 8.4L60.29 10.23ZM49.75 17.22L50.54 17.73Q51.11 17.17 51.53 16.47Q51.8 16 52.04 15.48Q52.27 14.69 52.37 13.84Q52.46 12.76 52.46 11.69L52.46 8.64L54.62 8.64L54.62 16.14Q54.62 16.42 54.67 16.71Q54.72 16.89 54.8 17.03Q54.86 17.08 54.92 17.13Q55.02 17.2 55.14 17.26Q55.37 17.31 55.65 17.31L56.22 17.31Q56.5 17.31 56.77 17.26Q56.96 17.22 57.15 17.08Q57.25 16.94 57.29 16.74Q57.38 16.47 57.38 16.19Q57.38 15.06 57.43 13.94L56.59 13.74Q56.54 14.77 56.54 15.81Q56.54 16.05 56.45 16.32Q56.4 16.37 56.3 16.42L55.7 16.42Q55.65 16.37 55.61 16.32Q55.56 16.23 55.51 16.19L55.51 7.71L51.58 7.71L51.58 11.69Q51.58 12.71 51.48 13.71Q51.38 14.26 51.25 14.82Q51.12 15.28 50.9 15.69Q50.8 15.87 50.69 16.05Q50.25 16.71 49.75 17.22ZM65.54 7.74L65.54 11.87L66.38 11.87L66.38 7.74L65.54 7.74ZM71.54 9.9L70.84 10.42L72.9 13.23Q72.43 14.08 71.87 14.87Q71.19 15.81 70.37 16.66L71.03 17.36Q71.33 17.03 71.62 16.69Q72.67 15.47 73.51 14.08Q74.3 15.21 75.06 16.32L75.85 15.71Q74.91 14.45 73.98 13.19Q74.67 11.65 75.06 10.03Q75.17 9.57 75.25 9.11L75.25 8.17L70.7 8.17L70.7 9.06L74.35 9.06Q74.12 10.51 73.58 11.84Q73.48 12.09 73.37 12.34Q72.43 11.13 71.54 9.9ZM61.14 10.23L61.14 8.4L62.77 8.4L62.77 10.23L61.14 10.23ZM76.27 11.03L75.58 11.5Q76.51 12.86 77.4 14.26L78.2 13.79Q77.25 12.39 76.27 11.03ZM59.82 14.17L59.82 14.97L63.62 14.97L63.62 16.47L58.65 16.47L58.65 17.26L69.38 17.26L69.38 16.47L64.51 16.47L64.51 14.97L68.22 14.97L68.22 14.17L64.51 14.17L64.51 13.37L63.62 13.37L63.62 14.17L59.82 14.17Z" fill="#000000" fill-opacity="1.000000" fill-rule="evenodd"/>
	<g opacity="0.400000">
		<mask id="mask38_552" mask-type="alpha" maskUnits="userSpaceOnUse" x="99.499878" y="9.796753" width="3.371320" height="6.406538">
			<path id="路径" d="M100.12 9.89L100.14 9.9L102.61 12.38C102.95 12.71 102.95 13.25 102.63 13.59L102.61 13.61L100.14 16.09C100.07 16.15 99.99 16.19 99.9 16.2L99.88 16.2L99.86 16.2C99.77 16.2 99.68 16.16 99.6 16.09C99.46 15.95 99.46 15.72 99.59 15.57L99.6 15.56L101.9 13.26C102.04 13.12 102.05 12.89 101.92 12.75L101.9 12.73L99.6 10.43C99.46 10.29 99.46 10.05 99.6 9.9C99.68 9.83 99.77 9.79 99.86 9.79L99.88 9.79C99.97 9.79 100.05 9.83 100.12 9.89Z" fill="#000000" fill-opacity="1.000000" fill-rule="evenodd"/>
		</mask>
		<g mask="url(#mask38_552)">
			<rect id="color/#000000" x="98.000122" y="7.000000" width="6.000000" height="12.000000" fill="#000000" fill-opacity="0.901961"/>
		</g>
	</g>
</svg>
